<svg width="604" height="192" viewBox="0 0 604 192"
   xmlns:xlink="http://www.w3.org/1999/xlink"
   xmlns="http://www.w3.org/2000/svg">
  <defs>
    <linearGradient id="gradient-blueish" x1="40%" y1="0%" x2="0%" y2="100%" spreadMethod="pad">
      <stop offset="0%"   stop-color="#478bf2" />
      <stop offset="80%" stop-color="#0014d1" />
    </linearGradient>
  </defs>
    <g>
      <path
        fill="url(#gradient-blueish)" d="m 89.439998,188.13763 c -7.797072,-0.61225 -17.492592,-2.64514 -22.079999,-4.62959 -0.528,-0.2284 -1.896,-0.73539 -3.04,-1.12664 C 41.793058,174.67718 19.618367,151.97143 11.366766,128.16 11.061811,127.28 10.68536,126.272 10.530208,125.92 10.261511,125.3104 10.064571,124.60934 8.5974803,119.04 6.3144189,110.37309 5.2708631,92.13612 6.683977,85.600003 c 0.1902568,-0.88 0.5618889,-2.896 0.8258493,-4.48 0.2639604,-1.584 0.6876976,-3.744 0.9416382,-4.8 0.9030285,-3.755201 1.7933075,-7.049275 2.0756505,-7.680001 0.157572,-0.352 0.749009,-1.936 1.314305,-3.52 C 15.777839,54.089868 23.49521,42.111638 32.473022,33.097427 35.790059,29.766942 37.458641,28.2582 41.637425,24.810916 46.036062,21.182265 59.423517,13.605853 63.68548,12.333178 64.122465,12.202689 65.775999,11.623266 67.359999,11.045571 72.588115,9.1388439 78.829458,7.5939379 84.511059,6.800206 89.478429,6.1062538 104.20979,6.0170796 108.64,6.6541449 c 7.09754,1.0206279 13.50091,2.5463302 18.49989,4.4078821 1.61706,0.602172 3.19211,1.095559 3.50011,1.096416 0.308,8.57e-4 0.56,0.129947 0.56,0.286867 0,0.15692 0.396,0.383781 0.88,0.504136 1.37256,0.341311 9.55777,4.464519 12.4,6.246364 1.408,0.882702 2.97005,1.85675 3.47123,2.164551 7.45639,4.579401 19.90376,16.864214 24.04877,23.734703 0.176,0.291726 0.82804,1.244679 1.44899,2.117674 5.09063,7.156948 0.64746,16.456827 -7.90343,16.542442 -4.44428,0.0445 -6.26933,-1.194206 -10.66314,-7.237301 -5.14464,-7.075757 -9.75318,-11.659419 -17.62862,-17.53346 -0.63041,-0.470202 -1.67441,-1.154051 -2.32,-1.519665 -0.64559,-0.365614 -1.6418,-0.92967 -2.2138,-1.253458 -6.81174,-3.855872 -11.71606,-5.888643 -18,-7.46074 -18.365407,-4.594602 -37.959736,-1.733864 -53.920001,7.872228 -5.462974,3.288029 -14.632171,11.195453 -18.016466,15.537218 -0.480157,0.616 -1.496042,1.912 -2.257524,2.88 -2.015439,2.562036 -5.883638,9.046172 -7.132872,11.956598 -0.594106,1.384129 -1.283442,2.896129 -1.531859,3.360001 -0.443542,0.828231 -1.825187,4.892863 -2.842878,8.363402 -2.224833,7.587141 -3.070797,20.701254 -1.826864,28.319997 0.576564,3.53131 1.264413,6.8502 1.729339,8.34412 0.269739,0.86674 0.846083,2.72788 1.280765,4.13588 1.107793,3.58831 1.548275,4.635 4.410338,10.48 0.754075,1.54 1.482866,2.8 1.619534,2.8 0.136668,0 0.248487,0.16132 0.248487,0.35849 0,1.78558 11.09416,15.11962 14.884937,17.89015 0.354716,0.25925 1.362716,1.06226 2.24,1.78447 3.232089,2.66074 12.453841,8.2895 14.654091,8.94453 0.385535,0.11478 1.348972,0.50134 2.140972,0.85902 2.391085,1.07987 2.659066,1.18531 4.319999,1.69979 14.124224,4.375 28.155212,4.72953 41.280002,1.04305 3.81309,-1.07102 4.46943,-1.27842 4.8,-1.51674 0.176,-0.12688 0.95698,-0.41318 1.73552,-0.63621 1.52028,-0.43551 6.97168,-3.07774 10.10448,-4.89752 1.056,-0.6134 2.41191,-1.38837 3.01313,-1.72215 0.60122,-0.33378 1.39322,-0.8445 1.76,-1.13494 8.20418,-6.49655 11.2283,-9.33716 14.59777,-13.71194 0.61001,-0.792 1.18585,-1.512 1.27966,-1.6 0.0938,-0.088 0.69474,-0.88 1.33541,-1.76 7.64424,-10.49983 22.60765,-4.24581 18.99014,7.937 -1.72632,5.81379 -16.45601,21.09321 -26.09873,27.07278 -0.96656,0.59937 -2.64348,1.65123 -3.72649,2.33746 -4.10255,2.5995 -14.37985,7.27744 -18.56522,8.45037 -1.02612,0.28757 -2.87367,0.80637 -4.10567,1.15289 -3.20112,0.90038 -5.93552,1.47417 -9.6,2.01448 -1.76,0.2595 -4.0806,0.61655 -5.1569,0.79343 -2.22958,0.36641 -12.147279,0.35424 -16.923102,-0.0208 z"/>
      <path fill="#0014d1" d=" M 502.39999,147.84001 V 127.04 h 2.1287 2.12869 l 1.63297,1.68 c 0.89813,0.924 4.29622,4.68889 7.5513,8.36642 16.02009,18.09917 18.24261,20.58702 19.24194,21.53908 l 1.0764,1.02549 -0.0937,-16.30549 -0.0937,-16.3055 h 2.73374 2.73374 v 20.80001 20.8 l -1.84,-0.005 c -2.50006,-0.006 -2.66292,-0.12826 -7.47822,-5.59528 -2.32529,-2.64 -5.40609,-6.096 -6.84623,-7.68 -1.44013,-1.584 -4.38821,-4.896 -6.55128,-7.36 -2.16306,-2.464 -5.1239,-5.77604 -6.57963,-7.36007 -1.45573,-1.58404 -2.95825,-3.27604 -3.33894,-3.76 C 508.42501,136.39597 507.97999,136 507.81676,136 c -0.17848,0 -0.29677,6.50481 -0.29677,16.32001 v 16.32 h -2.56 -2.56 z m -236.48,-0.63307 v -20.55863 l 12.4,0.17453 c 12.70577,0.17883 14.00072,0.29877 17.66952,1.63657 10.15597,3.70328 9.42686,14.37786 -1.18356,17.32782 -2.22867,0.61962 -2.30871,0.93192 -0.32428,1.26524 14.38561,2.41627 14.2749,15.53106 -0.16498,19.54318 -2.88371,0.80124 -3.27068,0.82582 -15.6767,0.99572 l -12.72,0.1742 z m 24.28202,15.86186 c 9.32267,-1.7779 10.89661,-10.33307 2.45485,-13.34336 -1.75228,-0.62485 -2.76789,-0.70535 -10.65687,-0.84469 l -8.72,-0.15402 v 7.39664 7.39664 l 7.28,-3.8e-4 c 4.92542,-2.6e-4 8.04395,-0.14607 9.64202,-0.45083 z m -0.44202,-18.60404 c 4.5713,-1.50337 6.23651,-3.23163 6.23881,-6.47503 0.004,-5.48509 -2.78593,-6.84153 -14.47881,-7.03978 l -8.24,-0.13971 v 7.28488 7.28488 l 7.44,-0.19452 c 5.62096,-0.14697 7.8312,-0.32318 9.04,-0.72072 z m 30.24,2.73525 V 126.72 h 17.12 17.12 v 2.08 2.08 h -13.44 -13.44 v 7.04 7.04001 h 10.88 10.88 v 2.08 2.08 h -10.88 -10.88 v 7.2 7.2 h 13.44 13.44 v 2.08 2.08 h -17.12 -17.12 z m 48.64,-0.0399 v -20.51989 l 11.44,0.18466 c 13.5647,0.21896 16.35439,0.68904 20.4,3.43752 7.88774,5.35874 4.08113,16.11174 -6.56,18.53083 -3.02643,0.68801 -3.15708,0.77046 -2.20721,1.39284 0.44587,0.29215 4.65554,4.3478 9.3548,9.01255 l 8.54412,8.48138 h -3.16586 c -5.15414,0 -4.33529,0.52397 -13.13572,-8.40534 -8.98146,-9.11301 -8.61568,-8.87466 -13.61985,-8.87466 h -3.69028 v 8.64 8.64 h -3.68 -3.68 z m 21.12,-1.05238 c 9.44819,-2.30551 10.97461,-11.00938 2.51442,-14.33749 -1.51563,-0.59623 -2.55854,-0.69131 -8.99442,-0.82003 l -7.28,-0.1456 v 7.87769 7.8777 l 6,-0.0114 c 3.89436,-0.007 6.61766,-0.16212 7.76,-0.44087 z m 31.68,1.09227 V 126.72 h 3.52 3.52 v 18.24001 18.24 h 12.16 12.16 v 2.24 2.24 h -15.68 -15.68 z m 54.4,0 V 126.72 h 3.52 3.52 v 20.48001 20.48 h -3.52 -3.52 z m -383.199992,7.36 c -0.352,-0.15126 -1.244912,-0.28514 -1.984249,-0.29751 -1.30288,-0.0218 -3.014932,-0.29538 -6.335751,-1.01244 -1.901836,-0.41066 -7.781767,-2.18604 -8.47392,-2.5586 -0.267344,-0.14391 -1.854079,-0.91549 -3.526079,-1.71464 C 64.119148,145.05715 56.760846,139.09505 51.7625,132.32 c -1.168609,-1.584 -2.437309,-3.28217 -2.819332,-3.77373 -0.789704,-1.01611 -4.783169,-8.68476 -4.783169,-9.18511 0,-0.18047 -0.274831,-0.93856 -0.610736,-1.68464 -12.132161,-26.94687 2.735784,-60.654258 32.610735,-73.932394 17.431003,-7.747334 44.231292,-3.358241 58.076672,9.511237 12.82352,11.919652 15.92713,19.421472 10.48786,25.350502 -5.4552,5.946395 -12.13774,4.715289 -17.96787,-3.310172 -6.9653,-9.58807 -19.71025,-15.607646 -31.555003,-14.903761 -2.52685,0.150161 -9.441734,1.564244 -9.905659,2.025693 -0.1672,0.166307 -0.566396,0.302377 -0.887103,0.302377 -5.011742,0 -16.791327,10.825952 -20.426328,18.772686 -0.7113,1.555023 -1.425753,3.115315 -1.587673,3.467315 -3.071949,6.678126 -2.464698,19.294287 1.328849,27.608017 0.503941,1.1044 0.916256,2.06919 0.916256,2.14396 0,0.70554 4.836603,6.94746 7.008757,9.04521 2.065242,1.99449 6.545959,5.28149 8.471938,6.21491 0.725618,0.35166 1.592193,0.78607 1.925723,0.96535 13.358377,7.1803 35.233723,1.64639 44.379563,-11.22692 3.97299,-5.59221 9.30391,-7.48186 14.11304,-5.00265 1.67983,0.866 4.10098,2.91324 4.10098,3.46767 0,0.15711 0.26805,0.66789 0.59567,1.13506 7.31595,10.43224 -16.73555,31.21021 -40.27567,34.79396 -5.00558,0.76205 -11.0836,0.98674 -12.320002,0.45544 z m 2.394394,-37.14896 c -7.182452,-0.73928 -17.608964,-9.14447 -17.243179,-13.90035 0.0068,-0.0879 -0.159653,-0.9857 -0.3698,-1.99521 C 73.897939,84.589187 90.805688,71.817458 106.72,79.384005 c 1.64681,0.782984 2.16778,1.161506 4.55369,3.308545 12.11029,10.897868 5.0722,32.65323 -11.19681,34.61038 -0.746287,0.0898 -1.644882,0.20654 -1.996882,0.25948 -0.352,0.0529 -1.722523,-0.0152 -3.045606,-0.15136 z M 238.65836,97.288282 c -24.60533,-6.249727 -28.35986,-45.077925 -5.47327,-56.602819 10.79922,-5.438113 26.0751,-3.438133 34.55541,4.524132 l 1.02051,0.958166 -2.75401,3.625047 c -3.98479,5.245106 -4.56411,5.434428 -9.18598,3.001978 -12.39188,-6.52174 -20.79712,-0.506924 -20.80094,14.885216 -0.004,15.644027 10.4017,22.813617 21.11488,14.548457 4.14857,-3.2006 4.958,-2.889179 10.68716,4.111794 l 1.39138,1.700251 -1.40675,1.449057 c -6.54551,6.742347 -19.57871,10.22941 -29.14839,7.798721 z m 128.96,0 c -24.60533,-6.249727 -28.35987,-45.077925 -5.47327,-56.602819 10.79921,-5.438113 26.0751,-3.438133 34.55541,4.524132 l 1.02051,0.958166 -2.75401,3.625047 c -3.98479,5.245106 -4.56412,5.434428 -9.18598,3.001978 -12.39188,-6.52174 -20.79712,-0.506924 -20.80094,14.885216 -0.004,15.644027 10.40169,22.813617 21.11488,14.548457 4.14857,-3.2006 4.95799,-2.889179 10.68716,4.111794 l 1.39138,1.700251 -1.40676,1.449057 c -6.5455,6.742347 -19.5787,10.22941 -29.14838,7.798721 z m 52.09399,0.12166 c -6.17737,-1.494703 -10.93096,-6.069779 -13.10195,-12.609939 -1.33027,-4.007459 -1.48855,-6.906325 -1.48951,-27.280001 l -9e-4,-19.120001 h 8.62241 8.6224 l 0.10018,20.080001 c 0.0996,19.953535 0.10471,20.091218 0.81852,21.861015 2.31349,5.735991 9.3354,6.323727 16.15649,1.352302 l 1.52,-1.107824 V 59.492748 38.400001 h 8.64 8.64 v 29.469976 29.469976 l -6,-0.115985 c -7.73469,-0.149517 -8.0326,-0.295404 -9.36087,-4.583965 -0.58561,-1.890753 -0.60125,-1.889829 -3.20011,0.189053 -5.58627,4.468567 -13.20597,6.21673 -19.96666,4.580886 z m 88.18863,-0.120965 c -7.2756,-1.958779 -11.24447,-7.162542 -11.30807,-14.826506 -0.095,-11.447458 10.25181,-17.776412 31.52831,-19.285296 l 2.84124,-0.201495 -0.17582,-3.087839 c -0.53821,-9.452736 -6.69741,-11.919773 -17.2341,-6.903034 -7.2746,3.463589 -9.12256,2.812923 -13.33833,-4.696421 l -1.00582,-1.791615 2.4758,-1.834846 c 15.03709,-11.144163 36.40818,-9.222118 43.21184,3.886327 2.79986,5.394439 2.74403,4.846133 2.86862,28.171751 l 0.10982,20.56 -3.93724,-0.0019 c -7.53998,-0.0035 -8.7673,-0.540801 -10.19777,-4.464002 -0.92827,-2.545869 -0.90793,-2.541375 -3.27873,-0.724251 -6.96668,5.339666 -15.08675,7.211004 -22.55975,5.19908 z m 14.69533,-10.893449 c 2.34442,-0.441328 4.72577,-1.655965 6.66518,-3.399665 l 1.6185,-1.455168 v -4.178449 -4.178448 l -3.23115,0.21175 c -10.4478,0.684684 -15.2742,3.608523 -14.55984,8.820356 0.50946,3.716934 3.9441,5.226876 9.50731,4.179624 z M 277.11999,67.840002 V 38.400001 h 8.64 8.64 v 29.440001 29.440001 h -8.64 -8.64 z m 30.4,-0.02945 V 38.341106 l 6.16,0.11469 c 8.38543,0.156124 8.60587,0.301244 9.51551,6.264206 0.47909,3.14056 0.53013,3.160095 2.09002,0.8 4.21156,-6.372056 10.64101,-9.356646 16.49104,-7.655242 3.08526,0.897307 2.94583,0.481709 2.38027,7.095242 -0.84259,9.852808 -0.13594,8.96 -7.0917,8.96 -7.00644,0 -8.70617,0.898985 -11.43444,6.047661 l -0.8307,1.56766 v 17.87234 17.87234 h -8.64 -8.64 z m 163.2,-12.930553 V 12.48 h 8.64 8.64 v 42.400002 42.400001 h -8.64 -8.64 z m 88.96,12.930553 V 38.341106 l 6.16,0.11469 c 8.38542,0.156124 8.60586,0.301244 9.51551,6.264206 0.47909,3.14056 0.53012,3.160095 2.09001,0.8 4.21156,-6.372056 10.64101,-9.356646 16.49104,-7.655242 3.08526,0.897307 2.94584,0.481709 2.38027,7.095242 -0.84258,9.852808 -0.13594,8.96 -7.0917,8.96 -7.00643,0 -8.70616,0.898985 -11.43443,6.047661 l -0.8307,1.56766 v 17.87234 17.87234 h -8.64 -8.64 z M 282.68681,31.88534 c -7.03926,-2.305917 -9.51308,-10.858762 -4.6918,-16.221185 6.27926,-6.9840457 18.32498,-2.691067 18.32498,6.530845 0,6.527789 -7.34661,11.749692 -13.63318,9.69034 z"
         />
    </g>

</svg>
