<svg width="369" height="157" viewBox="0 0 369 157" xmlns="http://www.w3.org/2000/svg">
<title>Kleiderei</title>
<path fill="#0014d1" d="m 1.1631548,156.45678 c -0.62379897,-0.49068 -0.84315479,-0.95446 -0.84315479,-1.78267 0,-1.54252 9.94048399,-29.27359 11.88658799,-33.16013 0.860909,-1.71931 2.509881,-4.71734 3.664381,-6.66229 1.495013,-2.51859 2.650618,-5.07236 4.015572,-8.87398 5.745706,-16.002728 8.294284,-27.325212 10.996352,-48.853122 2.21445,-17.642964 3.607081,-40.973519 2.831266,-47.4318105 L 33.513881,8.0255547 27.927745,13.372778 c -5.649117,5.407509 -9.79541,8.831334 -10.436189,8.617741 -0.192541,-0.06418 -0.618984,-1.029819 -0.947653,-2.145865 -0.556283,-1.888946 -0.560527,-2.049909 -0.06141,-2.329227 1.072553,-0.600231 4.934879,-4.123253 11.246794,-10.2587696 4.333818,-4.2127005 6.748013,-6.33264273 7.36,-6.46293018 2.289939,-0.48751081 2.277596,-0.48875808 2.461474,0.24872828 0.0984,0.3946495 0.347818,3.3095446 0.554265,6.4775446 0.895273,13.7382329 -0.91569,39.4389739 -4.363095,61.9200009 -1.022314,6.666653 -3.406022,18.5412 -4.416302,22 -0.424114,1.452 -0.679881,2.634048 -0.568371,2.626772 0.561354,-0.03663 11.960363,-18.979924 13.952494,-23.186772 0.916783,-1.936 2.447275,-4.672 3.401095,-6.08 0.953819,-1.408 2.58267,-4.432 3.619669,-6.72 8.940103,-19.725158 21.522902,-39.824985 30.563635,-48.8225069 3.249464,-3.2339334 5.103342,-4.4068142 7.39438,-4.6781538 1.511251,-0.1789853 1.731641,-0.1234231 2.265669,0.571194 0.396762,0.5160723 0.593917,1.3141131 0.598689,2.4233657 0.0059,1.3732004 -0.291514,2.2504419 -1.752429,5.168765 -2.863228,5.719582 -11.565009,18.430423 -20.303269,29.657336 -2.054795,2.64 -6.653446,8.721276 -10.219223,13.513947 -5.437673,7.308637 -6.667108,9.166482 -7.623398,11.52 -5.271526,12.973711 -7.883983,23.199618 -7.870157,30.806054 0.01671,9.196728 3.107722,21.876488 6.378198,26.164308 1.789071,2.34559 4.119581,2.9008 6.816361,1.62391 3.458695,-1.63765 9.705571,-9.28444 13.644836,-16.70262 1.349844,-2.54194 1.582125,-3.30136 2.251173,-7.36 1.232975,-7.479573 3.11298,-14.508424 7.345102,-27.461436 0.958854,-2.93471 3.04405,-9.84671 4.633767,-15.36 3.750487,-13.007043 6.717016,-22.673464 8.682808,-28.292891 l 1.577246,-4.508728 1.620021,0.420228 c 0.891011,0.231126 1.811472,0.579119 2.045468,0.773318 1.398725,1.160839 1.407609,10.347521 0.01747,18.06391 -3.051569,16.938632 -11.170937,41.591521 -16.704509,50.72 -0.693478,1.144001 -1.679173,3.088001 -2.190433,4.319999 -0.511259,1.232 -1.481341,3.35281 -2.155738,4.7129 -1.196034,2.4121 -1.226177,2.55891 -1.226177,5.97185 0,4.66975 0.651723,7.91341 2.235637,11.1269 2.665466,5.40778 7.579951,8.10666 15.731607,8.63931 3.610839,0.23594 4.205156,-0.01 6.877985,-2.84473 2.40438,-2.55014 6.5361,-8.95177 9.20445,-14.26124 l 1.17349,-2.33501 -0.72302,-3.26499 c -0.93003,-4.19978 -1.00144,-12.687987 -0.14861,-17.664989 2.1232,-12.390723 7.88794,-25.203032 12.38646,-27.529309 1.97217,-1.019845 4.07906,-0.185358 4.98078,1.972759 0.65256,1.56179 0.55213,6.745323 -0.21352,11.020585 -1.80994,10.106513 -6.3773,25.426964 -9.63814,32.329574 l -1.60317,3.39361 0.96064,1.903 c 2.61394,5.17819 7.78203,9.17934 13.9195,10.77651 l 1.86409,0.4851 1.1891,-1.18911 c 2.36244,-2.36243 4.95389,-8.80502 7.40304,-18.40461 1.2628,-4.94964 3.17915,-14.644984 4.02392,-20.358109 0.24722,-1.672 1.20691,-6.891337 2.13263,-11.598526 l 1.68313,-8.558527 2.16,-0.0015 c 2.02898,-0.0014 2.15962,0.0422 2.15366,0.718526 -0.0113,1.283717 -0.61642,5.060389 -1.90989,11.92 -0.69693,3.696 -1.83736,9.744 -2.53428,13.44 -1.55873,8.266476 -2.09388,13.804919 -1.82426,18.879999 0.42626,8.02364 2.29718,13.41329 5.90817,17.01998 3.13695,3.1332 6.36716,4.29653 8.47573,3.05244 0.94146,-0.55548 1.16215,-0.58399 1.54632,-0.19983 0.38417,0.38417 0.4297,-0.14336 0.319,-3.69618 -0.39872,-12.79728 2.78193,-27.740708 7.64782,-35.931225 2.80279,-4.71779 7.6094,-8.172216 11.81773,-8.493202 5.10835,-0.389634 12.49019,3.657919 19.38457,10.628804 l 3.22457,3.260349 1.04089,-4.180567 c 0.57249,-2.299312 1.80691,-7.357521 2.74315,-11.240464 l 1.70227,-7.059896 0.16742,-15.340104 c 0.15842,-14.515823 0.52357,-23.409771 1.16846,-28.460105 0.94524,-7.402635 3.04923,-16.748698 4.18369,-18.584294 1.1837,-1.9152707 3.34174,-2.0578112 4.71542,-0.311458 1.27332,1.618757 1.50985,4.562717 1.50532,18.735752 -0.005,15.286521 -0.24504,19.134631 -2.07136,33.189301 -0.41355,3.182484 -1.56502,6.734425 -3.29716,10.1707 -1.39026,2.758058 -1.47821,3.510871 -0.81446,6.97183 0.55665,2.902531 3.13568,6.810426 7.59001,11.500845 2.74472,2.890186 3.97162,3.724518 6.2588,4.256191 l 1.65905,0.385659 2.49877,-1.54162 c 6.94914,-4.287283 19.30164,-7.717571 28.02059,-7.781319 3.92535,-0.0287 4.45966,0.03718 5.84873,0.721186 2.30311,1.134086 3.10815,3.327437 2.00458,5.461506 -1.18637,2.294173 -6.04024,5.422298 -10.89331,7.020297 -6.30668,2.076644 -15.20809,2.480484 -24.6893,1.120124 -1.29752,-0.18617 -1.35641,-0.15348 -2.46296,1.36728 -2.57996,3.54571 -5.2293,9.40817 -6.1827,13.68109 -0.74068,3.31956 -0.66823,9.17812 0.1625,13.14077 1.29055,6.15598 3.7828,9.46125 8.12955,10.78153 1.9025,0.57787 2.76023,0.65519 5.64321,0.50873 3.86747,-0.19647 8.72232,-1.19713 11.0797,-2.28369 3.41355,-1.57336 6.57528,-4.57956 9.7499,-9.27027 0.58063,-0.85792 3.67826,-6.76192 6.88363,-13.12 7.65112,-15.17658 13.21215,-25.34395 15.81389,-28.912945 0.5424,-0.744043 1.81562,-2.005068 2.82938,-2.802278 l 1.8432,-1.449472 0.20214,0.882278 c 0.11118,0.485253 0.21918,1.69123 0.24,2.679948 0.0352,1.670669 -0.0853,1.982774 -1.70579,4.417775 -2.23088,3.352214 -2.84684,5.061591 -3.52015,9.768803 -0.30085,2.103331 -1.16327,6.891331 -1.91648,10.640001 -0.7532,3.74866 -1.32963,6.81575 -1.28094,6.81575 0.0487,0 1.62958,-2.556 3.5131,-5.68 7.61655,-12.632832 14.24544,-21.955314 16.82592,-23.662991 1.14319,-0.756528 1.53999,-0.837675 3.74053,-0.764945 1.35392,0.04475 3.10968,0.182422 3.90168,0.30594 1.32268,0.206283 1.57035,0.128768 3.04,-0.951441 6.49162,-4.771426 14.17953,-5.262361 21.6,-1.379333 6.91606,3.619085 10.39038,9.59474 6.69081,11.507862 -1.73155,0.89542 -3.18398,0.720811 -17.99944,-2.163861 l -10.18863,-1.983795 -0.63354,0.786282 c -1.53521,1.905339 -3.2807,7.055712 -4.33334,12.786282 -0.78063,4.24973 -0.771,16.08688 0.0168,20.63804 1.13776,6.57301 2.22613,9.81673 3.78019,11.26633 1.63702,1.52698 3.71071,2.14899 7.14716,2.14381 8.59531,-0.013 15.9821,-4.16791 22.73939,-12.79055 2.04835,-2.61379 4.65757,-6.76699 5.48438,-8.72971 0.45336,-1.0762 2.65623,-17.26684 2.65623,-19.522737 0,-1.323744 2.24293,-9.753609 4.03804,-15.17659 1.3036,-3.93818 2.16888,-5.181112 3.82287,-5.491403 0.6295,-0.118094 1.37096,-0.301601 1.64769,-0.407795 1.61932,-0.621392 -1.39178,22.283725 -4.23703,32.230605 -0.57896,2.024 -1.49761,4.799 -2.04145,6.16666 -1.32316,3.32753 -1.73789,7.06313 -1.76669,15.91334 -0.0252,7.73916 0.20207,9.50229 1.59468,12.37215 1.33758,2.75647 2.98368,2.84594 7.04955,0.38313 0.97636,-0.5914 3.14479,-2.28632 4.81874,-3.76649 l 3.04355,-2.69121 1.59365,1.59364 1.59364,1.59365 -3.22631,2.85757 c -5.46772,4.84279 -8.6714,6.58336 -12.17093,6.61252 -4.20181,0.035 -6.8934,-2.79397 -8.18976,-8.60782 -0.28356,-1.27173 -0.56521,-4.68401 -0.67292,-8.15278 l -0.18524,-5.96565 -1.83089,2.28565 c -3.34046,4.17018 -8.67162,8.84469 -12.00119,10.52299 -2.6602,1.34089 -7.69726,2.79264 -11.05735,3.18687 -7.05787,0.82808 -12.55967,-1.37695 -15.10028,-6.05193 -0.96462,-1.77499 -2.1862,-6.41758 -3.01338,-11.45229 -0.79992,-4.86876 -0.8033,-16.83792 -0.006,-21.44 0.71165,-4.10805 1.88938,-8.445878 3.09896,-11.414195 0.52575,-1.290192 0.9564,-2.381804 0.95701,-2.425804 6e-4,-0.044 -0.708,-0.08 -1.57467,-0.08 -1.55353,0 -1.60126,0.03047 -3.38329,2.16 -3.64162,4.351754 -11.48701,16.648049 -19.78509,31.009669 l -3.67447,6.35948 -0.37534,3.83543 c -0.76765,7.84437 -1.87426,12.93705 -3.13017,14.40526 -1.74192,2.03638 -3.45835,2.27169 -5.0392,0.69083 -2.90328,-2.90327 -2.10101,-9.05026 2.19542,-16.82133 1.97803,-3.57772 2.13718,-4.02281 2.77386,-7.75741 0.37149,-2.17906 1.38147,-7.41058 2.24441,-11.62559 0.86294,-4.21501 1.51531,-7.71733 1.4497,-7.78294 -0.16442,-0.16442 -5.00069,9.13912 -8.29297,15.95318 -8.10813,16.78149 -15.41066,22.13276 -30.2871,22.19424 -3.74803,0.0155 -4.97833,-0.0969 -6.4,-0.58456 -2.66023,-0.91255 -4.27226,-1.96634 -6.21042,-4.05978 -3.0128,-3.25418 -4.59719,-7.62881 -5.32883,-14.71331 -0.81984,-7.93848 1.2839,-16.23409 5.98217,-23.58938 1.22822,-1.922826 1.31266,-2.313788 0.49973,-2.313788 -2.28004,0 -9.03181,-6.63036 -13.10097,-12.86538 l -1.60898,-2.46538 -1.19864,5.02538 c -3.19478,13.394288 -4.51271,17.778788 -6.86808,22.848738 -9.04221,19.46339 -19.48061,33.69859 -26.60746,36.28549 -3.47275,1.26053 -7.15927,0.39474 -9.43977,-2.21698 -1.96492,-2.25031 -4.59875,-8.58355 -4.59875,-11.05806 0,-0.80863 0.0424,-0.80536 -1.95809,-0.15102 -4.3843,1.43404 -10.33484,-1.23185 -14.23372,-6.3768 -1.99009,-2.62613 -3.51519,-5.97077 -4.34501,-9.52893 l -0.67658,-2.90107 -1.36015,3.38372 c -1.67407,4.1647 -3.90589,7.50684 -6.22645,9.32409 l -1.76,1.37827 -2.10667,-0.44493 c -7.71367,-1.62916 -13.16084,-5.16505 -17.75307,-11.52396 l -0.65974,-0.91355 -1.36815,2.54019 c -4.34139,8.06049 -9.78471,14.54163 -13.15261,15.66026 -2.16221,0.71817 -7.45059,0.49949 -11.458976,-0.47385 -8.276268,-2.00969 -13.78774,-7.67151 -15.360627,-15.77965 -0.297086,-1.53146 -0.612156,-2.77997 -0.700156,-2.77446 -0.088,0.006 -1.080668,1.3853 -2.205929,3.06621 -3.624577,5.41436 -8.491487,10.00226 -12.120547,11.42569 -2.044695,0.802 -5.298419,0.70441 -7.280013,-0.21836 C 44.0694,127.94775 40.26072,118.47653 38.541504,103.36 c -0.571248,-5.022804 -0.35765,-9.591327 0.684276,-14.635616 0.269837,-1.306364 0.446424,-2.504816 0.392417,-2.663227 -0.05401,-0.158412 -1.98966,2.697024 -4.30145,6.345412 -2.311789,3.648388 -6.223544,9.820801 -8.692788,13.716481 -4.198167,6.62336 -4.629275,7.45407 -6.642705,12.8 C 17.094272,126.58837 12.10962,139.08414 9.2758018,145.76 4.556557,156.87752 3.4884495,158.28585 1.1631548,156.45678 Z M 179.11062,142.3052 c 5.72203,-4.20192 12.64343,-14.3699 20.12728,-29.56826 3.15894,-6.41524 4.2821,-9.21044 4.2821,-10.65685 0,-1.24576 -2.67558,-4.880305 -5.65751,-7.685232 -4.53722,-4.267898 -10.31864,-7.744087 -13.63067,-8.195711 -1.34654,-0.183612 -1.81425,-0.067 -3.93477,0.981016 -1.88124,0.929757 -2.72179,1.585653 -3.85049,3.004618 -3.20171,4.025055 -6.01322,11.485319 -7.4375,19.735219 -2.18758,12.67121 -1.61913,23.71081 1.55214,30.14339 1.25113,2.53778 2.32571,3.70655 3.6788,4.00129 1.0506,0.22885 3.24003,-0.56207 4.87062,-1.75948 z m -63.28343,-41.97375 c 3.95075,-11.497515 7.38403,-25.580479 7.3657,-30.213366 l -0.007,-1.798083 -0.63224,0.8 c -1.24255,1.572234 -4.11893,7.583824 -5.38212,11.248552 -2.73846,7.944741 -4.11953,17.303109 -3.36544,22.804817 0.11328,0.82648 0.3184,1.38658 0.45581,1.24466 0.13742,-0.14191 0.84185,-1.98088 1.56541,-4.08658 z M 251.2084,96.628481 c 3.6982,-0.452143 6.93556,-1.371701 10.03163,-2.849441 3.20847,-1.531394 4.59486,-2.553232 3.98695,-2.938582 -2.0845,-1.321351 -16.8208,1.638851 -24.26698,4.874707 l -1.76,0.764836 1.28,0.194591 c 2.15788,0.328047 7.86882,0.303501 10.7284,-0.04611 z m 83.50171,-4.38848 c -0.0157,-0.379746 -2.55596,-2.171168 -4.3101,-3.039487 -4.71377,-2.333358 -9.00248,-2.633805 -13.04395,-0.913796 -1.66968,0.710601 -2.14191,0.554855 7.28395,2.402322 4.048,0.793408 7.648,1.504246 8,1.57964 1.09832,0.235249 2.08042,0.221644 2.0701,-0.02868 z M 82.527123,82.255188 c 4.478824,-11.422314 8.449097,-25.003143 10.615796,-36.312687 0.619159,-3.231833 0.631067,-4.283784 0.02676,-2.363941 -0.925873,2.941435 -3.4212,11.414131 -5.166199,17.541441 -1.077647,3.784 -2.971541,10.034931 -4.208654,13.890957 -4.967803,15.484427 -5.345832,17.644657 -1.267702,7.24423 z M 216.31095,59.477193 c 1.30619,-9.332117 1.93308,-19.303523 1.89845,-30.197193 -0.0156,-4.912127 -0.12507,-7.343332 -0.30371,-6.745849 -0.61401,2.053623 -1.5886,9.605942 -1.90286,14.74585 -0.42019,6.872162 -0.80458,26.9477 -0.5108,26.677193 0.12114,-0.111545 0.48965,-2.127545 0.81892,-4.480001 z M 68.565376,34.800001 C 76.041108,24.832171 84.201515,12.734847 83.75256,12.285892 83.270831,11.804163 76.4353,20.495031 71.770648,27.52 c -2.671646,4.023502 -8.090647,12.917997 -8.090647,13.279612 0,0.448897 0.621636,-0.314519 4.885375,-5.999611 z M 360.22479,50.45204 c -1.55922,-0.581622 -1.82796,-0.794153 -1.68437,-1.332039 0.094,-0.352 0.17281,-1.54 0.17522,-2.64 l 0.004,-2 h 2.24 2.24 l -0.0319,2.48 c -0.0344,2.673236 -0.28303,3.988062 -0.77693,4.108314 -0.17115,0.04167 -1.14602,-0.235654 -2.16639,-0.616275 z M 147.89399,38.916348 c -1.96326,-0.635892 -2.02025,-0.685024 -1.84,-1.586282 0.10231,-0.511536 0.18601,-1.704065 0.18601,-2.650065 v -1.72 h 2.28439 2.28438 l -0.16145,2.831702 c -0.22209,3.895081 -0.25597,3.933529 -2.75333,3.124645 z"/>
</svg>
