<?xml version="1.0" encoding="UTF-8"?>
<svg version="1.1" viewBox="0 0 407 41" width="407px" height="41px" xmlns="http://www.w3.org/2000/svg">
  <path fill="#0014d1" d="m6.7581 1.6846v38.211h-5.2416v-38.211z" stroke-width=".91652"/>
  <path fill="#0014d1" d="m20.486 12.43v27.466h-5.1792v-27.466zm0-10.745v5.5037h-5.2416v-5.5037z" stroke-width=".91652"/>
  <path fill="#0014d1" d="m33.964 1.6846v38.211h-5.2416v-38.211z" stroke-width=".91652"/>
  <path fill="#0014d1" d="m47.318 1.6846v38.211h-5.2416v-38.211z" stroke-width=".91652"/>
  <path fill="#0014d1" d="m61.046 12.43v27.466h-5.1792v-27.466zm0-10.745v5.5037h-5.2416v-5.5037z" stroke-width=".91652"/>
  <path fill="#0014d1" d="m69.282 12.43h4.8048v3.8788q2.1216-2.4636 4.4304-3.5643 2.3712-1.1007 5.616-1.1007 6.0528 0 8.7984 4.1933 2.3088-2.3063 4.5552-3.2498t5.4912-0.94349q4.5552 0 6.9888 1.9918 2.496 1.9394 2.496 5.6609v20.599h-5.2416v-18.922q0-2.6208-1.6224-4.036-1.56-1.4676-4.4304-1.4676-3.1824 0-5.4288 2.0966t-2.2464 5.0844v17.245h-5.2416v-18.922q0-2.6208-1.6224-4.036-1.56-1.4676-4.4304-1.4676-3.1824 0-5.4288 2.0966t-2.2464 5.0844v17.245h-5.2416z" stroke-width=".91652"/>
  <path fill="#0014d1" d="m146.59 27.631h-24.086q0.1248 4.2981 2.6208 6.8665 2.5584 2.5684 6.9888 2.5684 6.3648 0 8.5488-5.5037h5.2416q-0.9984 4.5078-4.68 7.0237t-9.2976 2.516q-6.864 0-10.858-3.8788-3.9936-3.9312-3.9936-10.693t4.056-10.798q4.1184-4.0884 10.92-4.0884 14.539 0 14.539 15.987zm-23.962-3.5643h18.408q0-3.5643-2.5584-5.9754t-6.4896-2.4111-6.4896 2.3063q-2.5584 2.2539-2.8704 6.0803z" stroke-width=".91652"/>
  <path fill="#0014d1" d="m151.21 12.43h4.8048v4.6126q2.184-2.8829 4.68-4.1409 2.5584-1.258 6.1776-1.258 4.7424 0 7.5504 2.0442t2.808 5.4513v20.757h-5.1792v-19.027q0-2.4636-1.8096-3.9312t-4.9296-1.4676q-3.9936 0-6.4272 2.5684-2.4336 2.516-2.4336 6.7092v15.148h-5.2416z" stroke-width=".91652"/>
  <path fill="#0014d1" d="m211.11 1.6846v38.211h-4.6176v-3.6167q-2.1216 2.5684-4.6176 3.6691-2.4336 1.1532-5.8032 1.1532-6.6144 0-10.421-3.9836-3.8064-4.036-3.8064-11.007 0-6.552 3.8064-10.483 3.8688-3.9836 10.234-3.9836 6.7392 0 10.046 4.2457v-14.205zm-14.352 14.047q-4.2432 0-6.864 2.9353t-2.6208 7.7052q0 4.8223 2.6208 7.7576 2.6208 2.8829 6.9264 2.8829 4.1184 0 6.6144-2.8829 2.496-2.8829 2.496-7.6527 0-4.9271-2.496-7.81-2.496-2.9353-6.6768-2.9353z" stroke-width=".91652"/>
  <path fill="#0014d1" d="m245.24 27.631h-24.086q0.1248 4.2981 2.6208 6.8665 2.5584 2.5684 6.9888 2.5684 6.3648 0 8.5488-5.5037h5.2416q-0.9984 4.5078-4.68 7.0237t-9.2976 2.516q-6.864 0-10.858-3.8788-3.9936-3.9312-3.9936-10.693t4.056-10.798q4.1184-4.0884 10.92-4.0884 14.539 0 14.539 15.987zm-23.962-3.5643h18.408q0-3.5643-2.5584-5.9754t-6.4896-2.4111-6.4896 2.3063q-2.5584 2.2539-2.8704 6.0803z" stroke-width=".91652"/>
  <path fill="#0014d1" d="m255.1 1.6846v38.211h-5.2416v-38.211z" stroke-width=".91652"/>
  <path fill="#0014d1" d="m264.35 31.719q0.33696 2.4636 1.7971 3.9312 1.5163 1.4152 5.3914 1.4152 3.0888 0 4.9421-1.1532 1.9094-1.2056 1.9094-3.145 0-1.5201-1.067-2.4111t-3.4819-1.4152l-4.3805-0.9959q-5.2229-1.1532-7.3008-2.8829-2.0218-1.7821-2.0218-5.0319 0-3.8264 3.0888-6.0803 3.0888-2.3063 8.1994-2.3063t7.8624 2.2015 2.808 6.2375h-4.9421q-0.16848-4.4029-5.8968-4.4029-2.8642 0-4.549 1.1532-1.6848 1.1007-1.6848 2.9877 0 1.4676 1.2917 2.4111 1.2917 0.89107 4.1558 1.5201l4.4928 0.9959q4.3805 0.9959 6.3461 2.8305 1.9656 1.7821 1.9656 4.8223 0 3.9836-3.3134 6.3423-3.2573 2.3587-8.8171 2.3587-11.4 0-11.737-9.3825z" stroke-width=".86948"/>
  <path fill="#0014d1" d="m291.13 31.719q0.33696 2.4636 1.7971 3.9312 1.5163 1.4152 5.3914 1.4152 3.0888 0 4.9421-1.1532 1.9094-1.2056 1.9094-3.145 0-1.5201-1.067-2.4111t-3.4819-1.4152l-4.3805-0.9959q-5.2229-1.1532-7.3008-2.8829-2.0218-1.7821-2.0218-5.0319 0-3.8264 3.0888-6.0803 3.0888-2.3063 8.1994-2.3063t7.8624 2.2015 2.808 6.2375h-4.9421q-0.16848-4.4029-5.8968-4.4029-2.8642 0-4.549 1.1532-1.6848 1.1007-1.6848 2.9877 0 1.4676 1.2917 2.4111 1.2917 0.89107 4.1558 1.5201l4.4928 0.9959q4.3805 0.9959 6.3461 2.8305 1.9656 1.7821 1.9656 4.8223 0 3.9836-3.3134 6.3423-3.2573 2.3587-8.8171 2.3587-11.4 0-11.737-9.3825z" stroke-width=".86948"/>
  <path fill="#0014d1" d="m328.59 11.644q7.0512 0 10.92 3.9312 3.9312 3.8788 3.9312 11.007 0 6.7617-3.9936 10.64-3.9312 3.8788-10.795 3.8788-6.9888 0-10.92-3.8788-3.8688-3.9312-3.8688-10.85t3.9312-10.798q3.9312-3.9312 10.795-3.9312zm0.0624 4.036q-4.368 0-6.864 2.8829-2.496 2.8305-2.496 7.81t2.496 7.8624q2.496 2.8305 6.864 2.8305 4.3056 0 6.8016-2.8305 2.5584-2.8829 2.5584-7.7052 0-5.0844-2.496-7.9672-2.4336-2.8829-6.864-2.8829z" stroke-width=".91652"/>
  <path fill="#0014d1" d="m368.84 20.869q0-2.8829-2.1216-4.1409-2.0592-1.258-4.6176-1.258-3.9936 0-6.4272 2.5684-2.4336 2.516-2.4336 6.7092v15.148h-5.1792v-38.211h5.1792v14.519q2.3088-2.516 4.6176-3.5119 2.3712-1.0483 5.8656-1.0483 4.7424 0 7.488 2.0442 2.808 1.9918 2.808 5.4513v20.757h-5.1792z" stroke-width=".91652"/>
  <path fill="#0014d1" d="m380.51 12.43h4.8048v4.6126q2.184-2.8829 4.68-4.1409 2.5584-1.258 6.1776-1.258 4.7424 0 7.5504 2.0442t2.808 5.4513v20.757h-5.1792v-19.027q0-2.4636-1.8096-3.9312t-4.9296-1.4676q-3.9936 0-6.4272 2.5684-2.4336 2.516-2.4336 6.7092v15.148h-5.2416z" stroke-width=".91652"/>
</svg>
