<svg xmlns="http://www.w3.org/2000/svg" xml:space="preserve" version="1.1" viewBox="0 0 484.9 190.3">
  <title>LOCECO Logo © loveco GmbH, Berlin</title>
  <switch><g><g><path fill="#0014d1" d="M328.8 134v1.7h-18.2V85.5h5.5V134h12.7zM386.8 85.5l-10.9 50h-3.3l-10.8-50 5.9.1 8.9 41.4-1.5 4.4 10-46h1.7v.1zM397.9 87.2v19.9h11v1.7h-11v24.8h14v1.7h-19.7V85.5h19.7v1.7h-14zM343.3 136.3c-7.4 0-13.2-11.2-13.2-25.4 0-14.3 5.8-25.4 13.2-25.4s13.2 11.2 13.2 25.4c0 14.3-5.8 25.4-13.2 25.4zm6.9-44.2c-1.9-3-4.3-4.9-6.8-4.9-6.2 0-11.4 10.8-11.4 23.6s5.2 23.6 11.4 23.6c2.6 0 5-1.9 6.9-4.9M460.6 136.3c-7.4 0-13.2-11.2-13.2-25.4 0-14.3 5.8-25.4 13.2-25.4s13.2 11.2 13.2 25.4c0 14.3-5.8 25.4-13.2 25.4zm6.8-44.2c-1.9-3-4.3-4.9-6.8-4.9-6.2 0-11.4 10.8-11.4 23.6s5.2 23.6 11.4 23.6c2.6 0 5-1.9 6.9-4.9M432 85.5c3.7 0 7 2.8 9.3 7.3h-2.1c-2-3.4-4.5-5.5-7.2-5.5-2.5 0-4.9 1.8-6.8 4.9v37.5c1.9 3.1 4.3 4.9 6.9 4.9 2.7 0 5.3-2.1 7.2-5.5h2.1c-2.4 4.5-5.7 7.3-9.3 7.3-7.4 0-13.2-11.2-13.2-25.4-.1-14.3 5.7-25.5 13.1-25.5z"/><g ><path fill="#0014d1"  d="M281.5 8c-.3.4-.8.6-1.2.9-2.1 1.9-4.8 3.9-7.1 5-.2.4-.4.3-.6.7-6.8 4.2-14.1 6.4-21.2 9.4-.7-.2-1.2.4-1.9.1-.3.4-.8.4-1.1.6-3.5.6-6.3 1.6-10 1.7-.1.1-.2.3-.3.4-4.2 1.1-8.3 1.7-12.7 2.6-.7-.1-1.4-.2-2 .3-2.2.2-4.4.4-6.6 1.1-.8-.3-1.6-.2-2.3.2-1.4-.1-3.3.3-5 .5-2 .2-4.4.5-6.7 1.1-2-.1-3.5.7-5.6.4-7.9 1.6-15.9 2.3-23.4 5.4-.2 0-.4.1-.7-.1-.3.4-.7.3-1 .6-3.7.8-7.3 2.7-10.9 4-.2.6-.9.6-1.5.7-.2.2.1.3 0 .4-1.4.1-2.6 1.4-4 1.5-2.6 1.5-5 2.4-7.6 4.3-.3.1-.7.2-1 .3-2.2 1.5-4.3 3.3-6.7 4.6-.7 1.1-1.8 1.7-2.8 2.4-1.8 1.4-3 2.8-4.8 4-2 1.3-5.6 4.8-8.3 7.3-.2.2-.4.2-.6.3-1.2 1.7-2.5 2.1-3.4 3.6-.3.2-.6.3-.9.5-4.9 5.2-10 10.8-14 17.2-1.5 2.3-2.5 5.3-3.7 8.1-1 2.4-2.3 4.8-3.4 7.1-.6 1.2-.9 2.6-1.5 3.9s-1.3 2.6-1.8 3.9c-.6 1.6-1.2 3.4-1.8 4.7-2.8 6-5.3 12-6.7 17.9-1 1.3-.5 2.4-1.4 3.7.1 1.2-.6 2-.4 3.1-1.4 3.6-2.4 7.4-3.9 10.9-.9 2.1-1.5 4.6-2.7 6.8-.7 1.7-2.9 5-4.3 6-1.3.9-4.4 1.2-6 1.7-2.3.7-5.4 1.5-7.7 1.5-3.9 1.2-7.8 2.1-11.8 2.7-.4.6-1 .2-1.4.7-.5-.3-1 0-1.5-.2-.4.6-1 .4-1.6.3-.6.3-1.2.8-2 .4-2.2 1.5-5 .7-7.3 1.7-1.1.2-2.2.2-3.2.7-.3-.1-.6 0-.9-.2-.9.9-2 .3-3 1-2.8 0-5.6 1.2-8.8.2-.6.2-1.4.8-1.7 1.9-.1.3.1.8 0 1.2-.3.7-.5 1.2-.7 1.9-.2 1-.1 1.7-.4 2.5.2.1.3.2.1.4.6.4 1.1.3 1.6 0 2.5.7 4.7.2 7-.5.2 0 .5.1.7.2 6.1-1.6 12.5-1.1 18.5-3.6 1 .1 1.9-.7 3-.6 3.8-1.8 7.9-2.3 11.8-4 .8-.1 1.4-.5 2.2-.4 3-1 6.1-2.2 9.2-2.3 3.1-.7 6.2-1.7 9.4-2.5.4.2.4.4.7.6.7.3 1.6.3 2 .9.6-.4 1.4.6 2.1.5 2.2 1.4 5.8 2.3 8.6 3.3.1-.5.4.3.5-.2 1.3.6 2.8 1.1 4 .9 2.3 1.1 5 .6 7.5 1.4 1.3-.5 2.6.1 3.8.2.6.1 1.2-.1 1.7 0 4 .3 8 .7 12 .6 8.3-.9 16.6-1 25-2.7 1.4.3 2.7-.1 4.1-.3 1.3-.2 2.7-.3 4-.7 1.6-.1 3.2-.7 4.8-.6.2-.2.4-.2.5-.3 6.4-1 12.7-3 19.1-4.4 3.7-1.2 7.4-2.4 11-4.4 3.1-.7 6-3.1 9.1-4.2 1.8-1.6 3.9-1.9 5.8-3.5.3-.4.6-.1.9-.3.1-.2.3-.4.4-.6 4.8-2.9 10.2-5.2 15.1-8.8 2.4-2.3 5.7-5.3 8.4-7.8.2-1.2 1.6-1.9 2.5-2.9 2.5-2.6 4.9-5.6 7.2-7.8 1.8-3.4 5.1-7.1 6.2-10.5 2.8-5.3 6-10.6 7.4-15.2 4.9-9.1 8.8-19.5 11.4-28.9.5-4.1 1.9-8.4 2.5-12.3.2-.3.2-.6.5-.9-.2-.9 0-1.9.3-2.9.2-.2 0-.3-.1-.4 1.3-3.5 1.5-7.6 3.2-11.2-.1-.2.1-.5 0-.7 1-1.7 1-3.3 1.9-5 .6-2.5.8-4.5 2-6.9-.1-1.6 1.1-3.1 1-4.8.2-.2.4-.5.5-.7.6-7.6 7.4-15 8.1-22.7-2-1-2.5.1-3.7 1.4zM17.3 183.3c.4-1.5 0-3.2 1.2-4.6.3.1.5.2.8.4-.3 1.4 0 2.6-1.1 4.1-.3-.2-.6.1-.9.1zm2.3.1c.3-1.5.4-3 .7-4.6.4-.3.7 0 1.1.4-.1 1.2.1 4-1.8 4.2zm2.6-.1c-.3-.3-.4 0-.5-.3.5-1.6 0-3 .7-4.6 1-.1.5 1 1.1 1.5-.4 1 .1 2.7-1.3 3.4zm2.6-.3c-.2 0-.3 0-.5.1-.6-1-.1-2.2 0-3.4-.2-.5-.3-.9-.1-1.5.2-.1.5-.2.7 0 .6 1.5.3 3.4-.1 4.8zm1.9-.5c-.2-.1-.4.2-.7-.1-.2-1.5-.2-3.1.3-4.7 1.3 1.1.8 3.2.4 4.8zm1.3-.3c-.3-1.3-.2-2.6 0-3.9.5 1.1.6 2.8 0 3.9zm2.1-1.1c-.3.4-.2.6-.6.8-.6-1.5-.8-3.1-.2-4.8 1.6.9.1 2.9.8 4zm2.2.5c-.4.1-.9.4-1.3.3-.2-1.7-.7-3.3 0-5.1.5 0 .9-.3 1.4 0 .1 1.7.2 2.9-.1 4.8zm2.6-3.6c0 .4-.4 1.1-.4 1.7 0 .8.2 2-.9 1.9-.3-.7-.5-1.9-.6-2.9 0-.6 0-2 .4-2.3 1-.8 1.5.9 1.5 1.6zm1.4 3c-.2 0-.3 0-.5.1-.3-.1-.2-.4-.5-.5.3-1.6-.4-3.1.4-4.8 1.4.8 1 2.5.6 3.8.6.5.2 1 0 1.4zm1.5-.3c-.7-1.6-.3-3.3-.5-5 .2 0 .4-.1.7.2 0 1.5.7 3.4-.2 4.8zm1.9-2.1c-.1 1.2.5 1.8-.5 1.9-.3-1.6-.5-3.3-.5-5 .3-.1.5-.1.8 0 .5.8.3 2 .2 3.1zm1.3 1.6c-.7-.5-.4-2.1-.5-3.3 0-.6-.5-1.3-.1-1.8.3-.4 1-.5 1.5.1-.3 1.6.9 3.6-.9 5zm2.1-.6c-.2-.1-.3-.2-.5-.3 0-1.6-.2-3.1 0-4.7.3-.2.7-.1 1-.4 0 .2.6.2.6.3.5.5.8 4.9-1.1 5.1zm2.1-1c0-1.5-.5-3.3.2-4.8 1.6.9 2.1 4.7-.2 4.8zm2.4-.8c-.5-.8-.2-1.8-.4-2.7-.1-.5-.7-.9-.3-1.5 2.5-1.8 2.4 4.7.7 4.2zm1.8-.9c.7-1.3-1.1-4.1 1.1-4 0 1.1 1.3 4.4-1.1 4zm2.7-.6c-.8-1.1-.9-2.4-.5-3.8 1.9-.5 1.6 2.8.5 3.8zm1.6-.7c.1-1.2-.4-2.6.2-3.7 1.4.6 1.7 3.9-.2 3.7zm2.3-.4c-.2-1.1-.4-2.3-.5-3.5 2-1 2.5 3.5.5 3.5zm2.3-.5c-.8-1 .1-2.3-.8-3.2.1-.3.4 0 .5-.3 1.5.8 1.2 2.7.3 3.5zm2.4-.8c-.2.1-.5.2-.7 0 .1-1.1-.5-2.1-.2-3.3 1.5-.1 1.5 2.2.9 3.3zm1.6-.3c-.8-1-.4-2.1-.7-3.2.6-.1 1.1-.7 1.8-.3.1 1.1.2 2.5-1.1 3.5zm2.2-.7c-.9-.7.4-1.7-.6-2.5.3-.2.1-.4.3-.6 1.5.2 1.4 2.4.3 3.1zm1.7-.8c.3-1-.5-1.8-.2-2.8 1.4-.4 1.2 1.3 1.5 2.1-.3.6-.7 1-1.3.7zm2-.5c.1-.9-.3-1.7-.3-2.6 1.8-1.5 2.1 2.8.3 2.6zM274.8 14.4c.4 1.9-1.9 3.2-3.2 2.2.3 0 0 0-.2-.1l3.4-2.1zm-12.2 6c2-.6 3.4-1.8 5.5-2.1.4.7-.1 1.3-.6 2 .2 1.6-1.6 1.2-2.4 1.4-.3-.1-.4-.6-.6-.4-.3 0-1.7-.1-2.1-.5.5.1-.2-.2.2-.4zm-6.5 2.8c.7-.7 1.5-.7 2.3-.9-.3 1.5-1 2.5-2.1 3.6-1.4-.2-3.1-.3-4.2-1.3 1.2-.5 2.5-1.1 4-1.4zm-10.7 3.3c.6-.6 1.3-.6 2-.4.1 0 .1.1.2.1-.5 1-1.1 1.8-2.1 2.9-1.4-.2-3.3-.8-4.5-1.6 1.4-.8 2.9-1.2 4.4-1zm-8.6 1.7c-.3 1.2-1.7 2.6-2.6 3.5-1.3-.2-3.4-.8-4-2 2.1-.7 4.4-1.1 6.6-1.5zm-8.6 12.4c.1-.7-.2-2-.1-3 0-.2.3-.5.3-.8.1-1.2.2-2.6 1.8-2.1.1 0 .1.1.2.1-.2 4.6-.2 9.2-1.4 14 .3.9-.5 1.5-.1 2.5-.1.2-.2.3-.4.3 0 2.3-.7 4.7-.3 6.9-1.5 6.3-.7 12.3-1 18.2-.7.7-1.2 1.6-2.2 1.9-.1-4.4.1-8.8.1-13.2.4-.7 0-.9.4-1.4-.4-2.8.7-5.8.5-8.6.3-.3.4-.8.4-1.1.2-2 .4-4.5.4-6.3.5-.6.4-1.2.2-1.7.6-.6.2-1.4.3-2 .1-.5.4-1.1.5-1.6 0-.5-.2-1-.1-1.5.2-.1.5-.5.5-.6zm22.4 20.2c.1-.2 0-.2.2-.3 1.6.3 3.1.3 4.6.3.2.4.1.9-.4 1.4-2.1-.2-4.5.1-6.5-.8-.4.2-.7.3-1.2-.1.3-1.5 2.4-.9 3.3-.5zm-.1-2.6c.3.2 1.1.1.9.7-.3 0-.5.2-.8.1 0-.3-.4-.5-.1-.8zm8.4 21c-1.7 4-2.1 8.5-4 12.7-.8 1.7-1.2 3.2-2.1 5-.1 1.2-.7 3.3-1.8 3.5-.6-.8.2-1.7.5-2.7-.2-.9.8-1.9.4-2.8 1.5-3.4 1.8-6.9 3.6-10.7.5-2.9 1.5-5.8 1.5-8.6 1-1.6.6-3.6 1.1-5 .2-.5.9-1.2.3-1.2.9-2.9 1.1-5.4 2-8.1.8 0 1.9-.4 2.6.5-.5 3.9-1.5 7.1-2.3 11.2-.9 1.2-.7 3-1.5 3.6.5.7-.5 1.8-.3 2.6zm0-14.8c-.9 3.2-1.3 6.3-2.3 9.3-.1 1.8-.6 4.3-1.4 5.7.2 2.6-1.9 5.6-2.2 8.3-.4.4-.3.7-.6.8-.2 3.1-2.2 6.5-2 9.5-.7.4-.1 1.2-1 2-.7 0-1.5-.3-2.2-.6.1-.5.2-.9.3-1.4.2-.1.3-.2.4-.4.9-4.5 2.6-8.7 3.1-13.3 1.1-1.5 1-2.9 1.2-4.2.1.1.2-.1.3-.2-.2-.9.7-2.1.2-3 .9-1.5.5-3.7 1.5-5.3-.4-1.7.9-3.5.7-5.6.9-1.5 1-3.6 1.7-5.1.9-.1 2.3-.4 2.9.7-.4.8-.4 1.8-.7 2.5.2 0 .3.1.1.3zm-24.2 20.8c.1.6-.6.9-1.1 1.1-.6-.6-.6-1.3-.7-1.9.9-.2 1 .4 1.8.8zm-2.6-4.2c1.5.8 3.4 1.4 5 2.6-.4.7-.8 1.2-1.4 1.2-.8-1.4-4.1-1.9-3.6-3.8zm10.1-.4c3.3-2.2 6.5-4.5 9.8-6.8.1.1.3 0 .4 0 .1.4-.1 1.8-.3 2.6-.1.6-.4.5-.9.8-1.3.8-2.4 2.4-3.7 2.8-.5.9-1.6 1.6-2.5 2.1-1.8 2.5-4.1 3.1-6 5.4-1.6.5-2.8 2.4-4 2.5-.4-.5-.9-1.7-1.2-2.4l8.4-7zM236 90.9c5.5-3.4 9.6-8.4 15.1-11.9.1.1.2.1.3.2-.4 1.4-.3 3-1.2 4.2-.3.1-.7-.1-1 .3-.7.7-1.7 2.2-2.4 2.5-3.4 1.9-6.3 4.6-9.6 6.8-.2.4-.5.7-.8.7-.6-.9-1.3-1.8-.4-2.8zm.9 3.7c3-1.9 5.7-4.3 8.6-6.4 1-.7 3.5-2.6 4.6-3.1 0 .9-.7 2.3-.8 2.9-.4.4-.9 0-1.3.4-3 4-6.7 5.6-10.1 8.3-.4-.1-.3-.2-.8-.4-.2-.6-.3-1.1-.2-1.7zm11.3-4.6c.1.1.2.1.3.2-.6 3.7-5 4.8-7.1 7.6-.7-.2-1.4-.4-2.2-.7 2.7-2 6.5-4.5 9-7.1zm-.8 4.4c-.1 1.5-.9 3.2-1.3 4.7-1.1-.2-2.2-.2-3.5-1.1 1.7-1.3 3.2-2.7 4.8-3.6zm9.1-34.7c-.5-.1-1-.2-1.3-.6.6-.2.9 0 1.6.1-.1.2-.2.3-.3.5zm-2-6.3c-.1 0-.1-.1-.2-.1.1-.1.1-.2.1-.3.3 0 .1.1.4.3-.1.1-.2.1-.3.1zm.3 3.1c-.2-.2-.3 0-.5-.2.2-.2.3-.4.5-.7.2.3.3.6 0 .9zm-.4-2.1c.1.5-.2.5-.4 1-.3 0-.8-.1-.9-.5.3-.6.8-.8 1.3-.5zm-.7 2.7c0 .4.2.3.5.5-.1.4-.3.4-.6.6-.2-.2-.3-.4-.4-.6.2-.1.3-.6.5-.5zm1.3 6.3c.1.4-.1.9-.3 1.4-3 .6-6.3 0-9.6-1.1.3-.6.7-1.2 1.5-1.6l8.4 1.3zm-6.7 1.8c.2.2.4.3.7.5 1.7-.1 3.4.1 5.1.2.2.7 0 1.5-.4 2-1.4 0-2.7.5-4.3-.4-1.2.4-2.2-.4-3.3-.3-1.1-.8-2.5-.2-3.1-1.1.5-.7.7-.8 1-1.2 1.4-.2 2.9.5 4.3.3zm5.2 3.8c.2 2.5-2.2 1.7-3.3 1.6-1.7-.1-3.6-.5-4.6-1-1.1.4-2.5-.9-3.6-.5-.6-.5-1.2.1-1.5-.7.6-.6.8-1 1.5-1.3 3.9 1.2 7.4 1 11.5 1.9zm-9.8 2.3 5.4 3c-.1.5-.5.8-1.1.9l-5.3-2.8c-.2-.2-.3.3-.6 0-.5-.8-3.6-1.1-3-2.7 1.7-.2 3.2.8 4.6 1.6zm3.5 4.6c-.6.8-1 1.1-1.8 1.5-2.4-1.5-5.8-2.6-8.5-5.3.4-.5.8-.8 1.2-1.1 3 1.9 5.5 3.2 9.1 4.9zm-2.7 2.1c.1.1.1.2 0 .3-.5.1-1.2.9-1.9 1.2-2.3-2.2-6.3-2.9-7.7-5.5.3-.4.7-.8 1.1-.9 2 1.5 6 3.3 8.5 4.9zm-8.1-1.1c.3.2.7.1 1 .3.2.1.1.4.2.5 1.4.9 3.6 1 4.3 2.2-.5.4-1 .4-1.4 1.1-.2 0-.4-.2-.6 0-1.7-1.5-3.7-1.7-5-3.1-.7.1-1.6-.8-2.4-1.3.2-.6.6-.7 1-1.4 1.4-.1 2 1.1 2.9 1.7zm2.8 4.7c.1.1.1.2 0 .3 0 .6-.8.7-1.1 1-.7-.1-1.3-.8-1.8-1.2-1.6-.9-4.1-1.5-5.3-3.4.1-.4.5-.8 1.1-1.1 1.8 2 5 3.1 7.1 4.4zm-7.7.2c-.1 1.2.5 2.6 1.1 3.4.1 3.7 2.3 7.1 3.1 10.7-.6.2-1.4-.5-2.1-.5-2.4-4.4-3.9-9.4-5.7-14.1.4-.8 1.4-1.6 2.1-1.9.9.7.4 1.7 1.5 2.4zm-10.5 6c.4-.2.6-.8 1-.7.3 1.9 1.7 3.6 2 5.5-.6.2-.8-.2-1.5-.2 0-1.6-1.1-3.1-1.5-4.6zm6.9 13.2c-.6.9-.8 2.2-1.1 3.3-.5.2-1.1-.2-1.6-.3 0-.7.1-1.3.6-1.8-.5-1 .9-2.2 2.1-1.2zm1.3.2c.4 0 .7-.1 1.1.2-.5 1.1-.4 2.9-1.7 3.6-.2-.2-.4-.3-.7-.5.3-1 .8-2.2 1.3-3.3zm-2.8 8c.9 2.5 2.3 5.4.4 8.2-1-.5-2.2-1.5-3.4-1.8-.3-1.3-.6-2.5-.8-3.8 1.2-1 1.6-2.1 2.6-3.5.6 0 .7.5 1.2.9zm-2.4-5.6c-.4 0-1.2-.4-1.4-.6.5-.9 1-1.9 1.4-2.8 1.6.3.3 2.3 0 3.4zm-2.5-.8c-.4-.1-.7.1-1.1-.2-.4-.9.6-2 .8-2.9.5-.2 1 .1 1.5.2-.1.9-.7 1.9-1.2 2.9zm-1.5 6.1c-.7-.2-1.2-.7-2-1-.3-1.6-.5-3.2-.5-4.8 1.1.4 2.6.2 3.5 1.1.8.9.3 4-1 4.7zm-.8-6.8c-.6-.2-1.5-.2-1.9-.8.4-.8.9-1.7 1.2-2.5.6-.1 1.1-.1 1.8.4-.5 1-.8 2-1.1 2.9zM216 101c-.5 0-.9-.3-1.4-.7.5-1 .9-1.6 1.3-2.6 2.5-.1 1 2.5.1 3.3zm-19.4 27.9s.2.1.2 0c-.3-1.7-1.8-3.7-1.3-5.1.9.3 1.4 1.2 2.1 2s1.7 3 1.5 4.2c-.1.5 0 .7-.1 1.1-.1.6-.4.8-.6 1-.3.4-.5 1.1-.7 1.4-.6 0-1.4-.2-1.6-.9.9-1.5.7-2.8.5-3.7zm-10.8-12.7c1-.5 1.9-1.9 3.1-1.6-.1.1 0 .2-.1.3.9 1.3.6 3.2-.1 4.9-.2.4-.7 1.4-.9 1.7-1.6 1.6-1-1.4-1-2.1-.1-1.4-.6-2.1-1-3.2zm-13.4 18.4c-.5 2.5-2.8 2.7-4.7 1.4.6-.9 1.7-1.7 1.8-2.9.8-.5 1.6-.7 2.3-1.3.5.4.5.9.7 1.4-.5.6 0 1-.1 1.4zm-15.3 28.6c.4.3.7.1 1.1.5-.7.9-1.5 1.8-2.7 1.3.3-.5 1.3-1.2 1.6-1.8zm-.8-1.8c.1-.5.5-.8.9-1.2.3 0 .6.1.9.2-.1.6-.6.9-.9 1.2-.3-.1-.6-.1-.9-.2zm-1.1-.4c-.4-.1-1-.1-1.3-.6.6-1.7 3.1-.5 1.3.6zm.7 2.2c-1.1.7-2 2.2-3.5 1.2.2-1.6 2.7-2.6 3.5-1.2zm-4.5-3.4c-.1-.6.3-.6.7-1.2.5.2 1 .2 1.5.5-.3 1.1-1.3 1.3-2.2.7zm.2 1.9c.5.1.9.1 1.4.4-1.2.7-1.6 2.4-3 1.8.1-1 1-1.4 1.6-2.2zm-2.6-2.5c0-.4.6-.9.9-1.2.3.1.6.1 1 .4-.2.9-1.2 1.3-1.9.8zm1.5 2.4c-.6.8-1.3 1-1.8 1.8-.4-.1-.9.1-1.1-.4.5-.8 1.1-1.3 1.6-1.8.4.3.8.1 1.3.4zm-2.4-2.9c-.5 0-.9 0-1.5-.5.2-.7.5-.7 1-1.2.4.4.8.2 1.3.6-.3.4-.6.8-.8 1.1zm-.1 2.3c-.8.4-1.9 2.6-3.1 1.4.3-.5.8-1.3 1.5-1.9.5.2 1 .2 1.6.5zm-27.9-11.1c1.3-1.4 3 .8 2.9 2.1-.5.6-1.1.8-1.7.9.2-1.2-1.4-1.9-1.2-3zm6.4 22.8c1.1-.9 2.2-2 3.6-1.8-.8.9-2.3 2.3-3.6 1.8zm5.2-1.2c.1 0 .1.1.2.1-1.2.7-2.2 2.4-3.7 1.6 1.2-.5 2.2-1.9 3.5-1.7zm-6.1.8c-.5-.3-1-.3-1.3-.5 1.6-.8 2.5-2.6 4.2-1.7-.7 1-2.1 1.6-2.9 2.2zm-2.1-.7c-.3-.1-.1-.3-.4-.4 1-.3 1.6-2 2.8-1.8-.5.9-1.7 1.4-2.4 2.2zm1-2.3c-1.1 0-2.2 2.4-3.7 1.4.6-1 2-1.6 3-2.4.3.3.5.2.8.3 0 .2 0 .5-.1.7zm-5.1.8c.7-.9 2-2.2 3.1-2.2-.6 1.1-2 2.1-3.1 2.2zm-1.5-.5c.1-1.1 1.6-1.5 2.2-2.5.4 0 .7.2.8.6-.9 1.1-2 1.6-3 1.9zm-2.2-1c1.1-.6 2-2.1 3.2-2.1-.7 1-2 2.5-3.2 2.1zm-1.6-.5c-.1-1.2 1.9-1.9 2.7-2.6.2.3.2.2.6.4-1.1 1.4-2.1 2.3-3.3 2.2zm-1.5-.6c-.5-.6.5-1.1 1.1-1.5s1.4-1.2 1.9-.9c.1 0 .1.1.2.1-1.1 1-2.2 1.5-3.2 2.3zm-2.1-.9c.2-1.1 1.7-2 2.5-2.7.4.2.8.1 1.2.5-.5 1.2-2.3 2.5-3.7 2.2zm-17-4.6c1-.5 1.9-1.2 3-1 .3.7.7 1.3.3 2.1-.9.4-1.7 1.4-2.8 1.1 0-.7-.2-1.5-.5-2.2zm20-65.2c1.1.1 2.2-.6 3.3-.3 0 1.4-.9 3.1-1.5 4.6-1 .2-2.1.2-3.2-.2.6-1.3.9-2.7 1.4-4.1zm-.7-2c0 .1-.2.7-.4.4-.2-.2.2-.5.4-.4zM132 74.5c.1 1.8-.1 3.8-.6 5.5.5.8 1.7.6 2.5.5 1.4-.2 2.5-.7 3.6-1.1.8-2 0-3.6 1-5.6-.5-2.2-1.7-1-3-.7-1.2.3-2.3 0-3 .2.2.3-.3.5-.5.7-.8-.4-1.3.1-2.3-.7.1-.3.3-.7.6-1 1.8-.1 3.8-.6 5.5-1.2 1.4-.5 2.9-.8 4.2-1.2.9-.3 2-.6 2.7-1 .9 0 1.4-.2 2-.7 3-.3 5.8-2.1 9.1-2.4-.5 1.8-.9 3.5-2 5.1-.2 1.7-1 3.8-2.1 4.9-1.3 1.4-3.6 1.7-5.4 2.5-.7.3-1.2.7-1.8 1-.4.2-1 .1-1.4.2-.1 0-.2.3-.3.4-.7.4-1.6 0-2.1.8-.7.1-1.5-.1-2.1.6-1.7.1-3.2 1.3-5 1.2-2.8 1.2-5.5 2.2-8.2 2.9-.1-.8.5-2.7 1.1-2.9 1.4-.6 4.5-.9 5.8-1.5.6-.9.1-1.5.8-2.4-.1-.9-.1-1.9.4-2.9-.2-.5.1-1.4.5-1.2zm79-15.1c-.6 1.7-.5 3.5-1.1 5.7.4.2-.1.6.2.9-.8 3.6-1.1 7.5-2 10.9 0 3.6-1.4 7-1.1 10.5-.2.9-.4 1.8-.5 2.6-.1.8.2 1.8 0 2.5 0 .2-.3.3-.3.5 0 .4.2.7 0 1-.4.8-2 1.6-2.9 2.3-.4.3-.6.8-1.1 1.1-.3.2-.8.2-1.2.4-1.6 1-3.2 2.4-4.6 2.9-2.3 1.9-4.8 2.6-7.1 4.6-1.5.6-2.9 1.9-4.1 2.4-.5-.9-.1-1.9-.1-2.9 0-1.3 0-2.7.1-3.7.3-2.3 1.4-4.8 1.8-6.7.2-.8 0-1.8.2-2.7.2-1.1.5-1.7.7-2.5.4-2 .6-3.9 1-5.7.2-1 .3-1.8.6-2.7-.4-.2.1-.5-.2-.7.8-2.1.7-4.3 1.1-6.4.3-1.8 1-3.6 1.5-5.4.3-1.1.5-2.6.6-3.6.1-.9.4-2 .7-2.9.9-3.2 2.1-6.2 2.3-9.1.6-1.2 1.1-2.4 1.1-3.6 1.7-3.4 2.1-6.7 3.9-9.8 4.5-1.1 9.1-1.9 13.7-2.3.1.1.2.1.3.2.3 2.5-.9 5.3-.8 7.8-1.2 3.5-1.3 6.1-2.3 9.3.5 1.7-.9 3.6-.4 5.1zm-1.7 37.8c-.2.4-.4.6-.7.8-1-.2-2.2-1.3-2.5-2.1.1-.6.7-.9 1.1-1.3.7.9 1.4 1.7 2.1 2.6zm-1-2.9c.1-.2.3-.8.7-1 1.1.6 1.2 1.3 2.1 2.2-.2.6-.5.7-.9.9-1-.5-1.4-1.4-1.9-2.1zm-30.7 9.8c.5.5.6 1.2 1.1 1.6.6.5 2.4.4 3.3-.3.6-.4.7-1.2 1.3-1.5-.1 1.8-.6 3.7-1 5.5-1.6 1.2-3.2 2.2-5 3.4-.4-2.8-.6-5.7.3-8.7zm-2.8-5.6c-2 1.6-4.1 3.6-6.2 5-3.2 1.6-6.6 4.4-9.9 5.8-1.5 1.5-4.6 2.5-6.6 4.5-5 2.7-9.7 6.7-15 7.9-.1-.4.1-.8.2-1.3 4.1-1.8 8-5.2 12.1-7.3 4.7-3.1 9.7-5.8 14.3-8.8 4.4-2.8 8.7-5.9 13.1-8.5 0-.1.1-.1.2 0 .3 1.4-1 1.7-2.2 2.7zm5.6 3.1c1.5-.3 1.1 2.3-.1 2.6-1.1-.4-.6-2 .1-2.6zm-1-1.2c-.5.7-1.4 1-1.4 1.8-.5-1.6.1-3.3.6-5.2 1.3 1.5 3.1 2 4.3.8.7-.6.7-1.7 1.5-2.1-.3 2.2-.4 4.4-.8 6.6-.8-1.9-2.6-2.8-4.2-1.9zm2.6-18.5c.5.4.9.8 1.4 1.3 1.2-.1 2.7-.5 3.6-1.4 0 .3 0 .7.2 1-1.4 4.3-1.5 8.1-2.7 12.5.1-2.1-2-3.4-3.9-2.5-.9.3-1.2 2-1.8 2.1.2-3.4 1.2-6.5 2.3-9.9-.4-1 .3-2.3.9-3.1zm10.5-27.1c.1-.1.2-.1.3 0-.5 1-.1 1.9-1 3-1.6-1.7-3.3-.8-4.8-.2.6-1.2.7-2.7 1.5-3.6 1.3 1.6 2.9 1.3 4 .8zm-.6-2.7c1 1.2-1 2-1.6 1.5-.9-.6.5-2.9 1.6-1.5zm-1.4 7.7c-.6.4-1.4.9-2 .4-1.1-.8.5-3.3 1.8-1.4 0 .4-.1.8.2 1zm.9 1.4c-.3 1.3-.4 4.1-1 5.2 0-2.3-3.4-3.8-4.8-1.3-.4-1.6.5-3.8.9-5.3.3 2.8 3.9 2 4.9 1.4zm-3 6.3c-.5.1-1.1.1-1.7-.1-.1-.5.3-1.1.5-1.7 1-.5 2.3.7 1.2 1.8zm1.8-.4c.1-.1.2-.1.3 0-.5 2-.5 3.9-1.2 5.9-.6-.2-.4-.8-.7-1.2-1.3-1.7-3.1-1.1-4.4.5-.5-1.5.3-3.2.8-4.8 1.1 3 4.7 1.7 5.2-.4zm-4.4 7.5c-1-.5-.1-1.5.2-2.1 2.2-.8 1.3 2.8-.2 2.1zm2.8.5c-.1.1.1.1.2.1-.2 1.3-.6 2.7-1.2 4.1-1.3-1.4-3.4-2-4.8-.4 0-1.2.2-2.8.9-3.9 1.4 1.9 3.5 1.5 4.9.1zm-4.5 6.3c-1.1-.8.6-3 1.5-1.6.7.9-.6 2.2-1.5 1.6zm-3.6 14.3c.4-.8.6-1.8 1.5-1.9 1.7 1.3-.8 4.1-1.5 1.9zm6.6 12.2c.2-.4.5-.5.8-.7 1.3 1.5 2.1 2.2 3.5 3.8-.2.4-.5.5-.7.6-1.9-1.4-2.7-2.2-3.6-3.7zm2.5 4.2c0 .5-.3.7-.8.9-1.2-1-2.4-2.8-3.9-3.8 2-1.8 2.7 2 4.7 2.9zm-.2-6c.3-.1.7-.2 1-.4.9 1.3 1.9 2.5 3.4 3.7-.4.5-.8.7-1.2.9-1.5-1-3.8-2.4-3.2-4.2zm2.1-.4c.1-.6.5-1.3 1.1-1.3 1 1 2.2 2.1 2.9 3.5-.4.5-.7.9-1.1 1-.8-1.4-2.1-2.1-2.9-3.2zm2.1-1.9c.3-.5.7-.5 1.1-.8.9 1.4 2.2 2.2 2.8 3.6-.2.3-.4.4-.7.5-1.3-.8-2.5-2.3-3.2-3.3zm5.8 1.3c-1.3 1.6-3.5-1.6-3.7-2.7 1.7-1.4 2.5 1.8 3.7 2.7zm-1.6-3.8c.6-1.2 1.6-.3 2 .2v-.1c.6.9 2.3 1.9.9 2.9-1-.4-2.3-1.7-2.9-3zm2 5c.5 1.4.7 2.8-.2 4.5-1.2-.2-1.8-1.9-2.6-2.4.9-.8 1.8-1.8 2.8-2.1zm.4 13.5c.9-1.9-.3-4.3 1.5-5 2.7 2.2 2.3 5.5.1 8.8-.9-.3-1.7-1.4-2.8-1.7.3-1 .8-1.3 1.2-2.1zm-.3-19.6c.3-.6 1-1.1 1.7-.9.2.9 1.4 1.7 2 2.5-.1.2-.1.3 0 .4-.3.4-.7.6-1.1.8-1.1-1-2.1-1.9-2.6-2.8zm5.3 2.2c.6.8.1 2.5-1 2.6-.5-.5-.6-.7-1.2-1.1.7-.7 1.4-1.4 2.2-1.5zm-.6-1.1c-.8-.6-2-1.7-2.5-2.8.4-.5.8-.6 1.2-.9.9 1.2 3.5 2.9 1.3 3.7zm.9-4.9c.2 1.2 2.2 1.6 1.9 2.6-.3-.1-.5.2-.7.5-1.4-.7-3.8-3.2-1.2-3.1zm-9.6-51.2c-.4-.4-.5-.8-.9-1.2-1.1-1-2.5-.6-3.5-.6.2-.8.7-1.5.9-2.3 2-.1 3.9-1 5.9-1-.6 1.7-1.2 3.5-2.4 5.1zm-1.7 1.6c-.8.2-1.7.6-2.4-.3 0-1.6 2.8-1.4 2.4.3zm-1.4 2c.7-.3 1.3-.7 2-.7-.6 1-.6 1.8-1.1 3-1.5-1.3-3.2-.8-4.5.4-.1-1.4.5-2.9 1.2-4.4.4.9 1.4 1.6 2.4 1.7zm-2.5-5.9c-2.1.5-3.9 1.2-5.9 1.8-.7.2-1.5.8-2.2.9-.3.1-.7-.1-1.1-.1-.2 0-.2.3-.4.4-.2.1-.7-.1-1 0-.8.1-1.5.5-2.1.6.2 0 0-.2-.1-.2-.5 0-1.1.5-1.7.6-.9.1-2.3-.1-2.7.8.6.3 1.3.3 2 .2 2.1-.4 4.1-.8 6-1.3.3-.1 1-.1 1.1-.2.2-.1.1-.3.3-.4.2-.1.5 0 .7 0 .9-.3 1.7-.7 2.6-.9 1.4-.4 2.8-1 4.2-1.1-.2.7-.2 1.3-.6 1.8-3.5.6-7 1.8-10.5 2.6-.3.2-.6.2-.9.6-.8 0-1.5.1-2.2.7-1.1.3-2.8.3-3.5 1.3 1.1.2 2.1-.5 3.2-.4 3.8-1.8 7.8-2.5 11.7-3.9.6.3 1.1-.4 1.8 0 .2.4 0 .9-.4 1.4-1.6.6-3.5.8-5.2 1.5-2.8 1.1-6.4 2-8.9 2.8-1.1 0-3.5.4-3.8 1.4 4.9-.6 9.7-2.2 14.4-3.8 1-.3 2.1-1 3.2-.8 0 2.2-2.5 1.8-4.2 2.7-1.7.8-3.3 1.1-5.2 1.8-2.4.8-5 1.8-7.2 2-1 .9-3.2.2-3.6 1.8 1.1 0 2.2-.4 3.2-.9.2.3.4.1.6.1 2.7-1.1 5.8-1.2 8.6-2.9.2-.1.4.2.5.1 2.1-.8 4.2-1.6 6.4-2 .2.5 0 1.1-.5 1.7-1.4.3-2.6 1-4 1.1.2.2-.4.1-.5.5-5.1 1.4-10.1 3.5-15.3 4.7-.2.4-.7.5-.3.9 5.7-1.3 11.7-3.8 17.5-5.5.7-.5 1.5-.8 2.3-.6-.2.7-.2 1.3-.6 2-2.9.6-5.8 1.7-8.6 2.7-.9-.2-1.7.2-2.4.7-.1.1-.4-.2-.5-.1-2.7 1.2-5.9 1.9-8.7 3.2.6.5 1.5 0 2.1-.2 4.1-1.3 8.3-2.4 12.2-4 1.9 0 3.5-1.2 5.4-1.2.2 1.8-2.1 1.6-3.2 2.1-2.8 1.1-5.9 2.4-8.5 3.1.1.4-.3.1-.4.4-2.1.3-4.4 1.2-6.3 1.7-.3.1-.7.3-1 .2-.5.7-1.7.2-2 1.1 7.2-.9 14-4.3 20.6-6.1.3.4-.2 1-.3 1.5-2.8 1-5.5 2.3-8.4 3.2-.2.3-.5.1-.7.5-.3-.2-.6-.1-.8.3-.6-.2-1.2.3-1.8.3-2.8 1.1-5.6 2.6-8.4 3.1-.8.9-2.4.2-2.9 1.5 2.4-.1 4.6-.9 6.6-1.8 1.6-.7 3.4-1.4 4.9-1.9.4-.1.7-.4 1.1-.6 1.9-.8 4.1-1.3 6.1-2 1.3-.5 2.7-1.3 3.7-1.4.2.3.1.6-.1.9-3.4 1.3-6.8 3-10.3 4.1-.1.3-.4.2-.5.5-.5-.1-1 .4-1.3 0-2.4 1.8-5.7 2.4-8.3 4.3-1 .3-2.9.5-2.9 1.5 2.7.1 5-2.1 7.5-2.8 3.3-1.9 6.7-3 10.1-4.2 1.8-.7 3.5-1.7 5.4-2 0 .6-.3 1.2-.5 1.9-1.7.2-3.3 1.3-4.9 2.1-2.9 1.1-5.9 2.4-8.8 3.4-.2 0-.5.1-.7 0-1.7.6-3.6 1.7-5.4 2.4-.8.3-2 .3-2.2 1.4.6.2 1.1 0 1.6-.4 3-.4 5.7-2.5 8.6-3.2 3.8-1.5 7.6-3.2 11.4-4.7.9 2.5-3.5 2.4-3.9 3.4-1 .2-1.9.7-2.8 1.2-1.3.6-3.7 1.4-4.9 2.4-.7-.3-1.3.3-1.9.3-1.1.4-2 1.1-3.1 1.6-2.1.9-4.7 1.4-6.2 3.2 1.8.1 3.3-1.4 5-1.6 3.1-1.7 6.6-2.9 9.9-4.4 1.1-.5 1.9-.9 2.7-1.3 1.4-.5 3.5-1.9 4.6-1.5.2.5 0 1-.1 1.5-2.5.8-4.4 2.3-6.9 3-.1.2-.2.3-.3.5-1.6.1-3 1.5-4.6 1.8-3.1 1.5-6.1 2.3-9.1 3.6-.9.8-2.7 1.1-3 2.5 2.2-.8 4-1.7 6.2-3 1.9-.6 3.2-1 5-2.1.1.1.3.2.3.1 1.3-.6 2.5-1.3 3.8-1.6 1.8-1.1 3.7-1.2 5.5-2.6 1 .3 1.7-1.3 2.7-.6-.1.3-.1.7-.3 1-6.2 3-12.9 6.3-19.3 9.4.1.1-.1.3-.2.4-1.1 0-1.6.7-2.6.9-.8 1.1-2.5.6-2.4 2 2.6-1 4.8-1.5 7.4-3.4 3-1.7 5.6-2.7 8.6-4.6 2.8-.8 5.4-2.6 8.2-3.4l-.3 1.5c-.9.2-1.6 1-2.5 1.2-4.2 2-7.8 4.3-11.8 6.1-.6.7-1.4.6-2 1.4-2.9.8-5.6 2.3-8.4 3.6.1.3-.2.6.1.8 1 .3 1.8-.4 2.6-1.1 1.7-.6 3.4-1.6 5.2-2.1 4.7-2.8 9.6-5 14.3-7.8.8.4 1.3-.9 2.1-.4.1.6-.7.9-1.3 1.2-4.3 2.9-8.6 4.7-12.8 7.1-1.8.2-3.4 1.4-5.1 2.4-.9.5-1.9.8-2.8 1.4-1.5.8-3 1.5-4.1 2-.7.3-1.3.7-.8 1.3 5.9-2.2 11.5-6.1 17.4-8.3 1.3-1.1 2.4-1 3.6-2.3 1.3-.5 2.5-1.1 3.7-2.2.7.2 1.1-1 1.8-.5.3.4-.2 1-.2 1.4-2.4 1.5-4.7 3.1-7.3 4.4-.8.4-1.9.5-2.6.9-.5.3-1.2.5-1.8.8-.5.3-1 .5-1.5.7-.7.3-1.3.9-1.9 1.1-1.1.4-2.2.6-3.2 1.1-1.5.7-3.2 1.9-5 2.8-1.1.6-2.9 1.1-3.2 2.1.1.3.2.1.5.3 2.6-1.2 5.1-2.7 7.6-4.1 1.2-.1 2.2-.8 3.2-1.4 4.3-2.1 8.5-3.6 12.5-6 .7-.4 1.3-1.2 2.3-1.2.1 2-2.5 2.2-4.1 3.1-.7.4-1.4.9-2.2 1.4-1.4.7-3.2 1.5-4.5 2.3-.7.5-1.2.6-1.8 1-1 .6-2.2 1.4-2.8 1.7-1.5.7-3 1.5-4.4 2.2-.7.4-1.2 1-1.8 1.3-.4.2-.9.2-1.3.4-1.6.8-2.8 2-4.3 2.4.3.2-.5.5-.2.7 1.3.6 2.3-.6 3.3-1.3.5 0 1-.4 1.4-.8 1-.3 1.9-.8 2.8-1.5 2.8-1.1 5.5-3 8-4.5 3.8-1.5 7.4-3.9 11.1-6 .4 1 0 1.7-.8 2.1-1.3.7-3 1.4-3.9 1.9-3.5 1.8-7.3 4.2-11 6.4-3.7 2.1-7.4 4.3-10.7 6.3-.5 0-1.7.5-1.3 1.3 2 .2 3.6-1.9 5.5-2.4 6.7-4 13.3-8.1 19.7-11.4.8-.5 1.4-1.3 2.2-1.3-.2 1.8-2 2.1-3.1 3.3-.3-.2-.6.2-.9.1-5 3.3-10.2 6.1-15.2 9.6-1.4.9-2.8 1.8-4 2.9-1.9.8-4.3 1.6-5.8 3.2.7.6 1.4.1 2.2-.3 6.1-2.8 12.4-8.1 18.3-11.2.1-.2.3-.4.4-.6 2.4-1.3 4.8-2.7 7.2-4.2.5 1.8-1.7 2.5-3.7 3.6-1.8 1-2.8 1.9-4.1 2.7-2.4 1.6-4.7 3.2-6.9 4.5-8.4 5.1-17.1 10.5-24.7 15.2-.2-1.5.4-2.9.9-4.3.5-1.3.6-2.9 1-4.4.4-1.4.9-2.7 1.4-4.2.3-.8.3-1.7.6-2.7.7-2.1 1.7-4.2 2.3-6.4.2-.8.1-1.5.4-2.3.8-2.6 2-4.7 2.8-6.7.8-2.7 1.5-5.7 3.2-8.3-.4-.2.1-.5-.1-.6 2.1-4.3 3.4-8.9 5.5-13.7-.2-.7.5-1.5.4-2.1 1.2-1.9 1.3-4.1 2.4-5.7-.2-.2-.1-.4-.2-.5 1.9-3.1 2.4-5.6 3.8-8.9 5-3.2 10.4-3.1 15.7-4.7 4.2-.2 8.3-1.7 12.5-1.9.6.2.2.7 0 1.1zm-79.8 108.9c-1.5-1.6-2.6-3.2-4-4.8 2.1-1.4 4.2-2.3 6.4-3-.8 2.5-1.2 5.1-2.4 7.8zm2.6 5.1c-.5.3-1 .1-1.5-.2 0-.8-.6-1.2-.4-2.1 1.1-.7 2.2 1.3 1.9 2.3zm-6.8-11.6c1.1-3.1.2-6 1.1-9.1 1.9 1.5 3.5 3.6 5.6 5.3 0 .4.2.7.1 1.1-2.2.9-4.3 2.5-6.8 2.7zm-9.3.4c.2-2.4 1.3-4.9 2.2-7.3 1.1.7 1.8-.4 2.8 0-.1 2.3-.8 4.7-1.6 7.2-1.1.5-2.3.2-3.4.1zm3.1 1.3c-.5 1.9-.8 3.1-1 4.8-1.2-.3-2.3 0-3.7-.4.4-1.3.1-3 1.2-4.4 1.2.3 2.3-.2 3.5 0zm0-12.3c.9-.3 1.8-.2 2.8-.1-.3.3.1.4-.2.7-.9.1-1.7.3-2.6-.1v-.5zm4.6-7.5c-.1 2-1.4 2.5-3 2.1-.3-.5.1-1.4.3-2.3.2-.8.2-1.7.3-2.3.4-2.3 1.4-2.2 3.3-2.2.2 1.2-.7 3-.9 4.3-.2 0 0 .2 0 .4zm-1 3.8c.1 0 .1.1.2.1-.2.2-.4.5-.5.7-.9-.2-1.9.7-2.6-.1.9-.9 2-.5 2.9-.7zm-.5 1.9c-.8.8-2.1.9-2.8.4.9-.7 1.9-.4 2.8-.4zm-.9 3.6c-.1.2 0 .4-.1.6-1-.4-1.8.1-2.7-.1.8-1 1.6-.4 2.8-.5zm-.7 11.2c.7 0 1.3-.3 2 0-.4 1.9-.5 4.5-2.7 5.1-.3-1.3.3-3.4.7-5.1zm.4-1.7c.5-2.5.9-5.2 1.8-7.5.4-.1.9 0 1.3.1-.3 2.5-.8 5-1.2 7.4-.6.3-1.2.1-1.9 0zm2.1-9c-.1-1.2 1-3.6 1.2-4.9.1-.5-.3-.5 0-.8s.8-.4 1.2-.3c0 2-.9 4.2-1 6.2-.5.1-.9 0-1.4-.2zm2.8-7.3c-.3 0-.6.2-1-.2.2-2.2 1-4.5 1.4-6.7.5 0 .9-.1 1.5.3-.8 2.2-1 4.4-1.9 6.6zm1.2-8.2c-.2-1.9 0-4 1-6.1.5 0 1 .3 1.5.5-.4 1.8-.9 3.7-1.4 5.5-.4.2-.7.2-1.1.1zm1.1-7.4c.3-.9.3-2.6.6-3.8.4-1.7 1.7-2 3.1-1.9-.3 1.7-1.1 3.8-1.7 6-.7 0-1.4 0-2-.3zm8.7-3.9c3.4-1.7 6.8-2.8 10.3-3.9 2-.9 3.6-1.3 5.7-2 2.2-.8 5.4-1.9 7.5-2-.1.4 0 .8-.5 1.2-2.8-.2-4.7 1.5-7.4 2.2-2.1 1.3-4.7 1.5-6.5 2.8-2.1.4-4.2.9-6.2 1.9-.5-.2-.9.1-1.4.1-1.1.6-2.2 1-3.3 1.3-.9.3-1.8 1.2-2.9.5 0-.2.5-.4.2-.5 1.7-.6 2.9-1.5 4.5-1.6zm-2.2-4c.4-1.7 1.4-3.7 2.2-5.6.2-2.3 1.7-5.6 2.6-8 .3-.9.3-2.1 1.4-1.8-.8 3.4-2.1 6.8-2.9 10.2-1.2 1.6-1.2 5.4-3.3 5.2zm17.2-19.8c-.7 2.1-.8 4.1-1.6 6.2.2.1.1.3.3.4-.8 2-1.1 5.1-1.9 7-.3.8-.9 1.1-1.7.9 1.7-3.8 2-7.9 3.8-12-.1-.8-.1-2.8 1.1-2.5zm1.2-.4c.6-.3.6-.7 1.3-.3-.2.9-.7 1.9-.7 2.7-.8 2.2-1.3 4.6-1.9 6.8-.4 1.5-.4 3.3-1.7 4.4.1-1.5.5-3.1 1.1-4.5.4-2.4.8-4.9 1.7-7.4-.2-.5.5-1.2.2-1.7zm6.8 10.4c-.5.1-1 .3-1.5.2 1-4.5 2.4-9.2 3.6-13.9.6-.2 1.1-.9 1.7-.6-.9 4.6-3.5 9.7-3.8 14.3zm4.4-12.1c.4-1 .7-2.4 1.2-3 .5-.5 1.6-.8 2.3-.8-.5 2.1-1.7 4.3-2.4 6.6-.4 1.4-.8 2.6-1.4 4.1-.1.3-.5.9-.6 1.3-.6 1.7-.3 4-2.2 3.2-.1-2 1.3-4.5 2-7.2.3-1.4.6-2.9 1.1-4.2zm-5.2 5.4c0 .5-.6 1.2-.8 2.1-.2.8-.1 1.7-.3 2.3-.1.3-.5.7-.6 1-.2.5 0 1.1-.2 1.4-.4.8-1.5 1.5-2.5 1.3 1-2.9 2-5.8 2.5-8.6.2-.8.9-1.9 1.2-3.2.2-1 0-3 1.8-2.8.1.1.2.1.3.2-.2 1.9-1.3 3.7-1.7 5.9 0 .1.3.1.3.4zm-2.8.1c-.2.2-.3.5-.5.5.2 2.3-1.5 4.6-2 7.2-.4.6-.9 1.4-1.4 1.4.8-4.8 2-9.2 3.4-14.1.5-.1.9-.4 1.4-.4-.2 1.8-.5 3.6-.9 5.4zm-7.1.4c-.2.7-.5 1.4-.6 2.1-.2.9 0 1.8-.2 2.7-.2.8-.8 1.6-1.1 2.5-.2.5 0 1-.2 1.4-.1.4-.5.6-.6 1s.1 1.2-.1 1.6-1.4.6-1.9.6c.6-1.2.8-2.6 1.2-4.1.2-.8.8-1.7 1-2.5.1-.2-.2-.3-.2-.5.1-1.4 1.3-3.5 1.8-4.9s.2-3.2 2-3c-.7 1.2-.8 2-1.1 3.1zm-2.9 2.3c-.1 2-1.2 4.2-1.5 5.8-.4.6-.6 1.2-.5 1.7-.9 1.2-.2 3.5-2.1 3 1-3.3 2.1-8.2 3.4-11.5.8-1.8.1-4.1 2.1-3.4-.4.6-.3 1.2-.8 1.9.3.9-.6 1.8-.6 2.5zm13.2 12.1c-.2.6-.1 1.3-.8 1.7-6 1.7-12.3 4.4-18 6.3-3.1 1.2-6.2 2.4-9.4 2.7-.1-.6.1-.9.5-1.2.8-.7 2.7-.9 4.1-1.4 2.2-.8 3.8-1.2 5.6-1.9 3.9-.8 9-3.1 13.1-4.5 1.6-.6 3.3-1.9 4.9-1.7zm-27.3 2.5c-1 .1-1.6.3-2.5.1.1-1.4.6-3.1 1-4.8 1-.2 2.1 0 3.1.1-.5 1.8-.7 2.9-1.6 4.6zm1.5 8.9c7-2.2 14.5-5 21.1-7 1.3-.6 2.5-1.3 3.8-1.6-.1.5-.2.9-.4 1.4-2.4 1.1-4.8 2.2-7.3 2.5-5.1 2-10.3 2.6-15.2 5.3-1.8.3-3.3 1.2-5.3 1.7 0-1.6 2-1.9 3.3-2.3zm42.8-60.3c.3 1.4-1.3 2.9-1.7 4.4-.1.3 0 .6-.1.9-.2.6-.9 1.4-1.1 2-.3.9-.5.7-1.4 1.2-1.5.7-2.4 1.2-3.8 1.4-.1.1 0 .2-.1.3-1.5.1-3.3.7-4.5.8s-1.8.5-2.6.9c-.6-.4-1 .3-1.6.4-1.5.4-3.4.3-5 .7-.6.6-1.5.4-1.8.4-.4 0-1.1.4-1.7.2 1.1-1.6 3.2-3.7 4.8-4.6 6.7-6.4 13.3-9.4 20.3-14.2 1-.2 1.9-.9 2.9-1.3.1.1.2.1.3.2-.7 2.4-1.8 4.1-2.9 6.3zm-33.2 36.8c.4-1.4.2-3.9 2-3.6-.8 1.7-1.3 3.7-1.5 5.7-.6 1.6-.9 3.5-1.8 5.5.1.5-.2 1.1 0 1.6-.4.7-.6 1.3-.5 1.9-.6.3-1.1.7-1.7.8 0-1.1.2-2.2 1-3.4.2-1.2.3-1.9.8-3.4.4-1.7 1.3-3.7 1.7-5.1zm-1.7 1.6c-.4.9-.1 2.1-.4 3.1-.1.3-.4.6-.5.9-.3.8-.3 1.7-.6 2.4-.2.4-.7.8-.8 1.4-.6 1.7 0 3.7-2.2 3.5-.1-.8.6-1.2.8-1.9.1-.3-.1-.6 0-1 .3-1.1 1.2-2.8 1.7-3.9.8-2 1.1-4.3 1.7-5.9.4-1.3.7-2.5 1.4-2.9.1.1.2 0 .3.1.2 1.5-.8 2.7-1.4 4.2zm-3.7-3.1c-1.1-.2-2.4-.1-3.2-.7 1.8-2.4 3.6-5.7 5.8-7.5-.4 2.7-1.8 5.5-2.6 8.2zm-.5 1.2c-.3 1.1-.4 2.3-1 3.2-1.1-.2-2.1.3-3.3-.1-.1-1.1.5-2.4 1-3.6 1 0 2.1.4 3.3.5zm-9.8 9.7c1.3-1.5 1.9-4.6 3.7-5.2-.3 2-1.4 5-3.7 5.2zm1.9.9c-.6 1.6-.9 3.1-1.5 4.7-.9.4-1.9.7-2.9.3-.2-1.4.5-2.8 1.4-4.2 1 0 1.9-1.1 3-.8zm-1.8 6.2c-.5 1.3-.4 2.5-1.1 3.9-.9 0-1.7.3-2.6-.1.4-1.5.4-2.8.9-4 1 .2 1.8-.3 2.8.2zm-1.5 5.3c-.1 2.1-.7 4.3-1.3 6.5-.9.4-1.8.9-2.8.2.4-1.4.7-3.2 1-4.7.1-.7.3-1.9.9-2.2.7.6 1.4-.1 2.2.2zm-3.5-1.3c-.2-.1-.3.2-.5-.1.5-.5.5-1.3.9-1.2-.3.5 0 .9-.4 1.3zm-1.2 1.6c.1-.2.8-.6 1.2-.3-.6 2.6-1.2 5.1-1.8 7.7-.6-.2-1.3.2-1.7-.5m1.2 1.6c.4.5 0 .8-.2 1.4-.4 2.1-.3 5.1-2.3 6.7-.7-.5-1.2.1-1.9-.3.1-2.2 1.5-4.5 1.8-6.7.5-.1.4-1.4 1.1-1.7.5.7 1 .4 1.5.6zm-1.9 9.1c-.1 1.6-.7 3.2-1.4 4.9-1.1-.4-2.1.2-3.2-.2.3-1.1.8-2.8 1.5-4.3 1-.1 2-.3 3.1-.4zm-1.8 7.2c-1.2 0-2.3.6-3.6-.2.2-.4.1-.7.5-1.2 1.1.4 4-.7 3.1 1.4zm-.5 1.4c-.8.8-2.3.7-3.5.6.1-.3.2-.7.5-1.1 1 .3 2.3-.2 3 .5zm-.8 1.7c-.2 1.5-2 .7-3 .8.1-.1-.1-.2-.2-.3.3-.3.1-.5.4-.7.9.1 1.8-.1 2.8.2zm-.5 2.2c-.9.8-2 .2-3 .3.1-.2 0-.4.1-.6 1-.1 1.9-.3 2.9.3zm-.6 1.7c-.3 2.3-1.2 4-1.3 6.4-.9.4-1.4.6-2.5.1.8-2.3.7-4.4 1.2-6.6.9-.1 1.8-.1 2.6.1zm-4.5 3.2c-.4 2.3-.3 5.5-2.8 4.7 1-2.2 2.2-5.6 3.4-7.9.4.9-.4 2.2-.6 3.2zm.5 5.2c.8-.4 1.7-.6 2.6-.5 0 2.2-1 4.5-1 6.7-1 .2-1.9 1-3 .7.1-2.3.6-4.6 1.4-6.9zm3 5.5c-.5-1.2.6-2.6.3-3.7.7-1.1 0-2 .8-3.1 1.2-.2 2.2-.6 3.3.1-.2.5.2 1 .2 1.5-.1.8-.9 3.8-1 3.9-.9 1.2-2.4.8-3.6 1.3zm6.4-1c1 .3.8 1.3.8 2.1-1.1.7-2.2 1.5-3.5 1.5-.2-.7-.4-1.5-.5-2.2 1-.7 2.1-.9 3.2-1.4zm-1.3-.7c0-1.3.6-2.6 1.2-4 .7.6 1.2-.4 1.9-.2-.4 1.1.6 2-.1 2.9-.7.9-2 .9-3 1.3zm6.2-1.3c.8.4.3 1.6.2 2.4-1 .7-2 .8-3 1.4-.6-.7-.6-1.6-.9-2.3.4 0 3.1-1.8 3.7-1.5zm.6 3.7c-.4.7-1 .4-1.2 1.1-.2-.1-.7 0-.6-.4.7.1 1.2-1 1.8-.7zm1.5.1c.1.1.2.2.4.3-1.2.8-2.2 2-3.8 1.7 1.1-1.2 2.3-1.2 3.4-2zm1.5.9c-.4 1-2.4 2.3-3.3 1.7 1.2-.7 1.9-1.7 3.3-1.7zm1.6.7c0 .2-.1.4-.3.6-1.1.1-2.2 2.2-3.2 1.1 1.2-.3 2.1-2.2 3.5-1.7zm.7.5c.2 0 .5.1.7.2-.9 1.2-1.9 1.7-2.9 2.5-.2-.2-.3-.4-.4-.6.9-.7 1.8-1.3 2.6-2.1zm1.3-9.2c.2-.6 1.1-.8 1.6-1.1 1.3 1.1 1.6 3.6-.2 3.5-.5-.8-.3-1.7-1.4-2.4zm-4.7-19.5c-.3-.3-.5 0-.8-.1-.2-2.4 1.5-4.8 1.2-7 .5-.5.4-1.3.6-2.1.2-.8.8-1.7.8-2.4 0-.1-.2-.2-.1-.4.4-1.4 1.7-1.3 3-1.8.9-.4 1.7-1 2.5-1.3.6-.2 1.4-.2 2.1-.5 1.1-.4 2.2-1.2 3.4-1.6.6-.2 1.4-.3 2.1-.5 2.4-.9 5.2-1.7 7.3-2.1.6-.1 1.1-.5 1.3-.2.8-.4 1.6-.6 2.4-.7 1.2-.9 2.5-.6 3.7-1.6.1.1.2 0 .3.1-.5 2-1.4 4-1.8 6.2-.1.8-.1 1.5-.3 2.2-.6 2.3-.6 2.7-2.5 3.5s-4.3 1.8-6 2.3c-.9.6-1.7.8-2.7 1.2-1.4.5-2.9 1-4.2 1.5-.7.3-1.4.5-2 .8-1.2.7-2.3.9-3.5 1.5-2.2 1.2-4.6 1.7-6.8 3zm23.9-1.6c-2.1.9-4.4 2.7-6.6 2.9 1.2-1.8 1.8-5.1 3.6-6.8 1.2 1.3 2.5 2.3 3 3.9zm-1.2 14.6c-.8-.5-.6-1.9-1.8-2.7.2-.5.6-.5.9-.8 1.1 1.1 1.6 2.2.9 3.5zm.4 2.3c-.3.6-.9.6-1 1.1-.5-.1-1-.4-1.2-.9.3-.8.9-.6 1.4-1.1.5.3.5.6.8.9zm-1.7-1.5c-.3.4-.7.4-1 .7-.8-1.1-1.2-2-1.9-2.7.6-.6 1.3-1.2 2.1-.9.2.9 1.1 1.8.8 2.9zm-3.4 1.9c-.1-1-1.1-1.8-1.4-2.7 1.7-2.2 4.1 2.9 1.4 2.7zm-2.9-13.3c-1.6 1.5-3.4 1.9-5 3.4-1-.2-1.8 1.3-2.9 1.1.8-3.2 2.9-6.1 4.2-8.7 1.6 1.3 2.4 2.4 3.7 4.2zm-6.2 14.7c.3 1.1 1.5 2 .9 3.2-.6.1-1.1.5-1.7-.1 0-.8-.5-1.7-.9-2.2.6-.6 1.1-.8 1.7-.9zm-1-9.3c2.2-1 4.2-2.7 6.4-3.3-1 2.8-1.4 5.5-2.9 8.4-1.1-1.8-3-3.3-3.5-5.1zm3.2 8.3c.5.9 1.7 1.7 1.2 2.8-.4.2-.8.5-1.3.6-.2-1-1-1.9-1.1-2.9.3-.3.7-.6 1.2-.5zm3.2-1.8c.1-.5.8-.6 1.3-.8 1.2.8 1.3 1.7 1.5 2.6-.3.5-.7.5-1.1.8-.7-.8-1-1.7-1.7-2.6zm5.1 2.8c-.1.2.4.3.5.5-.9 1-2.5 3.1-3.9 1.6 1-.9 2.1-1.8 3.4-2.1zm2.5 1.7c-.7 1.1-2.2 1.4-3.2 2.1-.3-.2-.5-.1-.8-.4 1.4-.9 2.4-3.5 4-1.7zm1 .4c-.5 1.2-1.8 2.7-3.1 2 .7-.6 2-2.1 3.1-2zm.9.6c.3.1.5.1.8.3-.3.9-1.8 2.3-2.9 2 .6-1 1.4-1.7 2.1-2.3zm1.5.9c.4-.1 1.1.4 1 .8-1.1.7-1.7 2-3 1.6.1-1.2 1.6-1.6 2-2.4zm1.6.8c.4.1 1.2.4 1.4.8-.7.9-1.9 2.5-3.3 1.2.7-.8 1.3-1.3 1.9-2zm3.6 1.9c-.9.3-1.7 1.9-2.8 1.1.3-.8 1.8-2.6 2.8-1.1zm.9.1c.4.2 1.1.4 1.3.8-.9.8-1.9 2.1-2.9 1.1.7-.8 1-1.5 1.6-1.9zm2.5 1.1c.3.1.8.3.8.6-.6.2-1.4 2-2.4 1.2.4-.9.8-1.2 1.6-1.8zm2 .8c.4.2 1.1.1 1.2.5-.2.8-1.1 1-1.5 1.6-.5-.1-.9 0-1.4-.4.2-.8 1.2-1.1 1.7-1.7zm1.6-1.9c-.3-.1-.6.1-1-.3.7-2 2.6-1.3 1 .3zm-2.2-.6c-.3-.1-.6-.1-.9-.3.2-1.1 1.4-2 2-1.2 0 .7-.7.8-1.1 1.5zm-2.6-.7c-.1-.4-.5-.2-.5-.5.5-.5.7-.9 1.4-1.7.4 0 .4.3.8.4-.3.8-1.1 1.7-1.7 1.8zm-1.9-.8c-.2-.1-.4-.3-.6-.4.3-.7.5-1.1 1.1-1.9 2.1-.2.6 1.8-.5 2.3zm-1.7-.9c-.2-.1-.4-.3-.6-.4.3-.6 1-1.4 1.7-1.9.2.1.3.2.5.3-.3.9-1 1.4-1.6 2zm-1.9-.9c-.4-.2-.3-.1-.6-.4.6-.8.8-1.4 1.6-2 1.7.6-.2 2-1 2.4zm-1.7-.9c-.4-.2-.5-.1-.7-.5.1-.6.8-1.5 1.4-1.8.3.3.6.2.9.5-.5.7-.9 1.3-1.6 1.8zm-2-1.1c-.3-.2-.4-.4-.5-.7.6-.6 1.2-1.5 1.9-1.1 0 .9-.7 1.2-1.4 1.8zm-2-9.8c-1.4-1.3-3.1-3.2-4.4-4.9 2.2-1.3 4.4-2.1 6.6-3.3.1.1.2 0 .3.1-.8 2.7-1.1 5.7-2.5 8.1zm4-.7c1.1 1.1 1.9 2.3 1.7 3.6-.2 0-.4.2-.6.3-.8-1-1.1-2.2-1.9-3.2.2-.5.5-.4.8-.7zm1-.1c.1-.7.8-1 1.3-1.4 1.2.9 2.9 3.7.5 4.2-.7-.9-.9-1.9-1.8-2.8zm3.5-2.6c.9 1.1 2.3 2.1 1.5 3.8-.4-.2-.7.6-1.1.2-.2-1.3-2.8-3.6-.4-4zm1-.8c.1-.3 1-.2 1.2-.7 1 .9 1.4 2 1.9 3.2-.3.6-.7.5-1.1.9-.4-1-2.3-2.5-2-3.4zm2.2-1.1c1-2.3 3.4 3.2 1.9 3.2-.6-1.1-1.5-2.1-1.9-3.2zm1.9-1.1c1.6-1.1 2.2 1.8 2.7 2.6-.3.5-.6.9-1 .7-.8-1.1-1.2-2.2-1.7-3.3zm3 5.5c1.2.2 2.3.2 3.5.5 2.1.5 4.1 1.4 6.2 2 2.7.9 5.8 1.5 9 2.4 4.3 1.2 8 2.3 12.8 3.6 2.3.7 4.9 1.3 6.7 2.1-1.3.3-2.9-.7-4.2-.3-1.9-1.2-3.9-.9-6-1.7-4.7-.5-9.6-1.7-14.4-3.1-1.1-.3-2-.9-3.1-1.2-.6-.2-1.3 0-1.9-.3-1.5-.5-2.8-1.1-4.4-1.7-.7-.3-1.5-.2-2.2-.5-.4-.2-.8-.5-1.2-.7-1.2-.5-2.7-.2-3.5-1.2.8-.6 1.8 0 2.7.1zm.6-3.3c-.8-1-1.5-2.1-1.8-3.2.3 0 .5-.4.8-.4 1.1 1.1 2.1 2.2 1.3 3.6-.1-.1-.2-.1-.3 0zm0-4.2c.3-.3.3-.4.7-.6.8.7.8 1.6 1.7 2.4 0 .6-.3.8-.2 1.1-.2.4-.4.2-.6.3-.6-1.2-1.2-2.2-1.6-3.2zm1.6-1c.5-.4.9-.9 1.5-.7.5.8 1.1 1.9 1.6 2.9-.4.8-.9.8-1.5.7-.4-1.1-1.6-1.9-1.6-2.9zm2.2-1.1c.2-.6.6-.4.9-.9.6 1.2 1.2 2.1 1.8 3.1-.4.5-.8.8-1.3.6-.4-.9-1.2-1.8-1.4-2.8zm2.4-1.8c1.1 1.1 1 2 1.9 3.1-.6 1.9-3.8-2.8-1.9-3.1zm1.2-.7c.3.1.5-.1.8.1.3 1 1 1.6 1.8 2.6-.4.7-.9.8-1.4.7-.4-1.1-1.8-2.4-1.2-3.4zm5.8.7c-.4.6-.8.7-1.3.8-.5-1.1-.9-1.7-1.2-2.7.1-.1.4-.4.7-.8.9.9 1 1.9 1.8 2.7zm-1.2-3.2c.5-.9 1.2-.9 1.8-1.4.8 1.1 1.8 2.1 2 3.3-.5.6-1.1.5-1.6 1.1-1.4-.6-1.3-2.1-2.2-3zm-.6 4.3c-.2.5-.6.5-.9.5-.3-.8-1.7-1.5-1.8-2.6.4-.6.6-1.2 1.3-1 .2 1.1.8 2.1 1.4 3.1zm.2 1.3c1.6-.9 3.5-1.8 5-2.5 1.6 1.5.7 4.4-1.4 5.3-1.8-.1-3.7-.5-5.6-1 .3-.7 1.3-1.3 2-1.8zm5.4-4.3c-.9-.6-2.4-2.7-2.1-3.4.3-.7 1.5-.7 2.1-1.3 1 .6 2.9 2.4 2.1 3.5-.4.6-1.5.1-2.1 1.2zm1.1-5.3c.6-1 1.8-1.7 2.8-1.9.9 1.1 1.6 2.3 2.2 3.4-.8 1.1-1.7 1.1-2.5 1.9-1.1-1.1-1.5-2.3-2.5-3.4zm6.1 2.7c.6 1.1.1 2.8-1.1 3.7-.5-.7-1.3-1.3-2-2 .7-.5 2-1.7 3.1-1.7zm-1.1-20.4c-4.4 3.7-8.7 4.8-13.2 8.8-5.5 3.2-11.3 6.5-16.7 9.1-1.2.6-2.3 1.5-3.6 1.5.4-1.2.9-1.6 2.1-2.2.5-.3 1.3-.3 1.8-.5 5.2-2.2 11.2-7 15.8-9.3 5.8-4 12.3-6.7 17.6-11.8.9-.4 1.8-1.3 2.6-1.9.5.5 0 1.3-.1 1.9-2 1.2-4 3.9-6.3 4.4zm5.4 19.5c-.1-.6-.6-.9-.7-1.6.5-.3.9-.7 1.4-.8 1.9 1.8 2.4 5.2-.1 7.1-.3-.3-.5-.2-.8-.4-.3-1.4.5-2.9.2-4.3zm1.7 6.6c.3.1.6-.1.9.3 1.3 2 1.7 5.1-.7 6.9-.9-.4-1.6 0-2.5-.7 2.7-1.7 2.4-4.4 2.3-6.5zm-3.5-14.2c.7-.5 1.3-1.3 2-1.4.5 1.5 2.1 2.8 2.4 4.3-1.9 2.1-3.7-1.3-4.4-2.9zm2.6-2c.6-.5 1.2-.9 1.8-1.1 1 1.1 2.3 2.9 3.4 4-.7.7-1.4 1-2.1 1.2-1.2-1.3-2.2-2.6-3.1-4.1zm5.8 3.6c1.2 1.2.7 3.5-.6 4.6-.5-1-.7-2.3-1.5-3 .5-1.1 1.7-.8 2.1-1.6zm2.7 6.5c1.5 2.1.4 5.2-1.7 7.4-.6-1.3-1.8-2.6-2.3-3.9.6-.6.4-1.1.6-1.6 1.4-.1 2.2-.6 3.4-1.9zm.7 10.8c.4-.5.7-1.1 1.2-.9.9 1.5.2 3.7-1.6 4.9-1.1 0-2.3-.5-3.5-.8.4-1.6 2.2-3 3.9-3.2zm-2.2-25.5c.5-.2.8-1 1.4-.7.7 1 2.5 2.6 3.3 3.9-.3.5-.7.7-1.1.8-1.7-1.6-2.2-2.6-3.6-4zm7.7 22.3c-.7 0-1.4-.6-2.1-1 .6-1 .7-1.9 1.4-3.4-.4-.7-.3-2.1-.3-3.2.2-.1.4-.2.7.1.4 1.6 1.4 3.2 1.3 4.9m.1 8.6c1.3-.8 2-2 3.3-2.9 1.5 1.9 1.5 4.4-.2 6.5-1.4-.4-2.8-.4-4.3-.9.1-.7 1.1-1.6 1.2-2.7zm.2-26.7c.7-.7 1.5-1.4 2.3-1.3.7 2.1 1.9 4.1.7 6.6-.6-.5-.2-1-.3-1.5-.4-1.6-2.1-3-2.7-3.8zm8.1 27.7c.1-1-.5-2.4-.2-3.1.3-.8 1.5-1.4 2.2-2.1 1.9 2.6 2.6 5.4 2.7 8.3-.2.3-.2.8-.5 1.3-1.7-.3-3.4-.3-5.2-.9.2-1.5.9-2.2 1-3.5zm2.8-8.1c.3-1 .4-2 .3-3 .9-.5 1.5-.9 2.5-2.1.2 0 .4.2.6.1.9 2.7 2 5.3.8 8.3-1.4-1.1-2.1-2.4-4.2-3.3zm1.1-18.8c.3-1 .7-2.1.8-3.3.8-.2 1.5-.8 2.1-1.6.2.3.3 0 .5.2 1 2.2 1 5-.8 7.2-.7-1-1.4-1.5-2.6-2.5zm5.1 27.3c2.4-1.5 2.6-4.2 3.4-6.1 2.3 2.1 3.4 4.3 3 7.1-.3 1.8-.1 3.3-1.3 4.6-1.6-.4-3.5-.5-4.9-1.1.4-1.5-.1-3-.2-4.5zm2-13.4c-.7-1.5-1.9-3-3.5-4.4-.4-2.4 2.7-2.9 3.7-4.8.7.1.5.9 1 1.3.1 2.6.8 5.4-1.2 7.9zm-.5-20.4c-.5-.5-1.1-.7-1.5-1.4.4-1.5.8-2.9.4-4.3 1.4.2 3.5.6 3.7 2.4-.3 1.7 0 3.7-1.1 5.3-.9-.3-1-1.3-1.5-2zm5.6 6c1.4 2 2.4 4.6.8 6.5-.9-1.6-2.7-3.2-3.3-4.5.9-.2 1.6-1.5 2.5-2zm-2.5-12.1c-.4-.3-.6-.1-1-.4.3-.8.9-1.9 1.8-2.7.1.1.2.1.3.2-.3 1-.7 2-1.1 2.9zm-2.3-.7c-.7-.2-1.4 0-2.2-.6.9-1.2 2-1.7 3-2.6.2.2.5.4.7.5-.1.8-1.1 1.8-1.5 2.7zm.7-4.6c-.9-.5-1.9-1.5-2.2-2.3 1.2-1.8 2.2.2 3.1 1 0 .7-.8.8-.9 1.3zm-.1-3.9c.3-.2.8-1 1.4-.8-.1.7.9 1.2 1.2 2-.2.4-.5.6-.8.9-.6-.6-1.6-1.2-1.8-2.1zm1.6-1.4c.4-.4.8-.6 1.2-.7.2.7.9 1.3 1.3 1.9-.2.4-.4.3-.6.7-.9-.7-1-1.2-1.9-1.9zm3.1-2.1c.4.4.9.7 1.2 1.3 0 .5-.6 1.5-1.2 1.4-1-.8-1.6-2.4 0-2.7zm-.1-18.3c-.2-.2-.2-.4-.3-.5.9-5.3.4-10.1 1.7-15.3-.3-.1-.1-.3-.2-.5.8-2.1.2-4 1-6.1 0-1.2-.2-2.9.3-3.9-.1-2.1.2-4.5 1.3-6.4.1.1.2.2.4.3-.2.4-.2.7-.4 1.1.5.3-.1.7.3.9-1 3.3-.6 5.9-1.6 9.1.1 2.6-.4 5.3-.7 7.9.2.1.1.3.3.4-.8 3.7-.6 7-1.1 10.8.3.2.1.4.3.6-.5 5.5-.9 10.8.2 16.2.1.8-.2 1.7-.8 2-.7-.5-.7-1.2-.3-1.9-.7-4.8-1-10-.4-14.7zm6.7-27.4c-.3 5.3-.2 10.6-1.4 16.1.4 2.5-.8 5.2-.3 7.7-.1.2-.3.4-.4.6.3 1-.1 1.9-.4 2.8.2.1.3.2.3.4-.8 3.9-.1 7.6-.9 11.5.4.9.2 2.8-1.2 2.8.2-2.5-.3-4.8 0-7.1-.7-1.9-.2-3.8-.6-5.9.7-2.1-.1-4 .6-6.1.1-3.4.2-6.8.7-10.2-.3-.7.3-1.6-.2-2.1 1.6-5.7.7-10.4 2.8-16.1.5-.1 1-.5 1.6 0-.3 1.2.3 2.3-.4 3.5 0 .7.4 1.3-.2 2.1zm2 40.4c-.2.1-.7.5-1 .7-.7-.5-1.1-1.1-.3-1.9.7-.3 1.4.6 1.3 1.2zm-.2-2.1c.2-.5.6-.6 1-.8.5.4.8.7.9 1.2-.4.4-.7.8-1.2.7-.2-.4-.4-.8-.7-1.1zm-1.3 3.5c-.1.5-.7.7-1.1.9-1-.6-1.2-1.8-.1-2.2.5.4.7.7 1.2 1.3zm-4.3 4.3c-.3-.2-.5.2-.7.2-.7-.5-1.2-1-1.2-1.5.4-.4.7-.8 1.2-.9.8.8 1.6 1 .7 2.2zm.3.8c.7.9 1.6 2.3 1.1 3.2-.7-.4-2.4-.4-3.1-1.1.4-.7 1.4-1.4 2-2.1zm-.1-3.8c.5-.7.7-.8 1.2-.9.5.3.3.8.9 1.1-.1.6-.4.8-.9 1.2-.4-.3-1.2-.8-1.2-1.4zm3 1.6c.3-.8.8-1.2 1.4-1.8 1.7 2.2 1.1 4.7 2.9 6.8-.2.7.2 1.2.2 1.9-.5.3-1.1-.2-1.7-.4-.9-2.2-1.7-4.4-2.8-6.5zm2.4-2.8c.5-.6 1-1 1.5-1.5.1.1.2.1.3.1.3.5.2 1 .8 1.4-.2.6.3 1.2.3 1.8 1 1.2.5 2.5 1.6 3.7.1 1.9 1.4 3.6 1.7 5.5-.8-.2-1.4-.4-2.1-.6-1.9-3.6-3-6.9-4.1-10.4zm2.5-4.1c-1-.6-.7-1.3 0-1.8.4.3.3.6.8.9 0 .4-.4.8-.8.9zm-.2-43.5c-.4 1.7-.5 3.3-.3 4.9-.4 2.7-1 6.6-1.1 9.8-.7.7-.2 1.2-.7 1.9.4 1.5-.7 3.3-.2 4.8-1.4 5.6-1 11.5-1.4 17.5-.4 1.5.9 5.1-1.8 6.3-.6-.5-.3-1.2-.1-1.8-.1-2.1-.1-4.1.3-6.3-.3-1.4-.2-2.8.3-4.3-.3-3.2.8-6.9.5-9.7.6-1.8.8-3.5.5-5.2.9-3.6 0-7.3 1-11.1-.3-.8-.2-2 .4-2.7-.5-1.4.4-3.1.6-4.6.6-.4 1.8-.6 2 .5zm-5-5.6c.3 0 .6.2.9.2.9-.1 2.2-1.1 2.8 0-1.4 1.2-2.5 2.6-4.1 3.4-1.3-1.3-3.7-.9-4.1-2.7.9 0 2.8-.8 4.5-.9zm-5.7 13.7c.1-1.1.7-2.1.1-3.1.2-1 .5-2 .3-2.8.3-.5.4-.9.4-1.4.3 0 .6-.6 1-.2-.1 2.8-.7 5.8-.6 8.6-.6 3.6-.5 7.1-1.3 10.8 0 1.8-.1 3.5-.8 5.4.2.3-.1.6.2.9-.9 4.3-.3 8.4-1 12.8.5 3.9.4 7.5.5 11.8-.9.6-1.6 1.8-2.6 1.5.3-.7 0-1.3.6-2.1-.3-4.4.6-9.6.7-14.3.3-.3.1-.4.4-.7-.4-2.5.7-5.3.4-7.8.7-2.7.5-5.2 1.1-7.8-.3-.3 0-.6-.2-.9.7-1.2.4-2.1.5-3.2.1-2 .5-4 .7-5.9-.2-.5-.5-1.1-.4-1.6zm-1-4.7c.1-.1.1-.2.2-.1.2 1.1-.1 1.9.2 2.9-.6 3.6-.3 7.2-1.3 10.7.4.3.1.6.3.9-.1.2-.2.3-.3.5.4.8-.2 1.7-.3 2.6-.1.6.2 1.4.1 2-.1.4-.4.7-.4 1.1 0 .2.2.4.2.5 0 .2-.3.3-.3.5-.1.6.2 1.5.1 2.3-.2 1.3-.2 2.3-.3 3.4-.2 1.5-.6 2.9-.6 4.2 0 .4.2.8.2 1.3-.1 1-.5 2-.6 3-.1 1.2 0 2.4-.1 3.6-.1.7-.4 1.4-.5 2.1-.1.9.3 1.7.3 2.6-.1.2-.3.4-.4.6.5.6-.3 1.4.2 1.9-.7 1-.1 2.6-.7 3.7-.3.5-.7.6-1.1.9-.8.7-1.6 1.8-2.7 1.8.3-.9.3-1.8.7-2.7-.1-.3.1-.6-.1-.9 1.1-2.7.3-5.2 1.1-7.8-.4-.5.1-1.1.2-1.7.1-.4-.2-.8-.1-1.2 0-.2.3-.3.3-.5.3-1 .1-2.2.2-3.2.2-1.5.5-3.1.9-4.6.3-4.3 1.3-8.7 2.2-12.9-.2-2.3.6-4.7.5-7 .6-3.3 1.1-7.1 1.9-10.5zm-5.9-7.2c1.1-.1 3.2-.5 4.6-.3-.7 1-1.7 2.6-2.6 3.2-1.8-.9-3.7-.5-5-2.1 1-.3 2-.7 3-.8zm-9.8 1.4c1.3.1 2.4-.5 3.7-.4-.1.2.2.2 0 .4-.8.8-2.2 2.9-3.6 2.9-.4-.9-.4-1.8-.1-2.9zm-44.7 13.2c.3-.6 1.7-.9 2.5-1.3 2.1-1.2 4.6-2 6.6-3.2 2.5-.7 4.5-2 7.2-2.4 8.4-3.4 17.6-5 26.6-6.1.7 1.1.7 2.3.7 3.5-.2.1-.4.1-.6.4-9.3.7-18.4 2.7-27.5 4.9-4.2 1.9-9.3 3.3-13.4 5.7-.3.2-.6.6-.9.6-.7 0-1.4-1.6-1.2-2.1zm-1 .3c.7.9 1.3 1.8 1.1 2.9-.5-.1-.9.5-1.4.6-1.1-.7-1.3-1.5-1.7-2.3.6-.9 1.4-.7 2-1.2zm-3 1.4c1 .7 1.2 1.5 1.8 2.3-.3.6-.8.8-1.2.9-.6-.7-1.4-1.4-1.8-2.2.3-.7.8-.6 1.2-1zm-1.8 1.3c.4.9 1 1.4 1.6 2.3-.4.6-.8.8-1.2 1.1-1.3-1-3-3-.4-3.4zm-2.2 1.3c.4.9 1.2 1.7 1.7 2.6-.6.5-1.2 1-1.9.7l-1.4-2.4c.2-.3.9-.9 1.6-.9zm-2.9 1.5c1.1.1 1.3 1.4 2.1 2.4-.3.6-.7.6-1.1.8-1-1-2.6-1.8-1-3.2zm-1.9 1.3c1.1.4 1.1 1.4 2 2.3-.2.6-.7.6-1.1 1.1-.9-.2-1.6-1.2-2.2-2.1.7-.9.8-.6 1.3-1.3zm-1.8 1.6c.6.8 1.4 1.5 1.6 2.3-.9 1.8-2.7-.3-3.1-1.2.5-.6 1-1 1.5-1.1zm-2.1 1.7c.5.6 1.8 1.3 1.8 2.2-.2.2-.4.3-.6.7l-2.3-1.7c0-.6.6-1.1 1.1-1.2zm-1.8 1.5c.7.8 1.1 1.5 1.7 1.9-.4.9-1.3 1-1.6 1.3-.4-.6-1.4-1.1-1.7-1.9.6-.9.9-1.2 1.6-1.3zm-2.3 1.7c.8 1 1.5 1.2 2 2.1-.3.6-.7.7-1 1.2-1.1-.2-1.8-1.1-2.3-2.1.1-.4.8-1 1.3-1.2zm0 4.1c-.5.6-.8.7-1.5.6.2-.6-1.1-.5-.8-1.1-.2.2-1-.4-1-.8 1.4-2 2.6.4 3.3 1.3zm-3.7-.7c.7.9 1.7 1.3 2 2.3-1.5 2-2.6-.4-3.3-1.5.2-.3.7-1 1.3-.8zm-2.1 1.5c1.2 1 3.1 2.5 1.2 3.5-1.1-1.1-2-1.2-2.3-2.5.3-.4.6-.7 1.1-1zm-2 1.5c.9.9 1.9 1.7 2.5 2.8-.1.2-.3.4-.4.6-1.2 0-2.1-1.6-2.8-2.4.1-.5.7-.6.7-1zm-1.3 1.5c.9.9 1.7 2.1 2.4 2.8-.4.2-.4.3-.7.5-1.2-1.2-1.9-1.6-2.5-2.6.2-.3.5-.6.8-.7zM70.3 171.3c0-.9-.2-1.7-.3-2.6 2.2-1.7 2.7 3.3.3 2.6zm2.7-.6c-.4-1-.9-1.9-.5-3 1.8-1.1 2.1 2.5.5 3zm2.1-.4c-.2-1.1-.6-2.3-.3-3.5 1.4.7 1.7 3.1.3 3.5zm1.9-6.5c.4-.3 1 .1 1.4-.1.8-1 1.8-2.4 2.4-3.8.3-.7.7-2 0-2.4-1.3 1.3-1 4-2.7 4.7 1.8-3.2 2.4-6.6 3.7-9.7.5-1.2 1-1.9 1.3-2.9 1.1-3 1.9-6.1 2.4-9.1.2-.9.6-1.7.9-2.6 1.2-3.9 2-7.9 3.9-11.3 0-1.1.6-2.4 1.1-3.6.8-1.9 1.8-4 2.8-5.9 1.8-5 4.4-10.7 6.8-15.9 2-4.1 2.9-8.5 5.9-11.7.2-1.2 1.2-2 2-3.1 2.4-3.5 5.2-6.7 7.9-9.6.2-.2.3-.7.5-.9.2-.2.4-.1.6-.3.4-.4.6-.9.9-1.3 1.5-1.6 3.6-3.1 4.9-4.4.1.1.2 0 .3 0 .8 1 2.1 1.7 2.5 2.6-3.6 4.4-7 8.5-10.5 12.7-3.8 4.5-6.1 8.8-8.8 12.9-.9 2.4-1.8 4.4-3.3 7-2.1 3.6-3 7.9-5.2 11.5-1.9 3.3-2.8 6.5-4.1 9.8-.7 1.4-1.3 3-1.9 4.7-.8 2.1-1.4 4.4-2.1 6.3-.3.7-.9 1.3-1.1 2-.2.5-.2 1-.4 1.5-1.7 4.6-2.6 9-4.6 13.3-.9 1.9-1.9 4.4-3 6.5-1.4 2.6-3.1 5.1-5.7 4.6.2-.4.8-.9 1.2-1.5zm.2 6c0-1.1-1-2.1-.9-3.3 1.6-.8 2.8 2.8.9 3.3zm2-.8c-.2-1-.7-2-.7-3 .5-.4 1-.2 1.6 0 .2.9.8 3.3-.9 3zm2-.7c.3-1.1-.2-2-.2-3 2-1.2 2.3 3.7.2 3zm2.2-.8c.4-1-.5-1.7 0-2.7 2-.6 2.4 4.1 0 2.7zm2.5-.4c-.1-.9-.3-1.8-.8-2.6 1.7-1.9 3.1 2.9.8 2.6zm-1.5-3.7c1.1-2.6 1.5-5.2 3.2-8 .8.4 1.4-.4 2.2-.1-.8 1.7.1 7-2.5 7.4-.8.1-2 .9-2.9.7zm3.9 3.1c-.7-.8-.5-1.8-.9-2.7.4 0 .8-.2 1.2-.5 1.2.8 1.1 2.8-.3 3.2zm1.6-3.6c.1-.2.4.2.5.1 1.6-1.3 3.1-.3 2.6 1.9-.9.2-1.7.7-2.6.8-.4-.9-.4-1.9-.5-2.8zm1.8 5c.3-.3-.2-.5.2-.9 2.5-1.1 6.9 2.4 10.1 4.1.7.4 1.4.4 1.9.9.7.2 1.4.5 2.1 1 1.9 1.1 4.6 2.4 5.6 3.6-6.9-1.4-13.8-3.2-19.9-8.7zm30.8 9.4c-1.9-.4-4-.1-6-.7-1-.3-2-1-2.6-.7-6.3-3.3-13-6.5-18.7-10.3.1-.6.6-.6.9-.9 3.5 1.5 6.7 2.6 10.1 4.6 5.3 1.4 11.3 5.6 16.6 7.8 0 0-.2.2-.3.2zm8.1-1.3c-2.9.2-6.2.5-9.4-1.1-1.6-.8-3.3-1.7-4.9-2.6-2.1-1.2-4-1.9-6.3-2.8-.3-.1-.5-.4-.7-.5-.7-.3-1.5-.4-2.3-.8-2.6-1.1-6.1-2.6-8.3-4.2.7-.7 1.6-.4 2.3-1.2 9 6.1 19.8 8.9 29.6 12.9.1-.1.2 0 0 .2.1-.1.1 0 0 .1zm-.4-2c1-1.1 2.1-1.7 3.3-1.9-.1.1-.1.2.1.3-1.1.9-2.1 2.2-3.4 1.6zm1.8.6c.8-.9 1.8-1 2.7-1.8.3.2.7.2.7.5-.9.6-2 2-3.4 1.3zm2.3.7c.8-.9 1.7-.8 2.5-1.3.5.2.9.3 1.4.6-.6.8-1.7.3-2.1.9-.7-.7-1.2.2-1.8-.2zm2.4 1c1.5-.6 2.9-1 4.6-.5-1.3.8-3.2 1.2-4.6.5zm19.9-3.9c-.8.2-1.1.2-1.9.2-.4 0-.8.2-1.1.2-1.8 0-3.3-.7-5.1-1.3-.8-.2-1.5-.2-2.2-.6-2.1-1.2-4.1-1.7-6.2-2.3-2.4-.8-5.2-2-7.7-2.8-1.5-.5-2.8-.6-4.2-1-1-.3-2-.7-2.9-1.2-2.8-.6-5.9-2.4-8.8-3.5-.6-.9-1.8-1.2-2.5-2 .5-.6 1.7-1.1 2.6-1.3.1-.1.6.5.9.7 1 .2 2.6 1.1 3.7 1.9 1.6.3 2.7.9 4.1 1.8.7.1 1.9.6 2.8 1.3 5.4 1.9 10.2 3.4 15.1 5.5 2.2.3 4.7 1.7 6.9 1.8 3.6 1.4 6.7 1.2 10.2 2.2-1.2.6-2.5.1-3.7.4zm1.8-6.4c-.2-.2-.6-.3-.6-.6.7-.2 1.6-2.1 2.3-.9-.2.6-1.2 1-1.7 1.5zm0-4c0-.5.4-1 .9-1.5.4.2.8.2 1.2.5 0 .6-.9.8-.9 1.3-.4 0-.8 0-1.2-.3zm1.7 4.1c.2-.6 1-1.1 1.5-1.3.5.4.9.2 1.4.4-.8 1.4-1.8 1.5-2.9.9zm.9-3.6c.4-1.1 1.1-1.6 2.1-1 0 .6-.6.9-1 1.4-.3-.2-.7 0-1.1-.4zm2 4.1c.5-.4.9-.8 1.4-1.1.4.2.7.2 1.1.4-.6.6-1.6 1.5-2.5.7zm.6-3.5c.4-1 1.1-1.7 2.2-.9-.6.6-1.3 1.7-2.2.9zm2 4c.3-.4.7-.5 1.1-1.1.4.3.8.1 1.2.5-.1.9-1.8 1.4-2.3.6zm.6-3.6c.4-1.2 1.6-1.4 2.5-.9-.4 1.2-1.6 1.2-2.5.9zm2.2 4.2c.4-1.1 1.6-1.1 2.5-.9-.4.9-1.5 1.6-2.5.9zm1.1-4c.4-.8 1.4-.9 1.7-.5-.5.4-1 1-1.7.5zm1.6 4.4c.7-.5 1.4-1.4 2.3-.9-.8.7-1.2 1.5-2.3.9zm1.1-4.1c.3-1 1.3-.9 2.1-.4-.5.9-1.4.5-2.1.4zm1 4.6c.6-.8 2-1.4 3-1.1 0 .2-.2.5-.4.7-.9-.2-1.6.8-2.6.4zm2.6-4.8c.4-.1.7-.2 1.1 0 .1.6-1.4.9-1.1 0zm-.8 5.6c1-.9 2.2-.6 3.2-1.7.5.1 1 .3 1.5.7-1.5.6-3.1 1.1-4.7 1zm2.4-4.5c.3-.8 1.2-1.5 1.9-.7-.2.6-.6.7-1.1 1.1-.3-.5-.5-.1-.8-.4zm2.2.6c.5-.7 1-1.1 1.7-1.4.2.1.3.2.5.3-.3.9-1.3 1.8-2.2 1.1zm2.5.7c.5-.9 1.3-.9 1.4-1.7.4.2.8.1 1.2.3-.5.9-1.7 1.6-2.6 1.4zm2.9.3c.9-1.4 1.9-2.1 3.3-1.2-1 .9-2.1 1.2-3.3 1.2zm7.3-3c-2.3-.4-4.5-.5-6.6-1.2-.1.2-.2.3-.4.3-1.1-.7-2.3-.3-3.4-.3-1.1-.1-2.3-.5-3.4-.6-.4 0-.8.2-1.2.1-2-.2-3.9-.4-5.7-.9-.4.1-.8.1-1.1.2-4.4-.8-8.9-1.4-13.2-3.2-.3 0-.5 0-.8.1-2.4-1.7-5.2-1.5-7.9-2.8-5.4-1.6-10.6-4.9-15.7-7.6.4-.4.9-.6 1.4-.8 3.2 1.1 6.4 2.6 9.5 3.5.5.1 1.1.1 1.5.2 1.5.6 3.4 1.1 4.8 1.6.8.3 1.5.8 2.3 1.1 1.6.6 3.4.9 5.1 1.4 1.9.6 3.8 1 5.8 1.9.7-.1 1.6.4 2.4.4.2.1.5.1.7.4 3.8.7 7.6 1.2 11.5 2.1 2.9.4 5.2.2 8.1 1.1 2.3 0 4.7.2 7.1.7.8-.1 2-.1 2.6.3-1.1.9-2.3 1.4-3.4 2zm8.8-4.6c-2.4-.4-4.7.3-7.2-.8-.8.2-1.6.2-2.5-.4-3.3 0-7.2-1.2-10.6-1.7-1.4-.2-2.9-.7-4.5-1.1-.3-.1-.6.1-.9.1-2.8-.5-6.1-2-7.5-.7 6.9 2.6 14.3 3.3 20.5 4.5-.2 0-.3.1-.5.2-3.6-.4-7-.1-10.7-1.3-.4.3-.9-.2-1.2.1-3.2-.8-6.3-1.4-9.4-1.8-3.5-1.2-6.9-2.1-10.2-2.7-1-.5-2.1-1-3.2-1.3s-2.4-.8-3.6-1.1c-.2 0-.3.2-.4.1-.4-.1-1.2-.6-1.9-.8-.9-.3-1.6-.6-2.3-.9-.3-.1-.9-.2-1.2-.3-3-1.1-5.5-1.8-7.5-3.3.5-.7 1.1-.6 1.5-1.2 5 2.4 9.9 3 14.5 4.7.7-.2 2.2.6 2.2-.9-5.3-1.4-9.8-2.5-15.1-4.6.5-.6 1.9-1.6 2.5-1.5 1 .2 1.7.5 2.7.8 1.9.5 3.8 1 5.9 1.7s4.2 1.5 6.5 2.2c2.5.8 5 1.2 7.2 2 .3-.2.2.3.6.4 3.3 0 6.5 1.5 9.6 1.6 2.3.9 4.4 1 6.7 1.8.3-.3.6.1.9-.1 1.2.6 2.3.4 3.6 1.1 1.4-.1 2.8.1 4.2.6 3.1 0 6.3 1 9.6 2.2 1.4 0 2.5.4 3.9.7-.6 1-1.6 1.2-2.2 1.7zm4.4-2.5c-3.3-1.4-5.9-1.4-9.2-2.8-.3.2-.7-.2-1.1.1-2.6-.9-4.1-1.5-6.6-1.9-.2-.2-.5-.4-.7-.5-1.5-.1-2.5-.5-3.9-1.1-.4-.2-1-.1-1.5-.2-.4-.1-.8-.5-1.3-.6-2.5-.8-5.2-1-7.9-2.1-8.2-1.4-17.4-5.1-26-8 .3-.6.7-.6 1.1-.9.3.8 1 .3 1.5.8.9-.4 1.9.2 2.9-.1 6.1 1.7 12.1 2.9 18.2 5 .1-.4.4 0 .5-.2 4.8 1.7 9.1 2.8 13.7 4.2 7.5 3.3 15.3 4.3 23 6.1.1.1.1.2.1.2-.8.9-1.8 1.4-2.8 2zm3.3-3.9c-.2.5-.5.1-.8.3-3.5-1-7-2-10.6-3.6-.9.1-2.3-.4-3-.9-4.3-.7-8.7-1.9-13.1-3.2.9-.4 1.7-.2 2.6 0 .6.1 1.2.3 1.8.4 2.2.6 4.3 1.5 6.5 2 2.5.5 5.6.9 7.9 1.6.9.2 1.8.6 2.5.7 3.1.4 6.4 1.5 9.3 2.2-.6.7-2.4 2.1-3.1.5zm5.6-1.6c-.9-.1-1.8-.4-2.7-.2-.4-.2-.7-.5-1.1-.5-2.3-.1-4.6-.8-7-1.3-3.2-.7-6.4-1.8-9.5-2.1-.4-.4-.7-.1-.9-.5-1 .1-2.1-.2-3.2-.7-2.1-.4-4.7-.9-6.6-1.8-.7.3-1.3-.3-1.9-.5-.3-.1-.7.1-1 0-1.2-.4-2.5-1-3.8-1.3-.6-.2-1.2 0-1.8-.2-.5-.1-.9-.5-1.4-.6-.4-.1-.9.2-1.3.1-1.9-.5-3.5-1.6-5.4-1.6-4-1.9-7.9-1.5-12.2-3.5-.6.5-1 .2-1.6-.1.9-1 2.8.3 4.1-.2 2.3.5 4.7 1.3 7 1.3 2.6 1.3 5.6 1.2 8.5 2.4 0-.2.1-.3.4-.1 4.6 1.1 9.3 2 14.1 2.9 1 .2 2.1.2 3.1.4 1.6.4 3.2 1 4.8 1.4.6.2 1.4.2 2 .3.7.1 1.5.5 2.1.5.3 0 .5-.2.8-.1.5.1.9.5 1.4.6 2 .5 4.2.5 6.1 1.4 1-.3 2.1.4 3.1.4-.4.5-1 0-1.4.8-.1.4.3.7.5 1.1.4-.1.8-.1 1.2-.4.2-.4-.3-.8-.1-1.2 2.3.2 5-.1 7 .9-1.1.8-2.2 1.7-3.3 2.4zm2.6-17.5c-1.2-1.2-2.9-1.8-4.1-2.7 1-.6 2-1.8 3-2.6 1.4 1.6 1.9 3.4 1.1 5.3zm5.1 11.2c-.9.7-1.7 2.2-2.9 1.7 0-.6 0-1.3.7-1.8.4-1.7.3-3.2 0-4.8.9-1 1.5-2.4 2.3-2.9.1.5.6.9.9 1.1.1 1 .6 1.9 1 2.8.3 1.9-.8 2.8-2 3.9zm.7-16.5c-.3-1.8-2.1-3.4-3.4-4.9 1.5-.6 2.5-2.6 3.6-3.5.6.8.9 1.7 1.4 2.6.3 1.8.4 4.9-1.6 5.8zm7.3 9.1c-.8.4-1.5 1.7-2.4 2 .3-3-.8-5.8-2.6-8.5 1.2-.9 2.3-1.8 3.2-3.5.6-.1.7.6.7.6l2.1 4.5c.5 1.4-1.1 3.8-1 4.9zm2.2-12.7c-1.3-1.3-2-1.5-3.5-2.4.3-.8-.1-1.4 0-2.1.3-.8 1.3-1.4 1.9-2.3.2.2.3 0 .5.2.4 2.2 1.9 4.2 1.1 6.6zm-2.5-19.4c.7-.7 1.3-2.1 1.6-3.2 1.9-.4.8 2.4-.1 3.7-.6-.2-1.1.1-1.5-.5zm2.5.6c1-1.3 1.1-2.4 1.5-3.6.4.2.9 0 1.1.4s-.9 3.1-1.1 3.3c-.5.5-1.1.4-1.5-.1zm2.4.5c.5-1.1.8-2.2 1.6-3.4.5.1 1 .1 1.6.6-.5 1.2-.6 2.3-1.4 3.5-.6-.2-1.5-.4-1.8-.7zm4 1c-.4-.3-.6 0-1-.4.4-1.2.3-2 1.3-3.4.5.1 1.3-.3 1.7.4-.7 1.3-.8 2.4-2 3.4zm1.7.1c.3-.9 1.4-2.6 1-3.4.4-.3.8 0 1.2 0-.2 1.2-.5 2.3-1 3.5-.4 0-.8.1-1.2-.1zm5 0c.2-.6.9-1.4.5-1.9-1.1-.4-1.2 1.2-1.8 1.9-.5.1-.9.3-1.4-.2.9-.8.6-1.8 1-2.8 1.2-.1 2.6.3 3.9.7.1 1.2-.6 3.4-2.2 2.3zm2.7.2c-.3-.6.7-1.4.6-2.1 1 0 1.5.4 2.5.7-.2 1.6-2 1.4-3.1 1.4zm2.7-2.8c-1.9-.5-3.7-.9-5.6-1.8-1.8.1-3.4-.9-5.1-1.3-2.9-.7-6-.8-8.9-1.9-5.9-.3-11.9-2.2-17.9-4.4.4-.8 1-1.2 1.5-1.6 6.5 1.2 13.4 4.4 20.3 5.5 2.5 1.2 5.3 1.8 7.9 2.6 2.4 1.3 5.8 1.6 8.3 2.6-.3.2-.4.3-.5.3zm-5-3.1c-3.4-1.1-7.4-2.5-11-3.2-1-.7-2-.5-2.7-1.1-5.3-1.5-11.1-3.1-16.3-4.5.5-1.8 2.2-.1 3.2-.5 1.7.9 3.6 1.5 5.3 1.8 6 1.3 12.4 3.6 18.1 5.3 3.5.6 7.1 1.6 10.6 2.5.1 0 .1.1.2.1-1.9 1.1-5-.6-7.4-.4zm19.6-32.9c-.5.4-.5 1.2-.4 1.8-.1.3-.3.1-.4.4.2 1.6-1.1 3.6-.9 5.4-.3 0 0 .6-.5.9-.5 3.2-2 6.2-3.2 9.2.1.1.2.2.2.3-.6.8-.9 1.8-.9 2.9-.2.3-.4 0-.6.4.2.1.2.3.1.5-.9 1.8-1.4 3.5-2.5 5 .4.8-.6 1.4-1 2.1-.5 1-.8 2.2-1.3 2.9-.4-.3-.6 0-1.1-.4.4-.7.5-1.3 1-1.8.5-1.6.7-3 1.8-4.9.4-1.2.4-2.4 1.3-3.6.1-1.1.9-2.3.7-3.3.2-.2.4-.5.5-.7-.3-.3.2-.7-.2-1 1-2.6 1.5-5.6 2.4-8.6.4-1.5 1.2-3 1.6-4.5.2-.8.1-1.6.3-2.3.1-.3.4-.6.5-.9.2-.8.2-1.8.4-2.7.2-1 .6-2 .7-2.7 0-.5-.3-1.1 0-1.6.5-.6 2.1-.8 2.8-.1-.4 2.3-1.3 4.9-1.3 7.3zm8.5-33.8c-.7.8-.2 1.5-.9 2 .2.3.2.8-.3.9.5.2 0 .4-.1.7-.1.4-.1 1-.2 1.4-.4 1.3-.9 2.8-1.4 3.9.1.1.2.2.2.3-.6 1.1-1.3 2.6-1.5 4-.2.2-.3.5-.5.5-.5 2.6-1.2 5.2-2 7.7-.1.3.1.8-.3 1 .5 1.5-1.4 2.9-2.7 2 .2-.3.5-.6.3-.8-.4-.1-.8-.4-1.2-.1 0 .3.1.6.5.8-.8.9-2.2.3-2.8.2-.9.3-2.5.5-3.1-.5.4-.9 1.5-.8 1.6-2.1-1.1-.8-2.2.4-3-.3.5-.4.7-1.8 1.1-2.1.1.1.2.2.4.3.2.3-.4.7.1.9 1.2.3 2.7.6 3.3-.9.4-.2.9.5 1.3.2-.2-.1.4-.2.1-.5-.5-.1-.4-.1-.8-.1-.3-.5.4-.5.6-.8-.8-.7-3-1-3.3.2.6.3.9 0 1.4.6 0 .5-.4.4-.7.6-.4-.2-.3-.5-.6-.7-.3 0-.6.2-1-.2.1-1-1.1-1.1-1.8-1.2.1-.4-.3-.7-.4-1-.2.1-1 .4-.8-.1 0-.3.4-.3 1-.4.4-.4-.3-.6 0-1 1.2-1.5 1.8-2.9 3.5-3.7-.2-.2-.1-.4-.1-.6 6.2-6.6 10.9-14.6 16.8-23.3 0 4.1-2.3 8.5-2.7 12.2zm3.9-17.4c-.7 1-1.1 2.2-2 2.6-2.9 5.8-7.1 10.9-10.2 15.1-1.2 2.3-3.1 4.2-4.8 6.5 0-.1 0-.2-.1-.1-2.1 3.1-3.9 4.8-6.3 7.6-.6.7-1 1.5-1.5 2.1-1 1.1-2.1 2.1-3.1 3.1-1.4 1.6-2.9 3.4-4.1 4.5-.6.6-1 1.5-1.7 2.2-.8.9-1.9 1.5-2.7 2.3-1.2 1.4-3 3.1-4 4.2.1-.1.1-.3 0-.2-1.9 2-4.7 4.3-6.9 6.3-.6.5-.9 1.4-1.8 1.3-.2-2.1.2-4.3-.4-6.3.3-.5.2-.5.4-1-.3-.2 0-.4-.3-.6.7-1.2-.2-2.2.4-3.4-.5-1.4.7-3.1.1-4.5.6-3.4.3-6.7 1.3-10.2-.1-.1-.1-.3-.2-.5.7-1.7.3-3.3.9-5-.4-.1 0-.4-.2-.5.8-2.4.4-4.6 1.2-6.9-.6-.6 0-1.3.2-2 4.7-.7 8.6-2.4 13.4-2.7.2-.6 1-.3 1.6-.4.1 0 .2-.3.4-.3.4-.1 1 0 1.5-.1 1.4-.3 2.6-.9 3.9-1 1.1-.7 2.3-.6 3.4-1.2.6.3 1.4-.4 2-.7 2.2-.8 4.5-1.3 6.6-2.6.4-.2.7-.7 1.1-.9 1.1-.7 2.4-1.1 3.4-1.8.9-.6 1.7-1.5 2.6-2.2.6-.4 1.3-.7 1.8-1.1 1.8-1.5 3.4-3.2 5.2-4.6.1-.1.5.3.3-.2.7 1-.7 2.2-1.4 3.2z"/><path fill="#0014d1"  d="M207.7 41.7c-.1 1.1-.5 1.9-.8 3.3-.1.5.1 1-.1 1.5-.4 1.5-2.2 3.9-1.2 4.8.6.5 1.2.1 2.1.1.8 0 1.2.5 1.7 0 .3-.3.3-1.7.8-2.8.2-.4.5-.7.6-1 .3-.9.3-2.1.6-2.8.7-1.6 1-3.2.7-4.6-1.8-1.8-4.3-.8-4.4 1.5z"/><path fill="#0014d1"  d="M200.2 53.4c.3 0 1.4.4 1.9-.1.4-.4.1-.8.2-1.3.2-1 .7-1.8 1.2-2.8 0-2.5 1.5-5.3 1.8-7.9-1.4-.4-3 .1-4.6.1-1.3 2.7-1.6 6.1-2.5 9-.3 1.1-1.3 2.1-.5 2.9.7.7 1.6.1 2.5.1zm2.4-10.9c.4.3.6-.1 1 .2-.4.3-.9.5-1.4.4.2-.3.3-.5.4-.6zm-.4 1.5c.2-.4.4-.2.6-.3-.5.5-1.6.8-1.7-.1.4-.2 1.1-.1 1.1.4zm.9 1c-.2.2-.3.4-.5.6-.5.1-1.1-.1-1.6-.5.3-.4 1.3-.4 2.1-.1zm-.4 1.6c0 1.3-1.6.7-2.3.7.1-.1-.1-.2-.2-.3.2-1.3 1.4-.7 2.5-.4zm-2.8 1.4c.6-.1 1.9-.3 2.1.5-.7-.1-1.3.5-2.1.2 0-.3-.1-.5 0-.7zm1.9 1.5c.2 1.4-1.5 1.5-2.3 1.3-.9-1.6 1.3-1.5 2.3-1.3zm-.8 2.1c0 .2 0 .3.1.5-.8.7-1.7.4-2.6.1.7-1.3 1.7-.3 2.5-.6z"/><path fill="#0014d1"  d="M204.6 53.3c-.9 3.6-1.1 7.2-2.6 10.9.1.4.2.8.4 1.3 1.3 0 2.7.2 4 .1 1.6-2.8 1-5.2 1.3-7.8.5-1.5.7-3 1.1-4.5-1.4-.9-3.1-.5-4.2 0zm-.8 11c.3-.5 1.2-.6 1.6-.1-.5.4-1 .2-1.6.1zm.1-1.5c.4-1.1 1.1-1.1 1.9-.9.3 1.1-1.2 1.3-1.9.9zm2.3-2c-.3.4-1.1.5-1.7 0 .1-.3.2-.7.3-1 .9-.1 2.1 0 1.4 1zm-1.4-1.8c.2-.4.1-.8.2-1.3.6.2 1.1-.3 1.7.1.4 1.1-.9 1.5-1.9 1.2zm1.8-2c-.5-.1-.9 0-1.4 0-.1-.5 0-1 .4-1.5.5.2.9 0 1.3.1.2.4.2.9-.3 1.4zm-.8-2.4c.1-.8 1-.6 1.5-.6.2.9-1.2 1.2-1.5.6z"/><path fill="#0014d1"  d="M195.5 68.1c.1 0 .3-.3.4-.3 1.2-.1 2.2.6 3.1.1 1.7-3.9 1.9-7.7 3-11.8-1-1.6-2.7-.3-4-1.1-.5.3-1 .1-1.4 1 .3.2 0 .4.3.6-.7 1.9-.9 4.2-1.7 6.4.1.1.1.3.2.5-.8 1.6-1.1 2.4-1.3 4 .4.1.8.8 1.4.6z"/><path fill="#0014d1"  d="M205.4 67c-1.3.4-3.3-.3-4.2.7-.8.8-.3 4-.4 5.1-.9 2.5-.6 4.8-2 7.3 2 .8 3.7-.3 5.7 0 .9-2.2.9-5.3 1.2-7.9.3-1.7 1.6-4.1-.3-5.2z"/><path fill="#0014d1"  d="M195.8 84.8c1.5-4.4 1.2-8.9 2.5-13.6-.3-1.6-2.2-.6-3.2-.5-.4-.5-.8-.2-1.1-.4-1.7 1-1.2 3.1-1.5 4.6-.2.9-.6 1.8-.8 2.7-.1.5 0 1.1-.1 1.7s-.4 1.1-.5 1.6c0 .2.2.5.2.7s-.4.6-.5.9c-.2.8-.3 1.6-.6 2.6 1.7.3 3.8-.2 5.6-.3zm.5-12.8c-.1.5-1.6.7-1.7-.1.6 0 1.1-.4 1.7.1zm-1.9 1.1c.6 0 2.5-.5 2 .6-.3.6-1.4.5-2.1.5-.3-.3-.2-.7.1-1.1zm-.5 2c.7-.3 2.7-.7 2 .7-.7-.1-1.3.6-2 .1-.1-.2 0-.5 0-.8zm1.8 2.6c-.4.5-1.3.2-1.9.3-1.4-1.7 2.9-1.7 1.9-.3zm-.1 1.9c-.8.2-1.6 1-2.6.4 0-1.4 3.2-1.9 2.6-.4zm-.2 2.1c-.4 1-2.2.7-3 .8-.5-2 3.6-2.2 3-.8zm-.6 1.4c-.5.9-1.9.9-2.9.9.5-1.1 2-.6 2.9-.9z"/><path fill="#0014d1"  d="M182.6 90.5c.7-.1 1.7-.7 2.2-1.3.8-.9.6-2 .7-3-1.2-1.7-3.6-1.7-4.7.3-.7 1.3-.6 4.2 1.8 4zm1-3.4c.6.8-.4 2.4-1.4 1.7-.8-.6.5-3 1.4-1.7z"/><path fill="#0014d1"  d="M200.2 82c-.4-.5-.8-.6-1.3-.5-1.9 5 .6 9.6-1.3 14.3.2.2.4.5.8.7 2-.4 3.8-1.8 5.5-2.6-.1-4.1 1.1-8.3.5-12.2-1.6-.5-2.8.4-4.2.3zm2.2 11.3c-1.1.1-1.9 1.4-2.8 1.2 0-.6-.1-1.1.3-1.8.7-.1 1.5-.2 2.1-.6.5.3.7.6.4 1.2zm-2.3-1.6c-.2-.1-.4-.3-.6-.4-.1-.2.3-.6.3-.8.9.2 1.7-.1 2.6-.1-.1.2.3.3.2.5-.7.7-1.7.3-2.5.8zm-.4-2.1c.1-.2-.2-.4.1-.7 1.1.1 2-.7 3.2-.1-.8.9-2.2 1-3.3.8zm-.2-1.7c.9-.9 2.1-.8 3.1-1 .1.1.2.1.3.2-.8.8-2.2 1-3.4.8zm3.3-2.1c-.5.3-2.1.5-1.8.8-.6-.2-1 .5-1.7-.1.2-.4 0-.7.4-1.1 1.1.2 2-.6 3.2-.3 0 .2.1.4-.1.7zm-1.1-1.6c-.9.2-1.3.5-2 .4-1.4-1.4 2.6-2.1 3.2-1.7 1.2 1-.6 1.2-1.2 1.3z"/><path fill="#0014d1"  d="M195.7 86.6c-2 .1-4 .9-6 1.2-1.2 1.9-.7 4.5-1 5.8-.3 2.1-.1 4.9-.9 7.4.6 1.4 1.3.8 2.5.4 1.1-.4 2.8-1.3 3.8-1.4.9-.8 1-2.2 1.4-3.8.3-1.3.1-2.7.1-3.9 0-.9.4-1.6.4-2.3 0-.9-.5-2 .2-2.7-.3-.1.1-.5-.5-.7z"/><path fill="#0014d1"  d="M132.1 123.3c.6-.3 1.2-.6 1.8-1 .3-.6.7-1 1.2-1.4.6-1.7.2-3.2-.3-4.7-.9-.8-1.5-1-2.5-1.4-1.9.1-4.2 1.6-4.8 4.1.6.8.4 2.3 1.2 3.3.9 1 2.1 1 3.4 1.1zm-.6-6.5c2.2 1 1.7 4.1-.5 4.4-1.9-.6-1.9-4.2.5-4.4z"/><path fill="#0014d1"  d="M126.5 123c1.1-2.3-.4-5.1-3-5.4-1.3.8-2.8 1-3.6 2.3-.9 1.5-.5 3.1-.1 4.7 2.2 2.6 5.4 1.2 6.7-1.6zm-4.9-2.7c1.5-1.8 4 .2 2.7 2.1-.4.5-.9 1-1.7 1.2-1.4-.8-1.9-2.2-1-3.3z"/><path fill="#0014d1"  d="M117.8 123.7c-.5-1.5-1.2-2.3-3-2.5-1.3.4-3.2 1.2-3.9 3-.2.7.2 1.4-.2 2 .5 2.2 3.2 4.1 5.4 2.7 1.8-1.2 2.3-3.5 1.7-5.2zm-4.4 2.5c-2.4-1.3 1.1-4.6 2.5-2.6s-1.5 3.1-2.5 2.6z"/><path fill="#0014d1"  d="M214.7 148.9c-.3-.9-.8 0-1.7-.5-.3.3-.5.9-.1 1.3.5.5 2 .1 1.8-.8z"/><path fill="#0014d1"  d="M204.9 147.7c.2.8 1.2 1 1.6.6.9-1-.9-2.7-1.6-.6z"/><path fill="#0014d1"  d="M163.8 152.8c.3.8 1.2 1 1.7.1 0-.9-1.3-1-1.7-.1z"/><path fill="#0014d1"  d="M160.3 151c-.1.2.2.4-.1.7.6.6 1 .3 1.5.1.6-1.1-.8-1.3-1.4-.8z"/><path fill="#0014d1"  d="M156.4 149.9c.1.1.1.3 0 .4.6.4 1.3.8 1.7.1.4-.8-1.1-1.3-1.7-.5z"/><path fill="#0014d1"  d="M97 148.3c-.3.4-.6.8-.7 1.2.3.4.4.8 1 1.1 2-.2 1.5-2.9-.3-2.3z"/><path fill="#0014d1"  d="M123.4 74.2c.2-.3.6-.6.5-.9-.5-.9-1.7 0-1.5.7.4.4.6-.1 1 .2z"/><path fill="#0014d1"  d="M120 75.6c-.3.3.2.5-.2.9.2.3.4 0 .6.3 1.1-.5.4-1.8-.4-1.2z"/><path fill="#0014d1"  d="M118.7 78.6c0-.1-.2-.2-.1-.4-.5-.4-.9-.1-1.3.3.3.2 0 .4.3.6.4.4.8 0 1.1-.5z"/><path fill="#0014d1"  d="M115.9 80.8c-.9-.3-1.8.8-.9 1.5.8-.2 1.4-.7.9-1.5z"/><path fill="#0014d1"  d="M114.1 84.1c-.7-.6-1.5-.1-1.5.7.2.2.4.3.7.5.5-.3.7-.7.8-1.2z"/><path fill="#0014d1"  d="M112.3 86.9c-.2-.2-.4 0-.3-.4-.4 0-.7.1-1 .6 0 .9 1.2.7 1.3-.2z"/><path fill="#0014d1"  d="M110 89.9c-.4-.2-.8-.1-1.2 0-.7 1.1 1.4 1.2 1.2 0z"/><path fill="#0014d1"  d="M107.8 92.4c-.5.1-.6.3-.9.8.4.3.6.2.9.3.5-.5.5-.9 0-1.1z"/><path fill="#0014d1"  d="M105.4 96.1c.3.3.5 0 .8.1.4-.4.4-.8.5-1.2-.5-.2-.9.2-1.4.6.1.2-.1.4.1.5z"/><path fill="#0014d1"  d="M104.5 99.1c1.2-.1.6-1.5-.3-1.1-.3.4-.2.8.3 1.1z"/><path fill="#0014d1"  d="M102.6 101.4c1.7 1.8 1.6-2.2 0 0z"/><path fill="#0014d1"  d="M100.1 108.4c.2-.6.5-1.3.8-1.7.5-.8 1.7-2.3 1.3-2.6-.1-.5-.2.1-.4-.2-1.5 2.5-3 4.8-3 7.4 1.2 0 .9-1.8 1.3-2.9z"/><path fill="#0014d1"  d="M98.2 114c-.6-.4-1.5-.1-1.4.7.2.1.4.3.6.4.6-.1.7-.5.8-1.1z"/><path fill="#0014d1"  d="M93.2 125.4c1.7-2 2.5-4.9 3.1-7.3-.2-.3-.4.1-.6-.2-1 1.7-1.2 3.8-2.1 5.5-.4.8-1.3 1.6-.4 2z"/><path fill="#0014d1"  d="M91.7 128.8c1.7-1-.1-2.6-.7-.8.1.4.3.8.7.8z"/><path fill="#0014d1"  d="M89.7 136c.4-1.2.6-2.5 1-3.6.1-.1.1-.2.2-.3-.2-.1-.4-.3-.6-.4-1 1.2-1.6 3.9-2 5.6-.2.9-1.2 2-.4 2.8.9-1.1 1.3-2.6 1.8-4.1z"/><path fill="#0014d1"  d="M86.3 142.7c-.4.4-.6.8-.7 1.3 1 1 2-1.1.7-1.3z"/><path fill="#0014d1"  d="M83.8 152.4c.3-1.1 1.1-2.4 1.8-3.8 0-.6.4-1.3.4-2-.2-.3-.4-.1-.6-.3-.6 2-1.7 4-2.4 5.9-.2.6-.6 1.3-.3 1.9 1 .1 1-1.2 1.1-1.7z"/><path fill="#0014d1"  d="M81.7 156.8c2.6-1.8-1.9-2 0 0z"/><path fill="#0014d1"  d="M145.2 76.2c1.6.7 2.8-1.4 4.3-1.5 1.1-2.2 1.1-3.6 2.5-5.8-.1-.2-.2-.4-.2-.5-1.7.1-3.2 1.3-5 1.4-.1.2-.1.5-.4.7.4 1.8-1.1 3.9-1.2 5.7z"/><path fill="#0014d1"  d="M142.7 77.9c.6-.2 1.1-.1 1.6-.8.2-.4 0-1.1.1-1.5 0-.2.3-.4.4-.6s-.1-.5 0-.7c.4-1.4 1.5-2.4.7-3.4-.5-.2-.9-.1-1.2-.3-1.3 1.1-3.5.5-5.1 1.7-.3 2.2-.3 4.3-.9 6.6.2.1.4.3.6.4 1-.6 2.4-1.1 3.8-1.4z"/><path fill="#0014d1"  d="M266.1 28.7c-1.2.3-2.4.5-3.6.5-1.7.9-3.9 1.2-6 1.2-4 1.5-8.2 1.7-12.3 2.8-.3-.1-.6.1-1 0-1.2.5-3.1 1-4.9 1.5-.9.2-3.5.7-4.3 1.6-.8 1-.7 2.4-.6 3.5-.6 2.4-.5 5.4-.6 8.2-.7 1.7-.5 3.3-1.1 5-.1 1.4 0 2.7-.6 4.1.2 1.7-.1 3 .3 4.6-.4 1.5-.2 2.8.1 4.2-.4.4-.3 1.2-.1 1.7-.2.3-.1.5-.4.8.4.4.1 1 .5 1.2.7.4 2.8-1.9 3.5-2.7.6-.7 1.1-1.4 1.3-1.8 4.5-4 8.2-9.3 12.4-13-.1-.1-.1 0-.2 0 1.4-1.8 3.9-4.4 5.9-6.5 2.6-3.7 6.4-7.8 9.3-12 1.4-2 3.4-3.3 4-5.4-.4-.1-1 .4-1.6.5zM240 37.8c-.7.7-1.6 2.2-2.5 2.1.4-.8 1.3-1.3 1.9-2.1h.6zm-2.4-1.5c-.8 1.1-1.6 2.6-3 2.5.2-1.7 1.5-2.7 3-2.5zm-3.3 4.3c1.7-.6 3.1-3.7 4.8-4-1.6 2.2-3.1 3.6-4.5 5.5-.7-.4-.2-1-.3-1.5zm.8 2.6c-.2.1-.2 1-.9.6-.4-.7.8-1.2.9-.6zm-.8 2c1.2.1 1.4-1.2 2.1-2.2.4-.5 1-1 1.4-1.4 2.4-2.4 4.5-5.9 7.1-7.6.1.1.2.1.3.2-.1.1 0 .2-.1.3-2.3 2.4-4 4.8-5.6 6.4-.2.2-.5.2-.7.4-1.7 1.5-3 4.1-4.7 5.6-.5-.4-.2-1 .2-1.7zm-.4 21.2c-.3.3-.7.8-1.2 1.1-.4-.7-.3-1.4 0-2.2.7.2 1.3.5 1.2 1.1zm-1.2-3.8c.9.5 2.4 1.6 2.4 2.6-1 0-3.1-1.4-2.4-2.6zm3.6 1.1c-1.5-.6-4.1-2.6-3.7-3.9 1.7.9 3 2 4.5 2.6 0 .6-.5.7-.8 1.3zm1.8-2c-1.9-.7-5-2.4-5.6-4.4.5-.5.7.1 1.1.5 1.9.6 3.6 2.2 5.3 3.2-.4.3-.3.5-.8.7zm2.1-2.1c-1.7.6-3.8-1.8-5.9-3.1-.6-.4-1.3-.4-1.7-.9 0-.2.3-.5.4-.8.8.2 1.3.6 1.7 1.2 1.1.2 2.5 1.5 3.7 2.1.7.3 2.1.4 1.8 1.5zm1.3-5.7c-.5-.4-.8-.4-.8-.9-1.3-.1-2.2-1.3-3.3-1.9 0-.3.1-.6 0-.8.9 0 1.6.9 2.3 1.5.6.4 2.4.9 1.8 2.1zm-3.8-4.6c.3-.4.3-.4.6-.6 1.7.9 2.5 1.9 3.4 2.9-1.4.4-2.9-1.5-4-2.3zm5.3 2.6c-1.3-1.1-3.2-2.9-4.2-4 .1-.3.4-.2.5-.5 2 .6 3.3 2.4 4.4 3.9-.2.4-.4.5-.7.6zm1.5-1.3c-2.1-1.4-2.5-2.8-4.6-3.8.1-.4.3-.3.5-.7 1.9.7 3 2.3 4.6 4-.1.2-.3.3-.5.5zm1.7-1.5c-.1 0-.2 0-.2.1-1.3-.3-1.6-1.4-2.4-2.1-.7-.7-2.1-1-2-2.1 2.2.3 3.3 1.9 4.8 3.3-.2.2.1.4-.2.8zm.9-1.3c-1.5-1.3-3.2-2.5-4.7-3.9.1-.4.3-.4.6-.8 1.3.3 1 1.1 2.1 1.5.3 1 2.4 2 2 3.2zm.7-1.1c-1-1.8-3.1-2.9-3.8-4.8.3-.6.7-.7 1.1-.8 1.9 1.4 2.1 2.8 3.4 4.4 0 .4-.3 1.2-.7 1.2zm-2.1-6.3c.2-.5.5-.9.9-.9 1.6 1.1 2.6 3.2 3 5.5-1.4-1-2.3-3.1-3.9-4.6zm5.1 3.6c-1-.6-.8-1.7-1.3-2.5-.1-.2-.5-.3-.7-.5-.5-.7-.7-1.7-1.4-2.4.1-.4.5-1.1.9-1.2 1.3 1.2 1.8 2.8 2 3.9.6 0 .3 1.5.9 2.1-.2.2-.1.6-.4.6zm1.5-1.7c-.7-.1-.7-.8-.8-1.3-.8-1.5-2-3-1.7-4.7.2.2.3-.5.5-.1 1.1.9 1.1 2.4 1.9 3.7.4.8.9 1.7.1 2.4zm6.9-4.4c-.1 0-.3 0-.4.1-.7-.9-1-1.9-1.2-2.8-.4-1.2-1.3-2.3-1.3-3.6.6.3.7.7 1.1 1 .5 1.8 1.9 3.5 1.8 5.3zm1-1.5c-1.1-1.3-1.7-3.1-2.4-4.8.2 0 .4-.1.5-.2 1 .5.9 1.3 1.7 2.1-.1 1 1.3 2 .2 2.9zm1.6-1.7c-.8-.1-.5-1.1-1.4-1.4.4-.8-1-1.4-.2-2.3 1.2.7 2 2.3 1.6 3.7zm1.1-2.1c-.6-.2-.9-.9-.8-1.4.7.1 1.1.9.8 1.4zm.8-2.3c.5.1 1.1-.5 1.4.2 0 1.1-2 1.3-1.4-.2z"/><path fill="#0014d1"  d="M154 53.5c-4.7 3.5-9.6 7.9-14.3 11.1-.8-.1-1.6.9-1.3 1.6.5.3 1-.2 1.5.2 3.1-1.1 6.6-2.1 9.9-3 .7-.2 2.6-.3 3.1-.8.7-.7 1.4-4 1.9-5.2.5-1.4 1.2-2.3 1.7-4-.8-1.1-1.3.4-2.5.1z"/><path fill="#0014d1"  d="M269.7 38.1c-.1-.1-.2-.2-.4-.3-.1.3-.3.1-.4.4.3.3.6.2.8-.1z"/><path fill="#0014d1"  d="M269.2 44.1c0-.3-.4-.2-.6 0 .3.2.5.3.6 0z"/><path fill="#0014d1"  d="M265.5 44c-.1-.4-.7-.4-.6.1.2-.1.4.1.6-.1z"/><path fill="#0014d1"  d="M264 45.2c.4-.5 0-.9-.3-1.3-.9-.1-.4 1.2.3 1.3z"/><path fill="#0014d1"  d="M265.4 47.2c.2.2.4.3.6 0-.2-.2-.4-.3-.6 0z"/><path fill="#0014d1"  d="M263.4 46.1c-.2-.2-.4-.2-.5-.2-.4.5.2.8.5.2z"/><path fill="#0014d1"  d="M263.5 50.1c.5.2.9.1 1.3-.4-.4-.4-.8-.4-1.2-.5-.1-.6.4-.4.7-.9-.2-.2-.4 0-.6-.3-.6.3 0 .6-.5 1.1.4.4-.1.6.3 1z"/><path fill="#0014d1"  d="M262.5 49.2c-.2-.5-1.5-1.1-2.1-1.5-.8.7.6 1 .6 1.5-.6-.1-1.1.9-.4 1.3.2-.4.8-.6.6-1.3.3.1 1 .2 1.3 0z"/><path fill="#0014d1"  d="M259.6 49.1c.3-.3.2-.5.4-.7-.4 0-.8 0-1.1.2-.4.2.5.4.7.5z"/><path fill="#0014d1"  d="M261.4 51.8c1.1 1.3 2.6-.5.9-1.1-.1.8-.4.7-.9 1.1z"/><path fill="#0014d1"  d="M257.8 51.2c.7.3 1.1-.7 1.3-1-.6-1.1-1.8.2-1.3 1z"/><path fill="#0014d1"  d="M263.3 56.8c1 .2 2.1-.2 2.3-1.3-.2-.2-.7.1-.6-.3-.3-.1-.4.7-.7.6-.2-.1.1-.3-.2-.5-.2.1-.4.2-.5.2-.2.2.3.3.2.5.1.1.2-.1.3-.2 0 .4-.6.6-.8 1z"/><path fill="#0014d1"  d="M266 57.8c-.5.1-.7-.6-1.2-.5-.8.9.9 1.3 1.2.5z"/><path fill="#0014d1"  d="M257.1 52.1c.1.1 0 .2 0 .3.3.1.6.2.9-.1-.1-.3-.6-.4-.9-.2z"/><path fill="#0014d1"  d="M262.4 56.3c-.1-.4-.5-.3-.7-.2 0 .1.1.2 0 .4.3.1.5.1.7-.2z"/><path fill="#0014d1"  d="M261.9 56.8c-.5.6-1.3-.6-1.7.2 0 .2.2.3.4.4-.4.7-.9.4-1.3 1.2.3.9 1.3.6 2.1.5 0-.1.1-.3.2-.4-.1-.4-.3-.3-.5-.7.7-.5 1.1.1 1.8.2.7-.9-.6-.9-1-1.4z"/><path fill="#0014d1"  d="M259.5 51.4c0 .1.3.2.2.5-.1.2-.4-.2-.5.1-.1.2 0 .3-.2.4.7.5 1.5-.4 1.7-1-.3-.3-.5-.1-.7-.4-.2.3-.3.5-.5.4z"/><path fill="#0014d1"  d="M194.6 35.7c-.3.3-.5.7-.4 1 .3.3.6.3.9.3.7-.4.3-1.2-.5-1.3z"/><path fill="#0014d1"  d="M191.2 37.5c1.3-.7-.1-1.8-.8-.7.1.3.5.5.8.7z"/><path fill="#0014d1"  d="M188.1 38c.5-.9-.5-.8-1-.7-.3.2.1.4-.1.6.4.3.7.2 1.1.1z"/><path fill="#0014d1"  d="M183.8 39c1-.1 1-1.3-.1-1.2-.2.2-.3.4-.5.7.2.1.3.3.6.5z"/><path fill="#0014d1"  d="M180.9 39.3c-.3-.7-1.3-.2-1.2.4.5.2.9.2 1.2-.4z"/><path fill="#0014d1"  d="M177 40c-.1-.5-.7-.5-1.1-.4-.5.8.7 1.3 1.1.4z"/><path fill="#0014d1"  d="M172.4 41.8c.4-.3.9-.4.8-1-.5-.3-.9.1-1.4 0 0 .4.1.7.6 1z"/><path fill="#0014d1"  d="M169.1 42.8c1-.1.7-1.2-.3-1.2-.1.3-.1.2-.3.5.1.3.2.5.6.7z"/><path fill="#0014d1"  d="M171.3 46.4c-.2.4-.5 0-.7.4.3.2.3.5.6.7.2-.3.5-.1.7-.5-.2-.2-.2-.4-.6-.6z"/><path fill="#0014d1"  d="M165.6 44.1c.7.4 2.2-.5.7-1.2-.3.4-.6.2-.9.8.2.2.2.3.2.4z"/><path fill="#0014d1"  d="M164 44.7c-.6-.5-.9-.8-1.4 0 .4.7 1.3.7 1.4 0z"/><path fill="#0014d1"  d="M167.5 47.4c-.4-.3-.8.3-.9.6.2.2.4.1.6.1.4-.3.1-.5.3-.7z"/><path fill="#0014d1"  d="M169.6 51.5c.5-1.7-1.7-.1 0 0z"/><path fill="#0014d1"  d="M166.1 50.1c-.2.1-.6.6-.6.8.1.1.3.2.4.3.2-.3.4-.5.6-.4-.1-.2-.1-.5-.4-.7z"/><path fill="#0014d1"  d="M159.9 46.4c-.5-.8-1.6-.4-1.5.3.6.5 1 .2 1.5-.3z"/><path fill="#0014d1"  d="M167.4 53.8c.1.3.5.4.7.5.2-.2.4-.5.4-.7-.2-.3-.4-.1-.6-.3-.1.2-.3.2-.5.5z"/><path fill="#0014d1"  d="M163.9 53.2c0 .4.3.3.7.6.2-.1.6-.8.5-1.1-.2-.2-.4-.1-.6-.1-.2.4-.4.3-.6.6z"/><path fill="#0014d1"  d="M165.6 56.4c-.2.3.3.8.7.8.7-.7-.3-1.3-.7-.8z"/><path fill="#0014d1"  d="M162.5 56.3c.8.2 1.4-1.1.4-1.3-.1.2-.2.8-.5.7-.3.3.2.4.1.6z"/><path fill="#0014d1"  d="M164.4 60.4c.2.1.3.2.5.3.2-.3.5-.6.4-.8-.1-.1-.2-.2-.4-.3-.3.2-.4.5-.5.8z"/><path fill="#0014d1"  d="M161.9 58.6c-.1-.1-.2-.1-.3-.2-.5.3-.5.7-.9 1.1.6.4 1.3-.4 1.2-.9z"/><path fill="#0014d1"  d="M163.4 63c.7-.2.8-.7.8-1.3-.8-.1-1.7.7-.8 1.3z"/><path fill="#0014d1"  d="M159.7 62.8c.4-.2.8-.4.8-1-.5-.3-1.3.5-.8 1z"/><path fill="#0014d1"  d="M161.8 65.6c-.3.3-.1.6-.3.9.2.1.3.2.5.3.9-.2.7-1.5-.2-1.2z"/><path fill="#0014d1"  d="M159.6 65c-.1-.2-.4-.3-.3-.5-.5 0-.8.8-.8 1.1.4.1.8-.1 1.1-.6z"/><path fill="#0014d1"  d="M159.1 70.2c.2.5.5.2.9.3.1-.2.2-.3.3-.5-.3-.5-1-.5-1.2.2z"/><path fill="#0014d1"  d="M156.6 70.7c.6-.3 1.1-.8.4-1.4-.5.1-.6.9-.9 1 .3 0 .1.3.5.4z"/><path fill="#0014d1"  d="M155.5 74.4c0-.3.2-.5.3-.8-.1-.1-.2-.2-.4-.3-.3.1-.6.6-.7.9.4.3.5-.1.8.2z"/><path fill="#0014d1"  d="M157.8 76.7c.4.3.3.7.9.9.3-.3.5-.2.6-.7-.3-.8-.7-1.1-1.5-.2z"/><path fill="#0014d1"  d="M154.2 77.5c.2.5.4 0 .8.3.3-.3.4-.6.3-.9-.6-.2-.6.1-1.1.6z"/><path fill="#0014d1"  d="M157.3 80.2c-.1.5-.1.9.5 1.2.5-.5.4-.6.6-1.1-.2-.2-.4-.3-.7-.5-.1.5-.3.3-.4.4z"/><path fill="#0014d1"  d="M153.9 80.1c-.3.3-.5.4-.9.7.1.1.1.2.1.3.6.7 1.8-.5.8-1z"/><path fill="#0014d1"  d="M156.9 83.7c-.2-.1-.4-.3-.6-.4-1.9.9.9 2.4.6.4z"/><path fill="#0014d1"  d="M152.5 83.9c-.3.2-.6.4-.9.9.3.3.6.3.9.3.4-.4.7-.9 0-1.2z"/><path fill="#0014d1"  d="M154.1 87.6c-.2.4-.4.3-.6.7.1.5.5.7 1 .7.7-.6.5-1.3-.4-1.4z"/><path fill="#0014d1"  d="M151 87.4c-.4.1-.6.8-1 1.1.5 1 2.2-.3 1-1.1z"/><path fill="#0014d1"  d="M153.2 92.4c.8-.4.9-1.1.7-1.8-.9-.1-1.9 1.3-.7 1.8z"/><path fill="#0014d1"  d="M150.3 90.7c-.6-.3-1 .4-1.4.8 0 .2.2.4.3.6.7.1 1.3-.8 1.1-1.4z"/><path fill="#0014d1"  d="M151.6 94.1c-.3.2-.5.4-.8.5-.2 1.7 2.4.5.8-.5z"/><path fill="#0014d1"  d="M148.4 95.9c1.3-.7.1-2.3-.7-.6.2.4.3.4.7.6z"/><path fill="#0014d1"  d="M150.5 97.4c-.4.4-.3.8-.4 1.1.3.3.5.3.8.4.1-.1.1-.1.2-.1.6-.7.3-1.5-.6-1.4z"/><path fill="#0014d1"  d="M147.7 98.8c-.2-.2-.2-.5-.4-.7-.4-.3-.9.3-.9.7.2.2.5.4.7.5.3-.2.5-.1.6-.5z"/><path fill="#0014d1"  d="M148.8 101.7c.1.3 0 .6.5.8.6-.1 1-1 .6-1.4-.4-.3-.7.4-1.1.6z"/><path fill="#0014d1"  d="M146.1 101.7c-.3.2-.7.2-.9.7-.1 1.7 2.8.2.9-.7z"/><path fill="#0014d1"  d="M148.2 106.2c3-.9-1.3-2.3 0 0z"/><path fill="#0014d1"  d="M144.2 105.9c-.2.4-.2.7-.4 1.1.2.2.4.3.7.5 1.7-.4 1.4-2.6-.3-1.6z"/><path fill="#0014d1"  d="M146.4 109.6c-.3.3-.6.9.3 1.5 1.8.1.8-2.6-.3-1.5z"/><path fill="#0014d1"  d="M143.4 112.2c.4 0 .7-.5 1-.8 0-2-3.1-.2-1 .8z"/><path fill="#0014d1"  d="M159.3 74.1c0-.2-.6-.6-1-.6-.1.2-.1.5-.4.7.1.2.4.3.3.5.4.1.7-.2 1-.4-.1-.1-.1-.3.1-.2z"/><path fill="#0014d1"  d="M254.1 65.8c-1.7-.1-3.4-.3-5.1-.2"/></g></g></g></switch></svg>
