<svg version="1.0" xmlns="http://www.w3.org/2000/svg" width="558px" height="119px" viewBox="0 0 558 119" preserveAspectRatio="xMidYMid meet">
  <g fill="currrentColor">
    <path d="M177.60 106.30 c-13.85 -2.65 -24.45 -9.15 -32.15 -19.80 -3.45 -4.80 -6.85 -12.75 -8.25 -19.50 -1.15 -5.35 -1.30 -18.55 -0.25 -23.75 3.95 -20.20 17.05 -34.40 36.50 -39.65 4.25 -1.15 5.75 -1.30 13.30 -1.30 7.55 0 9.05 0.15 13.30 1.30 18.85 5.10 30.95 17.90 35.85 38.05 1.20 5.10 1.20 20.60 0 25.70 -4.95 20.15 -17.15 33.10 -35.85 38 -6 1.55 -16.80 2 -22.45 0.95z m15.70 -13.05 c8.65 -1.45 16.75 -6.65 21.50 -13.80 5.05 -7.60 6.90 -14.40 6.85 -25.45 -0.05 -6.10 -0.25 -8 -1.30 -12.10 -3.85 -14.70 -14.25 -24.35 -28.30 -26.40 -8.10 -1.20 -16.85 0.40 -23.45 4.35 -4.75 2.80 -10.05 8.60 -12.55 13.70 -3.50 7.10 -4.25 10.80 -4.25 20.95 0 10.20 0.80 13.95 4.30 21 2.60 5.25 8.90 11.85 13.65 14.35 7.05 3.70 15 4.85 23.55 3.40z"/>
    <path d="M385.75 106.65 c-24.45 -3.05 -41.65 -21.50 -43.70 -46.85 -1.85 -23.40 8.20 -43 26.75 -52.25 18.45 -9.15 40.60 -6.85 56.30 5.85 14.20 11.40 20.70 32.80 16.40 53.85 -4.30 21.05 -19.30 35.60 -40.25 39 -4.10 0.70 -11.75 0.90 -15.50 0.40z m16.75 -14.20 c5.75 -1.60 9.25 -3.70 14 -8.45 3.40 -3.35 4.75 -5.15 6.40 -8.50 3.55 -7.10 4.30 -10.80 4.30 -21 0 -10.15 -0.75 -13.80 -4.30 -21 -1.65 -3.40 -2.90 -5.10 -6.35 -8.50 -2.65 -2.60 -5.45 -4.90 -7.30 -5.85 -11.65 -6.10 -26.70 -5.25 -36.90 2.05 -8.70 6.15 -13.60 15.50 -14.90 28.35 -1.40 14.30 3.15 28.10 11.95 35.95 3.80 3.40 10.75 6.80 15.85 7.75 5.10 0.95 12.25 0.60 17.25 -0.80z"/>
    <path d="M6.50 54.50 l0 -50.50 11.80 0.10 11.80 0.15 15.25 38.15 c8.40 21 15.45 38 15.65 37.75 0.40 -0.45 6.85 -16.60 20.50 -51.50 l9.65 -24.65 11.45 0 11.40 0 0 50.50 0 50.55 -7.10 -0.15 -7.15 -0.15 0 -42.65 c0 -23.40 -0.10 -42.60 -0.25 -42.60 -0.15 0 -5.40 13.15 -11.70 29.15 -6.30 16 -13.85 35.20 -16.80 42.60 l-5.30 13.50 -5.20 0 -5.20 0 -17.05 -42.65 -17 -42.60 -0.15 42.75 -0.10 42.75 -7.25 0 -7.25 0 0 -50.50z"/>
    <path d="M259 54.50 l0 -50.50 35.75 0 35.80 0 -0.15 6.50 -0.15 6.55 -28.35 -0.05 -28.40 0 0 14.50 0 14.50 21 0 21 0 0 6.65 0 6.60 -21 -0.15 -21 -0.15 0 16.25 c0 14.50 0.10 16.25 0.80 16.50 0.45 0.20 13.25 0.30 28.40 0.30 l27.55 -0.05 0.15 6.55 0.15 6.50 -35.80 0 -35.75 0 0 -50.50z"/>
    <path d="M464.85 104.65 c-0.20 -0.15 -0.35 -22.90 -0.35 -50.50 l0 -50.15 9.95 0 9.90 0 1.75 2.65 c1 1.40 12.65 18 25.95 36.85 13.30 18.85 24.60 34.85 25.05 35.50 0.80 1.20 0.85 -0.85 0.85 -36.85 l0.05 -38.15 7.25 0 7.25 0 0 50.50 0 50.50 -7.20 0 -7.20 0 -0.85 -1.35 c-0.50 -0.80 -13.50 -19.25 -28.85 -41.05 -15.35 -21.80 -28.05 -39.95 -28.20 -40.35 -0.20 -0.40 -0.50 -0.75 -0.75 -0.75 -0.25 0 -0.45 17.60 -0.45 41.75 l0 41.75 -6.90 0 c-3.80 0 -7.10 -0.15 -7.25 -0.35z"/>
  </g>
  <g fill="transparent">
    <path d="M0 59.50 l0 -59.50 279 0 279 0 0 59.50 0 59.50 -279 0 -279 0 0 -59.50z m200.05 45.85 c18.70 -4.90 30.90 -17.85 35.85 -38 1.20 -5.10 1.20 -20.60 0 -25.70 -4.90 -20.15 -17 -32.95 -35.85 -38.05 -4.25 -1.15 -5.75 -1.30 -13.30 -1.30 -7.55 0 -9.05 0.15 -13.30 1.30 -19.45 5.25 -32.55 19.45 -36.50 39.65 -1.05 5.20 -0.90 18.40 0.25 23.75 1.40 6.75 4.80 14.70 8.25 19.50 7.70 10.65 18.30 17.15 32.15 19.80 5.65 1.05 16.45 0.60 22.45 -0.95z m201.20 0.90 c20.95 -3.40 35.95 -17.95 40.25 -39 4.30 -21.05 -2.20 -42.45 -16.40 -53.85 -15.70 -12.70 -37.85 -15 -56.30 -5.85 -18.55 9.25 -28.60 28.85 -26.75 52.25 2.05 25.35 19.25 43.80 43.70 46.85 3.75 0.50 11.40 0.30 15.50 -0.40z m-380.15 -44 l0.15 -42.75 17 42.60 17.05 42.65 5.20 0 5.20 0 5.30 -13.50 c2.95 -7.40 10.50 -26.60 16.80 -42.60 6.30 -16 11.55 -29.15 11.70 -29.15 0.15 0 0.25 19.20 0.25 42.60 l0 42.65 7.15 0.15 7.10 0.15 0 -50.55 0 -50.50 -11.40 0 -11.45 0 -9.65 24.65 c-13.65 34.90 -20.10 51.05 -20.50 51.50 -0.20 0.25 -7.25 -16.75 -15.65 -37.75 l-15.25 -38.15 -11.80 -0.15 -11.80 -0.10 0 50.50 0 50.50 7.25 0 7.25 0 0.10 -42.75z m309.30 36.25 l-0.15 -6.55 -27.55 0.05 c-15.15 0 -27.95 -0.10 -28.40 -0.30 -0.70 -0.25 -0.80 -2 -0.80 -16.50 l0 -16.25 21 0.15 21 0.15 0 -6.60 0 -6.65 -21 0 -21 0 0 -14.50 0 -14.50 28.40 0 28.35 0.05 0.15 -6.55 0.15 -6.50 -35.80 0 -35.75 0 0 50.50 0 50.50 35.75 0 35.80 0 -0.15 -6.50z m148.60 -35.25 c0 -24.15 0.20 -41.75 0.45 -41.75 0.25 0 0.55 0.35 0.75 0.75 0.15 0.40 12.85 18.55 28.20 40.35 15.35 21.80 28.35 40.25 28.85 41.05 l0.85 1.35 7.20 0 7.20 0 0 -50.50 0 -50.50 -7.25 0 -7.25 0 -0.05 38.15 c0 36 -0.05 38.05 -0.85 36.85 -0.45 -0.65 -11.75 -16.65 -25.05 -35.50 -13.30 -18.85 -24.95 -35.45 -25.95 -36.85 l-1.75 -2.65 -9.90 0 -9.95 0 0 50.15 c0 27.60 0.15 50.35 0.35 50.50 0.15 0.20 3.45 0.35 7.25 0.35 l6.90 0 0 -41.75z"/>
    <path d="M181.25 93.50 c-7.85 -1.15 -13.05 -3.75 -18.75 -9.50 -3.40 -3.35 -4.75 -5.15 -6.40 -8.50 -3.50 -7.05 -4.30 -10.80 -4.30 -21 0 -10.15 0.75 -13.85 4.25 -20.95 2.50 -5.10 7.80 -10.90 12.55 -13.70 6.60 -3.95 15.35 -5.55 23.45 -4.35 14.05 2.05 24.45 11.70 28.30 26.40 1.05 4.10 1.25 6 1.30 12.10 0.05 11.05 -1.80 17.85 -6.85 25.45 -7 10.45 -20.20 16 -33.55 14.05z"/>
    <path d="M385.25 93.25 c-5.10 -0.95 -12.05 -4.35 -15.85 -7.75 -8.80 -7.85 -13.35 -21.65 -11.95 -35.95 1.30 -12.85 6.20 -22.20 14.90 -28.35 10.20 -7.30 25.25 -8.15 36.90 -2.05 1.85 0.95 4.65 3.25 7.30 5.85 3.45 3.40 4.70 5.10 6.35 8.50 3.55 7.20 4.30 10.85 4.30 21 0 10.20 -0.75 13.90 -4.30 21 -1.65 3.35 -3 5.15 -6.40 8.50 -4.75 4.75 -8.25 6.85 -14 8.45 -5 1.40 -12.15 1.75 -17.25 0.80z"/>
  </g>
</svg>
