<svg width="920" height="69" viewBox="0 0 920 69" xmlns="http://www.w3.org/2000/svg">
<title>Sustainable Stylists</title>
<path fill="#0014d1" d="M 23.38406,68.132079 C 18.656892,67.204627 14.462977,64.991763 11.034134,61.615804 8.0703412,58.697723 6.4881675,56.479294 4.3891734,52.298641 L 2.9324775,49.39728 4.1062388,48.778923 C 4.7518075,48.438827 6.4121553,47.540595 7.7959006,46.782852 9.1796459,46.025108 10.365764,45.4591 10.43172,45.525055 c 0.06595,0.06595 0.474504,1.517738 0.907887,3.226184 2.138309,8.429465 6.938931,14.820954 13.097467,17.437804 1.744559,0.741288 2.39011,0.834898 5.802926,0.841466 3.303848,0.0064 4.055884,-0.0921 5.38619,-0.705149 4.057236,-1.86972 6.196823,-5.433915 5.915371,-9.854022 C 41.358871,53.602234 40.103082,51.373898 36.98164,48.37998 34.663132,46.156194 31.975868,44.125663 18.735883,34.593256 13.456704,30.792399 9.3848889,26.726558 7.9740424,23.847203 c -1.0529062,-2.148845 -1.0940423,-2.371438 -1.0940423,-5.92 0,-4.471152 0.5850233,-6.070281 3.1368539,-8.5744129 3.23513,-3.1746598 6.806855,-4.3768954 13.023146,-4.3835652 3.624868,-0.00389 4.706185,0.1148555 6.72,0.7379572 4.068096,1.2587237 7.499799,3.3832362 10.641191,6.5877929 1.400554,1.428716 5.038809,6.171474 5.038809,6.568495 0,0.194719 -3.164037,1.617159 -6.921608,3.111712 -0.21624,0.08601 -0.698667,-0.901156 -1.200057,-2.455615 C 35.045854,12.474203 31.874986,8.5730779 27.04,6.8741129 24.652065,6.0350165 19.906085,6.099192 17.561341,7.002284 c -2.06167,0.7940648 -3.913678,2.4412658 -4.604945,4.095701 -0.713002,1.706453 -0.610178,4.620448 0.226732,6.425503 1.253179,2.702869 3.229719,4.347508 15.456872,12.861344 13.175578,9.174229 17.28884,13.510854 18.371874,19.369522 1.652529,8.939355 -2.73932,15.789172 -11.630232,18.139278 -2.407065,0.636251 -9.274346,0.772736 -11.997582,0.238447 z m 52.295941,0.150953 C 65.90364,66.872332 60.233336,62.512065 57.625829,54.400002 56.118444,49.710466 55.967367,47.767901 55.809078,31.040001 55.72664,22.328001 55.514565,13.273309 55.3378,10.918463 55.161035,8.5636171 55.057717,6.6034016 55.108205,6.5624286 55.158692,6.5214555 57.72,6.3934434 60.8,6.2779573 L 66.400001,6.0679826 V 27.753992 c 0,19.704973 0.05318,21.947556 0.582139,24.549096 1.908273,9.385305 6.032544,13.42532 14.137861,13.849033 10.802015,0.564687 16.208232,-3.991468 18.31136,-15.432119 0.436862,-2.376453 0.535377,-5.341783 0.563448,-16.960001 0.03259,-13.488425 -0.206498,-23.41573 -0.633887,-26.3200007 l -0.200136,-1.36 1.379604,-7.28e-5 1.37961,-7.28e-5 -0.20994,2.9600729 c -0.11546,1.6280404 -0.22346,10.2430634 -0.24,19.1444964 -0.0322,17.328064 -0.26778,21.494436 -1.477057,26.12055 -1.948068,7.452394 -5.675566,11.554425 -12.153002,13.374116 -1.875331,0.526833 -9.924053,0.926583 -12.16,0.603942 z M 130.72,68.172043 c -9.52599,-1.09849 -16.37221,-6.24074 -21.28789,-15.989503 -0.7282,-1.444164 -1.25729,-2.79603 -1.17576,-3.004145 0.0815,-0.208116 1.74443,-1.214472 3.69534,-2.236346 l 3.54711,-1.857954 0.20103,0.897954 c 1.96683,8.785327 5.50736,14.819502 10.74906,18.319773 2.9233,1.952103 5.6752,2.682016 9.4887,2.516776 4.84047,-0.209739 7.90954,-1.916467 9.55243,-5.312163 0.75919,-1.569181 0.88551,-2.232078 0.89682,-4.706432 0.0155,-3.39073 -0.42992,-4.457636 -3.0644,-7.34018 C 141.15508,47.088388 138.41355,44.883363 131.36,39.838364 118.11487,30.364891 114.71339,27.344222 112.84107,23.392733 111.90016,21.406955 111.84,21.05887 111.84,17.600001 c 0,-3.370736 0.0743,-3.831259 0.88389,-5.479853 1.03961,-2.116926 3.33324,-4.3729274 5.62824,-5.535891 6.08435,-3.0831726 15.47603,-2.584491 21.71619,1.1530918 2.454,1.469838 6.12283,4.9564702 8.41155,7.9938322 1.05607,1.401515 1.92013,2.668707 1.92013,2.815984 0,0.405568 -7.09102,3.295498 -7.34801,2.994667 -0.12303,-0.144007 -0.45857,-1.139942 -0.74565,-2.213189 -1.04658,-3.912551 -3.3948,-8.032813 -5.77853,-10.1391907 C 131.8718,5.075178 123.18807,4.7936925 119.45484,8.636027 c -1.48591,1.52933 -2.01484,2.868849 -2.01484,5.102613 0,4.640354 1.37195,6.058157 15.2,15.707971 8.49082,5.925264 12.17154,8.81312 14.72,11.549174 5.14402,5.52266 6.34884,12.443316 3.32271,19.086079 -0.98131,2.1541 -4.0123,5.043121 -6.4511,6.148925 -3.95059,1.791284 -8.78672,2.486105 -13.51161,1.941254 z m 455.2,-1.1464 c -6.13175,-1.307361 -10.9232,-4.386507 -14.84203,-9.538001 -1.77675,-2.335632 -4.99818,-8.055812 -4.9977,-8.874259 2.6e-4,-0.439717 6.93739,-4.342396 7.2187,-4.061084 0.0768,0.07676 0.43111,1.279894 0.78746,2.673633 2.4161,9.449899 7.15896,15.668933 13.91357,18.244083 2.20285,0.839817 7.61832,0.854689 9.99048,0.02743 2.23543,-0.779572 4.60712,-2.954989 5.54709,-5.088028 1.07492,-2.439275 1.07968,-6.193196 0.0107,-8.409419 -1.20736,-2.503015 -5.84357,-6.817428 -12.35336,-11.495941 C 574.23331,28.314006 571.4587,25.672212 570.04638,20.36794 c -2.03984,-7.661072 2.26467,-14.128343 10.65679,-16.0112004 7.1542,-1.6051151 14.96252,0.3127115 20.63164,5.0673979 2.38636,2.0014355 7.02963,7.6867015 6.89919,8.4474275 -0.0407,0.237361 -1.64992,1.064673 -3.57605,1.838472 -3.49928,1.405787 -3.99804,1.432041 -4.01305,0.211238 -0.003,-0.219299 -0.31067,-1.299299 -0.68439,-2.4 -2.94596,-8.676485 -8.56629,-12.9559618 -16.11092,-12.2673049 -5.51545,0.5034379 -8.82611,3.8550778 -8.40418,8.5082079 0.3194,3.522328 2.45963,6.002427 9.39571,10.887723 10.60175,7.467139 12.65359,8.943528 15.206,10.941426 7.63087,5.973036 10.61809,11.353975 10.0498,18.102911 -0.57677,6.849747 -4.6347,11.338634 -11.93879,13.206704 -2.91442,0.745384 -9.03453,0.807745 -12.23813,0.124701 z m 217.60001,0.272724 c -8.89938,-1.495983 -15.2091,-6.555284 -19.94878,-15.995461 l -1.47464,-2.937096 1.99171,-1.105217 c 2.29215,-1.271934 5.26293,-2.780591 5.47542,-2.780591 0.0797,0 0.37191,0.997697 0.64926,2.217105 2.37309,10.433678 8.5726,17.857695 16.08828,19.265986 2.374,0.444841 6.21365,0.17517 8.22106,-0.577392 1.89255,-0.709496 4.17222,-2.645734 4.97403,-4.22467 0.83188,-1.638178 1.4004,-4.68048 1.16633,-6.241389 -0.10921,-0.728215 -0.53411,-2.048287 -0.94423,-2.933493 -1.55359,-3.353258 -4.39234,-5.774356 -20.64418,-17.606871 -7.01275,-5.105786 -10.2172,-8.243191 -11.79551,-11.548696 -1.1613,-2.432141 -1.19865,-2.620559 -1.19531,-6.030581 0.003,-2.932451 0.11965,-3.772825 0.69965,-5.034668 1.53379,-3.3369462 4.01603,-5.4325925 8.11582,-6.85184 1.85984,-0.6438316 3.22171,-0.8593655 6.22109,-0.9845661 7.07632,-0.2953813 12.2656,1.6253317 17.63115,6.5258301 2.26757,2.071039 6.1911,7.26966 5.7896,7.671156 -0.14263,0.142634 -6.96075,2.994088 -7.15917,2.994088 -0.0346,0 -0.44508,-1.26 -0.91225,-2.8 -2.79715,-9.2207281 -8.46715,-13.7650838 -16.30933,-13.0715092 -1.53022,0.1353342 -2.86223,0.5019452 -4.20368,1.1569772 -2.94657,1.4388199 -4.27632,3.5118994 -4.27632,6.666758 0,3.792755 2.32606,6.572782 10.08,12.047228 2.464,1.739638 6.208,4.382904 8.32,5.873925 8.87251,6.263779 12.83008,10.015901 14.72941,13.964775 2.86207,5.950494 1.84739,13.413615 -2.40137,17.662373 -3.38494,3.384945 -7.90065,4.927069 -14.21923,4.855897 -2.12785,-0.02397 -4.22881,-0.104094 -4.66881,-0.178058 z m 91.84,-0.272724 c -6.13176,-1.307361 -10.9232,-4.386507 -14.84204,-9.538001 -1.77675,-2.335632 -4.99818,-8.055812 -4.9977,-8.874259 2.6e-4,-0.439717 6.93739,-4.342396 7.2187,-4.061084 0.0768,0.07676 0.43112,1.279894 0.78746,2.673633 2.41611,9.449899 7.15896,15.668933 13.91358,18.244083 2.20284,0.839817 7.61832,0.854689 9.99047,0.02743 2.23543,-0.779572 4.60712,-2.954989 5.54709,-5.088028 1.07493,-2.439275 1.07968,-6.193196 0.0107,-8.409419 -1.20737,-2.503015 -5.84357,-6.817428 -12.35337,-11.495941 C 883.67331,28.314006 880.8987,25.672212 879.48638,20.36794 c -2.03983,-7.661072 2.26468,-14.128343 10.6568,-16.0112004 7.15419,-1.6051151 14.96251,0.3127115 20.63163,5.0673979 2.38636,2.0014355 7.02964,7.6867015 6.8992,8.4474275 -0.0407,0.237361 -1.64993,1.064673 -3.57606,1.838472 -3.49928,1.405787 -3.99804,1.432041 -4.01304,0.211238 -0.003,-0.219299 -0.31068,-1.299299 -0.6844,-2.4 -2.94596,-8.676485 -8.56629,-12.9559618 -16.11092,-12.2673049 -5.51545,0.5034379 -8.82611,3.8550778 -8.40417,8.5082079 0.31939,3.522328 2.45962,6.002427 9.3957,10.887723 10.60176,7.467139 12.65359,8.943528 15.20601,10.941426 7.63086,5.973036 10.61808,11.353975 10.04979,18.102911 -0.57677,6.849747 -4.6347,11.338634 -11.93878,13.206704 -2.91443,0.745384 -9.03454,0.807745 -12.23813,0.124701 z M 328,66.779138 c 0,-0.07672 0.35431,-0.940651 0.78735,-1.919837 0.62112,-1.40446 5.74566,-19.354332 8.37612,-29.339299 0.25502,-0.968 0.88842,-3.272001 1.40756,-5.120001 0.51914,-1.848 1.17822,-4.224 1.46462,-5.28 0.2864,-1.056 0.70799,-2.568 0.93687,-3.36 0.22888,-0.792 0.80112,-2.88 1.27165,-4.64 0.47052,-1.76 1.09026,-3.92 1.37721,-4.8 0.28694,-0.88 0.52552,-2.6382263 0.53017,-3.9071689 l 0.008,-2.3071683 6.00125,-0.092832 6.00125,-0.092832 0.44865,1.44 c 0.24676,0.7920001 0.52243,1.7280001 0.61261,2.0800001 0.0902,0.352 0.7389,2.6560006 1.4416,5.1200006 0.7027,2.464 2.30988,8.152 3.5715,12.64 1.26162,4.488 2.84452,10.104001 3.51754,12.480001 0.67302,2.376 2.11111,7.488 3.19573,11.36 2.39912,8.564576 3.64699,12.36739 4.64651,14.160001 l 0.75831,1.36 H 367.97748 361.6 V 65.45377 c 0,-1.210571 -1.35698,-6.61083 -3.78273,-15.053768 l -1.56297,-5.44 h -10.17188 -10.17188 l -2.52633,9.12 c -1.38949,5.016001 -2.62936,9.912001 -2.75527,10.880001 -0.22838,1.755727 -0.23185,1.760241 -1.42894,1.859317 -0.66,0.05462 -1.2,0.03654 -1.2,-0.04018 z M 355.72029,42.960002 C 353.80008,36.356407 346.9722,12.186865 346.54471,10.48 c -0.20938,-0.8359996 -0.47159,-1.5198035 -0.5827,-1.5195639 -0.1111,2.396e-4 -2.27708,7.5962399 -4.81329,16.8800009 -2.5362,9.283761 -4.6756,17.059565 -4.75423,17.279565 -0.11237,0.314413 1.95729,0.4 9.67284,0.4 9.19708,0 9.80554,-0.0353 9.65296,-0.56 z M 171.33033,62.160003 c 0.26953,-5.714932 0.25339,-3.442351 0.21935,-30.880002 L 171.52,7.3600003 l -2.48,0.00501 c -3.21557,0.0065 -7.71722,0.9695446 -11.37753,2.4340098 l -2.91499,1.1662642 -0.85457,-1.0236333 c -1.06428,-1.2748454 -2.92717,-3.8579149 -2.79279,-3.8724836 0.0549,-0.00596 11.60541,-0.099032 25.66771,-0.206835 21.83484,-0.1673883 25.52901,-0.1307663 25.30191,0.2508292 -0.98926,1.6622602 -3.538,4.7592287 -3.81454,4.6350277 -4.86946,-2.1870363 -9.68139,-3.3713846 -13.73787,-3.3812672 l -2.84267,-0.00693 0.20708,25.3600007 c 0.19553,23.944524 0.31147,29.250417 0.70976,32.480002 l 0.16772,1.36 h -5.81821 -5.8182 z m 25.00122,3.84 c 0.74923,-1.748016 2.49166,-7.132483 3.33958,-10.320001 0.92596,-3.480831 1.53965,-5.71531 3.20791,-11.68 0.3938,-1.408 0.82683,-2.992 0.96229,-3.52 0.13546,-0.528 0.70754,-2.616 1.27129,-4.64 0.56376,-2.024001 1.35512,-4.904001 1.75858,-6.400001 0.40347,-1.496 1.63312,-5.96 2.73257,-9.92 2.768,-9.9698559 2.95655,-10.828958 2.72118,-12.3985661 l -0.20416,-1.3614346 6.09067,0 6.09066,0 0.46831,1.68 c 0.45246,1.623179 2.12983,7.5591067 6.21673,22.0000007 1.07091,3.784 3.0384,10.768001 4.3722,15.520001 4.54889,16.206502 5.17012,18.149516 6.57355,20.560001 l 0.60551,1.04 h -6.36618 -6.36619 l -0.21157,-1.84 c -0.11637,-1.012 -0.3528,-2.416 -0.52539,-3.12 -0.68192,-2.781444 -4.52118,-16.033571 -4.79758,-16.560001 -0.26888,-0.512109 -1.02813,-0.56 -8.8781,-0.56 -4.72125,0 -9.23186,0.08879 -10.02359,0.197307 l -1.43951,0.197307 -2.42034,8.842693 c -1.33118,4.863482 -2.59423,9.742694 -2.80678,10.842694 -0.38563,1.995748 -0.38882,2 -1.49906,2 -0.93772,0 -1.07487,-0.08802 -0.87258,-0.56 z m 26.87263,-25.280001 c -0.40919,-1.364 -2.56569,-8.960001 -4.79223,-16.880001 C 213.8962,7.7770853 214.10965,8.5017039 213.94446,8.6741994 213.82992,8.7938053 204.48,42.761923 204.48,43.058448 c 0,0.07785 4.38034,0.141554 9.73408,0.141554 h 9.73408 z M 381.69204,64.400003 C 382.01249,61.363622 381.97728,15.848011 381.6502,10.32 l -0.2698,-4.5599997 11.9498,0.00263 c 6.57239,0.00144 13.2458,0.1496364 14.8298,0.3293163 7.29238,0.8272055 11.22869,2.9727578 13.34656,7.2747619 1.01473,2.061196 1.05336,2.281214 1.05128,5.986568 -0.002,3.528251 -0.0737,3.992443 -0.86576,5.606729 -1.629,3.319878 -4.6531,5.513107 -9.22112,6.687623 -1.31502,0.338117 -2.17496,0.680241 -1.91096,0.760276 0.264,0.08004 1.632,0.463185 3.04,0.851444 6.91185,1.905955 11.38897,5.937353 12.99433,11.700658 0.65915,2.3664 0.56314,7.89312 -0.17511,10.08 -2.16946,6.426447 -7.90357,10.107946 -17.4471,11.201647 -1.50267,0.172206 -8.3067,0.314284 -15.12008,0.315728 l -12.38796,0.0026 z m 24.27943,-0.20943 c 4.71996,-1.518912 7.60385,-4.297622 9.11406,-8.781668 0.98767,-2.932551 0.97882,-8.786734 -0.0181,-11.936882 -1.32492,-4.186805 -4.09001,-7.273506 -8.10708,-9.050046 -2.53061,-1.119153 -4.89069,-1.461976 -10.06462,-1.461976 l -4.58669,0 0.0168,15.957984 c 0.009,8.77689 0.11968,16.065472 0.24546,16.196848 0.12578,0.131375 2.60468,0.166248 5.50868,0.07749 4.54554,-0.138922 5.64327,-0.27827 7.89147,-1.001754 z m -3.83462,-32.854047 c 4.63063,-0.635401 7.5867,-2.573224 9.17921,-6.017355 C 411.90372,24.048227 412,23.254388 412,19.680001 c 0,-3.782533 -0.0719,-4.30518 -0.79236,-5.76 -2.31531,-4.6752308 -7.24905,-6.8800007 -15.39579,-6.8800007 l -3.49185,0 v 12.3200007 12.32 h 3.65685 c 2.01126,0 4.78326,-0.154563 6.16,-0.343475 z m 32.60334,34.349805 c 0.54429,-2.893703 0.71768,-12.033685 0.59352,-31.286329 C 435.20202,13.9794 435.12069,10.52106 434.69215,7.1200003 l -0.17136,-1.36 5.91949,0 5.91949,0 -0.21989,1.2 c -0.12093,0.66 -0.21988,14.0063757 -0.21988,29.6586137 v 28.458613 l 6.08,-0.07129 c 3.344,-0.03921 7.232,-0.209555 8.64,-0.37855 2.88128,-0.345824 8.00879,-1.541521 10.85251,-2.530727 1.04088,-0.362075 1.92288,-0.621946 1.96002,-0.57749 0.0371,0.04446 -0.42701,1.102653 -1.03143,2.35155 l -1.09893,2.270722 -9.66108,0.207733 c -5.3136,0.114253 -13.58206,0.211276 -18.37435,0.215607 l -8.71327,0.0079 z M 249.7161,64.560003 c 0.6563,-5.582036 0.39869,-55.2887131 -0.30183,-58.2400027 l -0.20888,-0.8800001 5.94223,0 5.94223,0 -0.22492,1.6800001 c -0.31308,2.3384528 -0.28317,50.3994007 0.0343,55.2000027 l 0.25928,3.92 h -5.81999 -5.81999 z m 20.87068,-1.44 c 0.52434,-5.960351 0.24269,-52.039745 -0.34233,-56.00706 l -0.24877,-1.6870574 6.15738,0.087057 6.15739,0.087057 5.92038,10.0800008 c 3.25621,5.544 7.86968,13.392 10.25215,17.44 2.38247,4.048001 6.27862,10.672001 8.65811,14.720001 2.37948,4.048 5.39005,9.160001 6.69015,11.360001 l 2.36381,4 -0.1643,-26.720001 C 315.94038,21.784001 315.77621,8.7880004 315.66592,7.6000003 l -0.20053,-2.1600001 1.28719,0 1.28719,0 -0.21989,1.2000001 c -0.30377,1.6578647 -0.27805,50.8442277 0.0291,55.6800027 l 0.249,3.92 h -6.06291 -6.0629 l -0.61757,-1.04 c -0.33966,-0.572 -2.13729,-3.632 -3.99472,-6.8 -1.85744,-3.168001 -6.50119,-11.088001 -10.31946,-17.600001 -3.81827,-6.512 -8.24875,-14.072001 -9.84551,-16.800001 -5.27762,-9.01661 -8.93871,-15.1977218 -9.09777,-15.3600006 -0.20959,-0.2138256 0.18028,51.9543936 0.41192,55.1200026 l 0.18147,2.48 h -1.18912 -1.18912 z m 209.87471,0.16 c 0.45576,-4.186527 0.35856,-46.794239 -0.12053,-52.835257 -0.20741,-2.6153894 -0.31984,-4.8125316 -0.24983,-4.8825378 0.07,-0.070006 8.73127,-0.090142 19.24726,-0.044746 l 19.11999,0.082538 -1.81117,2.4800002 c -0.99615,1.364 -1.87902,2.4799996 -1.96194,2.4799996 -0.0829,0 -0.68503,-0.268159 -1.33801,-0.5959086 -3.9442,-1.9796844 -9.30372,-2.954284 -16.64944,-3.0276122 L 491.04,6.8800003 490.94462,18.560001 c -0.0525,6.424 -0.006,12.436 0.10302,13.36 l 0.19842,1.68 4.37697,-0.0013 c 4.13599,-0.0012 12.29586,-0.454214 14.21697,-0.789236 0.85486,-0.149078 0.88,-0.111344 0.88,1.320672 v 1.474134 l -1.36,-0.205727 c -0.748,-0.11315 -5.14,-0.298408 -9.76,-0.411686 l -8.4,-0.205958 v 15.133577 15.133578 l 7.92,-0.178867 c 8.69776,-0.196431 11.1635,-0.525644 17.41597,-2.325293 2.10937,-0.60714 3.88158,-1.103891 3.93825,-1.103891 0.0567,0 -0.41441,1.08 -1.04682,2.4 l -1.14984,2.4 h -19.06915 -19.06915 z m 148.48404,0.96 c 0.31526,-2.554982 0.57944,-57.245399 0.27789,-57.5282369 -0.37407,-0.3508589 -6.58125,0.2376965 -9.06079,0.8591295 -1.14544,0.2870773 -3.09063,0.9445011 -4.32263,1.4609419 -1.232,0.5164408 -2.46686,1.0097695 -2.74413,1.0962855 -0.34455,0.107509 -1.07894,-0.6063985 -2.32,-2.2552948 C 609.77714,6.5458995 608.96,5.3836788 608.96,5.2901155 c 0,-0.093563 11.52,-0.1701153 25.60001,-0.1701153 14.08,0 25.6,0.082734 25.6,0.1838543 0,0.2313546 -3.53096,4.9361455 -3.7046,4.9361455 -0.0704,0 -1.3176,-0.487481 -2.77166,-1.0832916 -1.45406,-0.5958106 -3.58093,-1.3137999 -4.72637,-1.5955317 -2.52628,-0.6213591 -8.69277,-1.1947481 -9.0671,-0.8431011 -0.30044,0.2822301 -0.0235,54.8684824 0.29184,57.5219274 l 0.19965,1.68 h -5.82176 -5.82177 z m 55.02009,-0.32 c 0.11139,-1.1 0.28916,-6.824 0.39505,-12.720001 l 0.19253,-10.72 -1.83173,-3.52 c -1.00745,-1.936 -2.66136,-5.104001 -3.67537,-7.040001 -1.01401,-1.936 -3.61468,-6.976 -5.77928,-11.2 -3.98858,-7.783338 -5.39146,-10.2348448 -7.09593,-12.4000007 l -0.94466,-1.2000001 6.61468,0 6.61469,0 0.35862,1.0400001 c 0.50834,1.4742124 9.27846,18.7285927 14.50426,28.5357797 l 1.3512,2.53578 7.15268,-14.37578 c 3.93397,-7.906679 7.4609,-15.1317797 7.83763,-16.0557797 0.618,-1.5157713 0.78149,-1.6800001 1.67249,-1.6800001 0.54314,0 0.98753,0.074862 0.98753,0.166359 0,0.091498 -0.38661,0.7754975 -0.85912,1.5200001 -0.47252,0.7445026 -4.45058,8.6256417 -8.84015,17.5136417 l -7.98102,16.160001 0.20258,11.04 c 0.11143,6.072001 0.29181,11.796001 0.40086,12.720001 l 0.19827,1.68 h -5.83917 -5.83918 z m 34.54308,1.12 c 0.66608,-3.197695 0.90529,-14.645439 0.72382,-34.640002 -0.10782,-11.88 -0.28057,-22.4280006 -0.38389,-23.4400007 l -0.18786,-1.8400001 5.8205,0 5.8205,0 -0.21068,1.6800001 c -0.11587,0.924 -0.28294,14.3160007 -0.37127,29.7600017 l -0.16059,28.080001 h 6.02879 c 3.31582,0 7.249,-0.149484 8.74038,-0.332186 2.55053,-0.312453 8.20625,-1.620133 11.57963,-2.67737 l 1.50802,-0.472623 -1.17819,2.381089 -1.1782,2.38109 H 736.69253 718.3254 Z m 45.57743,-0.64 c 0.30589,-1.987995 0.30477,-54.6769141 -0.001,-57.2800027 l -0.23509,-2.0000001 5.70176,0 c 3.13597,0 5.76326,0.061496 5.83842,0.136658 0.0752,0.075162 0.0216,1.407162 -0.11913,2.9600002 -0.6424,7.0906886 -0.47297,52.0715936 0.21343,56.6633446 l 0.15547,1.04 h -5.89376 -5.89376 z m 81.19516,0.48 c 0.32705,-1.45398 0.57824,-57.8721807 0.259,-58.1713689 -0.40349,-0.3781544 -6.37683,0.2425369 -9.13777,0.9495081 -1.36262,0.3489149 -3.37862,1.0114525 -4.48,1.4723059 -1.10138,0.4608534 -2.21851,0.8992689 -2.48251,0.9742579 -0.47971,0.136259 -3.84,-3.9235288 -3.84,-4.6393569 0,-0.2442358 7.44845,-0.3453489 25.44,-0.3453489 13.992,0 25.44,0.095181 25.44,0.211513 0,0.2335532 -3.47024,4.9084868 -3.6436,4.9084868 -0.0596,0 -1.17218,-0.4395482 -2.47239,-0.9767743 -3.4068,-1.4076403 -6.85015,-2.2278011 -10.60229,-2.5253316 -1.80495,-0.1431253 -3.38972,-0.1972042 -3.52172,-0.1201754 -0.132,0.077029 -0.24,6.0099023 -0.24,13.1841633 0,11.281736 -0.0713,13.253449 -0.52794,14.59352 -0.45262,1.328354 -0.48985,2.260993 -0.26101,6.537005 0.31377,5.862987 0.31331,6.372621 -0.0149,16.907596 l -0.25177,8.08 h -4.94849 -4.94848 z m 73.9567,-58.2986517 c -0.46089,-0.604257 -0.83798,-1.180257 -0.83798,-1.2800001 0,-0.099743 0.432,-0.181351 0.96,-0.181351 0.90666,0 0.96,0.071111 0.96,1.2800001 0,0.704 -0.0549,1.28 -0.12202,1.28 -0.0671,0 -0.49911,-0.494392 -0.96,-1.098649 z" />
</svg>
