<?xml version="1.0" encoding="utf-8"?>
<!DOCTYPE svg PUBLIC "-//W3C//DTD SVG 1.0//EN" "http://www.w3.org/TR/2001/REC-SVG-20010904/DTD/svg10.dtd">
<svg version="1.0" xmlns="http://www.w3.org/2000/svg" width="2534px" height="2534px" viewBox="0 0 2534 2534" preserveAspectRatio="xMidYMid meet">
 <g fill="#0014d1">
  <path d="M17 2361 l0 -156 156 0 156 0 0 156 0 156 -156 0 -156 0 0 -156z m263 -0.5 l0 -106.5 -106.5 0 -106.5 0 0 106.5 0 106.5 106.5 0 106.5 0 0 -106.5z"/>
  <path d="M105 2360.5 l0 -68.5 68.5 0 68.5 0 0 68.5 0 68.5 -68.5 0 -68.5 0 0 -68.5z"/>
  <path d="M367 2492 l0 -25 25 0 25 0 0 25 0 25 -25 0 -25 0 0 -25z"/>
  <path d="M455 2473 l0 -44 -22 0 -22 0 0 -43.5 0 -43.5 -22 0 -22 0 0 -25 0 -25 25 0 25 0 0 22 0 22 19 0 19 0 0 -22 0 -22 21.5 0 21.5 0 0 -19 0 -19 -65.5 0 -65.5 0 0 -65.5 0 -65.5 -19 0 -19 0 0 22 0 22 -24.5 0 -24.5 0 0 -25 0 -25 21.5 0 21.5 0 0 -19 0 -19 -40.5 0 -40.5 0 0 22 0 22 -112.5 0 -112.5 0 0 -112.5 0 -112.5 22 0 22 0 0 -21.5 0 -21.5 22 0 22 0 0 -84.5 0 -84.5 -19 0 -19 0 0 65.5 0 65.5 -25 0 -25 0 0 -68.5 0 -68.5 22 0 22 0 0 -19 0 -19 -22 0 -22 0 0 -25 0 -25 22 0 22 0 0 -21.5 0 -21.5 22 0 22 0 0 -41 0 -41 -19 0 -19 0 0 22 0 22 -25 0 -25 0 0 -25 0 -25 22 0 22 0 0 -19 0 -19 -22 0 -22 0 0 -25 0 -25 22 0 22 0 0 -18.5 0 -18.5 -22 0 -22 0 0 -47 0 -47 44 0 44 0 0 -65.5 0 -65.5 43.5 0 43.5 0 0 -19 0 -19 -22 0 -22 0 0 -22 0 -22 -21.5 0 -21.5 0 0 -21.5 0 -21.5 -22 0 -22 0 0 -22 0 -22 -22 0 -22 0 0 -68.5 0 -68.5 25 0 25 0 0 65.5 0 65.5 43.5 0 43.5 0 0 43.5 0 43.5 63 0 63 0 0 -18.5 0 -18.5 -44 0 -44 0 0 -47 0 -47 22 0 22 0 0 -40.5 0 -40.5 -41 0 -41 0 0 43.5 0 43.5 -24.5 0 -24.5 0 0 -112.5 0 -112.5 24.5 0 24.5 0 0 22 0 22 22 0 22 0 0 22 0 22 22 0 22 0 0 22 0 22 43.5 0 43.5 0 0 24.5 0 24.5 -21.5 0 -21.5 0 0 19 0 19 84.5 0 84.5 0 0 -22 0 -22 46.5 0 46.5 0 0 25 0 25 -22 0 -22 0 0 19 0 19 22 0 22 0 0 43.5 0 43.5 19 0 19 0 0 -21.5 0 -21.5 22 0 22 0 0 -22 0 -22 21.5 0 21.5 0 0 -19 0 -19 -43.5 0 -43.5 0 0 -25 0 -25 22 0 22 0 0 -18.5 0 -18.5 -22 0 -22 0 0 -22 0 -22 -22 0 -22 0 0 -22 0 -22 -19 0 -19 0 0 22 0 22 -21.5 0 -21.5 0 0 22 0 22 -22 0 -22 0 0 21.5 0 21.5 -25 0 -25 0 0 -24.5 0 -24.5 22 0 22 0 0 -19 0 -19 -22 0 -22 0 0 -65.5 0 -65.5 -19 0 -19 0 0 21.5 0 21.5 -21.5 0 -21.5 0 0 19 0 19 21.5 0 21.5 0 0 25 0 25 -24.5 0 -24.5 0 0 -22 0 -22 -22 0 -22 0 0 -22 0 -22 -22 0 -22 0 0 -24.5 0 -24.5 65.5 0 65.5 0 0 -19 0 -19 -21.5 0 -21.5 0 0 -22 0 -22 -19 0 -19 0 0 22 0 22 -47 0 -47 0 0 -25 0 -25 22 0 22 0 0 -87.5 0 -87.5 25 0 25 0 0 22 0 22 19 0 19 0 0 -22 0 -22 43.5 0 43.5 0 0 -109.5 0 -109.5 22 0 22 0 0 -21.5 0 -21.5 68.5 0 68.5 0 0 21.5 0 21.5 22 0 22 0 0 22 0 22 22 0 22 0 0 44 0 44 18.5 0 18.5 0 0 -22 0 -22 22 0 22 0 0 -19 0 -19 -22 0 -22 0 0 -68.5 0 -68.5 22 0 22 0 0 -22 0 -22 25 0 25 0 0 22 0 22 40.5 0 40.5 0 0 -22 0 -22 25 0 25 0 0 25 0 25 -22 0 -22 0 0 19 0 19 44 0 44 0 0 21.5 0 21.5 19 0 19 0 0 -21.5 0 -21.5 43.5 0 43.5 0 0 -19 0 -19 -43.5 0 -43.5 0 0 -25 0 -25 46.5 0 46.5 0 0 22 0 22 22 0 22 0 0 25 0 25 -22 0 -22 0 0 21.5 0 21.5 -43.5 0 -43.5 0 0 41 0 41 21.5 0 21.5 0 0 46.5 0 46.5 -21.5 0 -21.5 0 0 19 0 19 21.5 0 21.5 0 0 25 0 25 -43.5 0 -43.5 0 0 19 0 19 43.5 0 43.5 0 0 21.5 0 21.5 19 0 19 0 0 -21.5 0 -21.5 25 0 25 0 0 21.5 0 21.5 40.5 0 40.5 0 0 -40.5 0 -40.5 -21.5 0 -21.5 0 0 -65.5 0 -65.5 -19 0 -19 0 0 21.5 0 21.5 -25 0 -25 0 0 -24.5 0 -24.5 22 0 22 0 0 -19 0 -19 -22 0 -22 0 0 -25 0 -25 22 0 22 0 0 -22 0 -22 22 0 22 0 0 -65.5 0 -65.5 24.5 0 24.5 0 0 22 0 22 19 0 19 0 0 -22 0 -22 25 0 25 0 0 25 0 25 -22 0 -22 0 0 19 0 19 22 0 22 0 0 21.5 0 21.5 106.5 0 106.5 0 0 -18.5 0 -18.5 -44 0 -44 0 0 -47 0 -47 25 0 25 0 0 22 0 22 22 0 22 0 0 22 0 22 40.5 0 40.5 0 0 -19 0 -19 -21.5 0 -21.5 0 0 -25 0 -25 24.5 0 24.5 0 0 22 0 22 19 0 19 0 0 -22 0 -22 25 0 25 0 0 22 0 22 22 0 22 0 0 25 0 25 -44 0 -44 0 0 18.5 0 18.5 62.5 0 62.5 0 0 -43.5 0 -43.5 47 0 47 0 0 25 0 25 -22 0 -22 0 0 18.5 0 18.5 22 0 22 0 0 44 0 44 21.5 0 21.5 0 0 43.5 0 43.5 19 0 19 0 0 -65.5 0 -65.5 22 0 22 0 0 -19 0 -19 -22 0 -22 0 0 -21.5 0 -21.5 -22 0 -22 0 0 -25 0 -25 66 0 66 0 0 -22 0 -22 46.5 0 46.5 0 0 112.5 0 112.5 -22 0 -22 0 0 40.5 0 40.5 19 0 19 0 0 -21.5 0 -21.5 25 0 25 0 0 43.5 0 43.5 109.5 0 109.5 0 0 22 0 22 21.5 0 21.5 0 0 68.5 0 68.5 -21.5 0 -21.5 0 0 19 0 19 21.5 0 21.5 0 0 22 0 22 44 0 44 0 0 112 0 112 -22 0 -22 0 0 19 0 19 22 0 22 0 0 25 0 25 -22 0 -22 0 0 19 0 19 22 0 22 0 0 24.5 0 24.5 -22 0 -22 0 0 19 0 19 22 0 22 0 0 25 0 25 -44 0 -44 0 0 40.5 0 40.5 19 0 19 0 0 -21.5 0 -21.5 25 0 25 0 0 90.5 0 90.5 -22 0 -22 0 0 40.5 0 40.5 22 0 22 0 0 25 0 25 -22 0 -22 0 0 62.5 0 62.5 22 0 22 0 0 25 0 25 -22 0 -22 0 0 19 0 19 22 0 22 0 0 25 0 25 -22 0 -22 0 0 18.5 0 18.5 22 0 22 0 0 68.5 0 68.5 -22 0 -22 0 0 44 0 44 -22 0 -22 0 0 40.5 0 40.5 19 0 19 0 0 -21.5 0 -21.5 25 0 25 0 0 68.5 0 68.5 -22 0 -22 0 0 19 0 19 22 0 22 0 0 90.5 0 90.5 -109.5 0 -109.5 0 0 18.5 0 18.5 44 0 44 0 0 22 0 22 40.5 0 40.5 0 0 -22 0 -22 25 0 25 0 0 47 0 47 -68.5 0 -68.5 0 0 -22 0 -22 -19 0 -19 0 0 22 0 22 -25 0 -25 0 0 -44 0 -44 -19 0 -19 0 0 22 0 22 -24.5 0 -24.5 0 0 -22 0 -22 -63 0 -63 0 0 19 0 19 44 0 44 0 0 25 0 25 -90.5 0 -90.5 0 0 -44 0 -44 -19 0 -19 0 0 22 0 22 -22 0 -22 0 0 22 0 22 -24.5 0 -24.5 0 0 -25 0 -25 21.5 0 21.5 0 0 -19 0 -19 -21.5 0 -21.5 0 0 -24.5 0 -24.5 43.5 0 43.5 0 0 -22 0 -22 65.5 0 65.5 0 0 -19 0 -19 -43.5 0 -43.5 0 0 -22 0 -22 -22 0 -22 0 0 -43.5 0 -43.5 -62.5 0 -62.5 0 0 40.5 0 40.5 43.5 0 43.5 0 0 47 0 47 -24.5 0 -24.5 0 0 -22 0 -22 -44 0 -44 0 0 -22 0 -22 -18.5 0 -18.5 0 0 22 0 22 -22 0 -22 0 0 19 0 19 22 0 22 0 0 46.5 0 46.5 -25 0 -25 0 0 -21.5 0 -21.5 -19 0 -19 0 0 43.5 0 43.5 -43.5 0 -43.5 0 0 22 0 22 -47 0 -47 0 0 -22 0 -22 -19 0 -19 0 0 22 0 22 -68.5 0 -68.5 0 0 -25 0 -25 65.5 0 65.5 0 0 -22 0 -22 87.5 0 87.5 0 0 -18.5 0 -18.5 -21.5 0 -21.5 0 0 -44 0 -44 -22 0 -22 0 0 -22 0 -22 -19 0 -19 0 0 44 0 44 -44 0 -44 0 0 22 0 22 -21.5 0 -21.5 0 0 21.5 0 21.5 -25 0 -25 0 0 -21.5 0 -21.5 -22 0 -22 0 0 -22 0 -22 -19 0 -19 0 0 40.5 0 40.5 22 0 22 0 0 47 0 47 -25 0 -25 0 0 -44 0 -44 -43.5 0 -43.5 0 0 -21.5 0 -21.5 -22 0 -22 0 0 -22 0 -22 -19 0 -19 0 0 22 0 22 -87.5 0 -87.5 0 0 21.5 0 21.5 -24.5 0 -24.5 0 0 -24.5 0 -24.5 21.5 0 21.5 0 0 -19 0 -19 -40.5 0 -40.5 0 0 87.5 0 87.5 -25 0 -25 0 0 -87.5 0 -87.5 -84.5 0 -84.5 0 0 19 0 19 22 0 22 0 0 21.5 0 21.5 19 0 19 0 0 -21.5 0 -21.5 24.5 0 24.5 0 0 46.5 0 46.5 -21.5 0 -21.5 0 0 22 0 22 -47 0 -47 0 0 -22 0 -22 -19 0 -19 0 0 22 0 22 -24.5 0 -24.5 0 0 -44z m131 -25 l0 -19 -19 0 -19 0 0 19 0 19 19 0 19 0 0 -19z m-44 -43.5 l0 -18.5 -40.5 0 -40.5 0 0 18.5 0 18.5 40.5 0 40.5 0 0 -18.5z m1488 0 l0 -18.5 -19 0 -19 0 0 18.5 0 18.5 19 0 19 0 0 -18.5z m131 -43.5 l0 -19 -41 0 -41 0 0 19 0 19 41 0 41 0 0 -19z m-1619 -44 l0 -19 -19 0 -19 0 0 19 0 19 19 0 19 0 0 -19z m438 0 l0 -19 -19 0 -19 0 0 19 0 19 19 0 19 0 0 -19z m1443 0 l0 -19 -40.5 0 -40.5 0 0 19 0 19 40.5 0 40.5 0 0 -19z m-1706 -47 l0 -22 47 0 47 0 0 22 0 22 18.5 0 18.5 0 0 -40.5 0 -40.5 -65.5 0 -65.5 0 0 -22 0 -22 -40.5 0 -40.5 0 0 19 0 19 21.5 0 21.5 0 0 24.5 0 24.5 -24.5 0 -24.5 0 0 -21.5 0 -21.5 -19 0 -19 0 0 21.5 0 21.5 -22 0 -22 0 0 19 0 19 84.5 0 84.5 0 0 -22z m438 3 l0 -19 -22 0 -22 0 0 -21.5 0 -21.5 -19 0 -19 0 0 21.5 0 21.5 -25 0 -25 0 0 -21.5 0 -21.5 -21.5 0 -21.5 0 0 -22 0 -22 -19 0 -19 0 0 40.5 0 40.5 22 0 22 0 0 22 0 22 84.5 0 84.5 0 0 -19z m175 -43.5 l0 -62.5 -63 0 -63 0 0 62.5 0 62.5 63 0 63 0 0 -62.5z m350 43.5 l0 -19 -22 0 -22 0 0 -21.5 0 -21.5 -19 0 -19 0 0 40.5 0 40.5 41 0 41 0 0 -19z m612 -43.5 l0 -62.5 -62.5 0 -62.5 0 0 62.5 0 62.5 62.5 0 62.5 0 0 -62.5z m-875 -22 l0 -40.5 -19 0 -19 0 0 40.5 0 40.5 19 0 19 0 0 -40.5z m307 19 l0 -21.5 21.5 0 21.5 0 0 -22 0 -22 22 0 22 0 0 -19 0 -19 -43.5 0 -43.5 0 0 -25 0 -25 43.5 0 43.5 0 0 -40.5 0 -40.5 -22 0 -22 0 0 -25 0 -25 22 0 22 0 0 -43.5 0 -43.5 25 0 25 0 0 46.5 0 46.5 -22 0 -22 0 0 19 0 19 22 0 22 0 0 43.5 0 43.5 18.5 0 18.5 0 0 -21.5 0 -21.5 22 0 22 0 0 -66 0 -66 47 0 47 0 0 44 0 44 21.5 0 21.5 0 0 43.5 0 43.5 19 0 19 0 0 -21.5 0 -21.5 22 0 22 0 0 -22 0 -22 22 0 22 0 0 -22 0 -22 21.5 0 21.5 0 0 -43.5 0 -43.5 25 0 25 0 0 21.5 0 21.5 22 0 22 0 0 44 0 44 19 0 19 0 0 -22 0 -22 21.5 0 21.5 0 0 -40.5 0 -40.5 -21.5 0 -21.5 0 0 -68.5 0 -68.5 43.5 0 43.5 0 0 -19 0 -19 -62.5 0 -62.5 0 0 43.5 0 43.5 -25 0 -25 0 0 -43.5 0 -43.5 -19 0 -19 0 0 65.5 0 65.5 -24.5 0 -24.5 0 0 -22 0 -22 -19 0 -19 0 0 22 0 22 -22 0 -22 0 0 40.5 0 40.5 19 0 19 0 0 -21.5 0 -21.5 25 0 25 0 0 24.5 0 24.5 -22 0 -22 0 0 22 0 22 -47 0 -47 0 0 -43.5 0 -43.5 -21.5 0 -21.5 0 0 -22 0 -22 -19 0 -19 0 0 22 0 22 -47 0 -47 0 0 -22 0 -22 -21.5 0 -21.5 0 0 -25 0 -25 43.5 0 43.5 0 0 -18.5 0 -18.5 -22 0 -22 0 0 -44 0 -44 -21.5 0 -21.5 0 0 -25 0 -25 46.5 0 46.5 0 0 22 0 22 44 0 44 0 0 22 0 22 65.5 0 65.5 0 0 22 0 22 19 0 19 0 0 -41 0 -41 -22 0 -22 0 0 -22 0 -22 -65.5 0 -65.5 0 0 -43.5 0 -43.5 -19 0 -19 0 0 22 0 22 -25 0 -25 0 0 -44 0 -44 -65.5 0 -65.5 0 0 -25 0 -25 43.5 0 43.5 0 0 -19 0 -19 -21.5 0 -21.5 0 0 -24.5 0 -24.5 43.5 0 43.5 0 0 -22 0 -22 65.5 0 65.5 0 0 -19 0 -19 -43.5 0 -43.5 0 0 -25 0 -25 65.5 0 65.5 0 0 -21.5 0 -21.5 65.5 0 65.5 0 0 -19 0 -19 -43.5 0 -43.5 0 0 -47 0 -47 25 0 25 0 0 22 0 22 18.5 0 18.5 0 0 -40.5 0 -40.5 -21.5 0 -21.5 0 0 -25 0 -25 21.5 0 21.5 0 0 -22 0 -22 44 0 44 0 0 -19 0 -19 -22 0 -22 0 0 -21.5 0 -21.5 -19 0 -19 0 0 21.5 0 21.5 -21.5 0 -21.5 0 0 22 0 22 -22 0 -22 0 0 44 0 44 -22 0 -22 0 0 65.5 0 65.5 -22 0 -22 0 0 22 0 22 -24.5 0 -24.5 0 0 -25 0 -25 21.5 0 21.5 0 0 -41 0 -41 -43.5 0 -43.5 0 0 -21.5 0 -21.5 -19 0 -19 0 0 40.5 0 40.5 22 0 22 0 0 47 0 47 -22 0 -22 0 0 21.5 0 21.5 -25 0 -25 0 0 -21.5 0 -21.5 -43.5 0 -43.5 0 0 -22 0 -22 -19 0 -19 0 0 43.5 0 43.5 -43.5 0 -43.5 0 0 19 0 19 109 0 109 0 0 25 0 25 -87 0 -87 0 0 19 0 19 43.5 0 43.5 0 0 24.5 0 24.5 -22 0 -22 0 0 22 0 22 -46.5 0 -46.5 0 0 -25 0 -25 22 0 22 0 0 -18.5 0 -18.5 -22 0 -22 0 0 -44 0 -44 -62.5 0 -62.5 0 0 41 0 41 18.5 0 18.5 0 0 -22 0 -22 25 0 25 0 0 25 0 25 -22 0 -22 0 0 18.5 0 18.5 22 0 22 0 0 25 0 25 -25 0 -25 0 0 -22 0 -22 -18.5 0 -18.5 0 0 66 0 66 -25 0 -25 0 0 -22 0 -22 -22 0 -22 0 0 -47 0 -47 22 0 22 0 0 -65.5 0 -65.5 22 0 22 0 0 -19 0 -19 -22 0 -22 0 0 -21.5 0 -21.5 -44 0 -44 0 0 -22 0 -22 -19 0 -19 0 0 84.5 0 84.5 44 0 44 0 0 25 0 25 -44 0 -44 0 0 65.5 0 65.5 -46.5 0 -46.5 0 0 -22 0 -22 -22 0 -22 0 0 -22 0 -22 -19 0 -19 0 0 41 0 41 22 0 22 0 0 22 0 22 87.5 0 87.5 0 0 22 0 22 66 0 66 0 0 43.5 0 43.5 62.5 0 62.5 0 0 -62.5 0 -62.5 -19 0 -19 0 0 43.5 0 43.5 -25 0 -25 0 0 -46.5 0 -46.5 22 0 22 0 0 -22 0 -22 68.5 0 68.5 0 0 22 0 22 22 0 22 0 0 25 0 25 -22 0 -22 0 0 18.5 0 18.5 22 0 22 0 0 25 0 25 -65.5 0 -65.5 0 0 19 0 19 22 0 22 0 0 46.5 0 46.5 -22 0 -22 0 0 44 0 44 -22 0 -22 0 0 21.5 0 21.5 -43.5 0 -43.5 0 0 19 0 19 43.5 0 43.5 0 0 22 0 22 44 0 44 0 0 25 0 25 -87.5 0 -87.5 0 0 21.5 0 21.5 -22 0 -22 0 0 19 0 19 43.5 0 43.5 0 0 22 0 22 22 0 22 0 0 22 0 22 22 0 22 0 0 21.5 0 21.5 19 0 19 0 0 -21.5z m349 3 l0 -18.5 -18.5 0 -18.5 0 0 18.5 0 18.5 18.5 0 18.5 0 0 -18.5z m394 0 l0 -18.5 -40.5 0 -40.5 0 0 18.5 0 18.5 40.5 0 40.5 0 0 -18.5z m-1881 -46.5 l0 -22 22 0 22 0 0 -22 0 -22 21.5 0 21.5 0 0 -19 0 -19 -21.5 0 -21.5 0 0 -21.5 0 -21.5 -22 0 -22 0 0 -22 0 -22 -41 0 -41 0 0 40.5 0 40.5 44 0 44 0 0 25 0 25 -22 0 -22 0 0 22 0 22 -22 0 -22 0 0 19 0 19 41 0 41 0 0 -22z m1006 3 l0 -19 -43.5 0 -43.5 0 0 -22 0 -22 -19 0 -19 0 0 41 0 41 62.5 0 62.5 0 0 -19z m438 -3 l0 -22 21.5 0 21.5 0 0 -19 0 -19 -43.5 0 -43.5 0 0 -43.5 0 -43.5 -19 0 -19 0 0 62.5 0 62.5 22 0 22 0 0 22 0 22 19 0 19 0 0 -22z m350 3 l0 -19 -19 0 -19 0 0 19 0 19 19 0 19 0 0 -19z m-1925 -44 l0 -19 -19 0 -19 0 0 19 0 19 19 0 19 0 0 -19z m306 0 l0 -19 -19 0 -19 0 0 19 0 19 19 0 19 0 0 -19z m87 0 l0 -19 -18.5 0 -18.5 0 0 19 0 19 18.5 0 18.5 0 0 -19z m88 0 l0 -19 -19 0 -19 0 0 19 0 19 19 0 19 0 0 -19z m219 -3 l0 -22 21.5 0 21.5 0 0 -19 0 -19 -21.5 0 -21.5 0 0 -21.5 0 -21.5 -19 0 -19 0 0 21.5 0 21.5 -47 0 -47 0 0 -24.5 0 -24.5 44 0 44 0 0 -19 0 -19 -62.5 0 -62.5 0 0 84.5 0 84.5 84.5 0 84.5 0 0 -22z m-744 -84.5 l0 -62.5 -19 0 -19 0 0 62.5 0 62.5 19 0 19 0 0 -62.5z m394 43.5 l0 -19 -19 0 -19 0 0 19 0 19 19 0 19 0 0 -19z m568 0 l0 -19 -18.5 0 -18.5 0 0 19 0 19 18.5 0 18.5 0 0 -19z m875 -3 l0 -22 44 0 44 0 0 -40.5 0 -40.5 -19 0 -19 0 0 22 0 22 -25 0 -25 0 0 -22 0 -22 -18.5 0 -18.5 0 0 62.5 0 62.5 18.5 0 18.5 0 0 -22z m175 3 l0 -19 -18.5 0 -18.5 0 0 19 0 19 18.5 0 18.5 0 0 -19z m-2318 -46.5 l0 -21.5 24.5 0 24.5 0 0 21.5 0 21.5 41 0 41 0 0 -18.5 0 -18.5 -22 0 -22 0 0 -22 0 -22 -62.5 0 -62.5 0 0 40.5 0 40.5 19 0 19 0 0 -21.5z m831 3 l0 -18.5 -22 0 -22 0 0 -22 0 -22 -19 0 -19 0 0 40.5 0 40.5 41 0 41 0 0 -18.5z m394 -3 l0 -21.5 21.5 0 21.5 0 0 -22 0 -22 25 0 25 0 0 22 0 22 19 0 19 0 0 -44 0 -44 22 0 22 0 0 -22 0 -22 22 0 22 0 0 -18.5 0 -18.5 -63 0 -63 0 0 21.5 0 21.5 -46.5 0 -46.5 0 0 -21.5 0 -21.5 -19 0 -19 0 0 40.5 0 40.5 22 0 22 0 0 25 0 25 -69 0 -69 0 0 -44 0 -44 -21.5 0 -21.5 0 0 -21.5 0 -21.5 -44 0 -44 0 0 -25 0 -25 22 0 22 0 0 -19 0 -19 -22 0 -22 0 0 -24.5 0 -24.5 25 0 25 0 0 21.5 0 21.5 22 0 22 0 0 44 0 44 18.5 0 18.5 0 0 -22 0 -22 66 0 66 0 0 -19 0 -19 -66 0 -66 0 0 -21.5 0 -21.5 -21.5 0 -21.5 0 0 -47 0 -47 21.5 0 21.5 0 0 -19 0 -19 -65.5 0 -65.5 0 0 -21.5 0 -21.5 -43.5 0 -43.5 0 0 -25 0 -25 21.5 0 21.5 0 0 -19 0 -19 -87.5 0 -87.5 0 0 -22 0 -22 -40.5 0 -40.5 0 0 22 0 22 -47 0 -47 0 0 -22 0 -22 -18.5 0 -18.5 0 0 63 0 63 18.5 0 18.5 0 0 -22 0 -22 47 0 47 0 0 22 0 22 19 0 19 0 0 -22 0 -22 46.5 0 46.5 0 0 22 0 22 22 0 22 0 0 21.5 0 21.5 22 0 22 0 0 44 0 44 21.5 0 21.5 0 0 46.5 0 46.5 -24.5 0 -24.5 0 0 -43.5 0 -43.5 -19 0 -19 0 0 22 0 22 -22 0 -22 0 0 18.5 0 18.5 22 0 22 0 0 44 0 44 22 0 22 0 0 24.5 0 24.5 -22 0 -22 0 0 41 0 41 19 0 19 0 0 -22 0 -22 90.5 0 90.5 0 0 44 0 44 65.5 0 65.5 0 0 21.5 0 21.5 19 0 19 0 0 -21.5z m-1007 -40.5 l0 -19 -18.5 0 -18.5 0 0 19 0 19 18.5 0 18.5 0 0 -19z m350 -25 l0 -44 25 0 25 0 0 44 0 44 41 0 41 0 0 -22 0 -22 21.5 0 21.5 0 0 -19 0 -19 -21.5 0 -21.5 0 0 -25 0 -25 21.5 0 21.5 0 0 -18.5 0 -18.5 -21.5 0 -21.5 0 0 -22 0 -22 -63 0 -63 0 0 43.5 0 43.5 -68.5 0 -68.5 0 0 -21.5 0 -21.5 -22 0 -22 0 0 -25 0 -25 66 0 66 0 0 -19 0 -19 -84.5 0 -84.5 0 0 22 0 22 -44 0 -44 0 0 19 0 19 22 0 22 0 0 65.5 0 65.5 19 0 19 0 0 -22 0 -22 68.5 0 68.5 0 0 22 0 22 22 0 22 0 0 22 0 22 18.5 0 18.5 0 0 -44z m876 3 l0 -41 -19 0 -19 0 0 41 0 41 19 0 19 0 0 -41z m481 22 l0 -19 -19 0 -19 0 0 19 0 19 19 0 19 0 0 -19z m-1750 -44 l0 -19 -41 0 -41 0 0 19 0 19 41 0 41 0 0 -19z m87 -22 l0 -41 -40.5 0 -40.5 0 0 19 0 19 21.5 0 21.5 0 0 22 0 22 19 0 19 0 0 -41z m-262 -22 l0 -19 -19 0 -19 0 0 19 0 19 19 0 19 0 0 -19z m43 -43.5 l0 -18.5 -18.5 0 -18.5 0 0 18.5 0 18.5 18.5 0 18.5 0 0 -18.5z m1094 0 l0 -18.5 -19 0 -19 0 0 18.5 0 18.5 19 0 19 0 0 -18.5z m-919 -43.5 l0 -19 -21.5 0 -21.5 0 0 -22 0 -22 -63 0 -63 0 0 41 0 41 84.5 0 84.5 0 0 -19z m1313 0 l0 -19 -22 0 -22 0 0 -22 0 -22 -21.5 0 -21.5 0 0 -21.5 0 -21.5 -19 0 -19 0 0 40.5 0 40.5 22 0 22 0 0 22 0 22 40.5 0 40.5 0 0 -19z m831 -22 l0 -41 -19 0 -19 0 0 41 0 41 19 0 19 0 0 -41z m-2100 -43.5 l0 -40.5 -40.5 0 -40.5 0 0 18.5 0 18.5 21.5 0 21.5 0 0 22 0 22 19 0 19 0 0 -40.5z m481 21.5 l0 -19 -18.5 0 -18.5 0 0 19 0 19 18.5 0 18.5 0 0 -19z m613 -43.5 l0 -62.5 -19 0 -19 0 0 22 0 22 -22 0 -22 0 0 18.5 0 18.5 22 0 22 0 0 22 0 22 19 0 19 0 0 -62.5z m525 43.5 l0 -19 -19 0 -19 0 0 19 0 19 19 0 19 0 0 -19z m87 -21.5 l0 -40.5 -18.5 0 -18.5 0 0 40.5 0 40.5 18.5 0 18.5 0 0 -40.5z m-1618 -22 l0 -18.5 -19 0 -19 0 0 18.5 0 18.5 19 0 19 0 0 -18.5z m1225 0 l0 -18.5 -22 0 -22 0 0 -22 0 -22 -40.5 0 -40.5 0 0 19 0 19 21.5 0 21.5 0 0 21.5 0 21.5 41 0 41 0 0 -18.5z m481 0 l0 -18.5 -19 0 -19 0 0 18.5 0 18.5 19 0 19 0 0 -18.5z m-1881 -43.5 l0 -19 -41 0 -41 0 0 19 0 19 41 0 41 0 0 -19z m131 0 l0 -19 -19 0 -19 0 0 19 0 19 19 0 19 0 0 -19z m131 -25 l0 -44 25 0 25 0 0 44 0 44 40.5 0 40.5 0 0 -19 0 -19 -21.5 0 -21.5 0 0 -25 0 -25 21.5 0 21.5 0 0 -19 0 -19 -21.5 0 -21.5 0 0 -21.5 0 -21.5 -22 0 -22 0 0 -44 0 -44 -109.5 0 -109.5 0 0 -22 0 -22 -19 0 -19 0 0 22 0 22 -21.5 0 -21.5 0 0 19 0 19 131 0 131 0 0 46.5 0 46.5 -25 0 -25 0 0 -21.5 0 -21.5 -62.5 0 -62.5 0 0 40.5 0 40.5 22 0 22 0 0 22 0 22 19 0 19 0 0 -22 0 -22 24.5 0 24.5 0 0 44 0 44 19 0 19 0 0 -44z m263 22 l0 -22 21.5 0 21.5 0 0 -22 0 -22 25 0 25 0 0 22 0 22 19 0 19 0 0 -41 0 -41 -22 0 -22 0 0 -21.5 0 -21.5 -40.5 0 -40.5 0 0 43.5 0 43.5 -22 0 -22 0 0 22 0 22 -22 0 -22 0 0 19 0 19 41 0 41 0 0 -22z m437 0 l0 -22 22 0 22 0 0 -22 0 -22 22 0 22 0 0 -22 0 -22 21.5 0 21.5 0 0 -18.5 0 -18.5 -40.5 0 -40.5 0 0 21.5 0 21.5 -22 0 -22 0 0 22 0 22 -22 0 -22 0 0 41 0 41 19 0 19 0 0 -22z m131 3 l0 -19 -18.5 0 -18.5 0 0 19 0 19 18.5 0 18.5 0 0 -19z m657 0 l0 -19 -41 0 -41 0 0 19 0 19 41 0 41 0 0 -19z m-1838 -69 l0 -44 65.5 0 65.5 0 0 -18.5 0 -18.5 -21.5 0 -21.5 0 0 -22 0 -22 -19 0 -19 0 0 22 0 22 -44 0 -44 0 0 43.5 0 43.5 -21.5 0 -21.5 0 0 19 0 19 40.5 0 40.5 0 0 -44z m131 25 l0 -19 -18.5 0 -18.5 0 0 19 0 19 18.5 0 18.5 0 0 -19z m394 0 l0 -19 -19 0 -19 0 0 19 0 19 19 0 19 0 0 -19z m700 0 l0 -19 -19 0 -19 0 0 19 0 19 19 0 19 0 0 -19z m88 0 l0 -19 -19 0 -19 0 0 19 0 19 19 0 19 0 0 -19z m831 -3 l0 -22 22 0 22 0 0 -19 0 -19 -63 0 -63 0 0 19 0 19 22 0 22 0 0 22 0 22 19 0 19 0 0 -22z m-1575 -41 l0 -19 -19 0 -19 0 0 19 0 19 19 0 19 0 0 -19z m481 -65.5 l0 -40.5 -40.5 0 -40.5 0 0 19 0 19 21.5 0 21.5 0 0 21.5 0 21.5 19 0 19 0 0 -40.5z m1006 22 l0 -18.5 -18.5 0 -18.5 0 0 18.5 0 18.5 18.5 0 18.5 0 0 -18.5z m-481 -43.5 l0 -19 -18.5 0 -18.5 0 0 19 0 19 18.5 0 18.5 0 0 -19z m438 -22 l0 -41 -22 0 -22 0 0 -25 0 -25 46.5 0 46.5 0 0 66 0 66 19 0 19 0 0 -66 0 -66 44 0 44 0 0 -19 0 -19 -128.5 0 -128.5 0 0 44 0 44 -43.5 0 -43.5 0 0 19 0 19 43.5 0 43.5 0 0 22 0 22 41 0 41 0 0 -41z m218 0 l0 -41 -40.5 0 -40.5 0 0 41 0 41 40.5 0 40.5 0 0 -41z m-2187 -25 l0 -22 22 0 22 0 0 -22 0 -22 21.5 0 21.5 0 0 -19 0 -19 -65.5 0 -65.5 0 0 -87.5 0 -87.5 -19 0 -19 0 0 66 0 66 -21.5 0 -21.5 0 0 18.5 0 18.5 21.5 0 21.5 0 0 22 0 22 22 0 22 0 0 44 0 44 19 0 19 0 0 -22z m919 3 l0 -19 -41 0 -41 0 0 19 0 19 41 0 41 0 0 -19z m-88 -44 l0 -19 -19 0 -19 0 0 19 0 19 19 0 19 0 0 -19z m963 -43.5 l0 -62.5 -41 0 -41 0 0 62.5 0 62.5 41 0 41 0 0 -62.5z m437 43.5 l0 -19 -19 0 -19 0 0 19 0 19 19 0 19 0 0 -19z m-2362 -44 l0 -19 -19 0 -19 0 0 19 0 19 19 0 19 0 0 -19z m525 0 l0 -19 -84.5 0 -84.5 0 0 19 0 19 84.5 0 84.5 0 0 -19z m131 -24.5 l0 -43.5 43.5 0 43.5 0 0 -22 0 -22 22 0 22 0 0 -19 0 -19 -40.5 0 -40.5 0 0 22 0 22 -25 0 -25 0 0 -22 0 -22 -19 0 -19 0 0 84.5 0 84.5 19 0 19 0 0 -43.5z m131 21.5 l0 -22 44 0 44 0 0 -18.5 0 -18.5 -63 0 -63 0 0 40.5 0 40.5 19 0 19 0 0 -22z m131 3 l0 -19 -18.5 0 -18.5 0 0 19 0 19 18.5 0 18.5 0 0 -19z m88 0 l0 -19 -19 0 -19 0 0 19 0 19 19 0 19 0 0 -19z m219 0 l0 -19 -19 0 -19 0 0 19 0 19 19 0 19 0 0 -19z m-875 -46.5 l0 -21.5 43.5 0 43.5 0 0 -19 0 -19 -43.5 0 -43.5 0 0 -44 0 -44 -19 0 -19 0 0 84.5 0 84.5 19 0 19 0 0 -21.5z m218 3 l0 -18.5 -18.5 0 -18.5 0 0 18.5 0 18.5 18.5 0 18.5 0 0 -18.5z m1444 -22 l0 -40.5 -19 0 -19 0 0 40.5 0 40.5 19 0 19 0 0 -40.5z m306 22 l0 -18.5 -18.5 0 -18.5 0 0 18.5 0 18.5 18.5 0 18.5 0 0 -18.5z m-2056 -87.5 l0 -63 -62.5 0 -62.5 0 0 63 0 63 62.5 0 62.5 0 0 -63z m263 41 l0 -22 21.5 0 21.5 0 0 -41 0 -41 -21.5 0 -21.5 0 0 -21.5 0 -21.5 -19 0 -19 0 0 84.5 0 84.5 19 0 19 0 0 -22z m481 3 l0 -19 -19 0 -19 0 0 19 0 19 19 0 19 0 0 -19z m219 -44 l0 -63 -63 0 -63 0 0 63 0 63 63 0 63 0 0 -63z m962 0 l0 -63 -62.5 0 -62.5 0 0 63 0 63 62.5 0 62.5 0 0 -63z m88 41 l0 -22 21.5 0 21.5 0 0 -19 0 -19 -21.5 0 -21.5 0 0 -22 0 -22 -19 0 -19 0 0 63 0 63 19 0 19 0 0 -22z m-1575 -85 l0 -19 -19 0 -19 0 0 19 0 19 19 0 19 0 0 -19z m306 0 l0 -19 -44 0 -44 0 0 -21.5 0 -21.5 -21.5 0 -21.5 0 0 -22 0 -22 -19 0 -19 0 0 22 0 22 -65.5 0 -65.5 0 0 18.5 0 18.5 43.5 0 43.5 0 0 22 0 22 106.5 0 106.5 0 0 -19z m-394 -68.5 l0 -43.5 22 0 22 0 0 -19 0 -19 -41 0 -41 0 0 22 0 22 -21.5 0 -21.5 0 0 19 0 19 21.5 0 21.5 0 0 21.5 0 21.5 19 0 19 0 0 -43.5z m438 0 l0 -43.5 24.5 0 24.5 0 0 22 0 22 19 0 19 0 0 -44 0 -44 65.5 0 65.5 0 0 -40.5 0 -40.5 -21.5 0 -21.5 0 0 -22 0 -22 -22 0 -22 0 0 -44 0 -44 -19 0 -19 0 0 22 0 22 -22 0 -22 0 0 87.5 0 87.5 -24.5 0 -24.5 0 0 -22 0 -22 -22 0 -22 0 0 -21.5 0 -21.5 -22 0 -22 0 0 -22 0 -22 -22 0 -22 0 0 -22 0 -22 -21.5 0 -21.5 0 0 -25 0 -25 24.5 0 24.5 0 0 22 0 22 19 0 19 0 0 -22 0 -22 22 0 22 0 0 -21.5 0 -21.5 22 0 22 0 0 -44 0 -44 21.5 0 21.5 0 0 -22 0 -22 44 0 44 0 0 -18.5 0 -18.5 -22 0 -22 0 0 -22 0 -22 -19 0 -19 0 0 22 0 22 -21.5 0 -21.5 0 0 21.5 0 21.5 -25 0 -25 0 0 -21.5 0 -21.5 -22 0 -22 0 0 -22 0 -22 -22 0 -22 0 0 -22 0 -22 -21.5 0 -21.5 0 0 -22 0 -22 -19 0 -19 0 0 41 0 41 22 0 22 0 0 22 0 22 21.5 0 21.5 0 0 21.5 0 21.5 22 0 22 0 0 47 0 47 -22 0 -22 0 0 22 0 22 -24.5 0 -24.5 0 0 -25 0 -25 21.5 0 21.5 0 0 -41 0 -41 -18.5 0 -18.5 0 0 22 0 22 -44 0 -44 0 0 19 0 19 22 0 22 0 0 25 0 25 -25 0 -25 0 0 -22 0 -22 -22 0 -22 0 0 -22 0 -22 -21.5 0 -21.5 0 0 -25 0 -25 21.5 0 21.5 0 0 -21.5 0 -21.5 44 0 44 0 0 -19 0 -19 -22 0 -22 0 0 -44 0 -44 -22 0 -22 0 0 -24.5 0 -24.5 22 0 22 0 0 -41 0 -41 -62.5 0 -62.5 0 0 19 0 19 22 0 22 0 0 25 0 25 -44 0 -44 0 0 18.5 0 18.5 22 0 22 0 0 44 0 44 19 0 19 0 0 -22 0 -22 24.5 0 24.5 0 0 25 0 25 -21.5 0 -21.5 0 0 22 0 22 -22 0 -22 0 0 21.5 0 21.5 -25 0 -25 0 0 -21.5 0 -21.5 -22 0 -22 0 0 -25 0 -25 22 0 22 0 0 -19 0 -19 -22 0 -22 0 0 -22 0 -22 -21.5 0 -21.5 0 0 -24.5 0 -24.5 21.5 0 21.5 0 0 -44 0 -44 44 0 44 0 0 -19 0 -19 -22 0 -22 0 0 -21.5 0 -21.5 -19 0 -19 0 0 21.5 0 21.5 -21.5 0 -21.5 0 0 22 0 22 -25 0 -25 0 0 -22 0 -22 -19 0 -19 0 0 22 0 22 -25 0 -25 0 0 -22 0 -22 -21.5 0 -21.5 0 0 -24.5 0 -24.5 24.5 0 24.5 0 0 21.5 0 21.5 19 0 19 0 0 -21.5 0 -21.5 22 0 22 0 0 -19 0 -19 -65.5 0 -65.5 0 0 -44 0 -44 -19 0 -19 0 0 128.5 0 128.5 43.5 0 43.5 0 0 22 0 22 44 0 44 0 0 43.5 0 43.5 22 0 22 0 0 25 0 25 -69 0 -69 0 0 -25 0 -25 22 0 22 0 0 -19 0 -19 -22 0 -22 0 0 -21.5 0 -21.5 -18.5 0 -18.5 0 0 43.5 0 43.5 -22 0 -22 0 0 22 0 22 -22 0 -22 0 0 19 0 19 44 0 44 0 0 43.5 0 43.5 18.5 0 18.5 0 0 -22 0 -22 25 0 25 0 0 22 0 22 19 0 19 0 0 -43.5 0 -43.5 25 0 25 0 0 21.5 0 21.5 21.5 0 21.5 0 0 25 0 25 -43.5 0 -43.5 0 0 19 0 19 22 0 22 0 0 22 0 22 21.5 0 21.5 0 0 21.5 0 21.5 19 0 19 0 0 -21.5 0 -21.5 22 0 22 0 0 -22 0 -22 25 0 25 0 0 22 0 22 21.5 0 21.5 0 0 21.5 0 21.5 22 0 22 0 0 25 0 25 -87.5 0 -87.5 0 0 22 0 22 -22 0 -22 0 0 19 0 19 22 0 22 0 0 21.5 0 21.5 22 0 22 0 0 22 0 22 22 0 22 0 0 22 0 22 18.5 0 18.5 0 0 -41 0 -41 -21.5 0 -21.5 0 0 -21.5 0 -21.5 -22 0 -22 0 0 -25 0 -25 25 0 25 0 0 22 0 22 18.5 0 18.5 0 0 -22 0 -22 69 0 69 0 0 22 0 22 21.5 0 21.5 0 0 65.5 0 65.5 22 0 22 0 0 22 0 22 22 0 22 0 0 21.5 0 21.5 19 0 19 0 0 -43.5z m525 22 l0 -21.5 22 0 22 0 0 -22 0 -22 21.5 0 21.5 0 0 -19 0 -19 -21.5 0 -21.5 0 0 -25 0 -25 21.5 0 21.5 0 0 -21.5 0 -21.5 25 0 25 0 0 65.5 0 65.5 19 0 19 0 0 -22 0 -22 21.5 0 21.5 0 0 -19 0 -19 -21.5 0 -21.5 0 0 -68.5 0 -68.5 24.5 0 24.5 0 0 22 0 22 41 0 41 0 0 -19 0 -19 -22 0 -22 0 0 -22 0 -22 -43.5 0 -43.5 0 0 -43.5 0 -43.5 -19 0 -19 0 0 43.5 0 43.5 -22 0 -22 0 0 22 0 22 -21.5 0 -21.5 0 0 44 0 44 -25 0 -25 0 0 -22 0 -22 -19 0 -19 0 0 22 0 22 -25 0 -25 0 0 -44 0 -44 -18.5 0 -18.5 0 0 44 0 44 -25 0 -25 0 0 -47 0 -47 22 0 22 0 0 -19 0 -19 -22 0 -22 0 0 -21.5 0 -21.5 -22 0 -22 0 0 -22 0 -22 -22 0 -22 0 0 -25 0 -25 22 0 22 0 0 -19 0 -19 -44 0 -44 0 0 -21.5 0 -21.5 -18.5 0 -18.5 0 0 40.5 0 40.5 21.5 0 21.5 0 0 25 0 25 -21.5 0 -21.5 0 0 22 0 22 -22 0 -22 0 0 18.5 0 18.5 22 0 22 0 0 22 0 22 18.5 0 18.5 0 0 -43.5 0 -43.5 25 0 25 0 0 43.5 0 43.5 22 0 22 0 0 47 0 47 -22 0 -22 0 0 40.5 0 40.5 19 0 19 0 0 -22 0 -22 25 0 25 0 0 66 0 66 19 0 19 0 0 -66 0 -66 24.5 0 24.5 0 0 22 0 22 44 0 44 0 0 25 0 25 -22 0 -22 0 0 22 0 22 -43.5 0 -43.5 0 0 18.5 0 18.5 62.5 0 62.5 0 0 -21.5z m-1313 -40.5 l0 -19 -43.5 0 -43.5 0 0 -22 0 -22 -19 0 -19 0 0 22 0 22 -22 0 -22 0 0 19 0 19 84.5 0 84.5 0 0 -19z m88 0 l0 -19 -19 0 -19 0 0 19 0 19 19 0 19 0 0 -19z m875 0 l0 -19 -19 0 -19 0 0 19 0 19 19 0 19 0 0 -19z m1006 0 l0 -19 -19 0 -19 0 0 19 0 19 19 0 19 0 0 -19z m-1706 -44 l0 -19 -63 0 -63 0 0 19 0 19 63 0 63 0 0 -19z m1312 0 l0 -19 -19 0 -19 0 0 19 0 19 19 0 19 0 0 -19z m481 -25 l0 -44 22 0 22 0 0 -18.5 0 -18.5 -84.5 0 -84.5 0 0 18.5 0 18.5 22 0 22 0 0 22 0 22 22 0 22 0 0 22 0 22 18.5 0 18.5 0 0 -44z m-2100 -19 l0 -19 -18.5 0 -18.5 0 0 19 0 19 18.5 0 18.5 0 0 -19z m175 -21.5 l0 -40.5 -18.5 0 -18.5 0 0 21.5 0 21.5 -25 0 -25 0 0 -43.5 0 -43.5 -62.5 0 -62.5 0 0 19 0 19 43.5 0 43.5 0 0 43.5 0 43.5 62.5 0 62.5 0 0 -40.5z m175 0 l0 -40.5 -18.5 0 -18.5 0 0 40.5 0 40.5 18.5 0 18.5 0 0 -40.5z m1444 -90.5 l0 -44 22 0 22 0 0 -19 0 -19 -41 0 -41 0 0 22 0 22 -21.5 0 -21.5 0 0 19 0 19 21.5 0 21.5 0 0 22 0 22 19 0 19 0 0 -44z m175 25 l0 -19 -19 0 -19 0 0 19 0 19 19 0 19 0 0 -19z m-2012 -44 l0 -19 -19 0 -19 0 0 19 0 19 19 0 19 0 0 -19z m875 0 l0 -19 -41 0 -41 0 0 19 0 19 41 0 41 0 0 -19z m1312 0 l0 -19 -19 0 -19 0 0 19 0 19 19 0 19 0 0 -19z m-1269 -65.5 l0 -40.5 -18.5 0 -18.5 0 0 40.5 0 40.5 18.5 0 18.5 0 0 -40.5z m526 -22 l0 -62.5 -22 0 -22 0 0 -22 0 -22 -19 0 -19 0 0 65.5 0 65.5 -22 0 -22 0 0 19 0 19 63 0 63 0 0 -62.5z m306 43.5 l0 -19 -19 0 -19 0 0 19 0 19 19 0 19 0 0 -19z m-44 -43.5 l0 -18.5 -19 0 -19 0 0 18.5 0 18.5 19 0 19 0 0 -18.5z m481 -44 l0 -62.5 -40.5 0 -40.5 0 0 19 0 19 21.5 0 21.5 0 0 25 0 25 -24.5 0 -24.5 0 0 -22 0 -22 -22 0 -22 0 0 -44 0 -44 -22 0 -22 0 0 -24.5 0 -24.5 22 0 22 0 0 -41 0 -41 -19 0 -19 0 0 22 0 22 -43.5 0 -43.5 0 0 40.5 0 40.5 21.5 0 21.5 0 0 25 0 25 -21.5 0 -21.5 0 0 19 0 19 43.5 0 43.5 0 0 22 0 22 22 0 22 0 0 21.5 0 21.5 62.5 0 62.5 0 0 -62.5z m-1181 0.5 l0 -19 -19 0 -19 0 0 19 0 19 19 0 19 0 0 -19z m306 -47 l0 -66 22 0 22 0 0 -18.5 0 -18.5 -62.5 0 -62.5 0 0 18.5 0 18.5 22 0 22 0 0 66 0 66 18.5 0 18.5 0 0 -66z m481 44 l0 -22 25 0 25 0 0 22 0 22 41 0 41 0 0 -19 0 -19 -22 0 -22 0 0 -87.5 0 -87.5 -41 0 -41 0 0 22 0 22 -24.5 0 -24.5 0 0 -87.5 0 -87.5 -19 0 -19 0 0 43.5 0 43.5 -22 0 -22 0 0 19 0 19 22 0 22 0 0 25 0 25 -25 0 -25 0 0 -22 0 -22 -65.5 0 -65.5 0 0 -44 0 -44 -22 0 -22 0 0 -46.5 0 -46.5 22 0 22 0 0 -41 0 -41 -19 0 -19 0 0 22 0 22 -21.5 0 -21.5 0 0 44 0 44 -22 0 -22 0 0 18.5 0 18.5 22 0 22 0 0 44 0 44 21.5 0 21.5 0 0 22 0 22 65.5 0 65.5 0 0 21.5 0 21.5 44 0 44 0 0 22 0 22 19 0 19 0 0 -22 0 -22 24.5 0 24.5 0 0 25 0 25 -21.5 0 -21.5 0 0 22 0 22 -22 0 -22 0 0 19 0 19 40.5 0 40.5 0 0 -22z m-1618 -41 l0 -19 -19 0 -19 0 0 19 0 19 19 0 19 0 0 -19z m1050 0 l0 -19 -19 0 -19 0 0 19 0 19 19 0 19 0 0 -19z m262 0 l0 -19 -18.5 0 -18.5 0 0 19 0 19 18.5 0 18.5 0 0 -19z m219 0 l0 -19 -41 0 -41 0 0 19 0 19 41 0 41 0 0 -19z m-262 -47 l0 -22 21.5 0 21.5 0 0 -18.5 0 -18.5 -21.5 0 -21.5 0 0 -22 0 -22 -19 0 -19 0 0 62.5 0 62.5 19 0 19 0 0 -22z m174 3 l0 -19 -62.5 0 -62.5 0 0 19 0 19 62.5 0 62.5 0 0 -19z m525 -43.5 l0 -18.5 -40.5 0 -40.5 0 0 18.5 0 18.5 40.5 0 40.5 0 0 -18.5z m-1662 -43.5 l0 -19 -19 0 -19 0 0 19 0 19 19 0 19 0 0 -19z m569 -22 l0 -41 -19 0 -19 0 0 41 0 41 19 0 19 0 0 -41z m87 22 l0 -19 -19 0 -19 0 0 19 0 19 19 0 19 0 0 -19z m-1050 -44 l0 -19 -19 0 -19 0 0 19 0 19 19 0 19 0 0 -19z m831 0 l0 -19 -18.5 0 -18.5 0 0 19 0 19 18.5 0 18.5 0 0 -19z m351 0 l0 -19 -22 0 -22 0 0 -22 0 -22 -41 0 -41 0 0 19 0 19 22 0 22 0 0 22 0 22 41 0 41 0 0 -19z m131 0 l0 -19 -41 0 -41 0 0 19 0 19 41 0 41 0 0 -19z m525 -22 l0 -41 -22 0 -22 0 0 -43.5 0 -43.5 -41 0 -41 0 0 40.5 0 40.5 22 0 22 0 0 22 0 22 22 0 22 0 0 22 0 22 19 0 19 0 0 -41z m-1882 -22 l0 -19 -18.5 0 -18.5 0 0 19 0 19 18.5 0 18.5 0 0 -19z m88 0 l0 -19 -19 0 -19 0 0 19 0 19 19 0 19 0 0 -19z m700 0 l0 -19 -19 0 -19 0 0 19 0 19 19 0 19 0 0 -19z m262 -3 l0 -22 22 0 22 0 0 -40.5 0 -40.5 -19 0 -19 0 0 22 0 22 -43.5 0 -43.5 0 0 18.5 0 18.5 22 0 22 0 0 22 0 22 18.5 0 18.5 0 0 -22z m219 0 l0 -22 22 0 22 0 0 -18.5 0 -18.5 -22 0 -22 0 0 -22 0 -22 -18.5 0 -18.5 0 0 22 0 22 -22 0 -22 0 0 18.5 0 18.5 22 0 22 0 0 22 0 22 18.5 0 18.5 0 0 -22z m306 0 l0 -22 22 0 22 0 0 -40.5 0 -40.5 -40.5 0 -40.5 0 0 22 0 22 -22 0 -22 0 0 18.5 0 18.5 22 0 22 0 0 22 0 22 18.5 0 18.5 0 0 -22z m394 0 l0 -22 44 0 44 0 0 -40.5 0 -40.5 -41 0 -41 0 0 22 0 22 -22 0 -22 0 0 40.5 0 40.5 19 0 19 0 0 -22z m-2012 -40.5 l0 -18.5 -19 0 -19 0 0 18.5 0 18.5 19 0 19 0 0 -18.5z m656 0 l0 -18.5 -19 0 -19 0 0 18.5 0 18.5 19 0 19 0 0 -18.5z m-613 -43.5 l0 -19 -18.5 0 -18.5 0 0 19 0 19 18.5 0 18.5 0 0 -19z m1357 0 l0 -19 -19 0 -19 0 0 19 0 19 19 0 19 0 0 -19z m568 0 l0 -19 -18.5 0 -18.5 0 0 19 0 19 18.5 0 18.5 0 0 -19z m-699 -66 l0 -41 -22 0 -22 0 0 -46.5 0 -46.5 43.5 0 43.5 0 0 -22 0 -22 22 0 22 0 0 -19 0 -19 -40.5 0 -40.5 0 0 22 0 22 -66 0 -66 0 0 22 0 22 -22 0 -22 0 0 62.5 0 62.5 19 0 19 0 0 -43.5 0 -43.5 25 0 25 0 0 46.5 0 46.5 -22 0 -22 0 0 19 0 19 63 0 63 0 0 -41z m437 22 l0 -19 -19 0 -19 0 0 19 0 19 19 0 19 0 0 -19z m87 0 l0 -19 -18.5 0 -18.5 0 0 19 0 19 18.5 0 18.5 0 0 -19z m-1137 -44 l0 -19 -19 0 -19 0 0 19 0 19 19 0 19 0 0 -19z m394 -43.5 l0 -62.5 -63 0 -63 0 0 62.5 0 62.5 63 0 63 0 0 -62.5z m394 43.5 l0 -19 -19 0 -19 0 0 19 0 19 19 0 19 0 0 -19z m306 -21.5 l0 -40.5 -19 0 -19 0 0 40.5 0 40.5 19 0 19 0 0 -40.5z m-1400 -22 l0 -18.5 -19 0 -19 0 0 18.5 0 18.5 19 0 19 0 0 -18.5z m175 0 l0 -18.5 -19 0 -19 0 0 18.5 0 18.5 19 0 19 0 0 -18.5z m87 -3 l0 -21.5 22 0 22 0 0 -41 0 -41 -41 0 -41 0 0 62.5 0 62.5 19 0 19 0 0 -21.5z m88 3 l0 -18.5 -19 0 -19 0 0 18.5 0 18.5 19 0 19 0 0 -18.5z m612 0 l0 -18.5 -18.5 0 -18.5 0 0 18.5 0 18.5 18.5 0 18.5 0 0 -18.5z m88 -3 l0 -21.5 25 0 25 0 0 21.5 0 21.5 18.5 0 18.5 0 0 -40.5 0 -40.5 -62.5 0 -62.5 0 0 40.5 0 40.5 19 0 19 0 0 -21.5z m175 3 l0 -18.5 -19 0 -19 0 0 18.5 0 18.5 19 0 19 0 0 -18.5z m-1050 -112.5 l0 -44 21.5 0 21.5 0 0 -18.5 0 -18.5 -43.5 0 -43.5 0 0 -22 0 -22 -19 0 -19 0 0 62.5 0 62.5 22 0 22 0 0 22 0 22 19 0 19 0 0 -44z m1006 3 l0 -41 -19 0 -19 0 0 41 0 41 19 0 19 0 0 -41z m262 0 l0 -41 -18.5 0 -18.5 0 0 22 0 22 -22 0 -22 0 0 19 0 19 40.5 0 40.5 0 0 -41z m-1531 -22 l0 -19 -19 0 -19 0 0 19 0 19 19 0 19 0 0 -19z m744 0 l0 -19 -22 0 -22 0 0 -21.5 0 -21.5 -19 0 -19 0 0 21.5 0 21.5 -21.5 0 -21.5 0 0 19 0 19 62.5 0 62.5 0 0 -19z m744 -43.5 l0 -18.5 -19 0 -19 0 0 18.5 0 18.5 19 0 19 0 0 -18.5z m43 -43.5 l0 -19 -18.5 0 -18.5 0 0 19 0 19 18.5 0 18.5 0 0 -19z"/>
  <path d="M1242 2229.5 l0 -24.5 25 0 25 0 0 24.5 0 24.5 -25 0 -25 0 0 -24.5z"/>
  <path d="M2205 2229.5 l0 -24.5 24.5 0 24.5 0 0 24.5 0 24.5 -24.5 0 -24.5 0 0 -24.5z"/>
  <path d="M1767 1705 l0 -25 25 0 25 0 0 25 0 25 -25 0 -25 0 0 -25z"/>
  <path d="M1855 1530 l0 -25 24.5 0 24.5 0 0 25 0 25 -24.5 0 -24.5 0 0 -25z"/>
  <path d="M1417 1223 l0 -25 25 0 25 0 0 25 0 25 -25 0 -25 0 0 -25z"/>
  <path d="M717 1879.5 l0 -24.5 25 0 25 0 0 24.5 0 24.5 -25 0 -25 0 0 -24.5z"/>
  <path d="M280 1267 l0 -25 24.5 0 24.5 0 0 25 0 25 -24.5 0 -24.5 0 0 -25z"/>
  <path d="M1242 1267 l0 -25 25 0 25 0 0 25 0 25 -25 0 -25 0 0 -25z"/>
  <path d="M2205 1267 l0 -25 24.5 0 24.5 0 0 25 0 25 -24.5 0 -24.5 0 0 -25z"/>
  <path d="M1242 1004.5 l0 -24.5 25 0 25 0 0 24.5 0 24.5 -25 0 -25 0 0 -24.5z"/>
  <path d="M1242 304.5 l0 -24.5 25 0 25 0 0 24.5 0 24.5 -25 0 -25 0 0 -24.5z"/>
  <path d="M892 2470 l0 -47 25 0 25 0 0 22 0 22 40.5 0 40.5 0 0 -22 0 -22 25 0 25 0 0 47 0 47 -90.5 0 -90.5 0 0 -47z"/>
  <path d="M1111 2492 l0 -25 25 0 25 0 0 25 0 25 -25 0 -25 0 0 -25z"/>
  <path d="M1680 2492 l0 -25 68.5 0 68.5 0 0 25 0 25 -68.5 0 -68.5 0 0 -25z"/>
  <path d="M1767 2404.5 l0 -24.5 25 0 25 0 0 24.5 0 24.5 -25 0 -25 0 0 -24.5z"/>
  <path d="M17 611 l0 -156 22 0 22 0 0 -19 0 -19 -22 0 -22 0 0 -25 0 -25 25 0 25 0 0 22 0 22 43.5 0 43.5 0 0 25 0 25 -43.5 0 -43.5 0 0 62.5 0 62.5 22 0 22 0 0 25 0 25 -22 0 -22 0 0 65.5 0 65.5 -25 0 -25 0 0 -156z"/>
  <path d="M2467 479.5 l0 -112.5 25 0 25 0 0 112.5 0 112.5 -25 0 -25 0 0 -112.5z"/>
  <path d="M1067 392 l0 -25 25 0 25 0 0 25 0 25 -25 0 -25 0 0 -25z"/>
  <path d="M17 173 l0 -156 156 0 156 0 0 156 0 156 -156 0 -156 0 0 -156z m263 0.5 l0 -106.5 -106.5 0 -106.5 0 0 106.5 0 106.5 106.5 0 106.5 0 0 -106.5z"/>
  <path d="M105 173.5 l0 -68.5 68.5 0 68.5 0 0 68.5 0 68.5 -68.5 0 -68.5 0 0 -68.5z"/>
  <path d="M2205 173 l0 -156 156 0 156 0 0 156 0 156 -156 0 -156 0 0 -156z m262 0.5 l0 -106.5 -106.5 0 -106.5 0 0 106.5 0 106.5 106.5 0 106.5 0 0 -106.5z"/>
  <path d="M2292 173.5 l0 -68.5 68.5 0 68.5 0 0 68.5 0 68.5 -68.5 0 -68.5 0 0 -68.5z"/>
  <path d="M367 42 l0 -25 25 0 25 0 0 25 0 25 -25 0 -25 0 0 -25z"/>
  <path d="M455 42 l0 -25 24.5 0 24.5 0 0 25 0 25 -24.5 0 -24.5 0 0 -25z"/>
  <path d="M542 42 l0 -25 25 0 25 0 0 25 0 25 -25 0 -25 0 0 -25z"/>
  <path d="M1330 42 l0 -25 24.5 0 24.5 0 0 25 0 25 -24.5 0 -24.5 0 0 -25z"/>
 </g>
 <g fill="#ffffff">
  <path d="M0 1267 l0 -1267 1267 0 1267 0 0 1267 0 1267 -1267 0 -1267 0 0 -1267z m326 1094 l0 -153 -153 0 -153 0 0 153 0 153 153 0 153 0 0 -153z m88 131 l0 -22 -22 0 -22 0 0 22 0 22 22 0 22 0 0 -22z m87 0 l0 -22 22 0 22 0 0 22 0 22 44 0 44 0 0 -22 0 -22 21.5 0 21.5 0 0 -43.5 0 -43.5 -21.5 0 -21.5 0 0 21.5 0 21.5 -22 0 -22 0 0 -21.5 0 -21.5 -22 0 -22 0 0 -22 0 -22 87.5 0 87.5 0 0 87.5 0 87.5 22 0 22 0 0 -87.5 0 -87.5 43.5 0 43.5 0 0 22 0 22 -21.5 0 -21.5 0 0 21.5 0 21.5 21.5 0 21.5 0 0 -21.5 0 -21.5 87.5 0 87.5 0 0 -22 0 -22 22 0 22 0 0 22 0 22 22 0 22 0 0 21.5 0 21.5 43.5 0 43.5 0 0 44 0 44 22 0 22 0 0 -44 0 -44 -22 0 -22 0 0 -43.5 0 -43.5 22 0 22 0 0 22 0 22 22 0 22 0 0 21.5 0 21.5 22 0 22 0 0 -21.5 0 -21.5 21.5 0 21.5 0 0 -22 0 -22 44 0 44 0 0 -44 0 -44 22 0 22 0 0 22 0 22 22 0 22 0 0 44 0 44 21.5 0 21.5 0 0 21.5 0 21.5 -87.5 0 -87.5 0 0 22 0 22 -65.5 0 -65.5 0 0 22 0 22 65.5 0 65.5 0 0 -22 0 -22 22 0 22 0 0 22 0 22 44 0 44 0 0 -22 0 -22 43.5 0 43.5 0 0 -43.5 0 -43.5 22 0 22 0 0 21.5 0 21.5 22 0 22 0 0 -43.5 0 -43.5 -22 0 -22 0 0 -22 0 -22 22 0 22 0 0 -22 0 -22 21.5 0 21.5 0 0 22 0 22 44 0 44 0 0 22 0 22 21.5 0 21.5 0 0 -44 0 -44 -43.5 0 -43.5 0 0 -43.5 0 -43.5 65.5 0 65.5 0 0 43.5 0 43.5 22 0 22 0 0 22 0 22 43.5 0 43.5 0 0 22 0 22 -65.5 0 -65.5 0 0 22 0 22 -43.5 0 -43.5 0 0 21.5 0 21.5 21.5 0 21.5 0 0 22 0 22 -21.5 0 -21.5 0 0 22 0 22 21.5 0 21.5 0 0 -22 0 -22 22 0 22 0 0 -22 0 -22 22 0 22 0 0 44 0 44 87.5 0 87.5 0 0 -22 0 -22 -44 0 -44 0 0 -22 0 -22 66 0 66 0 0 22 0 22 21.5 0 21.5 0 0 -22 0 -22 22 0 22 0 0 44 0 44 22 0 22 0 0 -22 0 -22 22 0 22 0 0 22 0 22 65.5 0 65.5 0 0 -44 0 -44 -22 0 -22 0 0 22 0 22 -43.5 0 -43.5 0 0 -22 0 -22 -44 0 -44 0 0 -21.5 0 -21.5 109.5 0 109.5 0 0 -87.5 0 -87.5 -22 0 -22 0 0 -22 0 -22 22 0 22 0 0 -65.5 0 -65.5 -22 0 -22 0 0 21.5 0 21.5 -22 0 -22 0 0 -43.5 0 -43.5 22 0 22 0 0 -44 0 -44 22 0 22 0 0 -65.5 0 -65.5 -22 0 -22 0 0 -21.5 0 -21.5 22 0 22 0 0 -22 0 -22 -22 0 -22 0 0 -22 0 -22 22 0 22 0 0 -22 0 -22 -22 0 -22 0 0 -65.5 0 -65.5 22 0 22 0 0 -22 0 -22 -22 0 -22 0 0 -43.5 0 -43.5 22 0 22 0 0 -87.5 0 -87.5 -22 0 -22 0 0 21.5 0 21.5 -22 0 -22 0 0 -43.5 0 -43.5 44 0 44 0 0 -22 0 -22 -22 0 -22 0 0 -22 0 -22 22 0 22 0 0 -21.5 0 -21.5 -22 0 -22 0 0 -22 0 -22 22 0 22 0 0 -22 0 -22 -22 0 -22 0 0 -22 0 -22 22 0 22 0 0 -109 0 -109 -44 0 -44 0 0 -22 0 -22 -21.5 0 -21.5 0 0 -22 0 -22 21.5 0 21.5 0 0 -65.5 0 -65.5 -21.5 0 -21.5 0 0 -22 0 -22 -109.5 0 -109.5 0 0 -43.5 0 -43.5 -22 0 -22 0 0 21.5 0 21.5 -22 0 -22 0 0 -43.5 0 -43.5 22 0 22 0 0 -109.5 0 -109.5 -43.5 0 -43.5 0 0 22 0 22 -66 0 -66 0 0 22 0 22 22 0 22 0 0 21.5 0 21.5 22 0 22 0 0 22 0 22 -22 0 -22 0 0 65.5 0 65.5 -22 0 -22 0 0 -43.5 0 -43.5 -21.5 0 -21.5 0 0 -44 0 -44 -22 0 -22 0 0 -21.5 0 -21.5 22 0 22 0 0 -22 0 -22 -44 0 -44 0 0 43.5 0 43.5 -65.5 0 -65.5 0 0 -21.5 0 -21.5 44 0 44 0 0 -22 0 -22 -22 0 -22 0 0 -22 0 -22 -22 0 -22 0 0 22 0 22 -22 0 -22 0 0 -22 0 -22 -21.5 0 -21.5 0 0 22 0 22 21.5 0 21.5 0 0 22 0 22 -43.5 0 -43.5 0 0 -22 0 -22 -22 0 -22 0 0 -22 0 -22 -22 0 -22 0 0 44 0 44 44 0 44 0 0 21.5 0 21.5 -109.5 0 -109.5 0 0 -21.5 0 -21.5 -22 0 -22 0 0 -22 0 -22 22 0 22 0 0 -22 0 -22 -22 0 -22 0 0 22 0 22 -22 0 -22 0 0 -22 0 -22 -21.5 0 -21.5 0 0 65.5 0 65.5 -22 0 -22 0 0 22 0 22 -22 0 -22 0 0 22 0 22 22 0 22 0 0 22 0 22 -22 0 -22 0 0 21.5 0 21.5 22 0 22 0 0 -21.5 0 -21.5 22 0 22 0 0 65.5 0 65.5 21.5 0 21.5 0 0 43.5 0 43.5 -43.5 0 -43.5 0 0 -21.5 0 -21.5 -22 0 -22 0 0 21.5 0 21.5 -22 0 -22 0 0 -21.5 0 -21.5 -43.5 0 -43.5 0 0 -22 0 -22 43.5 0 43.5 0 0 -22 0 -22 -21.5 0 -21.5 0 0 -22 0 -22 21.5 0 21.5 0 0 -43.5 0 -43.5 -21.5 0 -21.5 0 0 -44 0 -44 43.5 0 43.5 0 0 -21.5 0 -21.5 22 0 22 0 0 -22 0 -22 -22 0 -22 0 0 -22 0 -22 -43.5 0 -43.5 0 0 22 0 22 43.5 0 43.5 0 0 22 0 22 -43.5 0 -43.5 0 0 21.5 0 21.5 -22 0 -22 0 0 -21.5 0 -21.5 -44 0 -44 0 0 -22 0 -22 22 0 22 0 0 -22 0 -22 -22 0 -22 0 0 22 0 22 -43.5 0 -43.5 0 0 -22 0 -22 -22 0 -22 0 0 22 0 22 -22 0 -22 0 0 65.5 0 65.5 22 0 22 0 0 22 0 22 -22 0 -22 0 0 22 0 22 -21.5 0 -21.5 0 0 -44 0 -44 -22 0 -22 0 0 -22 0 -22 -22 0 -22 0 0 -21.5 0 -21.5 -65.5 0 -65.5 0 0 21.5 0 21.5 -22 0 -22 0 0 109.5 0 109.5 -43.5 0 -43.5 0 0 22 0 22 -22 0 -22 0 0 -22 0 -22 -22 0 -22 0 0 87.5 0 87.5 -22 0 -22 0 0 22 0 22 44 0 44 0 0 -22 0 -22 22 0 22 0 0 22 0 22 21.5 0 21.5 0 0 22 0 22 -65.5 0 -65.5 0 0 21.5 0 21.5 22 0 22 0 0 22 0 22 22 0 22 0 0 22 0 22 21.5 0 21.5 0 0 -22 0 -22 -21.5 0 -21.5 0 0 -22 0 -22 21.5 0 21.5 0 0 -21.5 0 -21.5 22 0 22 0 0 65.5 0 65.5 22 0 22 0 0 22 0 22 -22 0 -22 0 0 21.5 0 21.5 22 0 22 0 0 -21.5 0 -21.5 22 0 22 0 0 -22 0 -22 21.5 0 21.5 0 0 -22 0 -22 22 0 22 0 0 22 0 22 22 0 22 0 0 22 0 22 22 0 22 0 0 21.5 0 21.5 -22 0 -22 0 0 22 0 22 43.5 0 43.5 0 0 22 0 22 -21.5 0 -21.5 0 0 22 0 22 -22 0 -22 0 0 21.5 0 21.5 -22 0 -22 0 0 -43.5 0 -43.5 -22 0 -22 0 0 -22 0 -22 22 0 22 0 0 -22 0 -22 -43.5 0 -43.5 0 0 22 0 22 -87.5 0 -87.5 0 0 -22 0 -22 21.5 0 21.5 0 0 -21.5 0 -21.5 -43.5 0 -43.5 0 0 -22 0 -22 -22 0 -22 0 0 -22 0 -22 -22 0 -22 0 0 -22 0 -22 -21.5 0 -21.5 0 0 109.5 0 109.5 21.5 0 21.5 0 0 -43.5 0 -43.5 44 0 44 0 0 43.5 0 43.5 -22 0 -22 0 0 44 0 44 44 0 44 0 0 21.5 0 21.5 -66 0 -66 0 0 -43.5 0 -43.5 -43.5 0 -43.5 0 0 -65.5 0 -65.5 -22 0 -22 0 0 65.5 0 65.5 22 0 22 0 0 22 0 22 22 0 22 0 0 21.5 0 21.5 21.5 0 21.5 0 0 22 0 22 22 0 22 0 0 22 0 22 -43.5 0 -43.5 0 0 65.5 0 65.5 -44 0 -44 0 0 44 0 44 22 0 22 0 0 21.5 0 21.5 -22 0 -22 0 0 22 0 22 22 0 22 0 0 22 0 22 -22 0 -22 0 0 22 0 22 22 0 22 0 0 -22 0 -22 22 0 22 0 0 44 0 44 -22 0 -22 0 0 21.5 0 21.5 -22 0 -22 0 0 22 0 22 22 0 22 0 0 22 0 22 -22 0 -22 0 0 65.5 0 65.5 22 0 22 0 0 -65.5 0 -65.5 22 0 22 0 0 87.5 0 87.5 -22 0 -22 0 0 21.5 0 21.5 -22 0 -22 0 0 109.5 0 109.5 109.5 0 109.5 0 0 -22 0 -22 43.5 0 43.5 0 0 22 0 22 -21.5 0 -21.5 0 0 22 0 22 21.5 0 21.5 0 0 -22 0 -22 22 0 22 0 0 65.5 0 65.5 65.5 0 65.5 0 0 22 0 22 -21.5 0 -21.5 0 0 22 0 22 -22 0 -22 0 0 -22 0 -22 -22 0 -22 0 0 22 0 22 22 0 22 0 0 43.5 0 43.5 22 0 22 0 0 44 0 44 21.5 0 21.5 0 0 -22z m569 -22 l0 -44 -22 0 -22 0 0 22 0 22 -43.5 0 -43.5 0 0 -22 0 -22 -22 0 -22 0 0 44 0 44 87.5 0 87.5 0 0 -44z m88 22 l0 -22 -22 0 -22 0 0 22 0 22 22 0 22 0 0 -22z m656 0 l0 -22 -65.5 0 -65.5 0 0 22 0 22 65.5 0 65.5 0 0 -22z m0 -87.5 l0 -21.5 -22 0 -22 0 0 21.5 0 21.5 22 0 22 0 0 -21.5z m-1750 -1706 l0 -65.5 22 0 22 0 0 -22 0 -22 -22 0 -22 0 0 -65.5 0 -65.5 43.5 0 43.5 0 0 -22 0 -22 -43.5 0 -43.5 0 0 -22 0 -22 -22 0 -22 0 0 22 0 22 22 0 22 0 0 22 0 22 -22 0 -22 0 0 153 0 153 22 0 22 0 0 -65.5z m2450 -219 l0 -109.5 -22 0 -22 0 0 109.5 0 109.5 22 0 22 0 0 -109.5z m-1400 -87.5 l0 -22 -22 0 -22 0 0 22 0 22 22 0 22 0 0 -22z m-788 -219 l0 -153 -153 0 -153 0 0 153 0 153 153 0 153 0 0 -153z m2188 0 l0 -153 -153 0 -153 0 0 153 0 153 153 0 153 0 0 -153z m-2100 -131 l0 -22 -22 0 -22 0 0 22 0 22 22 0 22 0 0 -22z m87 0 l0 -22 -21.5 0 -21.5 0 0 22 0 22 21.5 0 21.5 0 0 -22z m88 0 l0 -22 -22 0 -22 0 0 22 0 22 22 0 22 0 0 -22z m787 0 l0 -22 -21.5 0 -21.5 0 0 22 0 22 21.5 0 21.5 0 0 -22z"/>
  <path d="M64 2360.5 l0 -109.5 109.5 0 109.5 0 0 109.5 0 109.5 -109.5 0 -109.5 0 0 -109.5z m175 0 l0 -65.5 -65.5 0 -65.5 0 0 65.5 0 65.5 65.5 0 65.5 0 0 -65.5z"/>
  <path d="M545 2448 l0 -22 -43.5 0 -43.5 0 0 -21.5 0 -21.5 43.5 0 43.5 0 0 21.5 0 21.5 22 0 22 0 0 22 0 22 -22 0 -22 0 0 -22z"/>
  <path d="M1989 2404.5 l0 -21.5 22 0 22 0 0 21.5 0 21.5 -22 0 -22 0 0 -21.5z"/>
  <path d="M2076 2361 l0 -22 44 0 44 0 0 22 0 22 -44 0 -44 0 0 -22z"/>
  <path d="M501 2317 l0 -22 22 0 22 0 0 -22 0 -22 22 0 22 0 0 -21.5 0 -21.5 -44 0 -44 0 0 -22 0 -22 22 0 22 0 0 -22 0 -22 22 0 22 0 0 -22 0 -22 -44 0 -44 0 0 -43.5 0 -43.5 44 0 44 0 0 -22 0 -22 -65.5 0 -65.5 0 0 22 0 22 -22 0 -22 0 0 65.5 0 65.5 22 0 22 0 0 22 0 22 -22 0 -22 0 0 -22 0 -22 -22 0 -22 0 0 -65.5 0 -65.5 -22 0 -22 0 0 22 0 22 -21.5 0 -21.5 0 0 -22 0 -22 -44 0 -44 0 0 22 0 22 22 0 22 0 0 21.5 0 21.5 -44 0 -44 0 0 -21.5 0 -21.5 -21.5 0 -21.5 0 0 21.5 0 21.5 -22 0 -22 0 0 -43.5 0 -43.5 65.5 0 65.5 0 0 -22 0 -22 44 0 44 0 0 -22 0 -22 43.5 0 43.5 0 0 44 0 44 22 0 22 0 0 -65.5 0 -65.5 -22 0 -22 0 0 -22 0 -22 -22 0 -22 0 0 22 0 22 -87.5 0 -87.5 0 0 21.5 0 21.5 -21.5 0 -21.5 0 0 22 0 22 -22 0 -22 0 0 -22 0 -22 22 0 22 0 0 -21.5 0 -21.5 21.5 0 21.5 0 0 -44 0 -44 66 0 66 0 0 -21.5 0 -21.5 -44 0 -44 0 0 -22 0 -22 -43.5 0 -43.5 0 0 -22 0 -22 21.5 0 21.5 0 0 -43.5 0 -43.5 44 0 44 0 0 -22 0 -22 -22 0 -22 0 0 -44 0 -44 -22 0 -22 0 0 -22 0 -22 -21.5 0 -21.5 0 0 22 0 22 -22 0 -22 0 0 -22 0 -22 22 0 22 0 0 -21.5 0 -21.5 21.5 0 21.5 0 0 -66 0 -66 22 0 22 0 0 87.5 0 87.5 65.5 0 65.5 0 0 22 0 22 22 0 22 0 0 22 0 22 109.5 0 109.5 0 0 44 0 44 22 0 22 0 0 -66 0 -66 -87.5 0 -87.5 0 0 -22 0 -22 -22 0 -22 0 0 -87.5 0 -87.5 22 0 22 0 0 44 0 44 43.5 0 43.5 0 0 22 0 22 -43.5 0 -43.5 0 0 21.5 0 21.5 87.5 0 87.5 0 0 -21.5 0 -21.5 -22 0 -22 0 0 -87.5 0 -87.5 22 0 22 0 0 -22 0 -22 -66 0 -66 0 0 -22 0 -22 -65.5 0 -65.5 0 0 -43.5 0 -43.5 -43.5 0 -43.5 0 0 -22 0 -22 -22 0 -22 0 0 -22 0 -22 22 0 22 0 0 22 0 22 65.5 0 65.5 0 0 43.5 0 43.5 22 0 22 0 0 -21.5 0 -21.5 21.5 0 21.5 0 0 43.5 0 43.5 66 0 66 0 0 -43.5 0 -43.5 21.5 0 21.5 0 0 -22 0 -22 22 0 22 0 0 -22 0 -22 87.5 0 87.5 0 0 -22 0 -22 -22 0 -22 0 0 -21.5 0 -21.5 -21.5 0 -21.5 0 0 -22 0 -22 -22 0 -22 0 0 22 0 22 -22 0 -22 0 0 21.5 0 21.5 -22 0 -22 0 0 -21.5 0 -21.5 -21.5 0 -21.5 0 0 -22 0 -22 -22 0 -22 0 0 -22 0 -22 -22 0 -22 0 0 -22 0 -22 -22 0 -22 0 0 22 0 22 -21.5 0 -21.5 0 0 22 0 22 -22 0 -22 0 0 -22 0 -22 22 0 22 0 0 -43.5 0 -43.5 -44 0 -44 0 0 -22 0 -22 -22 0 -22 0 0 -22 0 -22 -21.5 0 -21.5 0 0 -22 0 -22 -22 0 -22 0 0 -21.5 0 -21.5 22 0 22 0 0 -22 0 -22 21.5 0 21.5 0 0 22 0 22 -21.5 0 -21.5 0 0 21.5 0 21.5 21.5 0 21.5 0 0 22 0 22 22 0 22 0 0 -22 0 -22 22 0 22 0 0 22 0 22 22 0 22 0 0 -43.5 0 -43.5 21.5 0 21.5 0 0 -22 0 -22 -43.5 0 -43.5 0 0 -131.5 0 -131.5 22 0 22 0 0 44 0 44 65.5 0 65.5 0 0 22 0 22 22 0 22 0 0 21.5 0 21.5 21.5 0 21.5 0 0 -21.5 0 -21.5 22 0 22 0 0 21.5 0 21.5 22 0 22 0 0 -21.5 0 -21.5 22 0 22 0 0 21.5 0 21.5 -22 0 -22 0 0 22 0 22 65.5 0 65.5 0 0 -22 0 -22 -22 0 -22 0 0 -65.5 0 -65.5 44 0 44 0 0 44 0 44 22 0 22 0 0 21.5 0 21.5 -22 0 -22 0 0 22 0 22 -22 0 -22 0 0 44 0 44 22 0 22 0 0 21.5 0 21.5 22 0 22 0 0 22 0 22 21.5 0 21.5 0 0 22 0 22 22 0 22 0 0 22 0 22 22 0 22 0 0 21.5 0 21.5 22 0 22 0 0 -21.5 0 -21.5 21.5 0 21.5 0 0 -22 0 -22 -21.5 0 -21.5 0 0 -22 0 -22 21.5 0 21.5 0 0 22 0 22 22 0 22 0 0 22 0 22 22 0 22 0 0 -44 0 -44 22 0 22 0 0 -22 0 -22 -22 0 -22 0 0 -21.5 0 -21.5 43.5 0 43.5 0 0 -22 0 -22 22 0 22 0 0 -22 0 -22 -22 0 -22 0 0 -65.5 0 -65.5 22 0 22 0 0 -22 0 -22 66 0 66 0 0 -22 0 -22 43.5 0 43.5 0 0 22 0 22 -22 0 -22 0 0 22 0 22 -43.5 0 -43.5 0 0 43.5 0 43.5 22 0 22 0 0 -21.5 0 -21.5 21.5 0 21.5 0 0 21.5 0 21.5 -21.5 0 -21.5 0 0 44 0 44 21.5 0 21.5 0 0 22 0 22 22 0 22 0 0 -22 0 -22 22 0 22 0 0 22 0 22 22 0 22 0 0 -44 0 -44 -22 0 -22 0 0 -22 0 -22 -22 0 -22 0 0 -43.5 0 -43.5 65.5 0 65.5 0 0 -44 0 -44 22 0 22 0 0 44 0 44 -22 0 -22 0 0 43.5 0 43.5 22 0 22 0 0 -21.5 0 -21.5 22 0 22 0 0 21.5 0 21.5 -22 0 -22 0 0 44 0 44 -22 0 -22 0 0 43.5 0 43.5 22 0 22 0 0 -21.5 0 -21.5 22 0 22 0 0 -22 0 -22 43.5 0 43.5 0 0 -22 0 -22 22 0 22 0 0 -43.5 0 -43.5 22 0 22 0 0 43.5 0 43.5 21.5 0 21.5 0 0 22 0 22 44 0 44 0 0 43.5 0 43.5 22 0 22 0 0 44 0 44 43.5 0 43.5 0 0 -22 0 -22 -22 0 -22 0 0 -43.5 0 -43.5 -21.5 0 -21.5 0 0 -22 0 -22 21.5 0 21.5 0 0 22 0 22 22 0 22 0 0 -22 0 -22 44 0 44 0 0 43.5 0 43.5 -44 0 -44 0 0 22 0 22 22 0 22 0 0 44 0 44 43.5 0 43.5 0 0 21.5 0 21.5 -43.5 0 -43.5 0 0 44 0 44 22 0 22 0 0 -22 0 -22 43.5 0 43.5 0 0 65.5 0 65.5 -65.5 0 -65.5 0 0 22 0 22 -44 0 -44 0 0 22 0 22 22 0 22 0 0 22 0 22 87.5 0 87.5 0 0 21.5 0 21.5 -22 0 -22 0 0 44 0 44 -21.5 0 -21.5 0 0 -22 0 -22 -22 0 -22 0 0 -22 0 -22 -22 0 -22 0 0 -21.5 0 -21.5 -22 0 -22 0 0 43.5 0 43.5 -21.5 0 -21.5 0 0 -22 0 -22 -22 0 -22 0 0 44 0 44 43.5 0 43.5 0 0 22 0 22 -65.5 0 -65.5 0 0 21.5 0 21.5 -65.5 0 -65.5 0 0 22 0 22 43.5 0 43.5 0 0 22 0 22 22 0 22 0 0 43.5 0 43.5 131.5 0 131.5 0 0 -21.5 0 -21.5 -22 0 -22 0 0 -66 0 -66 22 0 22 0 0 22 0 22 21.5 0 21.5 0 0 22 0 22 -21.5 0 -21.5 0 0 22 0 22 21.5 0 21.5 0 0 21.5 0 21.5 -21.5 0 -21.5 0 0 22 0 22 -44 0 -44 0 0 66 0 66 -22 0 -22 0 0 21.5 0 21.5 66 0 66 0 0 22 0 22 -22 0 -22 0 0 22 0 22 65.5 0 65.5 0 0 22 0 22 -43.5 0 -43.5 0 0 65.5 0 65.5 21.5 0 21.5 0 0 -44 0 -44 22 0 22 0 0 44 0 44 -22 0 -22 0 0 43.5 0 43.5 -21.5 0 -21.5 0 0 22 0 22 -22 0 -22 0 0 43.5 0 43.5 -44 0 -44 0 0 22 0 22 -21.5 0 -21.5 0 0 -65.5 0 -65.5 -22 0 -22 0 0 22 0 22 -22 0 -22 0 0 21.5 0 21.5 -22 0 -22 0 0 -43.5 0 -43.5 -21.5 0 -21.5 0 0 22 0 22 -22 0 -22 0 0 43.5 0 43.5 43.5 0 43.5 0 0 22 0 22 -21.5 0 -21.5 0 0 22 0 22 21.5 0 21.5 0 0 21.5 0 21.5 -21.5 0 -21.5 0 0 -21.5 0 -21.5 -22 0 -22 0 0 -22 0 -22 -22 0 -22 0 0 -65.5 0 -65.5 -22 0 -22 0 0 21.5 0 21.5 -21.5 0 -21.5 0 0 -43.5 0 -43.5 -22 0 -22 0 0 43.5 0 43.5 -43.5 0 -43.5 0 0 22 0 22 43.5 0 43.5 0 0 22 0 22 -22 0 -22 0 0 22 0 22 -21.5 0 -21.5 0 0 21.5 0 21.5 -22 0 -22 0 0 22 0 22 -44 0 -44 0 0 -43.5 0 -43.5 -65.5 0 -65.5 0 0 -44 0 -44 22 0 22 0 0 -22 0 -22 22 0 22 0 0 -21.5 0 -21.5 -22 0 -22 0 0 -44 0 -44 -22 0 -22 0 0 44 0 44 -22 0 -22 0 0 -22 0 -22 -22 0 -22 0 0 22 0 22 -21.5 0 -21.5 0 0 21.5 0 21.5 21.5 0 21.5 0 0 22 0 22 -21.5 0 -21.5 0 0 -22 0 -22 -22 0 -22 0 0 -21.5 0 -21.5 -65.5 0 -65.5 0 0 21.5 0 21.5 21.5 0 21.5 0 0 22 0 22 -21.5 0 -21.5 0 0 22 0 22 -87.5 0 -87.5 0 0 22 0 22 21.5 0 21.5 0 0 21.5 0 21.5 22 0 22 0 0 -21.5 0 -21.5 22 0 22 0 0 21.5 0 21.5 22 0 22 0 0 22 0 22 -87.5 0 -87.5 0 0 22 0 22 -22 0 -22 0 0 -22 0 -22 22 0 22 0 0 -22 0 -22 -22 0 -22 0 0 -43.5 0 -43.5 -22 0 -22 0 0 -22 0 -22 22 0 22 0 0 22 0 22 22 0 22 0 0 -87.5 0 -87.5 -22 0 -22 0 0 -44 0 -44 22 0 22 0 0 -21.5 0 -21.5 -22 0 -22 0 0 -44 0 -44 -22 0 -22 0 0 -21.5 0 -21.5 22 0 22 0 0 -22 0 -22 -22 0 -22 0 0 -22 0 -22 -22 0 -22 0 0 22 0 22 -21.5 0 -21.5 0 0 22 0 22 -44 0 -44 0 0 -22 0 -22 -22 0 -22 0 0 22 0 22 -43.5 0 -43.5 0 0 -44 0 -44 -22 0 -22 0 0 44 0 44 -22 0 -22 0 0 -44 0 -44 -21.5 0 -21.5 0 0 22 0 22 -22 0 -22 0 0 22 0 22 22 0 22 0 0 21.5 0 21.5 87.5 0 87.5 0 0 22 0 22 -66 0 -66 0 0 22 0 22 22 0 22 0 0 21.5 0 21.5 65.5 0 65.5 0 0 -43.5 0 -43.5 66 0 66 0 0 -22 0 -22 21.5 0 21.5 0 0 22 0 22 -21.5 0 -21.5 0 0 22 0 22 21.5 0 21.5 0 0 21.5 0 21.5 -21.5 0 -21.5 0 0 22 0 22 21.5 0 21.5 0 0 22 0 22 22 0 22 0 0 22 0 22 22 0 22 0 0 21.5 0 21.5 -44 0 -44 0 0 -43.5 0 -43.5 -21.5 0 -21.5 0 0 22 0 22 -44 0 -44 0 0 -44 0 -44 -22 0 -22 0 0 44 0 44 -21.5 0 -21.5 0 0 21.5 0 21.5 21.5 0 21.5 0 0 22 0 22 -21.5 0 -21.5 0 0 22 0 22 43.5 0 43.5 0 0 -22 0 -22 22 0 22 0 0 -22 0 -22 22 0 22 0 0 22 0 22 21.5 0 21.5 0 0 22 0 22 -21.5 0 -21.5 0 0 -22 0 -22 -22 0 -22 0 0 22 0 22 -22 0 -22 0 0 22 0 22 65.5 0 65.5 0 0 43.5 0 43.5 -21.5 0 -21.5 0 0 -22 0 -22 -44 0 -44 0 0 22 0 22 -87.5 0 -87.5 0 0 22 0 22 -22 0 -22 0 0 -22z m175 -87.5 l0 -21.5 -21.5 0 -21.5 0 0 -22 0 -22 -22 0 -22 0 0 22 0 22 22 0 22 0 0 21.5 0 21.5 21.5 0 21.5 0 0 -21.5z m1007 0 l0 -21.5 -22 0 -22 0 0 -22 0 -22 -22 0 -22 0 0 -22 0 -22 -43.5 0 -43.5 0 0 22 0 22 43.5 0 43.5 0 0 22 0 22 22 0 22 0 0 21.5 0 21.5 22 0 22 0 0 -21.5z m-569 -175 l0 -21.5 22 0 22 0 0 -44 0 -44 -87.5 0 -87.5 0 0 22 0 22 65.5 0 65.5 0 0 22 0 22 -44 0 -44 0 0 21.5 0 21.5 44 0 44 0 0 -21.5z m-481 -43.5 l0 -22 -22 0 -22 0 0 22 0 22 22 0 22 0 0 -22z m1094 0 l0 -22 -44 0 -44 0 0 -22 0 -22 -43.5 0 -43.5 0 0 -22 0 -22 43.5 0 43.5 0 0 -21.5 0 -21.5 22 0 22 0 0 -44 0 -44 22 0 22 0 0 -43.5 0 -43.5 -22 0 -22 0 0 -22 0 -22 65.5 0 65.5 0 0 -22 0 -22 -22 0 -22 0 0 -21.5 0 -21.5 22 0 22 0 0 -22 0 -22 -22 0 -22 0 0 -22 0 -22 -65.5 0 -65.5 0 0 22 0 22 -22 0 -22 0 0 43.5 0 43.5 22 0 22 0 0 -43.5 0 -43.5 22 0 22 0 0 65.5 0 65.5 -65.5 0 -65.5 0 0 -43.5 0 -43.5 -66 0 -66 0 0 -22 0 -22 -87.5 0 -87.5 0 0 -22 0 -22 -22 0 -22 0 0 -44 0 -44 22 0 22 0 0 22 0 22 22 0 22 0 0 22 0 22 43.5 0 43.5 0 0 -65.5 0 -65.5 44 0 44 0 0 -22 0 -22 -44 0 -44 0 0 -87.5 0 -87.5 22 0 22 0 0 22 0 22 44 0 44 0 0 21.5 0 21.5 22 0 22 0 0 22 0 22 -22 0 -22 0 0 65.5 0 65.5 -22 0 -22 0 0 44 0 44 22 0 22 0 0 22 0 22 22 0 22 0 0 -66 0 -66 21.5 0 21.5 0 0 22 0 22 22 0 22 0 0 -22 0 -22 -22 0 -22 0 0 -21.5 0 -21.5 22 0 22 0 0 -22 0 -22 -22 0 -22 0 0 22 0 22 -21.5 0 -21.5 0 0 -44 0 -44 65.5 0 65.5 0 0 44 0 44 22 0 22 0 0 21.5 0 21.5 -22 0 -22 0 0 22 0 22 43.5 0 43.5 0 0 -22 0 -22 22 0 22 0 0 -21.5 0 -21.5 -43.5 0 -43.5 0 0 -22 0 -22 87 0 87 0 0 -22 0 -22 -109 0 -109 0 0 -22 0 -22 43.5 0 43.5 0 0 -43.5 0 -43.5 22 0 22 0 0 22 0 22 43.5 0 43.5 0 0 21.5 0 21.5 22 0 22 0 0 -21.5 0 -21.5 22 0 22 0 0 -44 0 -44 -22 0 -22 0 0 -43.5 0 -43.5 22 0 22 0 0 21.5 0 21.5 43.5 0 43.5 0 0 44 0 44 -21.5 0 -21.5 0 0 22 0 22 21.5 0 21.5 0 0 -22 0 -22 22 0 22 0 0 -65.5 0 -65.5 22 0 22 0 0 -44 0 -44 22 0 22 0 0 -22 0 -22 21.5 0 21.5 0 0 -21.5 0 -21.5 22 0 22 0 0 21.5 0 21.5 22 0 22 0 0 -21.5 0 -21.5 -22 0 -22 0 0 -22 0 -22 -43.5 0 -43.5 0 0 -22 0 -22 21.5 0 21.5 0 0 -22 0 -22 -21.5 0 -21.5 0 0 -43.5 0 -43.5 -22 0 -22 0 0 -22 0 -22 -22 0 -22 0 0 -22 0 -22 -22 0 -22 0 0 -43.5 0 -43.5 -21.5 0 -21.5 0 0 -22 0 -22 -22 0 -22 0 0 22 0 22 -22 0 -22 0 0 43.5 0 43.5 -22 0 -22 0 0 22 0 22 -21.5 0 -21.5 0 0 -22 0 -22 -22 0 -22 0 0 44 0 44 65.5 0 65.5 0 0 22 0 22 22 0 22 0 0 -22 0 -22 -22 0 -22 0 0 -22 0 -22 22 0 22 0 0 -43.5 0 -43.5 22 0 22 0 0 87.5 0 87.5 21.5 0 21.5 0 0 -22 0 -22 44 0 44 0 0 87.5 0 87.5 22 0 22 0 0 22 0 22 -44 0 -44 0 0 -22 0 -22 -22 0 -22 0 0 22 0 22 -43.5 0 -43.5 0 0 -22 0 -22 22 0 22 0 0 -22 0 -22 21.5 0 21.5 0 0 -22 0 -22 -21.5 0 -21.5 0 0 22 0 22 -22 0 -22 0 0 -22 0 -22 -44 0 -44 0 0 -21.5 0 -21.5 -65.5 0 -65.5 0 0 -22 0 -22 -21.5 0 -21.5 0 0 -44 0 -44 -22 0 -22 0 0 -21.5 0 -21.5 -22 0 -22 0 0 21.5 0 21.5 -22 0 -22 0 0 22 0 22 -21.5 0 -21.5 0 0 -22 0 -22 -22 0 -22 0 0 -21.5 0 -21.5 22 0 22 0 0 -22 0 -22 -66 0 -66 0 0 43.5 0 43.5 -22 0 -22 0 0 22 0 22 -21.5 0 -21.5 0 0 44 0 44 -22 0 -22 0 0 21.5 0 21.5 -44 0 -44 0 0 22 0 22 -21.5 0 -21.5 0 0 44 0 44 -22 0 -22 0 0 21.5 0 21.5 -22 0 -22 0 0 22 0 22 -22 0 -22 0 0 -22 0 -22 -21.5 0 -21.5 0 0 22 0 22 21.5 0 21.5 0 0 22 0 22 22 0 22 0 0 22 0 22 22 0 22 0 0 21.5 0 21.5 22 0 22 0 0 22 0 22 21.5 0 21.5 0 0 -87.5 0 -87.5 22 0 22 0 0 -22 0 -22 22 0 22 0 0 44 0 44 22 0 22 0 0 22 0 22 21.5 0 21.5 0 0 43.5 0 43.5 -65.5 0 -65.5 0 0 44 0 44 -22 0 -22 0 0 -22 0 -22 -21.5 0 -21.5 0 0 43.5 0 43.5 -22 0 -22 0 0 -21.5 0 -21.5 -22 0 -22 0 0 -22 0 -22 -22 0 -22 0 0 -65.5 0 -65.5 -21.5 0 -21.5 0 0 -22 0 -22 -66 0 -66 0 0 22 0 22 -21.5 0 -21.5 0 0 -22 0 -22 -22 0 -22 0 0 22 0 22 22 0 22 0 0 21.5 0 21.5 21.5 0 21.5 0 0 44 0 44 -21.5 0 -21.5 0 0 -22 0 -22 -22 0 -22 0 0 -22 0 -22 -22 0 -22 0 0 -21.5 0 -21.5 -22 0 -22 0 0 43.5 0 43.5 -21.5 0 -21.5 0 0 22 0 22 21.5 0 21.5 0 0 -22 0 -22 44 0 44 0 0 22 0 22 -22 0 -22 0 0 43.5 0 43.5 -22 0 -22 0 0 -21.5 0 -21.5 -21.5 0 -21.5 0 0 21.5 0 21.5 21.5 0 21.5 0 0 44 0 44 -21.5 0 -21.5 0 0 22 0 22 21.5 0 21.5 0 0 21.5 0 21.5 -21.5 0 -21.5 0 0 22 0 22 21.5 0 21.5 0 0 22 0 22 44 0 44 0 0 -22 0 -22 43.5 0 43.5 0 0 22 0 22 87.5 0 87.5 0 0 22 0 22 -21.5 0 -21.5 0 0 22 0 22 43.5 0 43.5 0 0 21.5 0 21.5 65.5 0 65.5 0 0 22 0 22 -21.5 0 -21.5 0 0 44 0 44 21.5 0 21.5 0 0 21.5 0 21.5 66 0 66 0 0 22 0 22 -66 0 -66 0 0 22 0 22 -21.5 0 -21.5 0 0 -44 0 -44 -22 0 -22 0 0 -21.5 0 -21.5 -22 0 -22 0 0 21.5 0 21.5 22 0 22 0 0 22 0 22 -22 0 -22 0 0 22 0 22 44 0 44 0 0 21.5 0 21.5 21.5 0 21.5 0 0 44 0 44 66 0 66 0 0 -22 0 -22 -22 0 -22 0 0 -43.5 0 -43.5 22 0 22 0 0 21.5 0 21.5 43.5 0 43.5 0 0 -21.5 0 -21.5 66 0 66 0 0 21.5 0 21.5 -22 0 -22 0 0 22 0 22 22 0 22 0 0 44 0 44 87.5 0 87.5 0 0 -22z m262 0 l0 -22 22 0 22 0 0 -44 0 -44 -44 0 -44 0 0 66 0 66 22 0 22 0 0 -22z m306 0 l0 -22 22 0 22 0 0 -44 0 -44 -22 0 -22 0 0 -21.5 0 -21.5 -22 0 -22 0 0 43.5 0 43.5 -21.5 0 -21.5 0 0 22 0 22 21.5 0 21.5 0 0 22 0 22 22 0 22 0 0 -22z m-1969 -44 l0 -22 -21.5 0 -21.5 0 0 22 0 22 21.5 0 21.5 0 0 -22z m1488 0 l0 -22 22 0 22 0 0 -43.5 0 -43.5 -22 0 -22 0 0 43.5 0 43.5 -22 0 -22 0 0 22 0 22 22 0 22 0 0 -22z m350 -44 l0 -22 22 0 22 0 0 -21.5 0 -21.5 -22 0 -22 0 0 21.5 0 21.5 -22 0 -22 0 0 -43.5 0 -43.5 22 0 22 0 0 -22 0 -22 22 0 22 0 0 22 0 22 21.5 0 21.5 0 0 -65.5 0 -65.5 22 0 22 0 0 43.5 0 43.5 22 0 22 0 0 -43.5 0 -43.5 -22 0 -22 0 0 -22 0 -22 -22 0 -22 0 0 -22 0 -22 -21.5 0 -21.5 0 0 -21.5 0 -21.5 21.5 0 21.5 0 0 -66 0 -66 -43.5 0 -43.5 0 0 22 0 22 22 0 22 0 0 44 0 44 -44 0 -44 0 0 -22 0 -22 -43.5 0 -43.5 0 0 -22 0 -22 43.5 0 43.5 0 0 -44 0 -44 -22 0 -22 0 0 -43.5 0 -43.5 -65.5 0 -65.5 0 0 22 0 22 -43.5 0 -43.5 0 0 21.5 0 21.5 21.5 0 21.5 0 0 22 0 22 -43.5 0 -43.5 0 0 22 0 22 65.5 0 65.5 0 0 44 0 44 22 0 22 0 0 -22 0 -22 22 0 22 0 0 43.5 0 43.5 65.5 0 65.5 0 0 22 0 22 22 0 22 0 0 44 0 44 -22 0 -22 0 0 -22 0 -22 -65.5 0 -65.5 0 0 -22 0 -22 -44 0 -44 0 0 -22 0 -22 -43.5 0 -43.5 0 0 22 0 22 21.5 0 21.5 0 0 44 0 44 22 0 22 0 0 21.5 0 21.5 -43.5 0 -43.5 0 0 22 0 22 21.5 0 21.5 0 0 22 0 22 44 0 44 0 0 -22 0 -22 22 0 22 0 0 22 0 22 21.5 0 21.5 0 0 43.5 0 43.5 44 0 44 0 0 -22z m-1400 -43.5 l0 -21.5 -22 0 -22 0 0 21.5 0 21.5 22 0 22 0 0 -21.5z m-438 -87.5 l0 -22 -21.5 0 -21.5 0 0 22 0 22 21.5 0 21.5 0 0 -22z m132 0 l0 -22 -22 0 -22 0 0 -21.5 0 -21.5 -22 0 -22 0 0 -22 0 -22 22 0 22 0 0 -22 0 -22 -22 0 -22 0 0 -43.5 0 -43.5 65.5 0 65.5 0 0 21.5 0 21.5 22 0 22 0 0 -43.5 0 -43.5 -131 0 -131 0 0 -22 0 -22 21.5 0 21.5 0 0 -22 0 -22 -21.5 0 -21.5 0 0 22 0 22 -22 0 -22 0 0 22 0 22 22 0 22 0 0 22 0 22 21.5 0 21.5 0 0 21.5 0 21.5 -65.5 0 -65.5 0 0 44 0 44 44 0 44 0 0 22 0 22 43.5 0 43.5 0 0 43.5 0 43.5 44 0 44 0 0 -22z m568 -65.5 l0 -43.5 -21.5 0 -21.5 0 0 -44 0 -44 -22 0 -22 0 0 -21.5 0 -21.5 -22 0 -22 0 0 -22 0 -22 -43.5 0 -43.5 0 0 22 0 22 -22 0 -22 0 0 -22 0 -22 -44 0 -44 0 0 22 0 22 -21.5 0 -21.5 0 0 21.5 0 21.5 21.5 0 21.5 0 0 22 0 22 -21.5 0 -21.5 0 0 22 0 22 21.5 0 21.5 0 0 -22 0 -22 22 0 22 0 0 22 0 22 22 0 22 0 0 -22 0 -22 22 0 22 0 0 -43.5 0 -43.5 43.5 0 43.5 0 0 21.5 0 21.5 22 0 22 0 0 44 0 44 22 0 22 0 0 43.5 0 43.5 21.5 0 21.5 0 0 -43.5z m788 -21.5 l0 -22 -22 0 -22 0 0 22 0 22 22 0 22 0 0 -22z m87 -175 l0 -22 -21.5 0 -21.5 0 0 22 0 22 21.5 0 21.5 0 0 -22z m-437 -307 l0 -22 -22 0 -22 0 0 22 0 22 22 0 22 0 0 -22z m-175 -218.5 l0 -21.5 -22 0 -22 0 0 21.5 0 21.5 22 0 22 0 0 -21.5z m962 -43.5 l0 -22 -21.5 0 -21.5 0 0 22 0 22 21.5 0 21.5 0 0 -22z m-1312 -175 l0 -22 -22 0 -22 0 0 -22 0 -22 44 0 44 0 0 -22 0 -22 21.5 0 21.5 0 0 44 0 44 -21.5 0 -21.5 0 0 22 0 22 21.5 0 21.5 0 0 -22 0 -22 22 0 22 0 0 -44 0 -44 -22 0 -22 0 0 -21.5 0 -21.5 -21.5 0 -21.5 0 0 -22 0 -22 -22 0 -22 0 0 -44 0 -44 -22 0 -22 0 0 -21.5 0 -21.5 -22 0 -22 0 0 21.5 0 21.5 22 0 22 0 0 44 0 44 22 0 22 0 0 22 0 22 -44 0 -44 0 0 21.5 0 21.5 -21.5 0 -21.5 0 0 22 0 22 21.5 0 21.5 0 0 22 0 22 22 0 22 0 0 22 0 22 22 0 22 0 0 -22z m1487 0 l0 -22 -21.5 0 -21.5 0 0 22 0 22 21.5 0 21.5 0 0 -22z m-1750 -88 l0 -22 -21.5 0 -21.5 0 0 -21.5 0 -21.5 -22 0 -22 0 0 43.5 0 43.5 43.5 0 43.5 0 0 -22z m88 -43.5 l0 -21.5 22 0 22 0 0 -22 0 -22 21.5 0 21.5 0 0 -22 0 -22 -21.5 0 -21.5 0 0 22 0 22 -22 0 -22 0 0 -44 0 -44 -22 0 -22 0 0 -21.5 0 -21.5 44 0 44 0 0 -22 0 -22 -22 0 -22 0 0 -22 0 -22 -44 0 -44 0 0 44 0 44 -21.5 0 -21.5 0 0 21.5 0 21.5 21.5 0 21.5 0 0 22 0 22 22 0 22 0 0 22 0 22 -22 0 -22 0 0 22 0 22 22 0 22 0 0 21.5 0 21.5 22 0 22 0 0 -21.5z m1575 0 l0 -21.5 -22 0 -22 0 0 21.5 0 21.5 22 0 22 0 0 -21.5z m-1925 -87.5 l0 -22 -22 0 -22 0 0 22 0 22 22 0 22 0 0 -22z m219 0 l0 -22 -22 0 -22 0 0 -43.5 0 -43.5 -44 0 -44 0 0 21.5 0 21.5 22 0 22 0 0 22 0 22 -22 0 -22 0 0 22 0 22 66 0 66 0 0 -22z m-88 -219 l0 -22 22 0 22 0 0 22 0 22 22 0 22 0 0 -22 0 -22 -22 0 -22 0 0 -21.5 0 -21.5 -22 0 -22 0 0 21.5 0 21.5 -22 0 -22 0 0 -21.5 0 -21.5 -21.5 0 -21.5 0 0 21.5 0 21.5 21.5 0 21.5 0 0 22 0 22 22 0 22 0 0 -22z m919 -21.5 l0 -43.5 -22 0 -22 0 0 43.5 0 43.5 22 0 22 0 0 -43.5z m306 21.5 l0 -22 -21.5 0 -21.5 0 0 -21.5 0 -21.5 -22 0 -22 0 0 21.5 0 21.5 22 0 22 0 0 22 0 22 21.5 0 21.5 0 0 -22z m-831 -43.5 l0 -21.5 -22 0 -22 0 0 21.5 0 21.5 22 0 22 0 0 -21.5z"/>
  <path d="M1201 1879.5 l0 -21.5 22 0 22 0 0 21.5 0 21.5 -22 0 -22 0 0 -21.5z"/>
  <path d="M1552 1836 l0 -22 -22 0 -22 0 0 -43.5 0 -43.5 22 0 22 0 0 -22 0 -22 43.5 0 43.5 0 0 22 0 22 22 0 22 0 0 21.5 0 21.5 -44 0 -44 0 0 22 0 22 22 0 22 0 0 22 0 22 -43.5 0 -43.5 0 0 -22z m43 -87.5 l0 -21.5 -21.5 0 -21.5 0 0 21.5 0 21.5 21.5 0 21.5 0 0 -21.5z"/>
  <path d="M1420 1792 l0 -22 -22 0 -22 0 0 -21.5 0 -21.5 -21.5 0 -21.5 0 0 -22 0 -22 21.5 0 21.5 0 0 -22 0 -22 22 0 22 0 0 22 0 22 22 0 22 0 0 -22 0 -22 22 0 22 0 0 22 0 22 -22 0 -22 0 0 65.5 0 65.5 -22 0 -22 0 0 -22z m0 -87 l0 -22 -22 0 -22 0 0 22 0 22 22 0 22 0 0 -22z"/>
  <path d="M1201 1683 l0 -44 22 0 22 0 0 -22 0 -22 -22 0 -22 0 0 -21.5 0 -21.5 -21.5 0 -21.5 0 0 -22 0 -22 -44 0 -44 0 0 -22 0 -22 -22 0 -22 0 0 -22 0 -22 -21.5 0 -21.5 0 0 -22 0 -22 -44 0 -44 0 0 22 0 22 -22 0 -22 0 0 -43.5 0 -43.5 -43.5 0 -43.5 0 0 43.5 0 43.5 -22 0 -22 0 0 -87.5 0 -87.5 22 0 22 0 0 -22 0 -22 22 0 22 0 0 -21.5 0 -21.5 65.5 0 65.5 0 0 -22 0 -22 22 0 22 0 0 22 0 22 21.5 0 21.5 0 0 21.5 0 21.5 44 0 44 0 0 22 0 22 -109.5 0 -109.5 0 0 22 0 22 -22 0 -22 0 0 22 0 22 66 0 66 0 0 21.5 0 21.5 21.5 0 21.5 0 0 22 0 22 22 0 22 0 0 -22 0 -22 22 0 22 0 0 22 0 22 -22 0 -22 0 0 22 0 22 44 0 44 0 0 22 0 22 43.5 0 43.5 0 0 43.5 0 43.5 22 0 22 0 0 -21.5 0 -21.5 43.5 0 43.5 0 0 21.5 0 21.5 -21.5 0 -21.5 0 0 22 0 22 -22 0 -22 0 0 22 0 22 -22 0 -22 0 0 22 0 22 -22 0 -22 0 0 -44z m-393 -416 l0 -22 43.5 0 43.5 0 0 -22 0 -22 -43.5 0 -43.5 0 0 22 0 22 -22 0 -22 0 0 22 0 22 22 0 22 0 0 -22z"/>
  <path d="M1727 1530 l0 -22 21.5 0 21.5 0 0 22 0 22 -21.5 0 -21.5 0 0 -22z"/>
  <path d="M1289 1398 l0 -22 22 0 22 0 0 22 0 22 -22 0 -22 0 0 -22z"/>
  <path d="M1070 1311 l0 -22 22 0 22 0 0 22 0 22 -22 0 -22 0 0 -22z"/>
  <path d="M1201 1267 l0 -66 66 0 66 0 0 66 0 66 -66 0 -66 0 0 -66z m88 0 l0 -22 -22 0 -22 0 0 22 0 22 22 0 22 0 0 -22z"/>
  <path d="M1552 1179.5 l0 -21.5 -22 0 -22 0 0 -66 0 -66 -22 0 -22 0 0 22 0 22 -22 0 -22 0 0 -43.5 0 -43.5 22 0 22 0 0 -44 0 -44 -22 0 -22 0 0 -43.5 0 -43.5 -22 0 -22 0 0 43.5 0 43.5 -21.5 0 -21.5 0 0 -22 0 -22 -22 0 -22 0 0 -21.5 0 -21.5 -22 0 -22 0 0 -22 0 -22 22 0 22 0 0 22 0 22 22 0 22 0 0 -22 0 -22 21.5 0 21.5 0 0 -22 0 -22 -21.5 0 -21.5 0 0 -43.5 0 -43.5 21.5 0 21.5 0 0 -22 0 -22 22 0 22 0 0 22 0 22 -22 0 -22 0 0 21.5 0 21.5 44 0 44 0 0 22 0 22 22 0 22 0 0 22 0 22 -22 0 -22 0 0 22 0 22 22 0 22 0 0 21.5 0 21.5 22 0 22 0 0 22 0 22 21.5 0 21.5 0 0 -22 0 -22 22 0 22 0 0 -65.5 0 -65.5 22 0 22 0 0 -65.5 0 -65.5 -44 0 -44 0 0 -22 0 -22 44 0 44 0 0 22 0 22 22 0 22 0 0 22 0 22 21.5 0 21.5 0 0 21.5 0 21.5 65.5 0 65.5 0 0 22 0 22 44 0 44 0 0 22 0 22 -44 0 -44 0 0 -22 0 -22 -65.5 0 -65.5 0 0 22 0 22 -21.5 0 -21.5 0 0 65.5 0 65.5 21.5 0 21.5 0 0 -22 0 -22 22 0 22 0 0 -43.5 0 -43.5 22 0 22 0 0 43.5 0 43.5 43.5 0 43.5 0 0 -21.5 0 -21.5 22 0 22 0 0 21.5 0 21.5 22 0 22 0 0 22 0 22 21.5 0 21.5 0 0 -22 0 -22 44 0 44 0 0 22 0 22 -22 0 -22 0 0 44 0 44 -22 0 -22 0 0 -22 0 -22 -21.5 0 -21.5 0 0 -22 0 -22 -22 0 -22 0 0 22 0 22 -44 0 -44 0 0 -22 0 -22 -21.5 0 -21.5 0 0 65.5 0 65.5 21.5 0 21.5 0 0 22 0 22 22 0 22 0 0 22 0 22 -22 0 -22 0 0 -22 0 -22 -21.5 0 -21.5 0 0 22 0 22 -22 0 -22 0 0 -65.5 0 -65.5 -22 0 -22 0 0 21.5 0 21.5 -21.5 0 -21.5 0 0 22 0 22 21.5 0 21.5 0 0 22 0 22 -21.5 0 -21.5 0 0 22 0 22 -22 0 -22 0 0 21.5 0 21.5 -65.5 0 -65.5 0 0 -21.5z m87 -43.5 l0 -22 22 0 22 0 0 -22 0 -22 -44 0 -44 0 0 -22 0 -22 -21.5 0 -21.5 0 0 66 0 66 43.5 0 43.5 0 0 -22z m-87 -197 l0 -44 -22 0 -22 0 0 44 0 44 22 0 22 0 0 -44z m87 22 l0 -22 22 0 22 0 0 22 0 22 22 0 22 0 0 -44 0 -44 -66 0 -66 0 0 44 0 44 22 0 22 0 0 -22z m350 -88 l0 -22 -22 0 -22 0 0 22 0 22 22 0 22 0 0 -22z m-525 -131 l0 -22 -22 0 -22 0 0 22 0 22 22 0 22 0 0 -22z m263 0 l0 -22 21.5 0 21.5 0 0 -22 0 -22 -21.5 0 -21.5 0 0 22 0 22 -22 0 -22 0 0 22 0 22 22 0 22 0 0 -22z"/>
  <path d="M1289 1136 l0 -22 22 0 22 0 0 22 0 22 -22 0 -22 0 0 -22z"/>
  <path d="M1070 917 l0 -22 44 0 44 0 0 -43.5 0 -43.5 21.5 0 21.5 0 0 43.5 0 43.5 -21.5 0 -21.5 0 0 22 0 22 -44 0 -44 0 0 -22z"/>
  <path d="M1552 742 l0 -66 -22 0 -22 0 0 -21.5 0 -21.5 65.5 0 65.5 0 0 21.5 0 21.5 -22 0 -22 0 0 66 0 66 -21.5 0 -21.5 0 0 -66z"/>
  <path d="M1464 567 l0 -22 -22 0 -22 0 0 -22 0 -22 44 0 44 0 0 22 0 22 22 0 22 0 0 22 0 22 -44 0 -44 0 0 -22z"/>
  <path d="M1945 1792 l0 -22 22 0 22 0 0 22 0 22 -22 0 -22 0 0 -22z"/>
  <path d="M2033 1770.5 l0 -43.5 -44 0 -44 0 0 -22 0 -22 44 0 44 0 0 22 0 22 21.5 0 21.5 0 0 43.5 0 43.5 -21.5 0 -21.5 0 0 -43.5z"/>
  <path d="M2120 1748.5 l0 -21.5 22 0 22 0 0 21.5 0 21.5 -22 0 -22 0 0 -21.5z"/>
  <path d="M1945 1398.5 l0 -65.5 44 0 44 0 0 65.5 0 65.5 -44 0 -44 0 0 -65.5z"/>
  <path d="M283 1661 l0 -22 21.5 0 21.5 0 0 22 0 22 -21.5 0 -21.5 0 0 -22z"/>
  <path d="M720 1617 l0 -22 22 0 22 0 0 22 0 22 -22 0 -22 0 0 -22z"/>
  <path d="M720 611 l0 -22 22 0 22 0 0 22 0 22 -22 0 -22 0 0 -22z"/>
  <path d="M2339 2317 l0 -22 43.5 0 43.5 0 0 22 0 22 -43.5 0 -43.5 0 0 -22z"/>
  <path d="M1201 2229.5 l0 -65.5 66 0 66 0 0 65.5 0 65.5 -66 0 -66 0 0 -65.5z m88 0 l0 -21.5 -22 0 -22 0 0 21.5 0 21.5 22 0 22 0 0 -21.5z"/>
  <path d="M2164 2229.5 l0 -65.5 65.5 0 65.5 0 0 65.5 0 65.5 -65.5 0 -65.5 0 0 -65.5z m87 0 l0 -21.5 -21.5 0 -21.5 0 0 21.5 0 21.5 21.5 0 21.5 0 0 -21.5z"/>
  <path d="M1376 2207.5 l0 -43.5 22 0 22 0 0 43.5 0 43.5 -22 0 -22 0 0 -43.5z"/>
  <path d="M2383 2229.5 l0 -21.5 -22 0 -22 0 0 -22 0 -22 22 0 22 0 0 22 0 22 43.5 0 43.5 0 0 21.5 0 21.5 -43.5 0 -43.5 0 0 -21.5z"/>
  <path d="M2383 2098 l0 -22 21.5 0 21.5 0 0 22 0 22 -21.5 0 -21.5 0 0 -22z"/>
  <path d="M2339 1508 l0 -44 43.5 0 43.5 0 0 -22 0 -22 22 0 22 0 0 22 0 22 -22 0 -22 0 0 44 0 44 -43.5 0 -43.5 0 0 -44z"/>
  <path d="M239 1267 l0 -66 65.5 0 65.5 0 0 66 0 66 -65.5 0 -65.5 0 0 -66z m87 0 l0 -22 -21.5 0 -21.5 0 0 22 0 22 21.5 0 21.5 0 0 -22z"/>
  <path d="M2164 1267 l0 -66 65.5 0 65.5 0 0 66 0 66 -65.5 0 -65.5 0 0 -66z m87 0 l0 -22 -21.5 0 -21.5 0 0 22 0 22 21.5 0 21.5 0 0 -22z"/>
  <path d="M195 1136 l0 -22 22 0 22 0 0 -22 0 -22 22 0 22 0 0 -22 0 -22 21.5 0 21.5 0 0 22 0 22 -21.5 0 -21.5 0 0 22 0 22 43.5 0 43.5 0 0 22 0 22 -87.5 0 -87.5 0 0 -22z"/>
  <path d="M414 1136 l0 -22 22 0 22 0 0 22 0 22 -22 0 -22 0 0 -22z"/>
  <path d="M2295 1136 l0 -22 22 0 22 0 0 22 0 22 -22 0 -22 0 0 -22z"/>
  <path d="M2426 917 l0 -22 22 0 22 0 0 22 0 22 -22 0 -22 0 0 -22z"/>
  <path d="M1070 523 l0 -22 22 0 22 0 0 22 0 22 -22 0 -22 0 0 -22z"/>
  <path d="M1201 304.5 l0 -65.5 66 0 66 0 0 65.5 0 65.5 -66 0 -66 0 0 -65.5z m88 0 l0 -21.5 -22 0 -22 0 0 21.5 0 21.5 22 0 22 0 0 -21.5z"/>
  <path d="M764 217 l0 -22 -22 0 -22 0 0 -65.5 0 -65.5 22 0 22 0 0 22 0 22 43.5 0 43.5 0 0 21.5 0 21.5 -21.5 0 -21.5 0 0 44 0 44 -22 0 -22 0 0 -22z"/>
  <path d="M1989 217 l0 -22 22 0 22 0 0 -22 0 -22 -22 0 -22 0 0 -21.5 0 -21.5 22 0 22 0 0 -22 0 -22 21.5 0 21.5 0 0 22 0 22 -21.5 0 -21.5 0 0 21.5 0 21.5 21.5 0 21.5 0 0 44 0 44 -43.5 0 -43.5 0 0 -22z"/>
  <path d="M501 173 l0 -22 22 0 22 0 0 22 0 22 -22 0 -22 0 0 -22z"/>
  <path d="M1158 173 l0 -22 21.5 0 21.5 0 0 -21.5 0 -21.5 22 0 22 0 0 21.5 0 21.5 22 0 22 0 0 22 0 22 -65.5 0 -65.5 0 0 -22z"/>
  <path d="M64 173.5 l0 -109.5 109.5 0 109.5 0 0 109.5 0 109.5 -109.5 0 -109.5 0 0 -109.5z m175 0 l0 -65.5 -65.5 0 -65.5 0 0 65.5 0 65.5 65.5 0 65.5 0 0 -65.5z"/>
  <path d="M2251 173.5 l0 -109.5 109.5 0 109.5 0 0 109.5 0 109.5 -109.5 0 -109.5 0 0 -109.5z m175 0 l0 -65.5 -65.5 0 -65.5 0 0 65.5 0 65.5 65.5 0 65.5 0 0 -65.5z"/>
 </g>
</svg>
