<?xml version="1.0" encoding="iso-8859-1"?>
<!-- Generator: Adobe Illustrator 16.0.0, SVG Export Plug-In . SVG Version: 6.00 Build 0)  -->
<!DOCTYPE svg PUBLIC "-//W3C//DTD SVG 1.1//EN" "http://www.w3.org/Graphics/SVG/1.1/DTD/svg11.dtd">
<svg version="1.1" id="Capa_1" xmlns="http://www.w3.org/2000/svg" xmlns:xlink="http://www.w3.org/1999/xlink" x="0px" y="0px"
	 width="485.213px" height="485.212px" viewBox="0 0 485.213 485.212" style="enable-background:new 0 0 485.213 485.212;"
	 xml:space="preserve">
<g>
	<g>
		<path d="M224.274,240.756c-41.43-8.485-72.646-45.149-72.646-89.127c0-33.302,18.094-62.1,44.778-77.959
			c8.499,18.316,25.856,37.031,49.753,50.848c31.332,18.078,64.558,22.535,86.119,13.903c0.653,4.354,1.307,8.679,1.307,13.208
			c0,43.978-31.162,80.643-72.619,89.127c58.222-8.9,102.941-58.74,102.941-119.452C363.908,54.315,309.598,0,242.606,0
			c-66.961,0-121.302,54.315-121.302,121.304C121.304,182.016,166.08,231.855,224.274,240.756z"/>
		<path d="M333.586,272.93h-15.163c0,41.878-33.943,75.817-75.816,75.817c-41.875,0-75.812-33.939-75.812-75.817h-15.166
			c-50.227,0-90.978,40.726-90.978,90.976v90.98c0,16.764,13.565,30.326,30.327,30.326h303.258
			c16.759,0,30.326-13.562,30.326-30.326v-90.98C424.562,313.656,383.869,272.93,333.586,272.93z"/>
	</g>
</g>
<g>
</g>
<g>
</g>
<g>
</g>
<g>
</g>
<g>
</g>
<g>
</g>
<g>
</g>
<g>
</g>
<g>
</g>
<g>
</g>
<g>
</g>
<g>
</g>
<g>
</g>
<g>
</g>
<g>
</g>
</svg>
