<svg width="56" height="56" viewBox="0 0 56 56" fill="none" xmlns="http://www.w3.org/2000/svg">
<path fill-rule="evenodd" clip-rule="evenodd" d="M36.75 54.2227C36.75 50.3567 33.616 47.2227 29.75 47.2227H21C21 43.3567 17.866 40.2227 14 40.2227H1.75V54.2227H36.75Z" stroke="#0014D1" stroke-width="2" stroke-linecap="round" stroke-linejoin="round"/>
<path d="M14 47.2227H21" stroke="#0014D1" stroke-width="2" stroke-linecap="round" stroke-linejoin="round"/>
<path d="M26.25 40.2227H49C49.9665 40.2227 50.75 39.4392 50.75 38.4727V22.7227" stroke="#0014D1" stroke-width="2" stroke-linecap="round" stroke-linejoin="round"/>
<path d="M19.25 22.7227V33.2227" stroke="#0014D1" stroke-width="2" stroke-linecap="round" stroke-linejoin="round"/>
<path fill-rule="evenodd" clip-rule="evenodd" d="M15.75 15.4727C15.75 14.6442 16.4216 13.9727 17.25 13.9727H52.75C53.5784 13.9727 54.25 14.6442 54.25 15.4727V21.2227C54.25 22.0511 53.5784 22.7227 52.75 22.7227H17.25C16.4216 22.7227 15.75 22.0511 15.75 21.2227V15.4727Z" stroke="#0014D1" stroke-width="2" stroke-linecap="round" stroke-linejoin="round"/>
<path d="M35 40.2227V13.9727" stroke="#0014D1" stroke-width="2" stroke-linecap="round" stroke-linejoin="round"/>
<path fill-rule="evenodd" clip-rule="evenodd" d="M44.9527 9.02326C42.0204 11.3228 38.6537 13.0061 35.0547 13.9723C36.0208 10.3733 37.7042 7.00656 40.0037 4.07426C43.0814 0.998924 44.8244 1.47026 46.201 2.83759C47.5777 4.20492 48.0304 5.94792 44.9527 9.02326Z" stroke="#0014D1" stroke-width="2" stroke-linecap="round" stroke-linejoin="round"/>
<path fill-rule="evenodd" clip-rule="evenodd" d="M25.0472 9.02326C27.9798 11.3223 31.3464 13.0057 34.9452 13.9723C33.9802 10.3728 32.2967 7.00594 29.9962 4.07426C26.9209 0.998924 25.1779 1.47026 23.8012 2.83759C22.4245 4.20492 21.9719 5.94792 25.0472 9.02326Z" stroke="#0014D1" stroke-width="2" stroke-linecap="round" stroke-linejoin="round"/>
</svg>
