<svg width="44" height="44" viewBox="0 0 44 44" fill="none" xmlns="http://www.w3.org/2000/svg">
<rect width="43.2" height="43.2" rx="21.6" fill="#0014D1"/>
<path fill-rule="evenodd" clip-rule="evenodd" d="M22.05 12.5996C19.7276 12.5996 19.4364 12.6092 18.5247 12.6509C17.6147 12.6926 16.9932 12.8369 16.4497 13.0485C15.8871 13.267 15.4104 13.5593 14.9353 14.0349C14.4597 14.51 14.1674 14.9867 13.9489 15.5494C13.7373 16.0928 13.593 16.7143 13.5518 17.6243C13.5102 18.5365 13.5 18.8272 13.5 21.1496C13.5 23.4715 13.5102 23.7627 13.5518 24.6749C13.593 25.5849 13.7373 26.2064 13.9489 26.7499C14.1674 27.3126 14.4597 27.7892 14.9353 28.2643C15.4104 28.7399 15.8871 29.0322 16.4497 29.2507C16.9932 29.4623 17.6147 29.6066 18.5247 29.6483C19.4364 29.6895 19.7276 29.6996 22.05 29.6996C24.3724 29.6996 24.6636 29.6895 25.5753 29.6483C26.4853 29.6066 27.1068 29.4623 27.6503 29.2507C28.2129 29.0322 28.6896 28.7399 29.1647 28.2643C29.6403 27.7892 29.9326 27.3126 30.1511 26.7499C30.3627 26.2064 30.507 25.5849 30.5482 24.6749C30.5898 23.7627 30.6 23.4715 30.6 21.1496C30.6 18.8272 30.5898 18.5365 30.5482 17.6243C30.507 16.7143 30.3627 16.0928 30.1511 15.5494C29.9326 14.9867 29.6403 14.51 29.1647 14.0349C28.6896 13.5593 28.2129 13.267 27.6503 13.0485C27.1068 12.8369 26.4853 12.6926 25.5753 12.6509C24.6636 12.6092 24.3724 12.5996 22.05 12.5996ZM22.0485 14.1406C24.3313 14.1406 24.6017 14.1492 25.5037 14.1903C26.3368 14.2283 26.7894 14.3677 27.0914 14.4848C27.4905 14.6397 27.7748 14.8252 28.0741 15.1244C28.3733 15.4237 28.5587 15.7085 28.7137 16.1071C28.8307 16.4085 28.9702 16.8617 29.0076 17.6953C29.0493 18.5968 29.0579 18.8672 29.0579 21.15C29.0579 23.4329 29.0493 23.7033 29.0076 24.6048C28.9702 25.4384 28.8307 25.8915 28.7137 26.1929C28.5587 26.5916 28.3733 26.8764 28.0741 27.1756C27.7748 27.4749 27.4905 27.6603 27.0914 27.8153C26.7894 27.9323 26.3368 28.0718 25.5037 28.1097C24.6017 28.1509 24.3313 28.1594 22.0485 28.1594C19.7656 28.1594 19.4952 28.1509 18.5932 28.1097C17.7601 28.0718 17.3075 27.9323 17.0056 27.8153C16.6064 27.6603 16.3221 27.4749 16.0228 27.1756C15.7236 26.8764 15.5382 26.5916 15.3832 26.1929C15.2662 25.8915 15.1267 25.4384 15.0893 24.6048C15.0476 23.7033 15.0391 23.4329 15.0391 21.15C15.0391 18.8672 15.0476 18.5968 15.0893 17.6953C15.1267 16.8617 15.2662 16.4085 15.3832 16.1071C15.5382 15.7085 15.7236 15.4237 16.0228 15.1244C16.3221 14.8252 16.6064 14.6397 17.0056 14.4848C17.3075 14.3677 17.7601 14.2283 18.5932 14.1903C19.4952 14.1492 19.7656 14.1406 22.0485 14.1406ZM22.049 23.999C20.4753 23.999 19.1992 22.7229 19.1992 21.1492C19.1992 19.5749 20.4753 18.2988 22.049 18.2988C23.6228 18.2988 24.8989 19.5749 24.8989 21.1492C24.8989 22.7229 23.6228 23.999 22.049 23.999ZM22.0506 16.7588C19.6256 16.7588 17.6602 18.7248 17.6602 21.1497C17.6602 23.5742 19.6256 25.5402 22.0506 25.5402C24.4756 25.5402 26.441 23.5742 26.441 21.1497C26.441 18.7248 24.4756 16.7588 22.0506 16.7588ZM26.6158 17.6116C27.1828 17.6116 27.6418 17.1525 27.6418 16.5856C27.6418 16.0186 27.1828 15.5596 26.6158 15.5596C26.0494 15.5596 25.5898 16.0186 25.5898 16.5856C25.5898 17.1525 26.0494 17.6116 26.6158 17.6116Z" fill="white"/>
</svg>
