<svg width="44" height="44" viewBox="0 0 44 44" fill="none" xmlns="http://www.w3.org/2000/svg">
<rect x="0.200195" width="43.2" height="43.2" rx="21.6" fill="white"/>
<path fill-rule="evenodd" clip-rule="evenodd" d="M27.9321 12H14.6691C13.0844 12 11.7998 13.2846 11.7998 14.8693V28.1308C11.7998 29.7155 13.0844 31 14.6691 31H27.932C29.5167 31 30.8013 29.7154 30.8013 28.1308V14.8694C30.8014 13.2847 29.5167 12 27.9321 12ZM17.5473 19.3572V27.9498H14.6915V19.3572H17.5473ZM17.7341 16.6994C17.7341 17.5241 17.1137 18.1839 16.1185 18.1839H16.0996C15.1409 18.1839 14.5213 17.5241 14.5213 16.6994C14.5213 15.8564 15.1599 15.2149 16.1372 15.2149C17.1137 15.2149 17.7156 15.8564 17.7341 16.6994ZM21.9827 27.9498H19.1264C19.1264 27.9498 19.1643 20.1634 19.1264 19.3573H21.9827V20.573C22.3622 19.9876 23.0418 19.1555 24.5563 19.1555C26.4356 19.1555 27.8442 20.3835 27.8442 23.0228V27.9498H24.9885V23.3528C24.9885 22.1979 24.5754 21.4097 23.5418 21.4097C22.7531 21.4097 22.2828 21.9409 22.0768 22.4543C22.0013 22.6378 21.9827 22.8945 21.9827 23.1514V27.9498Z" fill="#0014D1"/>
</svg>
