<svg width="56" height="56" viewBox="0 0 56 56" fill="none" xmlns="http://www.w3.org/2000/svg">
<path fill-rule="evenodd" clip-rule="evenodd" d="M35 19.2734C37.8995 19.2734 40.25 16.9229 40.25 14.0234C40.25 11.1239 37.8995 8.77344 35 8.77344C32.1005 8.77344 29.75 11.1239 29.75 14.0234C29.75 16.9229 32.1005 19.2734 35 19.2734Z" stroke="#0014D1" stroke-width="2" stroke-linecap="round" stroke-linejoin="round"/>
<path d="M35 21.0234C39.8325 21.0234 43.75 24.9409 43.75 29.7734" stroke="#0014D1" stroke-width="2" stroke-linecap="round" stroke-linejoin="round"/>
<path d="M5.25 10.5234V5.27344C5.25 3.34044 6.817 1.77344 8.75 1.77344H50.75C52.683 1.77344 54.25 3.34044 54.25 5.27344V33.2734C54.25 35.2064 52.683 36.7734 50.75 36.7734H33.25" stroke="#0014D1" stroke-width="2" stroke-linecap="round" stroke-linejoin="round"/>
<path d="M40.25 36.7734V43.7734" stroke="#0014D1" stroke-width="2" stroke-linecap="round" stroke-linejoin="round"/>
<path d="M36.75 43.7734H45.5" stroke="#0014D1" stroke-width="2" stroke-linecap="round" stroke-linejoin="round"/>
<path d="M1.75 54.2734C1.75 45.575 8.80152 38.5234 17.5 38.5234C26.1985 38.5234 33.25 45.575 33.25 54.2734" stroke="#0014D1" stroke-width="2" stroke-linecap="round" stroke-linejoin="round"/>
<path fill-rule="evenodd" clip-rule="evenodd" d="M17.5 35.0234C22.8157 35.0234 27.125 30.7142 27.125 25.3984C27.125 20.0827 22.8157 15.7734 17.5 15.7734C12.1843 15.7734 7.875 20.0827 7.875 25.3984C7.875 30.7142 12.1843 35.0234 17.5 35.0234Z" stroke="#0014D1" stroke-width="2" stroke-linecap="round" stroke-linejoin="round"/>
</svg>
