<svg width="57" height="56" viewBox="0 0 57 56" fill="none" xmlns="http://www.w3.org/2000/svg">
<path d="M22 54.8334H1.02002C1.02002 54.8334 1.02002 43.6081 1.02002 43.251C1.02002 43.251 0.974976 41.7351 1.02002 40.8336V19.033V16.3334H41.8333V19.033" stroke="#0014D1" stroke-width="2" stroke-linecap="round" stroke-linejoin="round"/>
<path d="M30.5374 9.46637C29.7468 5.33694 26.1411 2.34659 21.9367 2.33337V2.33337C17.7542 2.35172 14.1652 5.31781 13.3594 9.42204" stroke="#0014D1" stroke-width="2" stroke-linecap="round" stroke-linejoin="round"/>
<path fill-rule="evenodd" clip-rule="evenodd" d="M50.6359 32.7195H31.7242C30.7849 32.6812 29.9623 33.344 29.7999 34.2699L27.1199 52.9163C27.0918 53.434 27.2861 53.9391 27.6538 54.3046C28.0216 54.6701 28.5279 54.8612 29.0455 54.8299H53.3146C53.8321 54.8612 54.3383 54.6701 54.7058 54.3046C55.0734 53.939 55.2674 53.4339 55.2389 52.9163L52.5589 34.2699C52.3965 33.3445 51.5747 32.6819 50.6359 32.7195Z" stroke="#0014D1" stroke-width="2" stroke-linecap="round" stroke-linejoin="round"/>
<path d="M46.0957 28.776C45.6417 26.4045 43.571 24.6872 41.1564 24.6796V24.6796C38.7544 24.6901 36.6932 26.3935 36.2305 28.7506" stroke="#0014D1" stroke-width="2" stroke-linecap="round" stroke-linejoin="round"/>
</svg>
