<svg width="56" height="56" viewBox="0 0 56 56" fill="none" xmlns="http://www.w3.org/2000/svg">
<path fill-rule="evenodd" clip-rule="evenodd" d="M7 4.75C7 3.09314 8.34315 1.75 10 1.75H46C47.6569 1.75 49 3.09315 49 4.75V47.75C49 49.4069 47.6569 50.75 46 50.75H10C8.34315 50.75 7 49.4069 7 47.75V4.75Z" stroke="#0014D1" stroke-width="2" stroke-linecap="round" stroke-linejoin="round"/>
<path d="M10.5 50.75V54.25" stroke="#0014D1" stroke-width="2" stroke-linecap="round" stroke-linejoin="round"/>
<path d="M45.5 50.75V54.25" stroke="#0014D1" stroke-width="2" stroke-linecap="round" stroke-linejoin="round"/>
<path d="M28 50.75V1.75" stroke="#0014D1" stroke-width="2" stroke-linecap="round" stroke-linejoin="round"/>
<path d="M21 25.375C21.4832 25.375 21.875 25.7668 21.875 26.25C21.875 26.7332 21.4832 27.125 21 27.125C20.5168 27.125 20.125 26.7332 20.125 26.25C20.125 25.7668 20.5168 25.375 21 25.375" stroke="#0014D1" stroke-width="2" stroke-linecap="round" stroke-linejoin="round"/>
<path d="M35 25.375C35.4832 25.375 35.875 25.7668 35.875 26.25C35.875 26.7332 35.4832 27.125 35 27.125C34.5168 27.125 34.125 26.7332 34.125 26.25C34.125 25.7668 34.5168 25.375 35 25.375" stroke="#0014D1" stroke-width="2" stroke-linecap="round" stroke-linejoin="round"/>
</svg>
