<svg width="56" height="56" viewBox="0 0 56 56" fill="none" xmlns="http://www.w3.org/2000/svg">
<path fill-rule="evenodd" clip-rule="evenodd" d="M40.25 18.4811L38.444 11.6715C38.1863 10.7301 37.2972 10.0757 36.2833 10.0811H31.3413C31.3413 11.8526 29.8454 13.2888 28 13.2888C26.1546 13.2888 24.6587 11.8526 24.6587 10.0811H19.7167C18.7028 10.0757 17.8137 10.7301 17.556 11.6715L15.75 18.4811H21V26.8811H35V18.4811H40.25Z" stroke="#0014D1" stroke-width="2" stroke-linecap="round" stroke-linejoin="round"/>
<path d="M17.5 52.0811H38.5" stroke="#0014D1" stroke-width="2" stroke-linecap="round" stroke-linejoin="round"/>
<path d="M1.75 33.6011H54.25" stroke="#0014D1" stroke-width="2" stroke-linecap="round" stroke-linejoin="round"/>
<path fill-rule="evenodd" clip-rule="evenodd" d="M1.75 4.68018C1.75 3.02332 3.09315 1.68018 4.75 1.68018H51.25C52.9069 1.68018 54.25 3.02332 54.25 4.68018V39.0002C54.25 40.657 52.9069 42.0002 51.25 42.0002H4.75C3.09315 42.0002 1.75 40.657 1.75 39.0002V4.68018Z" stroke="#0014D1" stroke-width="2" stroke-linecap="round" stroke-linejoin="round"/>
<path d="M28 52.08V42" stroke="#0014D1" stroke-width="2" stroke-linecap="round" stroke-linejoin="round"/>
</svg>
