<?xml version="1.0" standalone="no"?>
<!DOCTYPE svg PUBLIC "-//W3C//DTD SVG 20010904//EN"
 "http://www.w3.org/TR/2001/REC-SVG-20010904/DTD/svg10.dtd">
<svg version="1.0" xmlns="http://www.w3.org/2000/svg"
 width="626.000000pt" height="626.000000pt" viewBox="0 0 626.000000 626.000000"
 preserveAspectRatio="xMidYMid meet">
<metadata>
Created by potrace 1.11, written by Peter Selinger 2001-2013
</metadata>
<g transform="translate(0.000000,626.000000) scale(0.100000,-0.100000)"
fill="#000000" stroke="none">
<path d="M2883 6210 c-862 -84 -1619 -515 -2140 -1220 -439 -593 -655 -1361
-592 -2107 32 -389 132 -754 298 -1098 170 -352 361 -617 634 -881 465 -450
1003 -715 1657 -817 195 -30 605 -30 800 0 881 137 1603 601 2093 1343 106
161 258 466 321 642 246 687 246 1450 0 2136 -102 284 -309 653 -501 892 -93
117 -298 326 -413 422 -427 359 -932 586 -1485 668 -160 24 -520 34 -672 20z
m427 -1008 c155 -51 299 -172 368 -311 52 -103 66 -171 60 -292 -4 -85 -9
-106 -40 -171 -46 -97 -119 -173 -243 -256 -58 -40 -107 -80 -118 -99 -10 -18
-21 -61 -24 -101 l-6 -68 1054 -660 c1105 -691 1138 -713 1189 -814 40 -79 61
-153 67 -240 10 -150 -38 -278 -143 -386 -65 -66 -167 -123 -254 -143 -30 -7
-723 -11 -2095 -11 -2259 0 -2098 -4 -2235 62 -76 37 -162 119 -203 195 -15
28 -36 86 -47 129 -49 189 -4 372 120 493 43 42 314 217 1097 711 l1040 654 6
151 c9 238 24 264 236 410 160 109 176 131 169 223 -4 49 -9 60 -41 87 -107
92 -315 68 -376 -44 -19 -35 -26 -65 -30 -141 -4 -60 -11 -103 -20 -114 -40
-49 -262 -62 -346 -21 l-40 20 -3 83 c-8 217 71 406 225 541 53 48 162 104
243 126 82 22 304 15 390 -13z"/>
<path d="M2114 2875 c-549 -344 -1007 -635 -1016 -646 -20 -24 -23 -70 -8
-100 28 -52 -87 -49 2034 -49 1224 0 1974 4 1990 10 49 18 76 99 46 135 -15
18 -2024 1275 -2037 1275 -5 0 -459 -281 -1009 -625z"/>
</g>
</svg>
