<?xml version="1.0" encoding="UTF-8"?>
<svg width="500" height="100" viewBox="0 0 132 28" xmlns="http://www.w3.org/2000/svg">
<g transform="translate(0 -266)">
<g fill="#e73741" aria-label="Martina Steinke">
<path d="m17.759 292.99q-0.0124 0-0.39688-0.062-0.37207-0.0496-0.94258-0.29765-0.5581-0.23565-1.2154-0.71934-0.64492-0.47129-1.203-1.3146-0.5581-0.84336-0.93018-2.1084-0.37207-1.2774-0.37207-3.0882 0-0.68213 0.07441-1.6247 0.07441-0.95498 0.19844-2.034 0.13642-1.079 0.28525-2.2324 0.16123-1.1534 0.32246-2.2448 0.17363-1.0914 0.32246-2.0712 0.16123-0.97978 0.27285-1.7115-0.14883 0.59531-0.33486 1.3022-0.17363 0.69454-0.37207 1.4759-0.19844 0.76895-0.40928 1.5875-0.19844 0.81856-0.40928 1.6371-0.21084 0.84336-0.47129 1.7611-0.26045 0.90537-0.58291 1.7983-0.32246 0.88057-0.70693 1.6867-0.38447 0.79375-0.85576 1.4015-0.47129 0.60771-1.017 0.96738t-1.1906 0.35967q-0.35967 0-0.68213-0.13643-0.32246-0.13642-0.57051-0.45888-0.23564-0.33487-0.38447-0.88057-0.13643-0.55811-0.13643-1.4015 0-0.4961 0.037207-1.203 0.049609-0.71934 0.11162-1.5627 0.074414-0.85576 0.16123-1.8107 0.099219-0.95498 0.19844-1.9224 0.099219-0.97979 0.19844-1.9348 0.099219-0.95498 0.18604-1.8231-0.32246 1.3146-0.76895 3.2742-0.44648 1.9596-0.99219 4.3904-0.45889 2.0464-0.96738 3.6339-0.49609 1.5751-0.99219 2.7657-0.48369 1.1782-0.93018 1.9844-0.44648 0.81855-0.79375 1.3146-0.33486 0.50849-0.5457 0.73174-0.21084 0.23564-0.21084 0.24804l-0.43408-0.23564q0-0.0124 0.21084-0.39688 0.22324-0.37207 0.57051-1.0542 0.34727-0.68212 0.79375-1.6371 0.44648-0.96739 0.91777-2.1332t0.94258-2.5177q0.47129-1.3519 0.85576-2.8277 0.55811-2.0836 0.99219-3.8571 0.44648-1.7735 0.75654-3.0634 0.31006-1.3022 0.47129-2.034 0.17363-0.73174 0.17363-0.74414l0.48369 0.0496q0 0.0248-0.012402 0.58291 0 0.5581-0.012402 1.4511 0 0.89297-0.012402 2.0216 0 1.1162-0.012402 2.2572 0 1.141-0.012402 2.1952 0 1.0418 0 1.7983 0 0.86816 0.062012 1.5875 0.074414 0.70693 0.22324 1.2154 0.16123 0.49609 0.39688 0.76894t0.57051 0.27285q0.27285 0 0.64492-0.35966 0.38447-0.37208 0.83096-1.1906 0.45889-0.83096 0.95498-2.1704 0.5085-1.3394 1.0418-3.299 0.18604-0.66973 0.40928-1.4883 0.23564-0.81856 0.5085-1.848 0.27285-1.0418 0.58291-2.3192 0.32246-1.2774 0.68213-2.8525l0.48369 0.0744q-0.24805 2.9766-0.47129 5.9283-0.21084 2.9394-0.21084 5.9159 0 2.2448 0.24805 3.9067 0.24805 1.6619 0.73174 2.8401 0.48369 1.1658 1.1906 1.8976 0.71934 0.74415 1.6619 1.1286z"/>
<path d="m27.669 283.77q-0.5085 1.3767-0.93018 2.3068-0.40928 0.93017-0.80615 1.5007-0.38447 0.57051-0.76894 0.81856-0.38447 0.24804-0.84336 0.24804-0.55811 0-0.95498-0.38447-0.39688-0.39687-0.49609-1.2154-0.39688 0.85576-1.0294 1.4015-0.63252 0.5333-1.5875 0.5333-0.5085 0-0.97978-0.18604-0.45889-0.18603-0.81856-0.57051-0.35967-0.39687-0.58291-0.99218-0.21084-0.59532-0.21084-1.4015 0-0.81855 0.19844-1.5379 0.21084-0.71933 0.5457-1.3146 0.33486-0.60771 0.76894-1.079 0.44648-0.47129 0.91777-0.79375t0.94258-0.49609q0.47129-0.17364 0.86816-0.17364 0.34726 0 0.66973 0.0868t0.57051 0.28525q0.26045 0.18604 0.40928 0.5085 0.16123 0.32246 0.16123 0.80615 0 0.57051-0.22324 0.99219-0.21084 0.42168-0.5209 0.70693-0.29766 0.28526-0.62012 0.45889-0.31006 0.17363-0.49609 0.24805l-0.14883-0.4837q0.03721 0 0.27285-0.0992 0.24805-0.0992 0.5085-0.32246 0.27285-0.23565 0.49609-0.59532 0.22324-0.35967 0.22324-0.88056 0-0.59532-0.33486-0.90537-0.33486-0.32247-0.85576-0.32247-0.39688 0-0.93018 0.28526-0.5333 0.28525-1.0294 0.89297-0.48369 0.60771-0.83096 1.5379-0.33486 0.93017-0.33486 2.22 0 1.2774 0.44648 1.9472 0.45889 0.66973 1.2278 0.66973 0.38447 0 0.73174-0.21084 0.35967-0.22324 0.65732-0.58291t0.5333-0.83096q0.23564-0.48369 0.40928-0.99218 0-0.39688 0.08682-0.93018 0.09922-0.5457 0.29766-1.1038l0.75654 0.24805q-0.06201 0.16123-0.12402 0.42168-0.06201 0.26045-0.12402 0.57051-0.04961 0.31006-0.08682 0.64492-0.03721 0.32246-0.03721 0.63252 0 0.96738 0.18604 1.3394 0.19844 0.35967 0.66973 0.35967 0.27285 0 0.5333-0.19844 0.27285-0.19844 0.58291-0.69453 0.31006-0.49609 0.68213-1.3394 0.37207-0.85576 0.86816-2.158z"/>
<path d="m27.904 283.11q-0.12402 0.43408-0.24805 0.74414-0.12402 0.31006-0.27285 0.58291-0.14883 0.26045-0.33486 0.5085-0.17363 0.23564-0.39688 0.52089l-0.09922-0.0992q0.28525-0.73174 0.49609-1.3767 0.22324-0.64493 0.39688-1.2898-0.19844-0.28525-0.34727-0.70693-0.13643-0.43408-0.13643-1.0294 0-0.5333 0.16123-0.88056 0.17363-0.35967 0.44648-0.35967 0.14883 0 0.27285 0.13642 0.13642 0.13643 0.22324 0.35967 0.08682 0.22325 0.13643 0.5209 0.04961 0.28526 0.04961 0.60772 0 0.14882-0.02481 0.32246-0.0124 0.17363-0.03721 0.35967-0.0248 0.17363-0.06201 0.34726-0.03721 0.16123-0.07441 0.27285 0.07441 0.062 0.23564 0.11162 0.17363 0.0372 0.44648 0.0372 0.47129 0 0.83096-0.13643 0.35967-0.13642 0.57051-0.34726 0.18604-0.29766 0.28525-0.45889 0.11162-0.16123 0.17363-0.23564 0.06201-0.0868 0.08682-0.0992 0.03721-0.0248 0.08682-0.0248 0.13642 0 0.22324 0.0744 0.08682 0.0744 0.08682 0.21084 0 0.0372-0.03721 0.0992t-0.09922 0.16123q-0.5209 0.75654-0.81855 1.6619t-0.29766 2.0092q0 1.2774 0.40928 1.848 0.42168 0.57051 1.1906 0.57051 0.42168 0 0.80615-0.24805 0.38447-0.26045 0.75654-0.79375 0.37207-0.5457 0.74414-1.3891 0.38447-0.85576 0.81855-2.0588l0.48369 0.12402q-0.5333 1.5751-1.0046 2.5921-0.47129 1.0046-0.93018 1.5999-0.45889 0.58291-0.94258 0.81855-0.48369 0.22324-1.0542 0.22324-0.35967 0-0.74414-0.16123-0.38447-0.16123-0.70693-0.50849-0.31006-0.34727-0.5085-0.89297-0.19844-0.55811-0.19844-1.3395 0-0.38447 0.06201-0.79375 0.07441-0.42168 0.18604-0.80615 0.11162-0.39687 0.24805-0.75654 0.13643-0.37207 0.28525-0.66973-0.44648 0.21084-0.96738 0.21084-0.5085 0-0.85576-0.17363z"/>
<path d="m31.935 279.27q0.18604 0.11162 0.44648 0.26045 0.26045 0.14883 0.60772 0.28526 0.34727 0.13642 0.76895 0.26044 0.43408 0.11163 0.94258 0.16124 0.17363-1.1162 0.44648-2.0092 0.27285-0.90538 0.59531-1.5379 0.33486-0.64493 0.68213-0.97979 0.35967-0.34727 0.69453-0.34727 0.38447 0 0.5457 0.29766 0.16123 0.29766 0.16123 0.79375 0 0.35967-0.07441 0.79375t-0.19844 0.93018q-0.12402 0.48369-0.29766 1.017-0.17363 0.5209-0.35967 1.0418 1.2402-0.11163 2.282-0.40928 1.0542-0.29766 1.8231-0.60772l0.23564 0.45889q-1.017 0.38447-2.1084 0.69453-1.0914 0.29766-2.4433 0.37207-0.31006 0.80615-0.64492 1.5379-0.32246 0.71934-0.59531 1.2526 0.0124 0.69453 0.07441 1.5131 0.07441 0.80616 0.27285 1.5131 0.21084 0.70693 0.58291 1.1782 0.38447 0.47129 1.0046 0.47129 0.5209 0 0.95498-0.43408 0.43408-0.44648 0.79375-1.1162 0.37207-0.68213 0.68213-1.4883 0.31006-0.80615 0.58291-1.5255l0.48369 0.12402q-0.17363 0.44649-0.37207 1.0046-0.19844 0.55811-0.44648 1.141-0.24805 0.57051-0.5457 1.1162-0.29766 0.5333-0.65732 0.96738-0.35967 0.42168-0.79375 0.68213-0.43408 0.24805-0.94258 0.24805-0.5457 0-1.0294-0.24805-0.47129-0.24805-0.83096-0.88057-0.34727-0.64492-0.5581-1.7363-0.19844-1.1038-0.19844-2.8029 0-1.3643 0.14883-2.5425-1.0666-0.13643-1.7859-0.42168-0.73174-0.29766-1.1286-0.57051zm5.2586-3.2494q-0.11162 0-0.33486 0.22324-0.22324 0.22324-0.47129 0.73174-0.24805 0.49609-0.48369 1.3146-0.22324 0.80615-0.35967 1.9968h0.84336q0.22324-0.62011 0.38447-1.203 0.17363-0.58291 0.29766-1.079 0.12402-0.50849 0.18604-0.90537 0.06201-0.40927 0.06201-0.66972 0-0.40928-0.12402-0.40928zm-1.7487 6.5236q0.21084-0.43408 0.39688-0.86816 0.18604-0.44649 0.35967-0.90537h-0.70693q-0.0248 0.39687-0.03721 0.84336-0.0124 0.43408-0.0124 0.90537z"/>
<path d="m41.82 288.42q-0.78135 0-1.3022-0.63252-0.5085-0.63252-0.5085-1.91 0-0.84336 0.33486-2.1456 0.34727-1.3146 1.1906-2.9642l0.45889 0.12402q-0.07441 0.32246-0.24805 0.88057-0.16123 0.5581-0.33486 1.2526-0.16123 0.68213-0.28525 1.4387-0.12402 0.74415-0.12402 1.4387 0 0.58291 0.08682 0.95498 0.08682 0.35966 0.22324 0.5705 0.14883 0.19844 0.33486 0.27286 0.19844 0.0744 0.42168 0.0744 0.35967 0 0.68213-0.22324t0.60772-0.58291q0.29766-0.37207 0.5457-0.81856 0.26045-0.45888 0.45889-0.91777 0.21084-0.45889 0.37207-0.86816 0.16123-0.42168 0.26045-0.71934l0.48369 0.12402q-0.13642 0.37207-0.32246 0.86817-0.17363 0.48369-0.40928 1.0046-0.22324 0.5209-0.5085 1.017t-0.64492 0.89297q-0.35967 0.38447-0.80615 0.63252-0.43408 0.23564-0.96738 0.23564zm2.0092-11.559q0 0.43408-0.33486 0.66972-0.33486 0.23565-0.84336 0.23565-0.26045 0-0.49609-0.0744-0.22324-0.0868-0.39688-0.21083-0.16123-0.13643-0.26045-0.31006-0.08682-0.18604-0.08682-0.38448 0-0.42168 0.32246-0.68213 0.33486-0.26044 0.76894-0.26044 0.31006 0 0.5581 0.0992 0.24805 0.0868 0.42168 0.23565 0.17363 0.14883 0.26045 0.33486 0.08682 0.17364 0.08682 0.34727zm-0.66973 0q0-0.12403-0.11162-0.22324-0.09922-0.11163-0.31006-0.11163-0.38447 0-0.38447 0.28526 0 0.13642 0.11162 0.23564 0.12402 0.0868 0.32246 0.0868 0.18604 0 0.27285-0.0744 0.09922-0.0868 0.09922-0.19844z"/>
<path d="m44.995 283.65q0.18604-0.48369 0.39688-0.91777 0.22324-0.44649 0.47129-0.78135t0.5333-0.5333q0.29766-0.21084 0.65732-0.21084 0.17363 0 0.39688 0.0744t0.42168 0.29766q0.21084 0.22324 0.34727 0.64492 0.13642 0.42168 0.13642 1.1162 0 0.35967-0.03721 0.79375t-0.07441 0.85576q0.38447-0.81855 0.75654-1.3767 0.38447-0.57051 0.74414-0.90537 0.37207-0.34726 0.73174-0.49609 0.35967-0.16123 0.71934-0.16123 0.16123 0 0.37207 0.0744 0.22324 0.0744 0.40928 0.26045 0.19844 0.18604 0.32246 0.5085 0.13642 0.32246 0.13642 0.83095 0 0.40928-0.06201 0.81856t-0.13643 0.79375q-0.07441 0.38447-0.13643 0.73174-0.06201 0.33486-0.06201 0.59531 0 0.62012 0.22324 0.95498 0.22324 0.32246 0.68213 0.32246 0.37207 0 0.70693-0.27285 0.33486-0.28525 0.62012-0.71934 0.29766-0.43408 0.5333-0.95498 0.24805-0.5209 0.42168-0.99218 0.18604-0.4837 0.31006-0.84336 0.12402-0.37207 0.17363-0.5085l0.48369 0.12402q-0.17363 0.43409-0.37207 0.96739-0.18604 0.52089-0.42168 1.0542-0.23564 0.5333-0.5085 1.0418-0.27285 0.4961-0.60771 0.88057-0.33486 0.38447-0.73174 0.62012-0.38447 0.23564-0.85576 0.23564-0.39688 0-0.69453-0.14883-0.28525-0.16123-0.48369-0.42168-0.19844-0.26045-0.29766-0.62011-0.09922-0.35967-0.09922-0.76895 0-0.45889 0.07441-0.94258 0.08682-0.48369 0.17363-0.93017 0.09922-0.44649 0.17363-0.81856 0.08682-0.38447 0.08682-0.63252 0-0.38447-0.14883-0.57051-0.14883-0.19843-0.40928-0.19843-0.35967 0-0.70693 0.26045-0.33486 0.26044-0.65732 0.69453-0.31006 0.43408-0.59531 0.99218-0.28525 0.55811-0.5333 1.1534-0.23564 0.58291-0.44648 1.1658-0.19844 0.58291-0.34726 1.0542-0.14883 0.47129-0.26045 0.80615-0.09922 0.32247-0.13642 0.40928l-0.71934-0.12402q0.14883-0.73174 0.27285-1.5379 0.12402-0.81856 0.21084-1.5999 0.09922-0.79375 0.14883-1.5131 0.06201-0.71934 0.06201-1.2774 0-0.75655-0.09922-1.017-0.09922-0.27286-0.35967-0.27286-0.22324 0-0.42168 0.17364-0.19844 0.16123-0.37207 0.44648-0.16123 0.27285-0.32246 0.64492-0.16123 0.37207-0.31006 0.79375z"/>
<path d="m65.26 283.77q-0.5085 1.3767-0.93018 2.3068-0.40928 0.93017-0.80615 1.5007-0.38447 0.57051-0.76894 0.81856-0.38447 0.24804-0.84336 0.24804-0.55811 0-0.95498-0.38447-0.39688-0.39687-0.49609-1.2154-0.39688 0.85576-1.0294 1.4015-0.63252 0.5333-1.5875 0.5333-0.5085 0-0.97978-0.18604-0.45889-0.18603-0.81856-0.57051-0.35967-0.39687-0.58291-0.99218-0.21084-0.59532-0.21084-1.4015 0-0.81855 0.19844-1.5379 0.21084-0.71933 0.5457-1.3146 0.33486-0.60771 0.76894-1.079 0.44648-0.47129 0.91777-0.79375t0.94258-0.49609q0.47129-0.17364 0.86816-0.17364 0.34726 0 0.66973 0.0868t0.57051 0.28525q0.26045 0.18604 0.40928 0.5085 0.16123 0.32246 0.16123 0.80615 0 0.57051-0.22324 0.99219-0.21084 0.42168-0.5209 0.70693-0.29766 0.28526-0.62012 0.45889-0.31006 0.17363-0.49609 0.24805l-0.14883-0.4837q0.03721 0 0.27285-0.0992 0.24805-0.0992 0.5085-0.32246 0.27285-0.23565 0.49609-0.59532 0.22324-0.35967 0.22324-0.88056 0-0.59532-0.33486-0.90537-0.33486-0.32247-0.85576-0.32247-0.39688 0-0.93018 0.28526-0.5333 0.28525-1.0294 0.89297-0.48369 0.60771-0.83096 1.5379-0.33486 0.93017-0.33486 2.22 0 1.2774 0.44648 1.9472 0.45889 0.66973 1.2278 0.66973 0.38447 0 0.73174-0.21084 0.35967-0.22324 0.65732-0.58291t0.5333-0.83096q0.23564-0.48369 0.40928-0.99218 0-0.39688 0.08682-0.93018 0.09922-0.5457 0.29766-1.1038l0.75654 0.24805q-0.06201 0.16123-0.12402 0.42168-0.06201 0.26045-0.12402 0.57051-0.04961 0.31006-0.08682 0.64492-0.03721 0.32246-0.03721 0.63252 0 0.96738 0.18604 1.3394 0.19844 0.35967 0.66973 0.35967 0.27285 0 0.5333-0.19844 0.27285-0.19844 0.58291-0.69453 0.31006-0.49609 0.68213-1.3394 0.37207-0.85576 0.86816-2.158z"/>
<path d="m72.863 276.84q0 0.69453 0.28525 1.2526 0.28525 0.5457 0.76894 1.0046 0.48369 0.44648 1.1286 0.83096 0.65732 0.37207 1.3891 0.73173 0.73174 0.34727 1.5007 0.69454 0.78135 0.33486 1.5131 0.71933 0.73174 0.37207 1.3767 0.81856 0.65732 0.43408 1.141 0.97978 0.48369 0.5333 0.76894 1.203 0.28525 0.65732 0.28525 1.4883 0 1.5131-0.57051 2.6293-0.57051 1.1038-1.5255 1.8231-0.95498 0.73174-2.22 1.079-1.265 0.35966-2.6417 0.35966-1.2154 0-2.2944-0.32246-1.079-0.31006-1.8976-0.88056-0.81855-0.55811-1.3022-1.3519-0.47129-0.78135-0.47129-1.7115 0-0.81856 0.24805-1.3891 0.26045-0.58292 0.55811-0.95499 0.31006-0.37207 0.58291-0.5457 0.27285-0.17363 0.31006-0.18603l0.27285 0.58291q-0.02481 0.0124-0.23564 0.16123-0.21084 0.13642-0.45889 0.43408-0.23564 0.29766-0.44648 0.76894-0.19844 0.45889-0.19844 1.1286 0 0.66972 0.24805 1.203 0.26045 0.5209 0.68213 0.91778 0.43408 0.39687 0.97979 0.68213 0.5581 0.28525 1.1534 0.45888 0.59531 0.18604 1.1906 0.26045 0.59531 0.0868 1.1038 0.0868 1.3146 0 2.3812-0.33486 1.0666-0.32246 1.8107-0.90537 0.75654-0.57051 1.1658-1.3271 0.40928-0.76894 0.40928-1.6495 0-0.99218-0.42168-1.7115-0.42168-0.71934-1.1162-1.265-0.69453-0.55811-1.5875-0.99219-0.88057-0.44648-1.8107-0.86816-0.91777-0.42168-1.8107-0.88057-0.88057-0.47129-1.5751-1.079-0.69453-0.60772-1.1162-1.4015-0.42168-0.80615-0.42168-1.91 0-1.2278 0.40928-2.2448 0.42168-1.017 1.141-1.7487 0.73174-0.74414 1.7115-1.141 0.97978-0.40927 2.1208-0.40927 1.1534 0 2.0216 0.27285 0.86816 0.26045 1.4511 0.74414 0.59531 0.47129 0.88057 1.141 0.29766 0.66973 0.29766 1.4759 0 0.65733-0.16123 1.2898-0.14883 0.62011-0.33486 1.1162-0.18604 0.49609-0.34727 0.80615-0.16123 0.31006-0.17363 0.34726l-0.55811-0.31005q0-0.0124 0.13643-0.29766 0.14883-0.28525 0.32246-0.74414t0.31006-1.0294q0.14883-0.58291 0.14883-1.1782 0-0.66972-0.24805-1.2154-0.23564-0.5581-0.73174-0.94258-0.49609-0.38447-1.2526-0.59531t-1.7859-0.21084q-0.95498 0-1.7735 0.32246-0.81856 0.31006-1.4263 0.88057-0.59531 0.57051-0.94258 1.3518-0.34726 0.76895-0.34726 1.6867z"/>
<path d="m82.586 279.27q0.18604 0.11162 0.44648 0.26045t0.60772 0.28526q0.34726 0.13642 0.76894 0.26044 0.43408 0.11163 0.94258 0.16124 0.17363-1.1162 0.44648-2.0092 0.27285-0.90538 0.59531-1.5379 0.33486-0.64493 0.68213-0.97979 0.35967-0.34727 0.69453-0.34727 0.38447 0 0.5457 0.29766 0.16123 0.29766 0.16123 0.79375 0 0.35967-0.07441 0.79375t-0.19844 0.93018q-0.12402 0.48369-0.29766 1.017-0.17363 0.5209-0.35967 1.0418 1.2402-0.11163 2.282-0.40928 1.0542-0.29766 1.8231-0.60772l0.23564 0.45889q-1.017 0.38447-2.1084 0.69453-1.0914 0.29766-2.4433 0.37207-0.31006 0.80615-0.64492 1.5379-0.32246 0.71934-0.59531 1.2526 0.0124 0.69453 0.07441 1.5131 0.07441 0.80616 0.27285 1.5131 0.21084 0.70693 0.58291 1.1782 0.38447 0.47129 1.0046 0.47129 0.5209 0 0.95498-0.43408 0.43408-0.44648 0.79375-1.1162 0.37207-0.68213 0.68213-1.4883 0.31006-0.80615 0.58291-1.5255l0.48369 0.12402q-0.17363 0.44649-0.37207 1.0046-0.19844 0.55811-0.44648 1.141-0.24805 0.57051-0.5457 1.1162-0.29766 0.5333-0.65732 0.96738-0.35967 0.42168-0.79375 0.68213-0.43408 0.24805-0.94258 0.24805-0.5457 0-1.0294-0.24805-0.47129-0.24805-0.83096-0.88057-0.34727-0.64492-0.55811-1.7363-0.19844-1.1038-0.19844-2.8029 0-1.3643 0.14883-2.5425-1.0666-0.13643-1.7859-0.42168-0.73174-0.29766-1.1286-0.57051zm5.2586-3.2494q-0.11162 0-0.33486 0.22324t-0.47129 0.73174q-0.24805 0.49609-0.48369 1.3146-0.22324 0.80615-0.35967 1.9968h0.84336q0.22324-0.62011 0.38447-1.203 0.17363-0.58291 0.29766-1.079 0.12402-0.50849 0.18604-0.90537 0.06201-0.40927 0.06201-0.66972 0-0.40928-0.12402-0.40928zm-1.7487 6.5236q0.21084-0.43408 0.39688-0.86816 0.18604-0.44649 0.35967-0.90537h-0.70693q-0.02481 0.39687-0.03721 0.84336-0.0124 0.43408-0.0124 0.90537z"/>
<path d="m93.761 289.54q-0.63252 0-1.2154-0.22324t-1.0294-0.66973q-0.43408-0.45888-0.69453-1.141t-0.26045-1.5999q0-1.1162 0.32246-1.9844 0.32246-0.88057 0.81855-1.4759 0.5085-0.60771 1.1286-0.91777 0.62012-0.32246 1.2154-0.32246 0.76895 0 1.2154 0.50849 0.45889 0.5085 0.45889 1.3146 0 0.69453-0.26045 1.265-0.26045 0.55811-0.69453 0.96738-0.42168 0.39688-0.97978 0.62012-0.5457 0.22324-1.141 0.22324-0.28525 0-0.5457-0.0248-0.24805-0.0372-0.44648-0.0744 0.07441 0.76894 0.29766 1.327 0.22324 0.5581 0.55811 0.91777t0.74414 0.5333q0.42168 0.17363 0.86816 0.17363 0.55811 0 1.0294-0.27285t0.86816-0.70693q0.39688-0.44649 0.71934-1.017 0.33486-0.57051 0.59531-1.1534 0.26045-0.59531 0.45889-1.1534 0.21084-0.57051 0.37207-1.0046l0.48369 0.12402q-0.16123 0.40928-0.38447 0.99219-0.21084 0.58291-0.49609 1.2278-0.28525 0.63252-0.66973 1.2774-0.38447 0.63252-0.86816 1.141-0.48369 0.49609-1.1038 0.81855-0.60772 0.31006-1.3643 0.31006zm0.31006-7.8507q-0.45889 0-0.90537 0.29766-0.43408 0.28525-0.78135 0.79375-0.34726 0.50849-0.57051 1.203-0.21084 0.69453-0.21084 1.4883 0.16123 0.062 0.44648 0.11163 0.29766 0.0372 0.71934 0.0372 0.44648 0 0.88057-0.18603 0.44648-0.19844 0.79375-0.5333 0.35967-0.34727 0.57051-0.81856 0.22324-0.47129 0.22324-1.0294 0-0.27285-0.07441-0.5209t-0.22324-0.43408q-0.14883-0.18604-0.37207-0.29766-0.21084-0.11162-0.49609-0.11162z"/>
<path d="m99.578 288.42q-0.78135 0-1.3022-0.63252-0.5085-0.63252-0.5085-1.91 0-0.84336 0.33486-2.1456 0.34727-1.3146 1.1906-2.9642l0.45889 0.12402q-0.07441 0.32246-0.24805 0.88057-0.16123 0.5581-0.33486 1.2526-0.16123 0.68213-0.28525 1.4387-0.12402 0.74415-0.12402 1.4387 0 0.58291 0.08682 0.95498 0.08682 0.35966 0.22324 0.5705 0.14883 0.19844 0.33486 0.27286 0.19844 0.0744 0.42168 0.0744 0.35967 0 0.68213-0.22324t0.60771-0.58291q0.29766-0.37207 0.5457-0.81856 0.26045-0.45888 0.45889-0.91777 0.21084-0.45889 0.37207-0.86816 0.16123-0.42168 0.26045-0.71934l0.48369 0.12402q-0.13642 0.37207-0.32246 0.86817-0.17363 0.48369-0.40928 1.0046-0.22324 0.5209-0.50849 1.017-0.28526 0.49609-0.64492 0.89297-0.35967 0.38447-0.80616 0.63252-0.43408 0.23564-0.96738 0.23564zm2.0092-11.559q0 0.43408-0.33486 0.66972-0.33487 0.23565-0.84336 0.23565-0.26045 0-0.4961-0.0744-0.22324-0.0868-0.39688-0.21083-0.16123-0.13643-0.26045-0.31006-0.08682-0.18604-0.08682-0.38448 0-0.42168 0.32246-0.68213 0.33486-0.26044 0.76894-0.26044 0.31006 0 0.55811 0.0992 0.24804 0.0868 0.42168 0.23565 0.17363 0.14883 0.26044 0.33486 0.0868 0.17364 0.0868 0.34727zm-0.66973 0q0-0.12403-0.11162-0.22324-0.0992-0.11163-0.31006-0.11163-0.38447 0-0.38447 0.28526 0 0.13642 0.11162 0.23564 0.12403 0.0868 0.32246 0.0868 0.18604 0 0.27286-0.0744 0.0992-0.0868 0.0992-0.19844z"/>
<path d="m102.75 283.65q0.18604-0.48369 0.39688-0.91777 0.22324-0.44649 0.47129-0.78135t0.5333-0.5333q0.29766-0.21084 0.65732-0.21084 0.17364 0 0.39688 0.0744t0.42168 0.29766q0.21084 0.22324 0.34726 0.64492 0.13643 0.42168 0.13643 1.1162 0 0.35967-0.0372 0.79375t-0.0744 0.85576q0.38447-0.81855 0.75654-1.3767 0.38447-0.57051 0.74414-0.90537 0.37207-0.34726 0.73174-0.49609 0.35967-0.16123 0.71934-0.16123 0.16123 0 0.37207 0.0744 0.22324 0.0744 0.40927 0.26045 0.19844 0.18604 0.32246 0.5085 0.13643 0.32246 0.13643 0.83095 0 0.40928-0.062 0.81856t-0.13643 0.79375q-0.0744 0.38447-0.13642 0.73174-0.062 0.33486-0.062 0.59531 0 0.62012 0.22324 0.95498 0.22324 0.32246 0.68213 0.32246 0.37207 0 0.70693-0.27285 0.33486-0.28525 0.62012-0.71934 0.29765-0.43408 0.5333-0.95498 0.24804-0.5209 0.42168-0.99218 0.18603-0.4837 0.31006-0.84336 0.12402-0.37207 0.17363-0.5085l0.48369 0.12402q-0.17363 0.43409-0.37207 0.96739-0.18603 0.52089-0.42168 1.0542-0.23564 0.5333-0.5085 1.0418-0.27285 0.4961-0.60771 0.88057t-0.73174 0.62012q-0.38447 0.23564-0.85576 0.23564-0.39688 0-0.69453-0.14883-0.28526-0.16123-0.48369-0.42168-0.19844-0.26045-0.29766-0.62011-0.0992-0.35967-0.0992-0.76895 0-0.45889 0.0744-0.94258 0.0868-0.48369 0.17363-0.93017 0.0992-0.44649 0.17363-0.81856 0.0868-0.38447 0.0868-0.63252 0-0.38447-0.14883-0.57051-0.14883-0.19843-0.40928-0.19843-0.35967 0-0.70693 0.26045-0.33486 0.26044-0.65733 0.69453-0.31005 0.43408-0.59531 0.99218-0.28525 0.55811-0.5333 1.1534-0.23564 0.58291-0.44648 1.1658-0.19844 0.58291-0.34727 1.0542t-0.26045 0.80615q-0.0992 0.32247-0.13642 0.40928l-0.71934-0.12402q0.14883-0.73174 0.27285-1.5379 0.12403-0.81856 0.21084-1.5999 0.0992-0.79375 0.14883-1.5131 0.062-0.71934 0.062-1.2774 0-0.75655-0.0992-1.017-0.0992-0.27286-0.35966-0.27286-0.22325 0-0.42168 0.17364-0.19844 0.16123-0.37207 0.44648-0.16124 0.27285-0.32247 0.64492t-0.31005 0.79375z"/>
<path d="m117.81 274.47q0 0.88056-0.32246 1.9472-0.31006 1.0542-0.81856 2.2572-0.49609 1.203-1.1286 2.5053-0.62012 1.3022-1.2278 2.6665-0.0744 0.91777-0.16123 1.7363-0.0744 0.81855-0.14883 1.5131 0.18603-0.43408 0.42168-1.0046 0.24804-0.58291 0.5457-1.1906 0.29766-0.60772 0.64492-1.1906 0.35967-0.59531 0.75654-1.0542 0.40928-0.47129 0.85577-0.75654 0.45888-0.28525 0.96738-0.28525 0.34726 0 0.65732 0.14882 0.32246 0.14883 0.55811 0.40928 0.23564 0.24805 0.37207 0.58291 0.13642 0.33486 0.13642 0.70693 0 0.62012-0.28525 1.1038-0.28525 0.47129-0.73174 0.81856-0.43408 0.34726-0.97978 0.58291-0.54571 0.23564-1.0666 0.37207 0.0496 0.23564 0.21084 0.5581 0.16123 0.32246 0.42168 0.62012 0.27285 0.28525 0.64492 0.49609 0.37207 0.19844 0.83095 0.19844 0.96739 0 1.8232-1.1286 0.85576-1.141 1.6991-3.4354l0.48369 0.12402q-0.40928 1.1162-0.84336 2.0588-0.43408 0.93018-0.94258 1.6123-0.49609 0.68213-1.079 1.0666t-1.2774 0.38447q-0.27285 0-0.63252-0.0744-0.34727-0.0744-0.73174-0.31006-0.37207-0.24805-0.74414-0.69453-0.37207-0.44649-0.68213-1.203-0.0372-0.0744-0.0744-0.18604-0.0248-0.11162-0.0248-0.17363 0-0.23564 0.11162-0.32246 0.11162-0.0992 0.27286-0.13642 0.17363-0.0372 0.37207-0.0496 0.19843-0.0248 0.38447-0.0992 0.91777-0.35967 1.3518-1.0294 0.44649-0.68213 0.44649-1.5379 0-0.5457-0.23565-0.75654-0.23564-0.22324-0.5457-0.22324-0.24805 0-0.49609 0.13642-0.24805 0.12403-0.44649 0.31006-0.50849 0.5085-0.95498 1.1906-0.43408 0.66972-0.80615 1.4015-0.35967 0.71934-0.65732 1.4263-0.28526 0.69453-0.4961 1.2526-0.19844 0.5457-0.31006 0.89297-0.0992 0.34726-0.0992 0.34726l-0.48369-0.0744q-0.0124-0.13643-0.0124-0.33487-0.0124-0.17363-0.0124-0.40927 0-0.23565 0-0.55811 0-0.70693 0.0248-1.7363 0.0248-1.0418 0.0868-2.3192 0.0744-1.2898 0.19844-2.7905 0.13642-1.5007 0.34726-3.1378 0.17364-1.3394 0.44649-2.2572 0.28525-0.91778 0.63252-1.4759 0.34726-0.57051 0.73173-0.81856 0.38448-0.24804 0.78135-0.24804 0.32246 0 0.55811 0.12402 0.23564 0.12402 0.38447 0.34727 0.14883 0.21084 0.22324 0.49609 0.0744 0.28525 0.0744 0.60772zm-1.1162-1.0666q-0.31006 0-0.57051 0.35967-0.24805 0.35967-0.45889 0.99219t-0.39687 1.4883q-0.17364 0.84336-0.32246 1.8356-0.13643 0.97978-0.26045 2.0588-0.12403 1.0666-0.22325 2.1332 0.29766-0.64492 0.63252-1.3519 0.33487-0.70693 0.64493-1.4387 0.32246-0.73174 0.60771-1.4387 0.29766-0.71934 0.5085-1.3767 0.22324-0.65732 0.34726-1.2154 0.13643-0.5581 0.13643-0.97978 0-0.14883-0.0248-0.33487-0.0124-0.18603-0.0868-0.34726-0.062-0.16123-0.18604-0.27285-0.12402-0.11163-0.34726-0.11163z"/>
<path d="m125.23 289.54q-0.63252 0-1.2154-0.22324t-1.0294-0.66973q-0.43408-0.45888-0.69453-1.141t-0.26045-1.5999q0-1.1162 0.32246-1.9844 0.32246-0.88057 0.81856-1.4759 0.50849-0.60771 1.1286-0.91777 0.62012-0.32246 1.2154-0.32246 0.76894 0 1.2154 0.50849 0.45889 0.5085 0.45889 1.3146 0 0.69453-0.26045 1.265-0.26045 0.55811-0.69454 0.96738-0.42167 0.39688-0.97978 0.62012-0.5457 0.22324-1.141 0.22324-0.28525 0-0.5457-0.0248-0.24805-0.0372-0.44648-0.0744 0.0744 0.76894 0.29765 1.327 0.22325 0.5581 0.55811 0.91777t0.74414 0.5333q0.42168 0.17363 0.86816 0.17363 0.55811 0 1.0294-0.27285t0.86816-0.70693q0.39688-0.44649 0.71934-1.017 0.33486-0.57051 0.59531-1.1534 0.26045-0.59531 0.45889-1.1534 0.21084-0.57051 0.37207-1.0046l0.48369 0.12402q-0.16123 0.40928-0.38447 0.99219-0.21084 0.58291-0.4961 1.2278-0.28525 0.63252-0.66972 1.2774-0.38448 0.63252-0.86817 1.141-0.48369 0.49609-1.1038 0.81855-0.60771 0.31006-1.3642 0.31006zm0.31005-7.8507q-0.45888 0-0.90537 0.29766-0.43408 0.28525-0.78135 0.79375-0.34726 0.50849-0.5705 1.203-0.21084 0.69453-0.21084 1.4883 0.16123 0.062 0.44648 0.11163 0.29766 0.0372 0.71934 0.0372 0.44648 0 0.88056-0.18603 0.44649-0.19844 0.79375-0.5333 0.35967-0.34727 0.57051-0.81856 0.22324-0.47129 0.22324-1.0294 0-0.27285-0.0744-0.5209t-0.22324-0.43408q-0.14883-0.18604-0.37207-0.29766-0.21084-0.11162-0.4961-0.11162z"/>
</g>
</g>
</svg>
