<svg width="778" height="762" viewBox="0 0 778 762" fill="none" xmlns="http://www.w3.org/2000/svg">
<path d="M97.8293 75.148C98.0317 85.9929 99.1647 96.8606 97.4272 107.677C93.2072 134.074 80.7749 154.188 54.7063 164.088C46.6471 167.141 38.7037 170.435 31.2823 174.87C13.4443 185.521 8.47257 198.707 11.5616 219.523C14.6902 240.701 26.2002 258.426 33.2417 277.969C36.9483 288.296 36.5407 297.24 30.7759 306.326C24.2342 316.629 17.2215 326.664 11.2947 337.326C3.50342 351.333 -1.47797 365.856 0.983736 382.577C6.63345 421.017 78.4662 411.302 63.4144 505.56C61.326 518.672 58.9125 531.341 60.7998 544.571C62.8671 559.159 69.8113 570.443 83.6982 575.98C101.442 583.039 119.93 585.97 138.683 586.685C150.841 587.155 162.031 593.692 167.983 604.31C172.843 612.988 177.066 623.51 176.14 632.526C172.944 663.876 192.196 690.473 217.865 690.563C232.749 690.623 248.026 690.967 262.449 688.046C298.516 680.731 323.279 692.874 340.831 725.306C352.382 746.618 376.713 753.883 399.619 746.029C417.143 740.048 434.431 733.379 451.711 726.671C469.764 719.65 487.002 722.422 503.962 730.391C517.827 738.131 531.338 746.586 545.601 753.438C569.855 765.054 593.642 766.295 615.035 746.793C621.354 741.018 628.293 735.805 633.969 729.451C656.712 704.026 683.474 687.749 719.19 689.818C725.417 690.164 731.771 688.408 738.065 687.487C763.492 683.829 783.012 652.45 776.664 632.879C754.488 564.577 718.71 491.456 697.782 422.943C666.24 319.539 713.993 307.824 694.388 244.488C686.648 219.427 654.834 189.449 633.506 172.243C598.353 146.65 556.918 144.391 515.998 140.849C459.621 135.975 413.295 145.241 294.783 33.4263C290.507 29.3874 283.115 23.4602 277.929 20.6882C230.118 -4.85415 182.097 -5.84028 133.383 17.9585C109.202 29.7682 97.3609 48.4798 97.8708 75.2417L97.8293 75.148ZM656.589 212.303C656.589 212.303 656.559 212.35 656.528 212.398C656.511 212.32 656.478 212.265 656.46 212.187C656.508 212.218 656.532 212.233 656.58 212.263L656.589 212.303Z" fill="#FFC7B0"/>
</svg>
