<svg width="92" height="105" viewBox="0 0 92 105" fill="none" xmlns="http://www.w3.org/2000/svg">
<path d="M43.4292 98.2345C43.4813 98.14 43.53 98.0469 43.5724 97.9485C45.0676 94.4829 43.3316 91.1239 40.5593 89.1023C37.8679 87.1387 34.0839 87.9267 32.3324 90.7622C31.1133 92.736 29.8425 95.1256 29.5898 96.8324C29.517 97.3215 29.5413 97.8215 29.6897 98.2926C30.4728 100.744 32.4693 102.537 34.4966 103.799C39.2605 106.961 41.5247 101.653 43.4258 98.2359L43.4292 98.2345ZM53.0572 12.6949C53.0572 12.6949 54.2632 11.1807 54.7612 9.60651C55.4973 7.27186 55.4753 4.39222 50.9679 1.06853C50.2708 0.553784 48.6233 0.343425 47.2459 1.16316C44.7006 2.62504 43.4269 6.17707 41.6222 8.44452C41.4413 8.67025 41.2827 8.91059 41.1624 9.1748C41.1414 9.21989 41.1297 9.24898 41.1302 9.24073C39.254 12.8204 41.9611 17.4132 45.7972 16.8039C49.6332 16.1946 51.7165 14.6 53.0591 12.6901L53.0572 12.6949ZM64.2256 74.2845C64.2256 74.2845 64.2304 74.2864 64.2338 74.285L64.227 74.2879L64.2256 74.2845ZM61.8516 75.7055C56.3688 81.621 60.9029 94.3397 68.3085 86.7453C69.1611 85.8719 69.675 84.552 69.8255 84.283C73.9082 76.8906 69.2632 67.305 61.853 75.7089L61.8516 75.7055ZM29.0512 55.2215C34.0757 58.2888 42.7259 48.3843 36.5169 43.696C30.308 39.0076 23.3802 51.7586 29.0512 55.2215ZM30.7638 52.6437L30.7837 52.6433C30.7774 52.6379 30.7692 52.6374 30.7638 52.6437ZM88.7768 57.6794C88.5802 57.7833 89.472 57.1904 89.2739 57.2909C95.1813 51.741 86.6876 39.1057 80.9139 50.4088C80.835 50.5629 80.7784 50.7317 80.6912 50.8853C76.1006 59.0366 83.4464 62.6138 88.7754 57.676L88.7768 57.6794ZM47.8344 57.3425C39.1622 64.4518 50.2084 73.2193 56.0751 66.9234C61.9419 60.6274 56.5067 50.2332 47.8344 57.3425ZM77.0847 30.7761C81.0975 33.7399 84.6536 28.7214 86.8233 24.86C87.3749 23.8737 87.3904 22.6657 86.8412 21.6781C83.0696 14.935 74.8153 21.8944 75.7996 28.5791C75.9269 29.4531 76.3799 30.2526 77.0881 30.7746L77.0847 30.7761ZM59.3521 25.2302C59.1979 25.2075 59.0398 25.1944 58.8806 25.1979C53.4063 25.3358 46.458 36.9825 52.8407 40.1182C61.5841 46.4392 69.0607 26.672 59.3521 25.2302ZM30.6121 20.5476C25.9859 14.956 14.0127 32.2548 25.4668 32.9491C29.9511 32.9758 35.2383 26.1391 30.6121 20.5476ZM23.3455 70.3891C21.9006 65.319 8.57746 70.5117 12.1809 80.348C12.36 80.8343 12.6472 81.2825 13.0337 81.6242C18.7965 86.7356 25.4593 77.2276 23.7279 71.287C23.6798 71.1267 23.3922 70.546 23.3441 70.3857L23.3455 70.3891ZM11.8811 45.3215L11.7509 44.9591C9.28622 39.6724 2.82725 42.4757 0.88189 47.9292C0.827735 48.0848 0.783278 48.2444 0.751918 48.4064C-1.21746 58.4226 12.8885 55.5202 12.312 47.2474C12.2677 46.5873 12.1016 45.9428 11.8777 45.3229L11.8811 45.3215Z" fill="#0014D1"/>
</svg>
