<svg width="1025" height="905" viewBox="0 0 1025 905" fill="none" xmlns="http://www.w3.org/2000/svg">
<path d="M1024.34 109.353C1017.8 132.34 1010.71 156.082 1004.3 178.673C1002.28 184.499 1000.26 190.326 998.241 196.116L998.377 195.946C959.762 289.837 910.271 426.423 862.702 485.306C862.572 485.44 862.351 485.41 862.166 485.385C581.83 400.405 540.673 640.013 579.487 723.376C579.483 723.413 579.399 723.477 579.357 723.509C475.494 798.696 314.72 891.158 186.627 904.29C186.553 904.28 34.4656 779.876 4.2203 574.079C-15.4696 440.245 50.3135 307.504 140.701 206.942C157.817 187.897 174.85 168.917 191.553 150.155C193.852 147.566 196.389 145.159 199.08 142.998L199.033 143.067C423.357 -4.62589 615.238 -30.081 860.098 31.3109L884.146 36.9132C937.6 54.0324 978.711 73.107 1021.82 101.899L1021.83 101.788C1023.37 104.291 1024.93 106.345 1024.38 109.321L1024.34 109.353Z" fill="#CBC3F6"/>
</svg>
