<svg width="680" height="1191" viewBox="0 0 680 1191" fill="none" xmlns="http://www.w3.org/2000/svg">
<path d="M42.3155 685.991C47.7879 731.542 72.1744 763.563 110.511 787.348C139.996 805.647 168.62 825.396 198.208 843.603C250.619 880.275 231.298 912.059 176.117 924.288C142.91 931.092 109.244 934.815 75.9185 940.514C31.2242 948.136 9.31583 979.911 1.09294 1021.56C-3.72729 1046.05 10.5178 1065.01 26.2811 1082.08C37.6763 1094.43 51.9994 1102.41 67.3147 1109C231.247 1179.56 381.882 1189.76 408.13 1190.09C603.936 1192.56 607.685 1039.13 529.998 999.274C486.425 976.911 436.23 973.004 393.957 948.568C379.527 938.997 375.28 923.79 380.461 905.985C384.619 891.703 396.789 891.878 407.635 891.985C491.588 892.701 590.669 873.687 619.521 783.032C624.783 766.524 655.18 701.237 598.459 654.043C562.916 624.443 477.863 614.08 433.978 591.142C420.491 584.096 419.006 571.838 421.592 559.147C424.222 546.237 446.068 549.928 454.721 549.621C480.928 548.752 501.187 549.162 520.299 548.343C591.957 545.272 653.223 494.805 670.128 425.034C672.182 416.536 673.957 408.009 675.453 399.598C683.219 356.544 684.295 306.875 613.67 283.218C584.008 273.282 551.445 264.186 498.852 252.42C483.416 248.968 469.564 240.624 467.799 226.231C465.699 209.122 477.793 205.295 484.98 202.244C485.013 202.222 485.073 202.206 485.106 202.184C530.494 181.376 581.535 182.636 628.185 166.296C658.216 154.637 670.716 130.021 671.694 100.32C671.508 49.9976 523.026 10.7648 442.159 2.356C401.92 -1.82353 332.864 -4.32156 317.908 33.7524C296.647 87.8679 364.93 135.854 387.327 169.838C387.655 170.331 407.367 207.475 371.548 213.127C337.578 218.497 287.918 219.139 254.91 228.489C197.231 245.625 159.383 311.887 168.262 364.531C188.188 482.784 388.249 481.784 345.642 557.965C337.858 571.886 290.939 562.175 278.483 559.465C232.308 549.448 170.411 543.752 148.831 548.344C128.592 552.636 99.603 562.512 84.9346 578.548C57.2994 610.366 35.9118 641.392 42.2663 685.953L42.3155 685.991Z" fill="#BBE6E6"/>
</svg>
