<svg width="1011" height="841" viewBox="0 0 1011 841" fill="none" xmlns="http://www.w3.org/2000/svg">
<path d="M957.606 463.081C948.226 456.081 937.22 451.343 925.718 452.964C905.02 455.896 884.766 461.944 866.966 473.09C842.66 488.31 826.112 510.487 814.641 536.678C812.421 541.76 809.743 547.971 801.965 546.658C794.779 545.455 796.207 538.931 795.041 534.433C789.426 512.585 791.009 489.883 787.689 467.789C776.972 396.284 764.134 325.183 747.951 254.723C734.449 195.932 676.114 154.94 640.739 215.876C619.143 253.093 604.707 385.753 608.858 412.588C609.13 414.41 610.352 417.303 607.479 418.083C606.689 418.288 604.904 415.832 603.97 414.35C589.199 390.741 573.779 367.49 559.931 343.351C536.222 302.044 524.691 256.604 517.889 209.888C511.483 165.984 505.856 121.94 499.671 77.9889C497.586 63.0713 494.082 48.5878 486.907 35.0381C470.428 3.91376 443.55 -1.96931 411.38 1.13957C359.231 6.17443 317.614 32.156 278.54 64.3354C262.144 77.8434 258.452 95.7654 257.542 115.362C256.825 130.923 259.947 146.054 261.474 161.377C269.311 240.149 300.298 309.66 345.575 373.561C359.814 393.662 374.943 413.031 390.723 431.927C392.024 433.483 392.8 435.449 393.836 437.227C391.934 436.448 389.759 436.038 388.172 434.832C358.717 412.456 329.388 390.016 301.346 365.789C257.182 327.633 211.334 291.384 159.075 264.855C89.4122 229.481 33.1082 315.407 15.9788 345.313C-2.24179 377.121 -6.69436 411.09 13.4501 444.754C25.6112 465.086 41.3003 482.37 58.5387 498.5C103.876 540.892 155.284 575.716 205.048 612.189C317.157 694.388 438.774 759.783 571.18 803.917C613.158 817.902 653.102 837.148 698.722 840.497C773.654 845.999 914.023 716.49 920.393 706.714C956.107 677.773 983.446 641.612 1001.18 599.981C1012.48 573.483 1015.3 543.289 1000.51 515.46C989.775 495.256 976.185 476.987 957.588 463.095L957.606 463.081Z" fill="#FFA6A6"/>
</svg>
