<svg width="1092" height="885" viewBox="0 0 1092 885" fill="none" xmlns="http://www.w3.org/2000/svg">
<path d="M62.5268 464.42C72.986 457.489 85.0493 453.076 97.2617 455.502C119.239 459.883 140.552 467.574 158.933 480.575C184.034 498.328 200.414 523.065 211.12 551.795C213.191 557.369 215.685 564.18 224.088 563.241C231.85 562.385 230.714 555.313 232.231 550.567C239.551 527.513 239.218 503.113 244.098 479.657C259.856 403.742 277.861 328.389 299.407 253.921C317.383 191.787 382.275 151.4 416.48 218.763C437.36 259.906 444.853 402.804 438.8 431.287C438.4 433.22 436.919 436.245 439.947 437.253C440.78 437.519 442.838 434.997 443.927 433.467C461.151 409.075 479.049 385.107 495.317 360.094C523.17 317.29 538.237 269.333 548.318 219.724C557.807 173.103 566.471 126.285 575.727 79.5992C578.854 63.7528 583.472 48.4562 591.964 34.3798C611.468 2.04531 640.587 -2.64058 674.83 2.61833C730.34 11.1382 773.322 41.4526 813.21 78.2503C829.947 93.6964 832.823 113.106 832.623 134.142C832.456 150.846 828.208 166.858 825.654 183.173C812.541 267.04 775.208 339.601 722.918 405.301C706.473 425.967 689.12 445.797 671.098 465.081C669.612 466.669 668.664 468.728 667.449 470.569C669.531 469.849 671.883 469.541 673.654 468.345C706.52 446.155 739.255 423.89 770.72 399.633C820.275 361.432 871.517 325.373 929.039 300.105C1005.72 266.412 1060.82 361.788 1077.36 394.835C1094.95 429.983 1097.68 466.62 1074.1 501.453C1059.87 522.492 1042.04 540.056 1022.62 556.291C971.558 598.957 914.45 633.157 859.002 669.221C734.088 750.5 600.006 813.217 455.653 852.524C409.887 864.979 365.983 883.187 316.958 884.036C236.432 885.43 93.9719 738.348 87.7399 727.499C51.254 694.37 24.1635 654.014 7.68179 608.377C-2.82788 579.329 -4.03267 546.832 13.4705 517.926C26.1686 496.938 41.8096 478.193 62.5459 464.436L62.5268 464.42Z" fill="#FFA6A6"/>
</svg>
